M48
; DRILL file {KiCad 8.0.1} date 2024-05-02T12:54:31-0600
; FORMAT={-:-/ absolute / metric / decimal}
; #@! TF.CreationDate,2024-05-02T12:54:31-06:00
; #@! TF.GenerationSoftware,Kicad,Pcbnew,8.0.1
; #@! TF.FileFunction,MixedPlating,1,4
FMAT,2
METRIC
; #@! TA.AperFunction,Plated,PTH,ViaDrill
T1C0.300
; #@! TA.AperFunction,Plated,PTH,ComponentDrill
T2C0.950
%
G90
G05
T1
X2.286Y144.47
X2.286Y100.97
X2.286Y57.47
X2.286Y13.97
X2.667Y148.28
X2.667Y104.78
X2.667Y61.28
X2.667Y17.78
X3.175Y167.965
X3.175Y136.85
X3.175Y124.465
X3.175Y93.35
X3.175Y80.965
X3.175Y49.85
X3.175Y37.465
X3.175Y6.35
X4.445Y169.235
X4.445Y125.735
X4.445Y82.235
X4.445Y38.735
X5.08Y166.06
X5.08Y122.56
X5.08Y79.06
X5.08Y35.56
X5.715Y163.647
X5.715Y120.147
X5.715Y76.647
X5.715Y33.147
X5.842Y158.44
X5.842Y144.978
X5.842Y143.835
X5.842Y142.565
X5.842Y114.94
X5.842Y101.478
X5.842Y100.335
X5.842Y99.065
X5.842Y71.44
X5.842Y57.978
X5.842Y56.835
X5.842Y55.565
X5.842Y27.94
X5.842Y14.478
X5.842Y13.335
X5.842Y12.065
X5.969Y139.022
X5.969Y95.522
X5.969Y52.022
X5.969Y8.522
X6.35Y167.33
X6.35Y146.248
X6.35Y123.83
X6.35Y102.748
X6.35Y80.33
X6.35Y59.248
X6.35Y36.83
X6.35Y15.748
X6.985Y163.647
X6.985Y161.615
X6.985Y160.726
X6.985Y120.147
X6.985Y118.115
X6.985Y117.226
X6.985Y76.647
X6.985Y74.615
X6.985Y73.726
X6.985Y33.147
X6.985Y31.115
X6.985Y30.226
X7.366Y143.454
X7.366Y99.954
X7.366Y56.454
X7.366Y12.954
X7.62Y157.678
X7.62Y114.178
X7.62Y70.678
X7.62Y27.178
X7.747Y154.376
X7.747Y110.876
X7.747Y67.376
X7.747Y23.876
X7.861Y153.487
X7.861Y109.987
X7.861Y66.487
X7.861Y22.987
X8.255Y139.136
X8.255Y95.636
X8.255Y52.136
X8.255Y8.636
X8.382Y147.137
X8.382Y103.637
X8.382Y60.137
X8.382Y16.637
X8.509Y156.281
X8.509Y112.781
X8.509Y69.281
X8.509Y25.781
X8.636Y167.076
X8.636Y151.836
X8.636Y123.576
X8.636Y108.336
X8.636Y80.076
X8.636Y64.836
X8.636Y36.576
X8.636Y21.336
X8.687Y142.87
X8.687Y99.37
X8.687Y55.87
X8.687Y12.37
X8.903Y153.487
X8.903Y109.987
X8.903Y66.487
X8.903Y22.987
X9.525Y154.249
X9.525Y110.749
X9.525Y67.249
X9.525Y23.749
X9.652Y169.108
X9.652Y125.608
X9.652Y82.108
X9.652Y38.608
X10.16Y152.09
X10.16Y108.59
X10.16Y65.09
X10.16Y21.59
X10.236Y150.896
X10.236Y107.396
X10.236Y63.896
X10.236Y20.396
X10.414Y158.03
X10.414Y114.53
X10.414Y71.03
X10.414Y27.53
X10.668Y156.154
X10.668Y147.137
X10.668Y112.654
X10.668Y103.637
X10.668Y69.154
X10.668Y60.137
X10.668Y25.654
X10.668Y16.637
X11.176Y158.948
X11.176Y115.448
X11.176Y71.948
X11.176Y28.448
X11.684Y145.486
X11.684Y101.986
X11.684Y58.486
X11.684Y14.986
X12.192Y169.108
X12.192Y157.551
X12.192Y125.608
X12.192Y114.051
X12.192Y82.108
X12.192Y70.551
X12.192Y38.608
X12.192Y27.051
X13.208Y169.108
X13.208Y125.608
X13.208Y82.108
X13.208Y38.608
X13.716Y169.831
X13.716Y156.154
X13.716Y126.331
X13.716Y112.654
X13.716Y82.831
X13.716Y69.154
X13.716Y39.331
X13.716Y25.654
X13.97Y158.948
X13.97Y153.36
X13.97Y142.668
X13.97Y141.668
X13.97Y115.448
X13.97Y109.86
X13.97Y99.168
X13.97Y98.168
X13.97Y71.948
X13.97Y66.36
X13.97Y55.668
X13.97Y54.668
X13.97Y28.448
X13.97Y22.86
X13.97Y12.168
X13.97Y11.168
X14.097Y157.805
X14.097Y114.305
X14.097Y70.805
X14.097Y27.305
X14.351Y139.644
X14.351Y96.144
X14.351Y52.644
X14.351Y9.144
X14.478Y169.831
X14.478Y140.66
X14.478Y126.331
X14.478Y97.16
X14.478Y82.831
X14.478Y53.66
X14.478Y39.331
X14.478Y10.16
X14.91Y164.46
X14.91Y120.96
X14.91Y77.46
X14.91Y33.96
X14.986Y154.884
X14.986Y151.823
X14.986Y144.089
X14.986Y111.384
X14.986Y108.323
X14.986Y100.589
X14.986Y67.884
X14.986Y64.823
X14.986Y57.089
X14.986Y24.384
X14.986Y21.323
X14.986Y13.589
X15.367Y156.535
X15.367Y113.035
X15.367Y69.535
X15.367Y26.035
X15.621Y152.979
X15.621Y109.479
X15.621Y65.979
X15.621Y22.479
X16.129Y153.741
X16.129Y110.241
X16.129Y66.741
X16.129Y23.241
X16.256Y169.108
X16.256Y166.441
X16.256Y125.608
X16.256Y122.941
X16.256Y82.108
X16.256Y79.441
X16.256Y38.608
X16.256Y35.941
X16.383Y144.089
X16.383Y100.589
X16.383Y57.089
X16.383Y13.589
X16.637Y155.265
X16.637Y111.765
X16.637Y68.265
X16.637Y24.765
X16.764Y140.66
X16.764Y97.16
X16.764Y53.66
X16.764Y10.16
X16.891Y151.823
X16.891Y108.323
X16.891Y64.823
X16.891Y21.323
X17.653Y154.249
X17.653Y148.788
X17.653Y110.749
X17.653Y105.288
X17.653Y67.249
X17.653Y61.788
X17.653Y23.749
X17.653Y18.288
X17.78Y157.17
X17.78Y113.67
X17.78Y70.17
X17.78Y26.67
X17.907Y159.202
X17.907Y115.702
X17.907Y72.202
X17.907Y28.702
X18.034Y152.598
X18.034Y109.098
X18.034Y65.598
X18.034Y22.098
X18.288Y168.6
X18.288Y167.838
X18.288Y167.076
X18.288Y140.66
X18.288Y125.1
X18.288Y124.338
X18.288Y123.576
X18.288Y97.16
X18.288Y81.6
X18.288Y80.838
X18.288Y80.076
X18.288Y53.66
X18.288Y38.1
X18.288Y37.338
X18.288Y36.576
X18.288Y10.16
X18.542Y143.835
X18.542Y100.335
X18.542Y56.835
X18.542Y13.335
X18.923Y158.821
X18.923Y155.392
X18.923Y115.321
X18.923Y111.892
X18.923Y71.821
X18.923Y68.392
X18.923Y28.321
X18.923Y24.892
X19.05Y152.09
X19.05Y108.59
X19.05Y65.09
X19.05Y21.59
X19.618Y146.816
X19.618Y103.316
X19.618Y59.816
X19.618Y16.316
X19.685Y147.859
X19.685Y104.359
X19.685Y60.859
X19.685Y17.359
X20.066Y168.6
X20.066Y165.171
X20.066Y125.1
X20.066Y121.671
X20.066Y81.6
X20.066Y78.171
X20.066Y38.1
X20.066Y34.671
X20.193Y148.407
X20.193Y104.907
X20.193Y61.407
X20.193Y17.907
X20.32Y155.9
X20.32Y151.074
X20.32Y112.4
X20.32Y107.574
X20.32Y68.9
X20.32Y64.074
X20.32Y25.4
X20.32Y20.574
X20.955Y163.647
X20.955Y158.948
X20.955Y120.147
X20.955Y115.448
X20.955Y76.647
X20.955Y71.948
X20.955Y33.147
X20.955Y28.448
X21.082Y147.137
X21.082Y143.581
X21.082Y103.637
X21.082Y100.081
X21.082Y60.137
X21.082Y56.581
X21.082Y16.637
X21.082Y13.081
X21.209Y150.132
X21.209Y141.295
X21.209Y140.406
X21.209Y139.009
X21.209Y106.632
X21.209Y97.795
X21.209Y96.906
X21.209Y95.509
X21.209Y63.132
X21.209Y54.295
X21.209Y53.406
X21.209Y52.009
X21.209Y19.632
X21.209Y10.795
X21.209Y9.906
X21.209Y8.509
X21.336Y167.076
X21.336Y165.298
X21.336Y123.576
X21.336Y121.798
X21.336Y80.076
X21.336Y78.298
X21.336Y36.576
X21.336Y34.798
X21.971Y167.711
X21.971Y124.211
X21.971Y80.711
X21.971Y37.211
X22.606Y167.203
X22.606Y123.703
X22.606Y80.203
X22.606Y36.703
X23.114Y134.183
X23.114Y131.262
X23.114Y90.683
X23.114Y87.762
X23.114Y47.183
X23.114Y44.262
X23.114Y3.683
X23.114Y0.762
X23.242Y164.904
X23.242Y121.404
X23.242Y77.904
X23.242Y34.404
X23.368Y135.58
X23.368Y92.08
X23.368Y48.58
X23.368Y5.08
X23.381Y136.469
X23.381Y92.969
X23.381Y49.469
X23.381Y5.969
X23.495Y167.203
X23.495Y123.703
X23.495Y80.203
X23.495Y36.703
X23.749Y162.25
X23.749Y118.75
X23.749Y75.25
X23.749Y31.75
X23.99Y153.995
X23.99Y152.598
X23.99Y133.167
X23.99Y110.495
X23.99Y109.098
X23.99Y89.667
X23.99Y66.995
X23.99Y65.598
X23.99Y46.167
X23.99Y23.495
X23.99Y22.098
X23.99Y2.667
X24.003Y155.772
X24.003Y143.708
X24.003Y112.272
X24.003Y100.208
X24.003Y68.772
X24.003Y56.708
X24.003Y25.272
X24.003Y13.208
X24.13Y159.71
X24.13Y149.55
X24.13Y141.422
X24.13Y116.21
X24.13Y106.05
X24.13Y97.922
X24.13Y72.71
X24.13Y62.55
X24.13Y54.422
X24.13Y29.21
X24.13Y19.05
X24.13Y10.922
X24.257Y140.406
X24.257Y96.906
X24.257Y53.406
X24.257Y9.906
X24.384Y142.946
X24.384Y138.958
X24.384Y99.446
X24.384Y95.458
X24.384Y55.946
X24.384Y51.958
X24.384Y12.446
X24.384Y8.458
X24.511Y154.63
X24.511Y148.915
X24.511Y132.532
X24.511Y111.13
X24.511Y105.415
X24.511Y89.032
X24.511Y67.63
X24.511Y61.915
X24.511Y45.532
X24.511Y24.13
X24.511Y18.415
X24.511Y2.032
X24.524Y147.007
X24.524Y103.507
X24.524Y60.007
X24.524Y16.507
X25.273Y167.33
X25.273Y123.83
X25.273Y80.33
X25.273Y36.83
X25.285Y166.453
X25.285Y122.953
X25.285Y79.453
X25.285Y35.953
X25.286Y165.679
X25.286Y122.179
X25.286Y78.679
X25.286Y35.179
X25.466Y144.0
X25.466Y100.5
X25.466Y57.0
X25.466Y13.5
X25.527Y141.168
X25.527Y97.668
X25.527Y54.168
X25.527Y10.668
X25.654Y151.836
X25.654Y150.185
X25.654Y108.336
X25.654Y106.685
X25.654Y64.836
X25.654Y63.185
X25.654Y21.336
X25.654Y19.685
X25.908Y136.215
X25.908Y134.945
X25.908Y92.715
X25.908Y91.445
X25.908Y49.215
X25.908Y47.945
X25.908Y5.715
X25.908Y4.445
X26.035Y165.044
X26.035Y121.544
X26.035Y78.044
X26.035Y34.544
X26.289Y162.25
X26.289Y118.75
X26.289Y75.25
X26.289Y31.75
X26.67Y167.711
X26.67Y166.187
X26.67Y124.211
X26.67Y122.687
X26.67Y80.711
X26.67Y79.187
X26.67Y37.211
X26.67Y35.687
X27.305Y160.345
X27.305Y159.075
X27.305Y157.805
X27.305Y155.265
X27.305Y151.455
X27.305Y145.105
X27.305Y136.215
X27.305Y133.675
X27.305Y116.845
X27.305Y115.575
X27.305Y114.305
X27.305Y111.765
X27.305Y107.955
X27.305Y101.605
X27.305Y92.715
X27.305Y90.175
X27.305Y73.345
X27.305Y72.075
X27.305Y70.805
X27.305Y68.265
X27.305Y64.455
X27.305Y58.105
X27.305Y49.215
X27.305Y46.675
X27.305Y29.845
X27.305Y28.575
X27.305Y27.305
X27.305Y24.765
X27.305Y20.955
X27.305Y14.605
X27.305Y5.715
X27.305Y3.175
X27.94Y167.965
X27.94Y166.695
X27.94Y165.298
X27.94Y124.465
X27.94Y123.195
X27.94Y121.798
X27.94Y80.965
X27.94Y79.695
X27.94Y78.298
X27.94Y37.465
X27.94Y36.195
X27.94Y34.798
X28.575Y159.075
X28.575Y157.805
X28.575Y155.265
X28.575Y151.455
X28.575Y147.645
X28.575Y136.215
X28.575Y133.675
X28.575Y115.575
X28.575Y114.305
X28.575Y111.765
X28.575Y107.955
X28.575Y104.145
X28.575Y92.715
X28.575Y90.175
X28.575Y72.075
X28.575Y70.805
X28.575Y68.265
X28.575Y64.455
X28.575Y60.645
X28.575Y49.215
X28.575Y46.675
X28.575Y28.575
X28.575Y27.305
X28.575Y24.765
X28.575Y20.955
X28.575Y17.145
X28.575Y5.715
X28.575Y3.175
X29.083Y165.679
X29.083Y162.123
X29.083Y122.179
X29.083Y118.623
X29.083Y78.679
X29.083Y75.123
X29.083Y35.179
X29.083Y31.623
X29.591Y132.037
X29.591Y88.537
X29.591Y45.037
X29.591Y1.537
X29.845Y161.742
X29.845Y160.345
X29.845Y159.075
X29.845Y157.805
X29.845Y118.242
X29.845Y116.845
X29.845Y115.575
X29.845Y114.305
X29.845Y74.742
X29.845Y73.345
X29.845Y72.075
X29.845Y70.805
X29.845Y31.242
X29.845Y29.845
X29.845Y28.575
X29.845Y27.305
X29.972Y141.295
X29.972Y97.795
X29.972Y54.295
X29.972Y10.795
X30.226Y145.867
X30.226Y102.367
X30.226Y58.867
X30.226Y15.367
X30.861Y153.22
X30.861Y109.72
X30.861Y66.22
X30.861Y22.72
X30.941Y156.294
X30.941Y112.794
X30.941Y69.294
X30.941Y25.794
X31.115Y161.742
X31.115Y160.345
X31.115Y159.075
X31.115Y136.85
X31.115Y134.945
X31.115Y133.675
X31.115Y118.242
X31.115Y116.845
X31.115Y115.575
X31.115Y93.35
X31.115Y91.445
X31.115Y90.175
X31.115Y74.742
X31.115Y73.345
X31.115Y72.075
X31.115Y49.85
X31.115Y47.945
X31.115Y46.675
X31.115Y31.242
X31.115Y29.845
X31.115Y28.575
X31.115Y6.35
X31.115Y4.445
X31.115Y3.175
X31.369Y138.628
X31.369Y95.128
X31.369Y51.628
X31.369Y8.128
X31.704Y137.55
X31.704Y94.05
X31.704Y50.55
X31.704Y7.05
X31.75Y156.294
X31.75Y152.598
X31.75Y151.328
X31.75Y112.794
X31.75Y109.098
X31.75Y107.828
X31.75Y69.294
X31.75Y65.598
X31.75Y64.328
X31.75Y25.794
X31.75Y22.098
X31.75Y20.828
X31.877Y165.679
X31.877Y147.518
X31.877Y122.179
X31.877Y104.018
X31.877Y78.679
X31.877Y60.518
X31.877Y35.179
X31.877Y17.018
X32.004Y164.663
X32.004Y163.774
X32.004Y162.123
X32.004Y121.163
X32.004Y120.274
X32.004Y118.623
X32.004Y77.663
X32.004Y76.774
X32.004Y75.123
X32.004Y34.163
X32.004Y33.274
X32.004Y31.623
X32.131Y138.12
X32.131Y94.62
X32.131Y51.12
X32.131Y7.62
X32.385Y159.075
X32.385Y134.945
X32.385Y115.575
X32.385Y91.445
X32.385Y72.075
X32.385Y47.945
X32.385Y28.575
X32.385Y4.445
X32.766Y141.168
X32.766Y97.668
X32.766Y54.168
X32.766Y10.668
X33.013Y150.7
X33.013Y107.2
X33.013Y63.7
X33.013Y20.2
X33.02Y167.965
X33.02Y166.695
X33.02Y165.298
X33.02Y137.358
X33.02Y124.465
X33.02Y123.195
X33.02Y121.798
X33.02Y93.858
X33.02Y80.965
X33.02Y79.695
X33.02Y78.298
X33.02Y50.358
X33.02Y37.465
X33.02Y36.195
X33.02Y34.798
X33.02Y6.858
X33.528Y143.581
X33.528Y100.081
X33.528Y56.581
X33.528Y13.081
X34.29Y164.663
X34.29Y149.55
X34.29Y141.14
X34.29Y121.163
X34.29Y106.05
X34.29Y97.64
X34.29Y77.663
X34.29Y62.55
X34.29Y54.14
X34.29Y34.163
X34.29Y19.05
X34.29Y10.64
X34.544Y151.717
X34.544Y108.217
X34.544Y64.717
X34.544Y21.217
X34.671Y138.12
X34.671Y94.62
X34.671Y51.12
X34.671Y7.62
X34.798Y144.47
X34.798Y100.97
X34.798Y57.47
X34.798Y13.97
X34.925Y153.22
X34.925Y136.315
X34.925Y133.675
X34.925Y109.72
X34.925Y92.815
X34.925Y90.175
X34.925Y66.22
X34.925Y49.315
X34.925Y46.675
X34.925Y22.72
X34.925Y5.815
X34.925Y3.175
X35.179Y170.378
X35.179Y149.55
X35.179Y147.518
X35.179Y126.878
X35.179Y106.05
X35.179Y104.018
X35.179Y83.378
X35.179Y62.55
X35.179Y60.518
X35.179Y39.878
X35.179Y19.05
X35.179Y17.018
X35.56Y161.996
X35.56Y118.496
X35.56Y74.996
X35.56Y31.496
X35.687Y152.725
X35.687Y136.837
X35.687Y109.225
X35.687Y93.337
X35.687Y65.725
X35.687Y49.837
X35.687Y22.225
X35.687Y6.337
X35.941Y167.33
X35.941Y165.044
X35.941Y164.282
X35.941Y163.521
X35.941Y142.946
X35.941Y123.83
X35.941Y121.544
X35.941Y120.782
X35.941Y120.021
X35.941Y99.446
X35.941Y80.33
X35.941Y78.044
X35.941Y77.282
X35.941Y76.521
X35.941Y55.946
X35.941Y36.83
X35.941Y34.544
X35.941Y33.782
X35.941Y33.021
X35.941Y12.446
X36.068Y145.105
X36.068Y140.406
X36.068Y101.605
X36.068Y96.906
X36.068Y58.105
X36.068Y53.406
X36.068Y14.605
X36.068Y9.906
X36.195Y159.075
X36.195Y134.945
X36.195Y115.575
X36.195Y91.445
X36.195Y72.075
X36.195Y47.945
X36.195Y28.575
X36.195Y4.445
X36.449Y138.628
X36.449Y95.128
X36.449Y51.628
X36.449Y8.128
X36.576Y148.28
X36.576Y104.78
X36.576Y61.28
X36.576Y17.78
X36.83Y167.203
X36.83Y123.703
X36.83Y80.203
X36.83Y36.703
X37.338Y148.28
X37.338Y104.78
X37.338Y61.28
X37.338Y17.78
X37.465Y160.345
X37.465Y116.845
X37.465Y73.345
X37.465Y29.845
X37.592Y167.203
X37.592Y123.703
X37.592Y80.203
X37.592Y36.703
X38.1Y140.025
X38.1Y96.525
X38.1Y53.025
X38.1Y9.525
X38.354Y167.203
X38.354Y123.703
X38.354Y80.203
X38.354Y36.703
X38.735Y169.108
X38.735Y159.075
X38.735Y133.675
X38.735Y132.278
X38.735Y125.608
X38.735Y115.575
X38.735Y90.175
X38.735Y88.778
X38.735Y82.108
X38.735Y72.075
X38.735Y46.675
X38.735Y45.278
X38.735Y38.608
X38.735Y28.575
X38.735Y3.175
X38.735Y1.778
X38.989Y165.044
X38.989Y121.544
X38.989Y78.044
X38.989Y34.544
X39.116Y140.152
X39.116Y96.652
X39.116Y53.152
X39.116Y9.652
X39.497Y167.203
X39.497Y123.703
X39.497Y80.203
X39.497Y36.703
X39.624Y148.28
X39.624Y104.78
X39.624Y61.28
X39.624Y17.78
X39.878Y145.105
X39.878Y144.216
X39.878Y101.605
X39.878Y100.716
X39.878Y58.105
X39.878Y57.216
X39.878Y14.605
X39.878Y13.716
X40.005Y133.675
X40.005Y90.175
X40.005Y46.675
X40.005Y3.175
X40.513Y147.137
X40.513Y139.39
X40.513Y103.637
X40.513Y95.89
X40.513Y60.137
X40.513Y52.39
X40.513Y16.637
X40.513Y8.89
X40.64Y166.949
X40.64Y165.044
X40.64Y152.598
X40.64Y123.449
X40.64Y121.544
X40.64Y109.098
X40.64Y79.949
X40.64Y78.044
X40.64Y65.598
X40.64Y36.449
X40.64Y34.544
X40.64Y22.098
X40.767Y163.139
X40.767Y119.639
X40.767Y76.139
X40.767Y32.639
X41.529Y164.93
X41.529Y121.43
X41.529Y77.93
X41.529Y34.43
X41.656Y149.931
X41.656Y106.431
X41.656Y62.931
X41.656Y19.431
X41.91Y132.278
X41.91Y88.778
X41.91Y45.278
X41.91Y1.778
X42.164Y153.22
X42.164Y109.72
X42.164Y66.22
X42.164Y22.72
X42.291Y165.806
X42.291Y122.306
X42.291Y78.806
X42.291Y35.306
X42.545Y150.058
X42.545Y133.675
X42.545Y106.558
X42.545Y90.175
X42.545Y63.058
X42.545Y46.675
X42.545Y19.558
X42.545Y3.175
X43.815Y161.869
X43.815Y138.628
X43.815Y118.369
X43.815Y95.128
X43.815Y74.869
X43.815Y51.628
X43.815Y31.369
X43.815Y8.128
X44.323Y149.169
X44.323Y105.669
X44.323Y62.169
X44.323Y18.669
X45.085Y159.075
X45.085Y132.278
X45.085Y115.575
X45.085Y88.778
X45.085Y72.075
X45.085Y45.278
X45.085Y28.575
X45.085Y1.778
X45.72Y161.996
X45.72Y147.391
X45.72Y118.496
X45.72Y103.891
X45.72Y74.996
X45.72Y60.391
X45.72Y31.496
X45.72Y16.891
X46.228Y169.743
X46.228Y126.243
X46.228Y82.743
X46.228Y39.243
X46.355Y160.345
X46.355Y132.278
X46.355Y116.845
X46.355Y88.778
X46.355Y73.345
X46.355Y45.278
X46.355Y29.845
X46.355Y1.778
X46.609Y139.644
X46.609Y96.144
X46.609Y52.644
X46.609Y9.144
X46.736Y152.101
X46.736Y108.601
X46.736Y65.101
X46.736Y21.601
X47.498Y163.533
X47.498Y120.033
X47.498Y76.533
X47.498Y33.033
X47.625Y159.075
X47.625Y134.868
X47.625Y133.662
X47.625Y115.575
X47.625Y91.368
X47.625Y90.162
X47.625Y72.075
X47.625Y47.868
X47.625Y46.662
X47.625Y28.575
X47.625Y4.368
X47.625Y3.162
X48.006Y152.09
X48.006Y108.59
X48.006Y65.09
X48.006Y21.59
X48.26Y163.533
X48.26Y150.185
X48.26Y149.23
X48.26Y148.28
X48.26Y120.033
X48.26Y106.685
X48.26Y105.73
X48.26Y104.78
X48.26Y76.533
X48.26Y63.185
X48.26Y62.23
X48.26Y61.28
X48.26Y33.033
X48.26Y19.685
X48.26Y18.73
X48.26Y17.78
X48.514Y151.341
X48.514Y107.841
X48.514Y64.341
X48.514Y20.841
X48.641Y153.714
X48.641Y110.214
X48.641Y66.714
X48.641Y23.214
X48.895Y160.345
X48.895Y133.675
X48.895Y116.845
X48.895Y90.175
X48.895Y73.345
X48.895Y46.675
X48.895Y29.845
X48.895Y3.175
X49.022Y154.871
X49.022Y111.371
X49.022Y67.871
X49.022Y24.371
X49.212Y151.772
X49.212Y108.272
X49.212Y64.772
X49.212Y21.272
X49.657Y157.297
X49.657Y152.979
X49.657Y113.797
X49.657Y109.479
X49.657Y70.297
X49.657Y65.979
X49.657Y26.797
X49.657Y22.479
X50.038Y154.757
X50.038Y111.257
X50.038Y67.757
X50.038Y24.257
X50.165Y159.075
X50.165Y134.868
X50.165Y115.575
X50.165Y91.368
X50.165Y72.075
X50.165Y47.868
X50.165Y28.575
X50.165Y4.368
X50.673Y157.297
X50.673Y155.265
X50.673Y113.797
X50.673Y111.765
X50.673Y70.297
X50.673Y68.265
X50.673Y26.797
X50.673Y24.765
X50.8Y161.996
X50.8Y118.496
X50.8Y74.996
X50.8Y31.496
X51.435Y133.675
X51.435Y90.175
X51.435Y46.675
X51.435Y3.175
X52.07Y161.996
X52.07Y118.496
X52.07Y74.996
X52.07Y31.496
X52.705Y159.075
X52.705Y138.755
X52.705Y136.215
X52.705Y115.575
X52.705Y95.255
X52.705Y92.715
X52.705Y72.075
X52.705Y51.755
X52.705Y49.215
X52.705Y28.575
X52.705Y8.255
X52.705Y5.715
X53.975Y160.345
X53.975Y157.805
X53.975Y152.725
X53.975Y148.915
X53.975Y143.835
X53.975Y141.295
X53.975Y116.845
X53.975Y114.305
X53.975Y109.225
X53.975Y105.415
X53.975Y100.335
X53.975Y97.795
X53.975Y73.345
X53.975Y70.805
X53.975Y65.725
X53.975Y61.915
X53.975Y56.835
X53.975Y54.295
X53.975Y29.845
X53.975Y27.305
X53.975Y22.225
X53.975Y18.415
X53.975Y13.335
X53.975Y10.795
X55.88Y169.489
X55.88Y133.04
X55.88Y125.989
X55.88Y89.54
X55.88Y82.489
X55.88Y46.04
X55.88Y38.989
X55.88Y2.54
X62.286Y144.47
X62.286Y100.97
X62.286Y57.47
X62.286Y13.97
X62.667Y148.28
X62.667Y104.78
X62.667Y61.28
X62.667Y17.78
X63.175Y167.965
X63.175Y136.85
X63.175Y124.465
X63.175Y93.35
X63.175Y80.965
X63.175Y49.85
X63.175Y37.465
X63.175Y6.35
X64.445Y169.235
X64.445Y125.735
X64.445Y82.235
X64.445Y38.735
X65.08Y166.06
X65.08Y122.56
X65.08Y79.06
X65.08Y35.56
X65.715Y163.647
X65.715Y120.147
X65.715Y76.647
X65.715Y33.147
X65.842Y158.44
X65.842Y144.978
X65.842Y143.835
X65.842Y142.565
X65.842Y114.94
X65.842Y101.478
X65.842Y100.335
X65.842Y99.065
X65.842Y71.44
X65.842Y57.978
X65.842Y56.835
X65.842Y55.565
X65.842Y27.94
X65.842Y14.478
X65.842Y13.335
X65.842Y12.065
X65.969Y139.022
X65.969Y95.522
X65.969Y52.022
X65.969Y8.522
X66.35Y167.33
X66.35Y146.248
X66.35Y123.83
X66.35Y102.748
X66.35Y80.33
X66.35Y59.248
X66.35Y36.83
X66.35Y15.748
X66.985Y163.647
X66.985Y161.615
X66.985Y160.726
X66.985Y120.147
X66.985Y118.115
X66.985Y117.226
X66.985Y76.647
X66.985Y74.615
X66.985Y73.726
X66.985Y33.147
X66.985Y31.115
X66.985Y30.226
X67.366Y143.454
X67.366Y99.954
X67.366Y56.454
X67.366Y12.954
X67.62Y157.678
X67.62Y114.178
X67.62Y70.678
X67.62Y27.178
X67.747Y154.376
X67.747Y110.876
X67.747Y67.376
X67.747Y23.876
X67.861Y153.487
X67.861Y109.987
X67.861Y66.487
X67.861Y22.987
X68.255Y139.136
X68.255Y95.636
X68.255Y52.136
X68.255Y8.636
X68.382Y147.137
X68.382Y103.637
X68.382Y60.137
X68.382Y16.637
X68.509Y156.281
X68.509Y112.781
X68.509Y69.281
X68.509Y25.781
X68.636Y167.076
X68.636Y151.836
X68.636Y123.576
X68.636Y108.336
X68.636Y80.076
X68.636Y64.836
X68.636Y36.576
X68.636Y21.336
X68.687Y142.87
X68.687Y99.37
X68.687Y55.87
X68.687Y12.37
X68.903Y153.487
X68.903Y109.987
X68.903Y66.487
X68.903Y22.987
X69.525Y154.249
X69.525Y110.749
X69.525Y67.249
X69.525Y23.749
X69.652Y169.108
X69.652Y125.608
X69.652Y82.108
X69.652Y38.608
X70.16Y152.09
X70.16Y108.59
X70.16Y65.09
X70.16Y21.59
X70.236Y150.896
X70.236Y107.396
X70.236Y63.896
X70.236Y20.396
X70.414Y158.03
X70.414Y114.53
X70.414Y71.03
X70.414Y27.53
X70.668Y156.154
X70.668Y147.137
X70.668Y112.654
X70.668Y103.637
X70.668Y69.154
X70.668Y60.137
X70.668Y25.654
X70.668Y16.637
X71.176Y158.948
X71.176Y115.448
X71.176Y71.948
X71.176Y28.448
X71.684Y145.486
X71.684Y101.986
X71.684Y58.486
X71.684Y14.986
X72.192Y169.108
X72.192Y157.551
X72.192Y125.608
X72.192Y114.051
X72.192Y82.108
X72.192Y70.551
X72.192Y38.608
X72.192Y27.051
X73.208Y169.108
X73.208Y125.608
X73.208Y82.108
X73.208Y38.608
X73.716Y169.831
X73.716Y156.154
X73.716Y126.331
X73.716Y112.654
X73.716Y82.831
X73.716Y69.154
X73.716Y39.331
X73.716Y25.654
X73.97Y158.948
X73.97Y153.36
X73.97Y142.668
X73.97Y141.668
X73.97Y115.448
X73.97Y109.86
X73.97Y99.168
X73.97Y98.168
X73.97Y71.948
X73.97Y66.36
X73.97Y55.668
X73.97Y54.668
X73.97Y28.448
X73.97Y22.86
X73.97Y12.168
X73.97Y11.168
X74.097Y157.805
X74.097Y114.305
X74.097Y70.805
X74.097Y27.305
X74.351Y139.644
X74.351Y96.144
X74.351Y52.644
X74.351Y9.144
X74.478Y169.831
X74.478Y140.66
X74.478Y126.331
X74.478Y97.16
X74.478Y82.831
X74.478Y53.66
X74.478Y39.331
X74.478Y10.16
X74.91Y164.46
X74.91Y120.96
X74.91Y77.46
X74.91Y33.96
X74.986Y154.884
X74.986Y151.823
X74.986Y144.089
X74.986Y111.384
X74.986Y108.323
X74.986Y100.589
X74.986Y67.884
X74.986Y64.823
X74.986Y57.089
X74.986Y24.384
X74.986Y21.323
X74.986Y13.589
X75.367Y156.535
X75.367Y113.035
X75.367Y69.535
X75.367Y26.035
X75.621Y152.979
X75.621Y109.479
X75.621Y65.979
X75.621Y22.479
X76.129Y153.741
X76.129Y110.241
X76.129Y66.741
X76.129Y23.241
X76.256Y169.108
X76.256Y166.441
X76.256Y125.608
X76.256Y122.941
X76.256Y82.108
X76.256Y79.441
X76.256Y38.608
X76.256Y35.941
X76.383Y144.089
X76.383Y100.589
X76.383Y57.089
X76.383Y13.589
X76.637Y155.265
X76.637Y111.765
X76.637Y68.265
X76.637Y24.765
X76.764Y140.66
X76.764Y97.16
X76.764Y53.66
X76.764Y10.16
X76.891Y151.823
X76.891Y108.323
X76.891Y64.823
X76.891Y21.323
X77.653Y154.249
X77.653Y148.788
X77.653Y110.749
X77.653Y105.288
X77.653Y67.249
X77.653Y61.788
X77.653Y23.749
X77.653Y18.288
X77.78Y157.17
X77.78Y113.67
X77.78Y70.17
X77.78Y26.67
X77.907Y159.202
X77.907Y115.702
X77.907Y72.202
X77.907Y28.702
X78.034Y152.598
X78.034Y109.098
X78.034Y65.598
X78.034Y22.098
X78.288Y168.6
X78.288Y167.838
X78.288Y167.076
X78.288Y140.66
X78.288Y125.1
X78.288Y124.338
X78.288Y123.576
X78.288Y97.16
X78.288Y81.6
X78.288Y80.838
X78.288Y80.076
X78.288Y53.66
X78.288Y38.1
X78.288Y37.338
X78.288Y36.576
X78.288Y10.16
X78.542Y143.835
X78.542Y100.335
X78.542Y56.835
X78.542Y13.335
X78.923Y158.821
X78.923Y155.392
X78.923Y115.321
X78.923Y111.892
X78.923Y71.821
X78.923Y68.392
X78.923Y28.321
X78.923Y24.892
X79.05Y152.09
X79.05Y108.59
X79.05Y65.09
X79.05Y21.59
X79.618Y146.816
X79.618Y103.316
X79.618Y59.816
X79.618Y16.316
X79.685Y147.859
X79.685Y104.359
X79.685Y60.859
X79.685Y17.359
X80.066Y168.6
X80.066Y165.171
X80.066Y125.1
X80.066Y121.671
X80.066Y81.6
X80.066Y78.171
X80.066Y38.1
X80.066Y34.671
X80.193Y148.407
X80.193Y104.907
X80.193Y61.407
X80.193Y17.907
X80.32Y155.9
X80.32Y151.074
X80.32Y112.4
X80.32Y107.574
X80.32Y68.9
X80.32Y64.074
X80.32Y25.4
X80.32Y20.574
X80.955Y163.647
X80.955Y158.948
X80.955Y120.147
X80.955Y115.448
X80.955Y76.647
X80.955Y71.948
X80.955Y33.147
X80.955Y28.448
X81.082Y147.137
X81.082Y143.581
X81.082Y103.637
X81.082Y100.081
X81.082Y60.137
X81.082Y56.581
X81.082Y16.637
X81.082Y13.081
X81.209Y150.132
X81.209Y141.295
X81.209Y140.406
X81.209Y139.009
X81.209Y106.632
X81.209Y97.795
X81.209Y96.906
X81.209Y95.509
X81.209Y63.132
X81.209Y54.295
X81.209Y53.406
X81.209Y52.009
X81.209Y19.632
X81.209Y10.795
X81.209Y9.906
X81.209Y8.509
X81.336Y167.076
X81.336Y165.298
X81.336Y123.576
X81.336Y121.798
X81.336Y80.076
X81.336Y78.298
X81.336Y36.576
X81.336Y34.798
X81.971Y167.711
X81.971Y124.211
X81.971Y80.711
X81.971Y37.211
X82.606Y167.203
X82.606Y123.703
X82.606Y80.203
X82.606Y36.703
X83.114Y134.183
X83.114Y131.262
X83.114Y90.683
X83.114Y87.762
X83.114Y47.183
X83.114Y44.262
X83.114Y3.683
X83.114Y0.762
X83.242Y164.904
X83.242Y121.404
X83.242Y77.904
X83.242Y34.404
X83.368Y135.58
X83.368Y92.08
X83.368Y48.58
X83.368Y5.08
X83.381Y136.469
X83.381Y92.969
X83.381Y49.469
X83.381Y5.969
X83.495Y167.203
X83.495Y123.703
X83.495Y80.203
X83.495Y36.703
X83.749Y162.25
X83.749Y118.75
X83.749Y75.25
X83.749Y31.75
X83.99Y153.995
X83.99Y152.598
X83.99Y133.167
X83.99Y110.495
X83.99Y109.098
X83.99Y89.667
X83.99Y66.995
X83.99Y65.598
X83.99Y46.167
X83.99Y23.495
X83.99Y22.098
X83.99Y2.667
X84.003Y155.772
X84.003Y143.708
X84.003Y112.272
X84.003Y100.208
X84.003Y68.772
X84.003Y56.708
X84.003Y25.272
X84.003Y13.208
X84.13Y159.71
X84.13Y149.55
X84.13Y141.422
X84.13Y116.21
X84.13Y106.05
X84.13Y97.922
X84.13Y72.71
X84.13Y62.55
X84.13Y54.422
X84.13Y29.21
X84.13Y19.05
X84.13Y10.922
X84.257Y140.406
X84.257Y96.906
X84.257Y53.406
X84.257Y9.906
X84.384Y142.946
X84.384Y138.958
X84.384Y99.446
X84.384Y95.458
X84.384Y55.946
X84.384Y51.958
X84.384Y12.446
X84.384Y8.458
X84.511Y154.63
X84.511Y148.915
X84.511Y132.532
X84.511Y111.13
X84.511Y105.415
X84.511Y89.032
X84.511Y67.63
X84.511Y61.915
X84.511Y45.532
X84.511Y24.13
X84.511Y18.415
X84.511Y2.032
X84.524Y147.007
X84.524Y103.507
X84.524Y60.007
X84.524Y16.507
X85.273Y167.33
X85.273Y123.83
X85.273Y80.33
X85.273Y36.83
X85.285Y166.453
X85.285Y122.953
X85.285Y79.453
X85.285Y35.953
X85.286Y165.679
X85.286Y122.179
X85.286Y78.679
X85.286Y35.179
X85.466Y144.0
X85.466Y100.5
X85.466Y57.0
X85.466Y13.5
X85.527Y141.168
X85.527Y97.668
X85.527Y54.168
X85.527Y10.668
X85.654Y151.836
X85.654Y150.185
X85.654Y108.336
X85.654Y106.685
X85.654Y64.836
X85.654Y63.185
X85.654Y21.336
X85.654Y19.685
X85.908Y136.215
X85.908Y134.945
X85.908Y92.715
X85.908Y91.445
X85.908Y49.215
X85.908Y47.945
X85.908Y5.715
X85.908Y4.445
X86.035Y165.044
X86.035Y121.544
X86.035Y78.044
X86.035Y34.544
X86.289Y162.25
X86.289Y118.75
X86.289Y75.25
X86.289Y31.75
X86.67Y167.711
X86.67Y166.187
X86.67Y124.211
X86.67Y122.687
X86.67Y80.711
X86.67Y79.187
X86.67Y37.211
X86.67Y35.687
X87.305Y160.345
X87.305Y159.075
X87.305Y157.805
X87.305Y155.265
X87.305Y151.455
X87.305Y145.105
X87.305Y136.215
X87.305Y133.675
X87.305Y116.845
X87.305Y115.575
X87.305Y114.305
X87.305Y111.765
X87.305Y107.955
X87.305Y101.605
X87.305Y92.715
X87.305Y90.175
X87.305Y73.345
X87.305Y72.075
X87.305Y70.805
X87.305Y68.265
X87.305Y64.455
X87.305Y58.105
X87.305Y49.215
X87.305Y46.675
X87.305Y29.845
X87.305Y28.575
X87.305Y27.305
X87.305Y24.765
X87.305Y20.955
X87.305Y14.605
X87.305Y5.715
X87.305Y3.175
X87.94Y167.965
X87.94Y166.695
X87.94Y165.298
X87.94Y124.465
X87.94Y123.195
X87.94Y121.798
X87.94Y80.965
X87.94Y79.695
X87.94Y78.298
X87.94Y37.465
X87.94Y36.195
X87.94Y34.798
X88.575Y159.075
X88.575Y157.805
X88.575Y155.265
X88.575Y151.455
X88.575Y147.645
X88.575Y136.215
X88.575Y133.675
X88.575Y115.575
X88.575Y114.305
X88.575Y111.765
X88.575Y107.955
X88.575Y104.145
X88.575Y92.715
X88.575Y90.175
X88.575Y72.075
X88.575Y70.805
X88.575Y68.265
X88.575Y64.455
X88.575Y60.645
X88.575Y49.215
X88.575Y46.675
X88.575Y28.575
X88.575Y27.305
X88.575Y24.765
X88.575Y20.955
X88.575Y17.145
X88.575Y5.715
X88.575Y3.175
X89.083Y165.679
X89.083Y162.123
X89.083Y122.179
X89.083Y118.623
X89.083Y78.679
X89.083Y75.123
X89.083Y35.179
X89.083Y31.623
X89.591Y132.037
X89.591Y88.537
X89.591Y45.037
X89.591Y1.537
X89.845Y161.742
X89.845Y160.345
X89.845Y159.075
X89.845Y157.805
X89.845Y118.242
X89.845Y116.845
X89.845Y115.575
X89.845Y114.305
X89.845Y74.742
X89.845Y73.345
X89.845Y72.075
X89.845Y70.805
X89.845Y31.242
X89.845Y29.845
X89.845Y28.575
X89.845Y27.305
X89.972Y141.295
X89.972Y97.795
X89.972Y54.295
X89.972Y10.795
X90.226Y145.867
X90.226Y102.367
X90.226Y58.867
X90.226Y15.367
X90.861Y153.22
X90.861Y109.72
X90.861Y66.22
X90.861Y22.72
X90.941Y156.294
X90.941Y112.794
X90.941Y69.294
X90.941Y25.794
X91.115Y161.742
X91.115Y160.345
X91.115Y159.075
X91.115Y136.85
X91.115Y134.945
X91.115Y133.675
X91.115Y118.242
X91.115Y116.845
X91.115Y115.575
X91.115Y93.35
X91.115Y91.445
X91.115Y90.175
X91.115Y74.742
X91.115Y73.345
X91.115Y72.075
X91.115Y49.85
X91.115Y47.945
X91.115Y46.675
X91.115Y31.242
X91.115Y29.845
X91.115Y28.575
X91.115Y6.35
X91.115Y4.445
X91.115Y3.175
X91.369Y138.628
X91.369Y95.128
X91.369Y51.628
X91.369Y8.128
X91.704Y137.55
X91.704Y94.05
X91.704Y50.55
X91.704Y7.05
X91.75Y156.294
X91.75Y152.598
X91.75Y151.328
X91.75Y112.794
X91.75Y109.098
X91.75Y107.828
X91.75Y69.294
X91.75Y65.598
X91.75Y64.328
X91.75Y25.794
X91.75Y22.098
X91.75Y20.828
X91.877Y165.679
X91.877Y147.518
X91.877Y122.179
X91.877Y104.018
X91.877Y78.679
X91.877Y60.518
X91.877Y35.179
X91.877Y17.018
X92.004Y164.663
X92.004Y163.774
X92.004Y162.123
X92.004Y121.163
X92.004Y120.274
X92.004Y118.623
X92.004Y77.663
X92.004Y76.774
X92.004Y75.123
X92.004Y34.163
X92.004Y33.274
X92.004Y31.623
X92.131Y138.12
X92.131Y94.62
X92.131Y51.12
X92.131Y7.62
X92.385Y159.075
X92.385Y134.945
X92.385Y115.575
X92.385Y91.445
X92.385Y72.075
X92.385Y47.945
X92.385Y28.575
X92.385Y4.445
X92.766Y141.168
X92.766Y97.668
X92.766Y54.168
X92.766Y10.668
X93.013Y150.7
X93.013Y107.2
X93.013Y63.7
X93.013Y20.2
X93.02Y167.965
X93.02Y166.695
X93.02Y165.298
X93.02Y137.358
X93.02Y124.465
X93.02Y123.195
X93.02Y121.798
X93.02Y93.858
X93.02Y80.965
X93.02Y79.695
X93.02Y78.298
X93.02Y50.358
X93.02Y37.465
X93.02Y36.195
X93.02Y34.798
X93.02Y6.858
X93.528Y143.581
X93.528Y100.081
X93.528Y56.581
X93.528Y13.081
X94.29Y164.663
X94.29Y149.55
X94.29Y141.14
X94.29Y121.163
X94.29Y106.05
X94.29Y97.64
X94.29Y77.663
X94.29Y62.55
X94.29Y54.14
X94.29Y34.163
X94.29Y19.05
X94.29Y10.64
X94.544Y151.717
X94.544Y108.217
X94.544Y64.717
X94.544Y21.217
X94.671Y138.12
X94.671Y94.62
X94.671Y51.12
X94.671Y7.62
X94.798Y144.47
X94.798Y100.97
X94.798Y57.47
X94.798Y13.97
X94.925Y153.22
X94.925Y136.315
X94.925Y133.675
X94.925Y109.72
X94.925Y92.815
X94.925Y90.175
X94.925Y66.22
X94.925Y49.315
X94.925Y46.675
X94.925Y22.72
X94.925Y5.815
X94.925Y3.175
X95.179Y170.378
X95.179Y149.55
X95.179Y147.518
X95.179Y126.878
X95.179Y106.05
X95.179Y104.018
X95.179Y83.378
X95.179Y62.55
X95.179Y60.518
X95.179Y39.878
X95.179Y19.05
X95.179Y17.018
X95.56Y161.996
X95.56Y118.496
X95.56Y74.996
X95.56Y31.496
X95.687Y152.725
X95.687Y136.837
X95.687Y109.225
X95.687Y93.337
X95.687Y65.725
X95.687Y49.837
X95.687Y22.225
X95.687Y6.337
X95.941Y167.33
X95.941Y165.044
X95.941Y164.282
X95.941Y163.521
X95.941Y142.946
X95.941Y123.83
X95.941Y121.544
X95.941Y120.782
X95.941Y120.021
X95.941Y99.446
X95.941Y80.33
X95.941Y78.044
X95.941Y77.282
X95.941Y76.521
X95.941Y55.946
X95.941Y36.83
X95.941Y34.544
X95.941Y33.782
X95.941Y33.021
X95.941Y12.446
X96.068Y145.105
X96.068Y140.406
X96.068Y101.605
X96.068Y96.906
X96.068Y58.105
X96.068Y53.406
X96.068Y14.605
X96.068Y9.906
X96.195Y159.075
X96.195Y134.945
X96.195Y115.575
X96.195Y91.445
X96.195Y72.075
X96.195Y47.945
X96.195Y28.575
X96.195Y4.445
X96.449Y138.628
X96.449Y95.128
X96.449Y51.628
X96.449Y8.128
X96.576Y148.28
X96.576Y104.78
X96.576Y61.28
X96.576Y17.78
X96.83Y167.203
X96.83Y123.703
X96.83Y80.203
X96.83Y36.703
X97.338Y148.28
X97.338Y104.78
X97.338Y61.28
X97.338Y17.78
X97.465Y160.345
X97.465Y116.845
X97.465Y73.345
X97.465Y29.845
X97.592Y167.203
X97.592Y123.703
X97.592Y80.203
X97.592Y36.703
X98.1Y140.025
X98.1Y96.525
X98.1Y53.025
X98.1Y9.525
X98.354Y167.203
X98.354Y123.703
X98.354Y80.203
X98.354Y36.703
X98.735Y169.108
X98.735Y159.075
X98.735Y133.675
X98.735Y132.278
X98.735Y125.608
X98.735Y115.575
X98.735Y90.175
X98.735Y88.778
X98.735Y82.108
X98.735Y72.075
X98.735Y46.675
X98.735Y45.278
X98.735Y38.608
X98.735Y28.575
X98.735Y3.175
X98.735Y1.778
X98.989Y165.044
X98.989Y121.544
X98.989Y78.044
X98.989Y34.544
X99.116Y140.152
X99.116Y96.652
X99.116Y53.152
X99.116Y9.652
X99.497Y167.203
X99.497Y123.703
X99.497Y80.203
X99.497Y36.703
X99.624Y148.28
X99.624Y104.78
X99.624Y61.28
X99.624Y17.78
X99.878Y145.105
X99.878Y144.216
X99.878Y101.605
X99.878Y100.716
X99.878Y58.105
X99.878Y57.216
X99.878Y14.605
X99.878Y13.716
X100.005Y133.675
X100.005Y90.175
X100.005Y46.675
X100.005Y3.175
X100.513Y147.137
X100.513Y139.39
X100.513Y103.637
X100.513Y95.89
X100.513Y60.137
X100.513Y52.39
X100.513Y16.637
X100.513Y8.89
X100.64Y166.949
X100.64Y165.044
X100.64Y152.598
X100.64Y123.449
X100.64Y121.544
X100.64Y109.098
X100.64Y79.949
X100.64Y78.044
X100.64Y65.598
X100.64Y36.449
X100.64Y34.544
X100.64Y22.098
X100.767Y163.139
X100.767Y119.639
X100.767Y76.139
X100.767Y32.639
X101.529Y164.93
X101.529Y121.43
X101.529Y77.93
X101.529Y34.43
X101.656Y149.931
X101.656Y106.431
X101.656Y62.931
X101.656Y19.431
X101.91Y132.278
X101.91Y88.778
X101.91Y45.278
X101.91Y1.778
X102.164Y153.22
X102.164Y109.72
X102.164Y66.22
X102.164Y22.72
X102.291Y165.806
X102.291Y122.306
X102.291Y78.806
X102.291Y35.306
X102.545Y150.058
X102.545Y133.675
X102.545Y106.558
X102.545Y90.175
X102.545Y63.058
X102.545Y46.675
X102.545Y19.558
X102.545Y3.175
X103.815Y161.869
X103.815Y138.628
X103.815Y118.369
X103.815Y95.128
X103.815Y74.869
X103.815Y51.628
X103.815Y31.369
X103.815Y8.128
X104.323Y149.169
X104.323Y105.669
X104.323Y62.169
X104.323Y18.669
X105.085Y159.075
X105.085Y132.278
X105.085Y115.575
X105.085Y88.778
X105.085Y72.075
X105.085Y45.278
X105.085Y28.575
X105.085Y1.778
X105.72Y161.996
X105.72Y147.391
X105.72Y118.496
X105.72Y103.891
X105.72Y74.996
X105.72Y60.391
X105.72Y31.496
X105.72Y16.891
X106.228Y169.743
X106.228Y126.243
X106.228Y82.743
X106.228Y39.243
X106.355Y160.345
X106.355Y132.278
X106.355Y116.845
X106.355Y88.778
X106.355Y73.345
X106.355Y45.278
X106.355Y29.845
X106.355Y1.778
X106.609Y139.644
X106.609Y96.144
X106.609Y52.644
X106.609Y9.144
X106.736Y152.101
X106.736Y108.601
X106.736Y65.101
X106.736Y21.601
X107.498Y163.533
X107.498Y120.033
X107.498Y76.533
X107.498Y33.033
X107.625Y159.075
X107.625Y134.868
X107.625Y133.662
X107.625Y115.575
X107.625Y91.368
X107.625Y90.162
X107.625Y72.075
X107.625Y47.868
X107.625Y46.662
X107.625Y28.575
X107.625Y4.368
X107.625Y3.162
X108.006Y152.09
X108.006Y108.59
X108.006Y65.09
X108.006Y21.59
X108.26Y163.533
X108.26Y150.185
X108.26Y149.23
X108.26Y148.28
X108.26Y120.033
X108.26Y106.685
X108.26Y105.73
X108.26Y104.78
X108.26Y76.533
X108.26Y63.185
X108.26Y62.23
X108.26Y61.28
X108.26Y33.033
X108.26Y19.685
X108.26Y18.73
X108.26Y17.78
X108.514Y151.341
X108.514Y107.841
X108.514Y64.341
X108.514Y20.841
X108.641Y153.714
X108.641Y110.214
X108.641Y66.714
X108.641Y23.214
X108.895Y160.345
X108.895Y133.675
X108.895Y116.845
X108.895Y90.175
X108.895Y73.345
X108.895Y46.675
X108.895Y29.845
X108.895Y3.175
X109.022Y154.871
X109.022Y111.371
X109.022Y67.871
X109.022Y24.371
X109.212Y151.772
X109.212Y108.272
X109.212Y64.772
X109.212Y21.272
X109.657Y157.297
X109.657Y152.979
X109.657Y113.797
X109.657Y109.479
X109.657Y70.297
X109.657Y65.979
X109.657Y26.797
X109.657Y22.479
X110.038Y154.757
X110.038Y111.257
X110.038Y67.757
X110.038Y24.257
X110.165Y159.075
X110.165Y134.868
X110.165Y115.575
X110.165Y91.368
X110.165Y72.075
X110.165Y47.868
X110.165Y28.575
X110.165Y4.368
X110.673Y157.297
X110.673Y155.265
X110.673Y113.797
X110.673Y111.765
X110.673Y70.297
X110.673Y68.265
X110.673Y26.797
X110.673Y24.765
X110.8Y161.996
X110.8Y118.496
X110.8Y74.996
X110.8Y31.496
X111.435Y133.675
X111.435Y90.175
X111.435Y46.675
X111.435Y3.175
X112.07Y161.996
X112.07Y118.496
X112.07Y74.996
X112.07Y31.496
X112.705Y159.075
X112.705Y138.755
X112.705Y136.215
X112.705Y115.575
X112.705Y95.255
X112.705Y92.715
X112.705Y72.075
X112.705Y51.755
X112.705Y49.215
X112.705Y28.575
X112.705Y8.255
X112.705Y5.715
X113.975Y160.345
X113.975Y157.805
X113.975Y152.725
X113.975Y148.915
X113.975Y143.835
X113.975Y141.295
X113.975Y116.845
X113.975Y114.305
X113.975Y109.225
X113.975Y105.415
X113.975Y100.335
X113.975Y97.795
X113.975Y73.345
X113.975Y70.805
X113.975Y65.725
X113.975Y61.915
X113.975Y56.835
X113.975Y54.295
X113.975Y29.845
X113.975Y27.305
X113.975Y22.225
X113.975Y18.415
X113.975Y13.335
X113.975Y10.795
X115.88Y169.489
X115.88Y133.04
X115.88Y125.989
X115.88Y89.54
X115.88Y82.489
X115.88Y46.04
X115.88Y38.989
X115.88Y2.54
T2
X1.27Y168.6
X1.27Y166.06
X1.27Y163.52
X1.27Y160.98
X1.27Y158.44
X1.27Y155.9
X1.27Y153.36
X1.27Y150.82
X1.27Y148.28
X1.27Y145.74
X1.27Y143.2
X1.27Y140.66
X1.27Y138.12
X1.27Y135.58
X1.27Y125.1
X1.27Y122.56
X1.27Y120.02
X1.27Y117.48
X1.27Y114.94
X1.27Y112.4
X1.27Y109.86
X1.27Y107.32
X1.27Y104.78
X1.27Y102.24
X1.27Y99.7
X1.27Y97.16
X1.27Y94.62
X1.27Y92.08
X1.27Y81.6
X1.27Y79.06
X1.27Y76.52
X1.27Y73.98
X1.27Y71.44
X1.27Y68.9
X1.27Y66.36
X1.27Y63.82
X1.27Y61.28
X1.27Y58.74
X1.27Y56.2
X1.27Y53.66
X1.27Y51.12
X1.27Y48.58
X1.27Y38.1
X1.27Y35.56
X1.27Y33.02
X1.27Y30.48
X1.27Y27.94
X1.27Y25.4
X1.27Y22.86
X1.27Y20.32
X1.27Y17.78
X1.27Y15.24
X1.27Y12.7
X1.27Y10.16
X1.27Y7.62
X1.27Y5.08
X61.27Y168.6
X61.27Y166.06
X61.27Y163.52
X61.27Y160.98
X61.27Y158.44
X61.27Y155.9
X61.27Y153.36
X61.27Y150.82
X61.27Y148.28
X61.27Y145.74
X61.27Y143.2
X61.27Y140.66
X61.27Y138.12
X61.27Y135.58
X61.27Y125.1
X61.27Y122.56
X61.27Y120.02
X61.27Y117.48
X61.27Y114.94
X61.27Y112.4
X61.27Y109.86
X61.27Y107.32
X61.27Y104.78
X61.27Y102.24
X61.27Y99.7
X61.27Y97.16
X61.27Y94.62
X61.27Y92.08
X61.27Y81.6
X61.27Y79.06
X61.27Y76.52
X61.27Y73.98
X61.27Y71.44
X61.27Y68.9
X61.27Y66.36
X61.27Y63.82
X61.27Y61.28
X61.27Y58.74
X61.27Y56.2
X61.27Y53.66
X61.27Y51.12
X61.27Y48.58
X61.27Y38.1
X61.27Y35.56
X61.27Y33.02
X61.27Y30.48
X61.27Y27.94
X61.27Y25.4
X61.27Y22.86
X61.27Y20.32
X61.27Y17.78
X61.27Y15.24
X61.27Y12.7
X61.27Y10.16
X61.27Y7.62
X61.27Y5.08
M30
