%TF.GenerationSoftware,KiCad,Pcbnew,7.0.10*%
%TF.CreationDate,2024-01-22T13:29:37+00:00*%
%TF.ProjectId,SparkFun_RTK_Facet_mosaic_panelized,53706172-6b46-4756-9e5f-52544b5f4661,rev?*%
%TF.SameCoordinates,Original*%
%TF.FileFunction,Soldermask,Bot*%
%TF.FilePolarity,Negative*%
%FSLAX46Y46*%
G04 Gerber Fmt 4.6, Leading zero omitted, Abs format (unit mm)*
G04 Created by KiCad (PCBNEW 7.0.10) date 2024-01-22 13:29:37*
%MOMM*%
%LPD*%
G01*
G04 APERTURE LIST*
G04 Aperture macros list*
%AMRoundRect*
0 Rectangle with rounded corners*
0 $1 Rounding radius*
0 $2 $3 $4 $5 $6 $7 $8 $9 X,Y pos of 4 corners*
0 Add a 4 corners polygon primitive as box body*
4,1,4,$2,$3,$4,$5,$6,$7,$8,$9,$2,$3,0*
0 Add four circle primitives for the rounded corners*
1,1,$1+$1,$2,$3*
1,1,$1+$1,$4,$5*
1,1,$1+$1,$6,$7*
1,1,$1+$1,$8,$9*
0 Add four rect primitives between the rounded corners*
20,1,$1+$1,$2,$3,$4,$5,0*
20,1,$1+$1,$4,$5,$6,$7,0*
20,1,$1+$1,$6,$7,$8,$9,0*
20,1,$1+$1,$8,$9,$2,$3,0*%
G04 Aperture macros list end*
%ADD10C,1.803200*%
%ADD11RoundRect,0.140000X-0.170000X0.140000X-0.170000X-0.140000X0.170000X-0.140000X0.170000X0.140000X0*%
%ADD12RoundRect,0.140000X0.170000X-0.140000X0.170000X0.140000X-0.170000X0.140000X-0.170000X-0.140000X0*%
%ADD13RoundRect,0.140000X-0.140000X-0.170000X0.140000X-0.170000X0.140000X0.170000X-0.140000X0.170000X0*%
%ADD14RoundRect,0.135000X0.135000X0.185000X-0.135000X0.185000X-0.135000X-0.185000X0.135000X-0.185000X0*%
%ADD15RoundRect,0.135000X0.185000X-0.135000X0.185000X0.135000X-0.185000X0.135000X-0.185000X-0.135000X0*%
%ADD16RoundRect,0.101600X-0.330200X-0.635000X0.330200X-0.635000X0.330200X0.635000X-0.330200X0.635000X0*%
%ADD17RoundRect,0.609600X0.000000X0.000000X0.000000X0.000000X0.000000X0.000000X0.000000X0.000000X0*%
%ADD18RoundRect,0.135000X-0.135000X-0.185000X0.135000X-0.185000X0.135000X0.185000X-0.135000X0.185000X0*%
%ADD19RoundRect,0.200000X0.275000X-0.200000X0.275000X0.200000X-0.275000X0.200000X-0.275000X-0.200000X0*%
%ADD20C,3.000000*%
%ADD21RoundRect,0.225000X-0.225000X-0.250000X0.225000X-0.250000X0.225000X0.250000X-0.225000X0.250000X0*%
%ADD22RoundRect,0.225000X-0.250000X0.225000X-0.250000X-0.225000X0.250000X-0.225000X0.250000X0.225000X0*%
%ADD23RoundRect,0.101600X0.400000X0.450000X-0.400000X0.450000X-0.400000X-0.450000X0.400000X-0.450000X0*%
%ADD24RoundRect,0.101600X0.330000X-0.150000X0.330000X0.150000X-0.330000X0.150000X-0.330000X-0.150000X0*%
%ADD25RoundRect,0.135000X-0.185000X0.135000X-0.185000X-0.135000X0.185000X-0.135000X0.185000X0.135000X0*%
%ADD26RoundRect,0.101600X0.400000X-0.275000X0.400000X0.275000X-0.400000X0.275000X-0.400000X-0.275000X0*%
%ADD27RoundRect,0.101600X-0.400000X0.275000X-0.400000X-0.275000X0.400000X-0.275000X0.400000X0.275000X0*%
%ADD28RoundRect,0.101600X-0.275000X-0.600000X0.275000X-0.600000X0.275000X0.600000X-0.275000X0.600000X0*%
%ADD29C,1.000000*%
%ADD30RoundRect,0.101600X0.315000X0.415000X-0.315000X0.415000X-0.315000X-0.415000X0.315000X-0.415000X0*%
%ADD31RoundRect,0.140000X0.140000X0.170000X-0.140000X0.170000X-0.140000X-0.170000X0.140000X-0.170000X0*%
%ADD32RoundRect,0.200000X-0.275000X0.200000X-0.275000X-0.200000X0.275000X-0.200000X0.275000X0.200000X0*%
%ADD33RoundRect,0.101600X-0.300000X-0.600000X0.300000X-0.600000X0.300000X0.600000X-0.300000X0.600000X0*%
%ADD34RoundRect,0.225000X0.225000X0.250000X-0.225000X0.250000X-0.225000X-0.250000X0.225000X-0.250000X0*%
%ADD35RoundRect,0.101600X0.600000X-0.300000X0.600000X0.300000X-0.600000X0.300000X-0.600000X-0.300000X0*%
%ADD36RoundRect,0.101600X0.675000X-0.300000X0.675000X0.300000X-0.675000X0.300000X-0.675000X-0.300000X0*%
%ADD37RoundRect,0.101600X1.000000X-0.600000X1.000000X0.600000X-1.000000X0.600000X-1.000000X-0.600000X0*%
%ADD38RoundRect,0.101600X-0.375000X-0.350000X0.375000X-0.350000X0.375000X0.350000X-0.375000X0.350000X0*%
%ADD39RoundRect,0.101600X0.375000X0.350000X-0.375000X0.350000X-0.375000X-0.350000X0.375000X-0.350000X0*%
%ADD40RoundRect,0.101600X0.450000X0.200000X-0.450000X0.200000X-0.450000X-0.200000X0.450000X-0.200000X0*%
%ADD41RoundRect,0.101600X-0.415000X0.315000X-0.415000X-0.315000X0.415000X-0.315000X0.415000X0.315000X0*%
%ADD42RoundRect,0.101600X0.140000X-0.450000X0.140000X0.450000X-0.140000X0.450000X-0.140000X-0.450000X0*%
%ADD43RoundRect,0.101600X-0.450000X-0.140000X0.450000X-0.140000X0.450000X0.140000X-0.450000X0.140000X0*%
%ADD44RoundRect,0.101600X-0.140000X0.450000X-0.140000X-0.450000X0.140000X-0.450000X0.140000X0.450000X0*%
%ADD45RoundRect,0.101600X0.450000X0.140000X-0.450000X0.140000X-0.450000X-0.140000X0.450000X-0.140000X0*%
%ADD46RoundRect,0.101600X1.850000X-1.850000X1.850000X1.850000X-1.850000X1.850000X-1.850000X-1.850000X0*%
%ADD47RoundRect,0.101600X-0.150000X-0.350000X0.150000X-0.350000X0.150000X0.350000X-0.150000X0.350000X0*%
%ADD48RoundRect,0.101600X2.300000X-0.500000X2.300000X0.500000X-2.300000X0.500000X-2.300000X-0.500000X0*%
%ADD49RoundRect,0.101600X-1.700000X-0.800000X1.700000X-0.800000X1.700000X0.800000X-1.700000X0.800000X0*%
%ADD50RoundRect,0.200000X0.200000X0.275000X-0.200000X0.275000X-0.200000X-0.275000X0.200000X-0.275000X0*%
G04 APERTURE END LIST*
%TO.C,JP1*%
G36*
X18288000Y14491500D02*
G01*
X17780000Y14491500D01*
X17780000Y14972500D01*
X18288000Y14972500D01*
X18288000Y14491500D01*
G37*
G36*
X19304000Y14491500D02*
G01*
X18796000Y14491500D01*
X18796000Y14972500D01*
X19304000Y14972500D01*
X19304000Y14491500D01*
G37*
G36*
X78288000Y14491500D02*
G01*
X77780000Y14491500D01*
X77780000Y14972500D01*
X78288000Y14972500D01*
X78288000Y14491500D01*
G37*
G36*
X79304000Y14491500D02*
G01*
X78796000Y14491500D01*
X78796000Y14972500D01*
X79304000Y14972500D01*
X79304000Y14491500D01*
G37*
G36*
X78288000Y101491500D02*
G01*
X77780000Y101491500D01*
X77780000Y101972500D01*
X78288000Y101972500D01*
X78288000Y101491500D01*
G37*
G36*
X79304000Y101491500D02*
G01*
X78796000Y101491500D01*
X78796000Y101972500D01*
X79304000Y101972500D01*
X79304000Y101491500D01*
G37*
G36*
X78288000Y57991500D02*
G01*
X77780000Y57991500D01*
X77780000Y58472500D01*
X78288000Y58472500D01*
X78288000Y57991500D01*
G37*
G36*
X79304000Y57991500D02*
G01*
X78796000Y57991500D01*
X78796000Y58472500D01*
X79304000Y58472500D01*
X79304000Y57991500D01*
G37*
G36*
X18288000Y57991500D02*
G01*
X17780000Y57991500D01*
X17780000Y58472500D01*
X18288000Y58472500D01*
X18288000Y57991500D01*
G37*
G36*
X19304000Y57991500D02*
G01*
X18796000Y57991500D01*
X18796000Y58472500D01*
X19304000Y58472500D01*
X19304000Y57991500D01*
G37*
G36*
X18288000Y144991500D02*
G01*
X17780000Y144991500D01*
X17780000Y145472500D01*
X18288000Y145472500D01*
X18288000Y144991500D01*
G37*
G36*
X19304000Y144991500D02*
G01*
X18796000Y144991500D01*
X18796000Y145472500D01*
X19304000Y145472500D01*
X19304000Y144991500D01*
G37*
G36*
X78288000Y144991500D02*
G01*
X77780000Y144991500D01*
X77780000Y145472500D01*
X78288000Y145472500D01*
X78288000Y144991500D01*
G37*
G36*
X79304000Y144991500D02*
G01*
X78796000Y144991500D01*
X78796000Y145472500D01*
X79304000Y145472500D01*
X79304000Y144991500D01*
G37*
G36*
X18288000Y101491500D02*
G01*
X17780000Y101491500D01*
X17780000Y101972500D01*
X18288000Y101972500D01*
X18288000Y101491500D01*
G37*
G36*
X19304000Y101491500D02*
G01*
X18796000Y101491500D01*
X18796000Y101972500D01*
X19304000Y101972500D01*
X19304000Y101491500D01*
G37*
%TO.C,U10*%
G36*
X37300000Y7560000D02*
G01*
X36900000Y7560000D01*
X36900000Y8660000D01*
X37300000Y8660000D01*
X37300000Y7560000D01*
G37*
G36*
X37800000Y7560000D02*
G01*
X37400000Y7560000D01*
X37400000Y8660000D01*
X37800000Y8660000D01*
X37800000Y7560000D01*
G37*
G36*
X38300000Y7560000D02*
G01*
X37900000Y7560000D01*
X37900000Y8660000D01*
X38300000Y8660000D01*
X38300000Y7560000D01*
G37*
G36*
X38800000Y7560000D02*
G01*
X38400000Y7560000D01*
X38400000Y8660000D01*
X38800000Y8660000D01*
X38800000Y7560000D01*
G37*
G36*
X39300000Y7560000D02*
G01*
X38900000Y7560000D01*
X38900000Y8660000D01*
X39300000Y8660000D01*
X39300000Y7560000D01*
G37*
G36*
X37300000Y11660000D02*
G01*
X36900000Y11660000D01*
X36900000Y12760000D01*
X37300000Y12760000D01*
X37300000Y11660000D01*
G37*
G36*
X37800000Y11660000D02*
G01*
X37400000Y11660000D01*
X37400000Y12760000D01*
X37800000Y12760000D01*
X37800000Y11660000D01*
G37*
G36*
X38300000Y11660000D02*
G01*
X37900000Y11660000D01*
X37900000Y12760000D01*
X38300000Y12760000D01*
X38300000Y11660000D01*
G37*
G36*
X38800000Y11660000D02*
G01*
X38400000Y11660000D01*
X38400000Y12760000D01*
X38800000Y12760000D01*
X38800000Y11660000D01*
G37*
G36*
X39300000Y11660000D02*
G01*
X38900000Y11660000D01*
X38900000Y12760000D01*
X39300000Y12760000D01*
X39300000Y11660000D01*
G37*
G36*
X97300000Y51060000D02*
G01*
X96900000Y51060000D01*
X96900000Y52160000D01*
X97300000Y52160000D01*
X97300000Y51060000D01*
G37*
G36*
X97800000Y51060000D02*
G01*
X97400000Y51060000D01*
X97400000Y52160000D01*
X97800000Y52160000D01*
X97800000Y51060000D01*
G37*
G36*
X98300000Y51060000D02*
G01*
X97900000Y51060000D01*
X97900000Y52160000D01*
X98300000Y52160000D01*
X98300000Y51060000D01*
G37*
G36*
X98800000Y51060000D02*
G01*
X98400000Y51060000D01*
X98400000Y52160000D01*
X98800000Y52160000D01*
X98800000Y51060000D01*
G37*
G36*
X99300000Y51060000D02*
G01*
X98900000Y51060000D01*
X98900000Y52160000D01*
X99300000Y52160000D01*
X99300000Y51060000D01*
G37*
G36*
X97300000Y55160000D02*
G01*
X96900000Y55160000D01*
X96900000Y56260000D01*
X97300000Y56260000D01*
X97300000Y55160000D01*
G37*
G36*
X97800000Y55160000D02*
G01*
X97400000Y55160000D01*
X97400000Y56260000D01*
X97800000Y56260000D01*
X97800000Y55160000D01*
G37*
G36*
X98300000Y55160000D02*
G01*
X97900000Y55160000D01*
X97900000Y56260000D01*
X98300000Y56260000D01*
X98300000Y55160000D01*
G37*
G36*
X98800000Y55160000D02*
G01*
X98400000Y55160000D01*
X98400000Y56260000D01*
X98800000Y56260000D01*
X98800000Y55160000D01*
G37*
G36*
X99300000Y55160000D02*
G01*
X98900000Y55160000D01*
X98900000Y56260000D01*
X99300000Y56260000D01*
X99300000Y55160000D01*
G37*
G36*
X97300000Y7560000D02*
G01*
X96900000Y7560000D01*
X96900000Y8660000D01*
X97300000Y8660000D01*
X97300000Y7560000D01*
G37*
G36*
X97800000Y7560000D02*
G01*
X97400000Y7560000D01*
X97400000Y8660000D01*
X97800000Y8660000D01*
X97800000Y7560000D01*
G37*
G36*
X98300000Y7560000D02*
G01*
X97900000Y7560000D01*
X97900000Y8660000D01*
X98300000Y8660000D01*
X98300000Y7560000D01*
G37*
G36*
X98800000Y7560000D02*
G01*
X98400000Y7560000D01*
X98400000Y8660000D01*
X98800000Y8660000D01*
X98800000Y7560000D01*
G37*
G36*
X99300000Y7560000D02*
G01*
X98900000Y7560000D01*
X98900000Y8660000D01*
X99300000Y8660000D01*
X99300000Y7560000D01*
G37*
G36*
X97300000Y11660000D02*
G01*
X96900000Y11660000D01*
X96900000Y12760000D01*
X97300000Y12760000D01*
X97300000Y11660000D01*
G37*
G36*
X97800000Y11660000D02*
G01*
X97400000Y11660000D01*
X97400000Y12760000D01*
X97800000Y12760000D01*
X97800000Y11660000D01*
G37*
G36*
X98300000Y11660000D02*
G01*
X97900000Y11660000D01*
X97900000Y12760000D01*
X98300000Y12760000D01*
X98300000Y11660000D01*
G37*
G36*
X98800000Y11660000D02*
G01*
X98400000Y11660000D01*
X98400000Y12760000D01*
X98800000Y12760000D01*
X98800000Y11660000D01*
G37*
G36*
X99300000Y11660000D02*
G01*
X98900000Y11660000D01*
X98900000Y12760000D01*
X99300000Y12760000D01*
X99300000Y11660000D01*
G37*
G36*
X97300000Y138060000D02*
G01*
X96900000Y138060000D01*
X96900000Y139160000D01*
X97300000Y139160000D01*
X97300000Y138060000D01*
G37*
G36*
X97800000Y138060000D02*
G01*
X97400000Y138060000D01*
X97400000Y139160000D01*
X97800000Y139160000D01*
X97800000Y138060000D01*
G37*
G36*
X98300000Y138060000D02*
G01*
X97900000Y138060000D01*
X97900000Y139160000D01*
X98300000Y139160000D01*
X98300000Y138060000D01*
G37*
G36*
X98800000Y138060000D02*
G01*
X98400000Y138060000D01*
X98400000Y139160000D01*
X98800000Y139160000D01*
X98800000Y138060000D01*
G37*
G36*
X99300000Y138060000D02*
G01*
X98900000Y138060000D01*
X98900000Y139160000D01*
X99300000Y139160000D01*
X99300000Y138060000D01*
G37*
G36*
X97300000Y142160000D02*
G01*
X96900000Y142160000D01*
X96900000Y143260000D01*
X97300000Y143260000D01*
X97300000Y142160000D01*
G37*
G36*
X97800000Y142160000D02*
G01*
X97400000Y142160000D01*
X97400000Y143260000D01*
X97800000Y143260000D01*
X97800000Y142160000D01*
G37*
G36*
X98300000Y142160000D02*
G01*
X97900000Y142160000D01*
X97900000Y143260000D01*
X98300000Y143260000D01*
X98300000Y142160000D01*
G37*
G36*
X98800000Y142160000D02*
G01*
X98400000Y142160000D01*
X98400000Y143260000D01*
X98800000Y143260000D01*
X98800000Y142160000D01*
G37*
G36*
X99300000Y142160000D02*
G01*
X98900000Y142160000D01*
X98900000Y143260000D01*
X99300000Y143260000D01*
X99300000Y142160000D01*
G37*
G36*
X37300000Y138060000D02*
G01*
X36900000Y138060000D01*
X36900000Y139160000D01*
X37300000Y139160000D01*
X37300000Y138060000D01*
G37*
G36*
X37800000Y138060000D02*
G01*
X37400000Y138060000D01*
X37400000Y139160000D01*
X37800000Y139160000D01*
X37800000Y138060000D01*
G37*
G36*
X38300000Y138060000D02*
G01*
X37900000Y138060000D01*
X37900000Y139160000D01*
X38300000Y139160000D01*
X38300000Y138060000D01*
G37*
G36*
X38800000Y138060000D02*
G01*
X38400000Y138060000D01*
X38400000Y139160000D01*
X38800000Y139160000D01*
X38800000Y138060000D01*
G37*
G36*
X39300000Y138060000D02*
G01*
X38900000Y138060000D01*
X38900000Y139160000D01*
X39300000Y139160000D01*
X39300000Y138060000D01*
G37*
G36*
X37300000Y142160000D02*
G01*
X36900000Y142160000D01*
X36900000Y143260000D01*
X37300000Y143260000D01*
X37300000Y142160000D01*
G37*
G36*
X37800000Y142160000D02*
G01*
X37400000Y142160000D01*
X37400000Y143260000D01*
X37800000Y143260000D01*
X37800000Y142160000D01*
G37*
G36*
X38300000Y142160000D02*
G01*
X37900000Y142160000D01*
X37900000Y143260000D01*
X38300000Y143260000D01*
X38300000Y142160000D01*
G37*
G36*
X38800000Y142160000D02*
G01*
X38400000Y142160000D01*
X38400000Y143260000D01*
X38800000Y143260000D01*
X38800000Y142160000D01*
G37*
G36*
X39300000Y142160000D02*
G01*
X38900000Y142160000D01*
X38900000Y143260000D01*
X39300000Y143260000D01*
X39300000Y142160000D01*
G37*
G36*
X37300000Y51060000D02*
G01*
X36900000Y51060000D01*
X36900000Y52160000D01*
X37300000Y52160000D01*
X37300000Y51060000D01*
G37*
G36*
X37800000Y51060000D02*
G01*
X37400000Y51060000D01*
X37400000Y52160000D01*
X37800000Y52160000D01*
X37800000Y51060000D01*
G37*
G36*
X38300000Y51060000D02*
G01*
X37900000Y51060000D01*
X37900000Y52160000D01*
X38300000Y52160000D01*
X38300000Y51060000D01*
G37*
G36*
X38800000Y51060000D02*
G01*
X38400000Y51060000D01*
X38400000Y52160000D01*
X38800000Y52160000D01*
X38800000Y51060000D01*
G37*
G36*
X39300000Y51060000D02*
G01*
X38900000Y51060000D01*
X38900000Y52160000D01*
X39300000Y52160000D01*
X39300000Y51060000D01*
G37*
G36*
X37300000Y55160000D02*
G01*
X36900000Y55160000D01*
X36900000Y56260000D01*
X37300000Y56260000D01*
X37300000Y55160000D01*
G37*
G36*
X37800000Y55160000D02*
G01*
X37400000Y55160000D01*
X37400000Y56260000D01*
X37800000Y56260000D01*
X37800000Y55160000D01*
G37*
G36*
X38300000Y55160000D02*
G01*
X37900000Y55160000D01*
X37900000Y56260000D01*
X38300000Y56260000D01*
X38300000Y55160000D01*
G37*
G36*
X38800000Y55160000D02*
G01*
X38400000Y55160000D01*
X38400000Y56260000D01*
X38800000Y56260000D01*
X38800000Y55160000D01*
G37*
G36*
X39300000Y55160000D02*
G01*
X38900000Y55160000D01*
X38900000Y56260000D01*
X39300000Y56260000D01*
X39300000Y55160000D01*
G37*
G36*
X37300000Y94560000D02*
G01*
X36900000Y94560000D01*
X36900000Y95660000D01*
X37300000Y95660000D01*
X37300000Y94560000D01*
G37*
G36*
X37800000Y94560000D02*
G01*
X37400000Y94560000D01*
X37400000Y95660000D01*
X37800000Y95660000D01*
X37800000Y94560000D01*
G37*
G36*
X38300000Y94560000D02*
G01*
X37900000Y94560000D01*
X37900000Y95660000D01*
X38300000Y95660000D01*
X38300000Y94560000D01*
G37*
G36*
X38800000Y94560000D02*
G01*
X38400000Y94560000D01*
X38400000Y95660000D01*
X38800000Y95660000D01*
X38800000Y94560000D01*
G37*
G36*
X39300000Y94560000D02*
G01*
X38900000Y94560000D01*
X38900000Y95660000D01*
X39300000Y95660000D01*
X39300000Y94560000D01*
G37*
G36*
X37300000Y98660000D02*
G01*
X36900000Y98660000D01*
X36900000Y99760000D01*
X37300000Y99760000D01*
X37300000Y98660000D01*
G37*
G36*
X37800000Y98660000D02*
G01*
X37400000Y98660000D01*
X37400000Y99760000D01*
X37800000Y99760000D01*
X37800000Y98660000D01*
G37*
G36*
X38300000Y98660000D02*
G01*
X37900000Y98660000D01*
X37900000Y99760000D01*
X38300000Y99760000D01*
X38300000Y98660000D01*
G37*
G36*
X38800000Y98660000D02*
G01*
X38400000Y98660000D01*
X38400000Y99760000D01*
X38800000Y99760000D01*
X38800000Y98660000D01*
G37*
G36*
X39300000Y98660000D02*
G01*
X38900000Y98660000D01*
X38900000Y99760000D01*
X39300000Y99760000D01*
X39300000Y98660000D01*
G37*
G36*
X97300000Y94560000D02*
G01*
X96900000Y94560000D01*
X96900000Y95660000D01*
X97300000Y95660000D01*
X97300000Y94560000D01*
G37*
G36*
X97800000Y94560000D02*
G01*
X97400000Y94560000D01*
X97400000Y95660000D01*
X97800000Y95660000D01*
X97800000Y94560000D01*
G37*
G36*
X98300000Y94560000D02*
G01*
X97900000Y94560000D01*
X97900000Y95660000D01*
X98300000Y95660000D01*
X98300000Y94560000D01*
G37*
G36*
X98800000Y94560000D02*
G01*
X98400000Y94560000D01*
X98400000Y95660000D01*
X98800000Y95660000D01*
X98800000Y94560000D01*
G37*
G36*
X99300000Y94560000D02*
G01*
X98900000Y94560000D01*
X98900000Y95660000D01*
X99300000Y95660000D01*
X99300000Y94560000D01*
G37*
G36*
X97300000Y98660000D02*
G01*
X96900000Y98660000D01*
X96900000Y99760000D01*
X97300000Y99760000D01*
X97300000Y98660000D01*
G37*
G36*
X97800000Y98660000D02*
G01*
X97400000Y98660000D01*
X97400000Y99760000D01*
X97800000Y99760000D01*
X97800000Y98660000D01*
G37*
G36*
X98300000Y98660000D02*
G01*
X97900000Y98660000D01*
X97900000Y99760000D01*
X98300000Y99760000D01*
X98300000Y98660000D01*
G37*
G36*
X98800000Y98660000D02*
G01*
X98400000Y98660000D01*
X98400000Y99760000D01*
X98800000Y99760000D01*
X98800000Y98660000D01*
G37*
G36*
X99300000Y98660000D02*
G01*
X98900000Y98660000D01*
X98900000Y99760000D01*
X99300000Y99760000D01*
X99300000Y98660000D01*
G37*
%TO.C,U4*%
G36*
X32998000Y15842000D02*
G01*
X32558000Y15842000D01*
X32558000Y16682000D01*
X32998000Y16682000D01*
X32998000Y15842000D01*
G37*
G36*
X33498000Y15842000D02*
G01*
X33058000Y15842000D01*
X33058000Y16682000D01*
X33498000Y16682000D01*
X33498000Y15842000D01*
G37*
G36*
X33998000Y15842000D02*
G01*
X33558000Y15842000D01*
X33558000Y16682000D01*
X33998000Y16682000D01*
X33998000Y15842000D01*
G37*
G36*
X34498000Y15842000D02*
G01*
X34058000Y15842000D01*
X34058000Y16682000D01*
X34498000Y16682000D01*
X34498000Y15842000D01*
G37*
G36*
X34288000Y16802000D02*
G01*
X32768000Y16802000D01*
X32768000Y17742000D01*
X34288000Y17742000D01*
X34288000Y16802000D01*
G37*
G36*
X32998000Y17842000D02*
G01*
X32558000Y17842000D01*
X32558000Y18682000D01*
X32998000Y18682000D01*
X32998000Y17842000D01*
G37*
G36*
X33498000Y17842000D02*
G01*
X33058000Y17842000D01*
X33058000Y18682000D01*
X33498000Y18682000D01*
X33498000Y17842000D01*
G37*
G36*
X33998000Y17842000D02*
G01*
X33558000Y17842000D01*
X33558000Y18682000D01*
X33998000Y18682000D01*
X33998000Y17842000D01*
G37*
G36*
X34498000Y17842000D02*
G01*
X34058000Y17842000D01*
X34058000Y18682000D01*
X34498000Y18682000D01*
X34498000Y17842000D01*
G37*
G36*
X32998000Y59342000D02*
G01*
X32558000Y59342000D01*
X32558000Y60182000D01*
X32998000Y60182000D01*
X32998000Y59342000D01*
G37*
G36*
X33498000Y59342000D02*
G01*
X33058000Y59342000D01*
X33058000Y60182000D01*
X33498000Y60182000D01*
X33498000Y59342000D01*
G37*
G36*
X33998000Y59342000D02*
G01*
X33558000Y59342000D01*
X33558000Y60182000D01*
X33998000Y60182000D01*
X33998000Y59342000D01*
G37*
G36*
X34498000Y59342000D02*
G01*
X34058000Y59342000D01*
X34058000Y60182000D01*
X34498000Y60182000D01*
X34498000Y59342000D01*
G37*
G36*
X34288000Y60302000D02*
G01*
X32768000Y60302000D01*
X32768000Y61242000D01*
X34288000Y61242000D01*
X34288000Y60302000D01*
G37*
G36*
X32998000Y61342000D02*
G01*
X32558000Y61342000D01*
X32558000Y62182000D01*
X32998000Y62182000D01*
X32998000Y61342000D01*
G37*
G36*
X33498000Y61342000D02*
G01*
X33058000Y61342000D01*
X33058000Y62182000D01*
X33498000Y62182000D01*
X33498000Y61342000D01*
G37*
G36*
X33998000Y61342000D02*
G01*
X33558000Y61342000D01*
X33558000Y62182000D01*
X33998000Y62182000D01*
X33998000Y61342000D01*
G37*
G36*
X34498000Y61342000D02*
G01*
X34058000Y61342000D01*
X34058000Y62182000D01*
X34498000Y62182000D01*
X34498000Y61342000D01*
G37*
G36*
X92998000Y15842000D02*
G01*
X92558000Y15842000D01*
X92558000Y16682000D01*
X92998000Y16682000D01*
X92998000Y15842000D01*
G37*
G36*
X93498000Y15842000D02*
G01*
X93058000Y15842000D01*
X93058000Y16682000D01*
X93498000Y16682000D01*
X93498000Y15842000D01*
G37*
G36*
X93998000Y15842000D02*
G01*
X93558000Y15842000D01*
X93558000Y16682000D01*
X93998000Y16682000D01*
X93998000Y15842000D01*
G37*
G36*
X94498000Y15842000D02*
G01*
X94058000Y15842000D01*
X94058000Y16682000D01*
X94498000Y16682000D01*
X94498000Y15842000D01*
G37*
G36*
X94288000Y16802000D02*
G01*
X92768000Y16802000D01*
X92768000Y17742000D01*
X94288000Y17742000D01*
X94288000Y16802000D01*
G37*
G36*
X92998000Y17842000D02*
G01*
X92558000Y17842000D01*
X92558000Y18682000D01*
X92998000Y18682000D01*
X92998000Y17842000D01*
G37*
G36*
X93498000Y17842000D02*
G01*
X93058000Y17842000D01*
X93058000Y18682000D01*
X93498000Y18682000D01*
X93498000Y17842000D01*
G37*
G36*
X93998000Y17842000D02*
G01*
X93558000Y17842000D01*
X93558000Y18682000D01*
X93998000Y18682000D01*
X93998000Y17842000D01*
G37*
G36*
X94498000Y17842000D02*
G01*
X94058000Y17842000D01*
X94058000Y18682000D01*
X94498000Y18682000D01*
X94498000Y17842000D01*
G37*
G36*
X92998000Y102842000D02*
G01*
X92558000Y102842000D01*
X92558000Y103682000D01*
X92998000Y103682000D01*
X92998000Y102842000D01*
G37*
G36*
X93498000Y102842000D02*
G01*
X93058000Y102842000D01*
X93058000Y103682000D01*
X93498000Y103682000D01*
X93498000Y102842000D01*
G37*
G36*
X93998000Y102842000D02*
G01*
X93558000Y102842000D01*
X93558000Y103682000D01*
X93998000Y103682000D01*
X93998000Y102842000D01*
G37*
G36*
X94498000Y102842000D02*
G01*
X94058000Y102842000D01*
X94058000Y103682000D01*
X94498000Y103682000D01*
X94498000Y102842000D01*
G37*
G36*
X94288000Y103802000D02*
G01*
X92768000Y103802000D01*
X92768000Y104742000D01*
X94288000Y104742000D01*
X94288000Y103802000D01*
G37*
G36*
X92998000Y104842000D02*
G01*
X92558000Y104842000D01*
X92558000Y105682000D01*
X92998000Y105682000D01*
X92998000Y104842000D01*
G37*
G36*
X93498000Y104842000D02*
G01*
X93058000Y104842000D01*
X93058000Y105682000D01*
X93498000Y105682000D01*
X93498000Y104842000D01*
G37*
G36*
X93998000Y104842000D02*
G01*
X93558000Y104842000D01*
X93558000Y105682000D01*
X93998000Y105682000D01*
X93998000Y104842000D01*
G37*
G36*
X94498000Y104842000D02*
G01*
X94058000Y104842000D01*
X94058000Y105682000D01*
X94498000Y105682000D01*
X94498000Y104842000D01*
G37*
G36*
X32998000Y102842000D02*
G01*
X32558000Y102842000D01*
X32558000Y103682000D01*
X32998000Y103682000D01*
X32998000Y102842000D01*
G37*
G36*
X33498000Y102842000D02*
G01*
X33058000Y102842000D01*
X33058000Y103682000D01*
X33498000Y103682000D01*
X33498000Y102842000D01*
G37*
G36*
X33998000Y102842000D02*
G01*
X33558000Y102842000D01*
X33558000Y103682000D01*
X33998000Y103682000D01*
X33998000Y102842000D01*
G37*
G36*
X34498000Y102842000D02*
G01*
X34058000Y102842000D01*
X34058000Y103682000D01*
X34498000Y103682000D01*
X34498000Y102842000D01*
G37*
G36*
X34288000Y103802000D02*
G01*
X32768000Y103802000D01*
X32768000Y104742000D01*
X34288000Y104742000D01*
X34288000Y103802000D01*
G37*
G36*
X32998000Y104842000D02*
G01*
X32558000Y104842000D01*
X32558000Y105682000D01*
X32998000Y105682000D01*
X32998000Y104842000D01*
G37*
G36*
X33498000Y104842000D02*
G01*
X33058000Y104842000D01*
X33058000Y105682000D01*
X33498000Y105682000D01*
X33498000Y104842000D01*
G37*
G36*
X33998000Y104842000D02*
G01*
X33558000Y104842000D01*
X33558000Y105682000D01*
X33998000Y105682000D01*
X33998000Y104842000D01*
G37*
G36*
X34498000Y104842000D02*
G01*
X34058000Y104842000D01*
X34058000Y105682000D01*
X34498000Y105682000D01*
X34498000Y104842000D01*
G37*
G36*
X92998000Y146342000D02*
G01*
X92558000Y146342000D01*
X92558000Y147182000D01*
X92998000Y147182000D01*
X92998000Y146342000D01*
G37*
G36*
X93498000Y146342000D02*
G01*
X93058000Y146342000D01*
X93058000Y147182000D01*
X93498000Y147182000D01*
X93498000Y146342000D01*
G37*
G36*
X93998000Y146342000D02*
G01*
X93558000Y146342000D01*
X93558000Y147182000D01*
X93998000Y147182000D01*
X93998000Y146342000D01*
G37*
G36*
X94498000Y146342000D02*
G01*
X94058000Y146342000D01*
X94058000Y147182000D01*
X94498000Y147182000D01*
X94498000Y146342000D01*
G37*
G36*
X94288000Y147302000D02*
G01*
X92768000Y147302000D01*
X92768000Y148242000D01*
X94288000Y148242000D01*
X94288000Y147302000D01*
G37*
G36*
X92998000Y148342000D02*
G01*
X92558000Y148342000D01*
X92558000Y149182000D01*
X92998000Y149182000D01*
X92998000Y148342000D01*
G37*
G36*
X93498000Y148342000D02*
G01*
X93058000Y148342000D01*
X93058000Y149182000D01*
X93498000Y149182000D01*
X93498000Y148342000D01*
G37*
G36*
X93998000Y148342000D02*
G01*
X93558000Y148342000D01*
X93558000Y149182000D01*
X93998000Y149182000D01*
X93998000Y148342000D01*
G37*
G36*
X94498000Y148342000D02*
G01*
X94058000Y148342000D01*
X94058000Y149182000D01*
X94498000Y149182000D01*
X94498000Y148342000D01*
G37*
G36*
X32998000Y146342000D02*
G01*
X32558000Y146342000D01*
X32558000Y147182000D01*
X32998000Y147182000D01*
X32998000Y146342000D01*
G37*
G36*
X33498000Y146342000D02*
G01*
X33058000Y146342000D01*
X33058000Y147182000D01*
X33498000Y147182000D01*
X33498000Y146342000D01*
G37*
G36*
X33998000Y146342000D02*
G01*
X33558000Y146342000D01*
X33558000Y147182000D01*
X33998000Y147182000D01*
X33998000Y146342000D01*
G37*
G36*
X34498000Y146342000D02*
G01*
X34058000Y146342000D01*
X34058000Y147182000D01*
X34498000Y147182000D01*
X34498000Y146342000D01*
G37*
G36*
X34288000Y147302000D02*
G01*
X32768000Y147302000D01*
X32768000Y148242000D01*
X34288000Y148242000D01*
X34288000Y147302000D01*
G37*
G36*
X32998000Y148342000D02*
G01*
X32558000Y148342000D01*
X32558000Y149182000D01*
X32998000Y149182000D01*
X32998000Y148342000D01*
G37*
G36*
X33498000Y148342000D02*
G01*
X33058000Y148342000D01*
X33058000Y149182000D01*
X33498000Y149182000D01*
X33498000Y148342000D01*
G37*
G36*
X33998000Y148342000D02*
G01*
X33558000Y148342000D01*
X33558000Y149182000D01*
X33998000Y149182000D01*
X33998000Y148342000D01*
G37*
G36*
X34498000Y148342000D02*
G01*
X34058000Y148342000D01*
X34058000Y149182000D01*
X34498000Y149182000D01*
X34498000Y148342000D01*
G37*
G36*
X92998000Y59342000D02*
G01*
X92558000Y59342000D01*
X92558000Y60182000D01*
X92998000Y60182000D01*
X92998000Y59342000D01*
G37*
G36*
X93498000Y59342000D02*
G01*
X93058000Y59342000D01*
X93058000Y60182000D01*
X93498000Y60182000D01*
X93498000Y59342000D01*
G37*
G36*
X93998000Y59342000D02*
G01*
X93558000Y59342000D01*
X93558000Y60182000D01*
X93998000Y60182000D01*
X93998000Y59342000D01*
G37*
G36*
X94498000Y59342000D02*
G01*
X94058000Y59342000D01*
X94058000Y60182000D01*
X94498000Y60182000D01*
X94498000Y59342000D01*
G37*
G36*
X94288000Y60302000D02*
G01*
X92768000Y60302000D01*
X92768000Y61242000D01*
X94288000Y61242000D01*
X94288000Y60302000D01*
G37*
G36*
X92998000Y61342000D02*
G01*
X92558000Y61342000D01*
X92558000Y62182000D01*
X92998000Y62182000D01*
X92998000Y61342000D01*
G37*
G36*
X93498000Y61342000D02*
G01*
X93058000Y61342000D01*
X93058000Y62182000D01*
X93498000Y62182000D01*
X93498000Y61342000D01*
G37*
G36*
X93998000Y61342000D02*
G01*
X93558000Y61342000D01*
X93558000Y62182000D01*
X93998000Y62182000D01*
X93998000Y61342000D01*
G37*
G36*
X94498000Y61342000D02*
G01*
X94058000Y61342000D01*
X94058000Y62182000D01*
X94498000Y62182000D01*
X94498000Y61342000D01*
G37*
%TD*%
D10*
%TO.C,TP1*%
X1270000Y16510000D03*
%TD*%
%TO.C,TP1*%
X1270000Y60010000D03*
%TD*%
%TO.C,TP1*%
X1270000Y103510000D03*
%TD*%
%TO.C,TP1*%
X1270000Y147010000D03*
%TD*%
%TO.C,TP1*%
X61270000Y60010000D03*
%TD*%
%TO.C,TP1*%
X61270000Y103510000D03*
%TD*%
%TO.C,TP1*%
X61270000Y16510000D03*
%TD*%
%TO.C,TP1*%
X61270000Y147010000D03*
%TD*%
%TO.C,TP9*%
X1270000Y11430000D03*
%TD*%
%TO.C,TP9*%
X61270000Y11430000D03*
%TD*%
%TO.C,TP9*%
X1270000Y54930000D03*
%TD*%
%TO.C,TP9*%
X1270000Y98430000D03*
%TD*%
%TO.C,TP9*%
X1270000Y141930000D03*
%TD*%
%TO.C,TP9*%
X61270000Y98430000D03*
%TD*%
%TO.C,TP9*%
X61270000Y54930000D03*
%TD*%
%TO.C,TP9*%
X61270000Y141930000D03*
%TD*%
%TO.C,TP12*%
X1270000Y21590000D03*
%TD*%
%TO.C,TP12*%
X61270000Y21590000D03*
%TD*%
%TO.C,TP12*%
X1270000Y65090000D03*
%TD*%
%TO.C,TP12*%
X1270000Y108590000D03*
%TD*%
%TO.C,TP12*%
X61270000Y65090000D03*
%TD*%
%TO.C,TP12*%
X61270000Y152090000D03*
%TD*%
%TO.C,TP12*%
X61270000Y108590000D03*
%TD*%
%TO.C,TP12*%
X1270000Y152090000D03*
%TD*%
%TO.C,TP11*%
X1270000Y24130000D03*
%TD*%
%TO.C,TP11*%
X61270000Y111130000D03*
%TD*%
%TO.C,TP11*%
X1270000Y154630000D03*
%TD*%
%TO.C,TP11*%
X1270000Y67630000D03*
%TD*%
%TO.C,TP11*%
X61270000Y24130000D03*
%TD*%
%TO.C,TP11*%
X1270000Y111130000D03*
%TD*%
%TO.C,TP11*%
X61270000Y67630000D03*
%TD*%
%TO.C,TP11*%
X61270000Y154630000D03*
%TD*%
%TO.C,TP6*%
X1270000Y31750000D03*
%TD*%
%TO.C,TP6*%
X1270000Y75250000D03*
%TD*%
%TO.C,TP6*%
X1270000Y118750000D03*
%TD*%
%TO.C,TP6*%
X1270000Y162250000D03*
%TD*%
%TO.C,TP6*%
X61270000Y75250000D03*
%TD*%
%TO.C,TP6*%
X61270000Y31750000D03*
%TD*%
%TO.C,TP6*%
X61270000Y162250000D03*
%TD*%
%TO.C,TP6*%
X61270000Y118750000D03*
%TD*%
%TO.C,TP5*%
X1270000Y29210000D03*
%TD*%
%TO.C,TP5*%
X1270000Y72710000D03*
%TD*%
%TO.C,TP5*%
X1270000Y116210000D03*
%TD*%
%TO.C,TP5*%
X1270000Y159710000D03*
%TD*%
%TO.C,TP5*%
X61270000Y29210000D03*
%TD*%
%TO.C,TP5*%
X61270000Y116210000D03*
%TD*%
%TO.C,TP5*%
X61270000Y159710000D03*
%TD*%
%TO.C,TP5*%
X61270000Y72710000D03*
%TD*%
%TO.C,TP8*%
X1270000Y19050000D03*
%TD*%
%TO.C,TP8*%
X1270000Y149550000D03*
%TD*%
%TO.C,TP8*%
X61270000Y149550000D03*
%TD*%
%TO.C,TP8*%
X1270000Y106050000D03*
%TD*%
%TO.C,TP8*%
X61270000Y62550000D03*
%TD*%
%TO.C,TP8*%
X1270000Y62550000D03*
%TD*%
%TO.C,TP8*%
X61270000Y106050000D03*
%TD*%
%TO.C,TP8*%
X61270000Y19050000D03*
%TD*%
%TO.C,TP13*%
X1270000Y26670000D03*
%TD*%
%TO.C,TP13*%
X1270000Y113670000D03*
%TD*%
%TO.C,TP13*%
X1270000Y70170000D03*
%TD*%
%TO.C,TP13*%
X61270000Y113670000D03*
%TD*%
%TO.C,TP13*%
X1270000Y157170000D03*
%TD*%
%TO.C,TP13*%
X61270000Y26670000D03*
%TD*%
%TO.C,TP13*%
X61270000Y157170000D03*
%TD*%
%TO.C,TP13*%
X61270000Y70170000D03*
%TD*%
%TO.C,TP7*%
X1270000Y13970000D03*
%TD*%
%TO.C,TP7*%
X1270000Y100970000D03*
%TD*%
%TO.C,TP7*%
X1270000Y57470000D03*
%TD*%
%TO.C,TP7*%
X61270000Y57470000D03*
%TD*%
%TO.C,TP7*%
X61270000Y13970000D03*
%TD*%
%TO.C,TP7*%
X1270000Y144470000D03*
%TD*%
%TO.C,TP7*%
X61270000Y100970000D03*
%TD*%
%TO.C,TP7*%
X61270000Y144470000D03*
%TD*%
%TO.C,TP10*%
X1270000Y8890000D03*
%TD*%
%TO.C,TP10*%
X1270000Y52390000D03*
%TD*%
%TO.C,TP10*%
X61270000Y52390000D03*
%TD*%
%TO.C,TP10*%
X1270000Y139390000D03*
%TD*%
%TO.C,TP10*%
X61270000Y8890000D03*
%TD*%
%TO.C,TP10*%
X1270000Y95890000D03*
%TD*%
%TO.C,TP10*%
X61270000Y95890000D03*
%TD*%
%TO.C,TP10*%
X61270000Y139390000D03*
%TD*%
%TO.C,TP4*%
X1270000Y34290000D03*
%TD*%
%TO.C,TP4*%
X1270000Y77790000D03*
%TD*%
%TO.C,TP4*%
X1270000Y164790000D03*
%TD*%
%TO.C,TP4*%
X1270000Y121290000D03*
%TD*%
%TO.C,TP4*%
X61270000Y34290000D03*
%TD*%
%TO.C,TP4*%
X61270000Y77790000D03*
%TD*%
%TO.C,TP4*%
X61270000Y164790000D03*
%TD*%
%TO.C,TP4*%
X61270000Y121290000D03*
%TD*%
D11*
%TO.C,C27*%
X30480000Y2512000D03*
X30480000Y1552000D03*
%TD*%
%TO.C,C27*%
X30480000Y133012000D03*
X30480000Y132052000D03*
%TD*%
%TO.C,C27*%
X90480000Y2512000D03*
X90480000Y1552000D03*
%TD*%
%TO.C,C27*%
X90480000Y133012000D03*
X90480000Y132052000D03*
%TD*%
%TO.C,C27*%
X30480000Y46012000D03*
X30480000Y45052000D03*
%TD*%
%TO.C,C27*%
X30480000Y89512000D03*
X30480000Y88552000D03*
%TD*%
%TO.C,C27*%
X90480000Y46012000D03*
X90480000Y45052000D03*
%TD*%
%TO.C,C27*%
X90480000Y89512000D03*
X90480000Y88552000D03*
%TD*%
%TO.C,C1*%
X19304000Y8735000D03*
X19304000Y7775000D03*
%TD*%
%TO.C,C1*%
X19304000Y52235000D03*
X19304000Y51275000D03*
%TD*%
%TO.C,C1*%
X79304000Y8735000D03*
X79304000Y7775000D03*
%TD*%
%TO.C,C1*%
X79304000Y52235000D03*
X79304000Y51275000D03*
%TD*%
%TO.C,C1*%
X79304000Y139235000D03*
X79304000Y138275000D03*
%TD*%
%TO.C,C1*%
X19304000Y95735000D03*
X19304000Y94775000D03*
%TD*%
%TO.C,C1*%
X79304000Y95735000D03*
X79304000Y94775000D03*
%TD*%
%TO.C,C1*%
X19304000Y139235000D03*
X19304000Y138275000D03*
%TD*%
D12*
%TO.C,C8*%
X20320000Y11585000D03*
X20320000Y12545000D03*
%TD*%
%TO.C,C8*%
X80320000Y11585000D03*
X80320000Y12545000D03*
%TD*%
%TO.C,C8*%
X20320000Y142085000D03*
X20320000Y143045000D03*
%TD*%
%TO.C,C8*%
X80320000Y98585000D03*
X80320000Y99545000D03*
%TD*%
%TO.C,C8*%
X80320000Y55085000D03*
X80320000Y56045000D03*
%TD*%
%TO.C,C8*%
X20320000Y55085000D03*
X20320000Y56045000D03*
%TD*%
%TO.C,C8*%
X20320000Y98585000D03*
X20320000Y99545000D03*
%TD*%
%TO.C,C8*%
X80320000Y142085000D03*
X80320000Y143045000D03*
%TD*%
D13*
%TO.C,C23*%
X25936000Y7620000D03*
X26896000Y7620000D03*
%TD*%
%TO.C,C23*%
X25936000Y138120000D03*
X26896000Y138120000D03*
%TD*%
%TO.C,C23*%
X85936000Y7620000D03*
X86896000Y7620000D03*
%TD*%
%TO.C,C23*%
X25936000Y51120000D03*
X26896000Y51120000D03*
%TD*%
%TO.C,C23*%
X85936000Y51120000D03*
X86896000Y51120000D03*
%TD*%
%TO.C,C23*%
X25936000Y94620000D03*
X26896000Y94620000D03*
%TD*%
%TO.C,C23*%
X85936000Y94620000D03*
X86896000Y94620000D03*
%TD*%
%TO.C,C23*%
X85936000Y138120000D03*
X86896000Y138120000D03*
%TD*%
D14*
%TO.C,R2*%
X14734000Y20320000D03*
X13714000Y20320000D03*
%TD*%
%TO.C,R2*%
X74734000Y150820000D03*
X73714000Y150820000D03*
%TD*%
%TO.C,R2*%
X14734000Y107320000D03*
X13714000Y107320000D03*
%TD*%
%TO.C,R2*%
X74734000Y63820000D03*
X73714000Y63820000D03*
%TD*%
%TO.C,R2*%
X74734000Y107320000D03*
X73714000Y107320000D03*
%TD*%
%TO.C,R2*%
X14734000Y63820000D03*
X13714000Y63820000D03*
%TD*%
%TO.C,R2*%
X14734000Y150820000D03*
X13714000Y150820000D03*
%TD*%
%TO.C,R2*%
X74734000Y20320000D03*
X73714000Y20320000D03*
%TD*%
D15*
%TO.C,R34*%
X44704000Y17778000D03*
X44704000Y18798000D03*
%TD*%
%TO.C,R34*%
X104704000Y148278000D03*
X104704000Y149298000D03*
%TD*%
%TO.C,R34*%
X44704000Y104778000D03*
X44704000Y105798000D03*
%TD*%
%TO.C,R34*%
X44704000Y148278000D03*
X44704000Y149298000D03*
%TD*%
%TO.C,R34*%
X44704000Y61278000D03*
X44704000Y62298000D03*
%TD*%
%TO.C,R34*%
X104704000Y104778000D03*
X104704000Y105798000D03*
%TD*%
%TO.C,R34*%
X104704000Y61278000D03*
X104704000Y62298000D03*
%TD*%
%TO.C,R34*%
X104704000Y17778000D03*
X104704000Y18798000D03*
%TD*%
D16*
%TO.C,JP1*%
X17500600Y14732000D03*
X18542000Y14732000D03*
X19583400Y14732000D03*
%TD*%
%TO.C,JP1*%
X77500600Y14732000D03*
X78542000Y14732000D03*
X79583400Y14732000D03*
%TD*%
%TO.C,JP1*%
X77500600Y101732000D03*
X78542000Y101732000D03*
X79583400Y101732000D03*
%TD*%
%TO.C,JP1*%
X77500600Y58232000D03*
X78542000Y58232000D03*
X79583400Y58232000D03*
%TD*%
%TO.C,JP1*%
X17500600Y58232000D03*
X18542000Y58232000D03*
X19583400Y58232000D03*
%TD*%
%TO.C,JP1*%
X17500600Y145232000D03*
X18542000Y145232000D03*
X19583400Y145232000D03*
%TD*%
%TO.C,JP1*%
X77500600Y145232000D03*
X78542000Y145232000D03*
X79583400Y145232000D03*
%TD*%
%TO.C,JP1*%
X17500600Y101732000D03*
X18542000Y101732000D03*
X19583400Y101732000D03*
%TD*%
D17*
%TO.C,TP17*%
X20320000Y19050000D03*
%TD*%
%TO.C,TP17*%
X20320000Y149550000D03*
%TD*%
%TO.C,TP17*%
X80320000Y62550000D03*
%TD*%
%TO.C,TP17*%
X20320000Y106050000D03*
%TD*%
%TO.C,TP17*%
X80320000Y19050000D03*
%TD*%
%TO.C,TP17*%
X80320000Y149550000D03*
%TD*%
%TO.C,TP17*%
X20320000Y62550000D03*
%TD*%
%TO.C,TP17*%
X80320000Y106050000D03*
%TD*%
D11*
%TO.C,C28*%
X31750000Y2512000D03*
X31750000Y1552000D03*
%TD*%
%TO.C,C28*%
X31750000Y133012000D03*
X31750000Y132052000D03*
%TD*%
%TO.C,C28*%
X91750000Y46012000D03*
X91750000Y45052000D03*
%TD*%
%TO.C,C28*%
X31750000Y46012000D03*
X31750000Y45052000D03*
%TD*%
%TO.C,C28*%
X31750000Y89512000D03*
X31750000Y88552000D03*
%TD*%
%TO.C,C28*%
X91750000Y2512000D03*
X91750000Y1552000D03*
%TD*%
%TO.C,C28*%
X91750000Y89512000D03*
X91750000Y88552000D03*
%TD*%
%TO.C,C28*%
X91750000Y133012000D03*
X91750000Y132052000D03*
%TD*%
D18*
%TO.C,R23*%
X15746000Y35052000D03*
X16766000Y35052000D03*
%TD*%
%TO.C,R23*%
X75746000Y165552000D03*
X76766000Y165552000D03*
%TD*%
%TO.C,R23*%
X75746000Y78552000D03*
X76766000Y78552000D03*
%TD*%
%TO.C,R23*%
X15746000Y165552000D03*
X16766000Y165552000D03*
%TD*%
%TO.C,R23*%
X15746000Y78552000D03*
X16766000Y78552000D03*
%TD*%
%TO.C,R23*%
X75746000Y35052000D03*
X76766000Y35052000D03*
%TD*%
%TO.C,R23*%
X15746000Y122052000D03*
X16766000Y122052000D03*
%TD*%
%TO.C,R23*%
X75746000Y122052000D03*
X76766000Y122052000D03*
%TD*%
D14*
%TO.C,R12*%
X46230000Y33274000D03*
X45210000Y33274000D03*
%TD*%
%TO.C,R12*%
X106230000Y33274000D03*
X105210000Y33274000D03*
%TD*%
%TO.C,R12*%
X106230000Y76774000D03*
X105210000Y76774000D03*
%TD*%
%TO.C,R12*%
X46230000Y120274000D03*
X45210000Y120274000D03*
%TD*%
%TO.C,R12*%
X46230000Y76774000D03*
X45210000Y76774000D03*
%TD*%
%TO.C,R12*%
X46230000Y163774000D03*
X45210000Y163774000D03*
%TD*%
%TO.C,R12*%
X106230000Y120274000D03*
X105210000Y120274000D03*
%TD*%
%TO.C,R12*%
X106230000Y163774000D03*
X105210000Y163774000D03*
%TD*%
D11*
%TO.C,C26*%
X23749000Y30960000D03*
X23749000Y30000000D03*
%TD*%
%TO.C,C26*%
X23749000Y117960000D03*
X23749000Y117000000D03*
%TD*%
%TO.C,C26*%
X23749000Y74460000D03*
X23749000Y73500000D03*
%TD*%
%TO.C,C26*%
X23749000Y161460000D03*
X23749000Y160500000D03*
%TD*%
%TO.C,C26*%
X83749000Y30960000D03*
X83749000Y30000000D03*
%TD*%
%TO.C,C26*%
X83749000Y74460000D03*
X83749000Y73500000D03*
%TD*%
%TO.C,C26*%
X83749000Y117960000D03*
X83749000Y117000000D03*
%TD*%
%TO.C,C26*%
X83749000Y161460000D03*
X83749000Y160500000D03*
%TD*%
%TO.C,C2*%
X20320000Y8735000D03*
X20320000Y7775000D03*
%TD*%
%TO.C,C2*%
X20320000Y52235000D03*
X20320000Y51275000D03*
%TD*%
%TO.C,C2*%
X20320000Y139235000D03*
X20320000Y138275000D03*
%TD*%
%TO.C,C2*%
X80320000Y8735000D03*
X80320000Y7775000D03*
%TD*%
%TO.C,C2*%
X80320000Y95735000D03*
X80320000Y94775000D03*
%TD*%
%TO.C,C2*%
X80320000Y139235000D03*
X80320000Y138275000D03*
%TD*%
%TO.C,C2*%
X80320000Y52235000D03*
X80320000Y51275000D03*
%TD*%
%TO.C,C2*%
X20320000Y95735000D03*
X20320000Y94775000D03*
%TD*%
D19*
%TO.C,R30*%
X40513000Y13145000D03*
X40513000Y14795000D03*
%TD*%
%TO.C,R30*%
X100513000Y56645000D03*
X100513000Y58295000D03*
%TD*%
%TO.C,R30*%
X40513000Y100145000D03*
X40513000Y101795000D03*
%TD*%
%TO.C,R30*%
X100513000Y13145000D03*
X100513000Y14795000D03*
%TD*%
%TO.C,R30*%
X100513000Y143645000D03*
X100513000Y145295000D03*
%TD*%
%TO.C,R30*%
X100513000Y100145000D03*
X100513000Y101795000D03*
%TD*%
%TO.C,R30*%
X40513000Y143645000D03*
X40513000Y145295000D03*
%TD*%
%TO.C,R30*%
X40513000Y56645000D03*
X40513000Y58295000D03*
%TD*%
D14*
%TO.C,R13*%
X46230000Y38100000D03*
X45210000Y38100000D03*
%TD*%
%TO.C,R13*%
X46230000Y168600000D03*
X45210000Y168600000D03*
%TD*%
%TO.C,R13*%
X46230000Y125100000D03*
X45210000Y125100000D03*
%TD*%
%TO.C,R13*%
X106230000Y38100000D03*
X105210000Y38100000D03*
%TD*%
%TO.C,R13*%
X106230000Y81600000D03*
X105210000Y81600000D03*
%TD*%
%TO.C,R13*%
X106230000Y168600000D03*
X105210000Y168600000D03*
%TD*%
%TO.C,R13*%
X106230000Y125100000D03*
X105210000Y125100000D03*
%TD*%
%TO.C,R13*%
X46230000Y81600000D03*
X45210000Y81600000D03*
%TD*%
D20*
%TO.C,*%
X-3675000Y2000000D03*
%TD*%
D15*
%TO.C,R14*%
X9652000Y36828000D03*
X9652000Y37848000D03*
%TD*%
%TO.C,R14*%
X69652000Y167328000D03*
X69652000Y168348000D03*
%TD*%
%TO.C,R14*%
X9652000Y123828000D03*
X9652000Y124848000D03*
%TD*%
%TO.C,R14*%
X69652000Y36828000D03*
X69652000Y37848000D03*
%TD*%
%TO.C,R14*%
X69652000Y80328000D03*
X69652000Y81348000D03*
%TD*%
%TO.C,R14*%
X9652000Y80328000D03*
X9652000Y81348000D03*
%TD*%
%TO.C,R14*%
X69652000Y123828000D03*
X69652000Y124848000D03*
%TD*%
%TO.C,R14*%
X9652000Y167328000D03*
X9652000Y168348000D03*
%TD*%
D21*
%TO.C,C15*%
X20307000Y31242000D03*
X21857000Y31242000D03*
%TD*%
%TO.C,C15*%
X20307000Y118242000D03*
X21857000Y118242000D03*
%TD*%
%TO.C,C15*%
X80307000Y31242000D03*
X81857000Y31242000D03*
%TD*%
%TO.C,C15*%
X20307000Y161742000D03*
X21857000Y161742000D03*
%TD*%
%TO.C,C15*%
X80307000Y74742000D03*
X81857000Y74742000D03*
%TD*%
%TO.C,C15*%
X80307000Y161742000D03*
X81857000Y161742000D03*
%TD*%
%TO.C,C15*%
X20307000Y74742000D03*
X21857000Y74742000D03*
%TD*%
%TO.C,C15*%
X80307000Y118242000D03*
X81857000Y118242000D03*
%TD*%
D17*
%TO.C,TP20*%
X20320000Y39370000D03*
%TD*%
%TO.C,TP20*%
X20320000Y82870000D03*
%TD*%
%TO.C,TP20*%
X80320000Y82870000D03*
%TD*%
%TO.C,TP20*%
X80320000Y126370000D03*
%TD*%
%TO.C,TP20*%
X20320000Y169870000D03*
%TD*%
%TO.C,TP20*%
X20320000Y126370000D03*
%TD*%
%TO.C,TP20*%
X80320000Y39370000D03*
%TD*%
%TO.C,TP20*%
X80320000Y169870000D03*
%TD*%
%TO.C,TP14*%
X50800000Y30480000D03*
%TD*%
%TO.C,TP14*%
X50800000Y117480000D03*
%TD*%
%TO.C,TP14*%
X110800000Y73980000D03*
%TD*%
%TO.C,TP14*%
X50800000Y73980000D03*
%TD*%
%TO.C,TP14*%
X110800000Y30480000D03*
%TD*%
%TO.C,TP14*%
X50800000Y160980000D03*
%TD*%
%TO.C,TP14*%
X110800000Y117480000D03*
%TD*%
%TO.C,TP14*%
X110800000Y160980000D03*
%TD*%
%TO.C,TP15*%
X20320000Y26670000D03*
%TD*%
%TO.C,TP15*%
X80320000Y26670000D03*
%TD*%
%TO.C,TP15*%
X80320000Y113670000D03*
%TD*%
%TO.C,TP15*%
X20320000Y157170000D03*
%TD*%
%TO.C,TP15*%
X20320000Y70170000D03*
%TD*%
%TO.C,TP15*%
X20320000Y113670000D03*
%TD*%
%TO.C,TP15*%
X80320000Y70170000D03*
%TD*%
%TO.C,TP15*%
X80320000Y157170000D03*
%TD*%
%TO.C,TP2*%
X35560000Y30480000D03*
%TD*%
%TO.C,TP2*%
X35560000Y160980000D03*
%TD*%
%TO.C,TP2*%
X95560000Y73980000D03*
%TD*%
%TO.C,TP2*%
X95560000Y30480000D03*
%TD*%
%TO.C,TP2*%
X95560000Y117480000D03*
%TD*%
%TO.C,TP2*%
X95560000Y160980000D03*
%TD*%
%TO.C,TP2*%
X35560000Y73980000D03*
%TD*%
%TO.C,TP2*%
X35560000Y117480000D03*
%TD*%
D13*
%TO.C,C25*%
X33048000Y7620000D03*
X34008000Y7620000D03*
%TD*%
%TO.C,C25*%
X33048000Y51120000D03*
X34008000Y51120000D03*
%TD*%
%TO.C,C25*%
X33048000Y138120000D03*
X34008000Y138120000D03*
%TD*%
%TO.C,C25*%
X93048000Y94620000D03*
X94008000Y94620000D03*
%TD*%
%TO.C,C25*%
X93048000Y138120000D03*
X94008000Y138120000D03*
%TD*%
%TO.C,C25*%
X33048000Y94620000D03*
X34008000Y94620000D03*
%TD*%
%TO.C,C25*%
X93048000Y7620000D03*
X94008000Y7620000D03*
%TD*%
%TO.C,C25*%
X93048000Y51120000D03*
X94008000Y51120000D03*
%TD*%
D22*
%TO.C,C17*%
X39116000Y6363000D03*
X39116000Y4813000D03*
%TD*%
%TO.C,C17*%
X99116000Y136863000D03*
X99116000Y135313000D03*
%TD*%
%TO.C,C17*%
X39116000Y136863000D03*
X39116000Y135313000D03*
%TD*%
%TO.C,C17*%
X99116000Y6363000D03*
X99116000Y4813000D03*
%TD*%
%TO.C,C17*%
X99116000Y49863000D03*
X99116000Y48313000D03*
%TD*%
%TO.C,C17*%
X39116000Y49863000D03*
X39116000Y48313000D03*
%TD*%
%TO.C,C17*%
X39116000Y93363000D03*
X39116000Y91813000D03*
%TD*%
%TO.C,C17*%
X99116000Y93363000D03*
X99116000Y91813000D03*
%TD*%
D18*
%TO.C,R26*%
X15748000Y34036000D03*
X16768000Y34036000D03*
%TD*%
%TO.C,R26*%
X15748000Y164536000D03*
X16768000Y164536000D03*
%TD*%
%TO.C,R26*%
X15748000Y77536000D03*
X16768000Y77536000D03*
%TD*%
%TO.C,R26*%
X15748000Y121036000D03*
X16768000Y121036000D03*
%TD*%
%TO.C,R26*%
X75748000Y34036000D03*
X76768000Y34036000D03*
%TD*%
%TO.C,R26*%
X75748000Y121036000D03*
X76768000Y121036000D03*
%TD*%
%TO.C,R26*%
X75748000Y164536000D03*
X76768000Y164536000D03*
%TD*%
%TO.C,R26*%
X75748000Y77536000D03*
X76768000Y77536000D03*
%TD*%
D14*
%TO.C,R17*%
X17020000Y27686000D03*
X16000000Y27686000D03*
%TD*%
%TO.C,R17*%
X17020000Y158186000D03*
X16000000Y158186000D03*
%TD*%
%TO.C,R17*%
X17020000Y71186000D03*
X16000000Y71186000D03*
%TD*%
%TO.C,R17*%
X17020000Y114686000D03*
X16000000Y114686000D03*
%TD*%
%TO.C,R17*%
X77020000Y27686000D03*
X76000000Y27686000D03*
%TD*%
%TO.C,R17*%
X77020000Y158186000D03*
X76000000Y158186000D03*
%TD*%
%TO.C,R17*%
X77020000Y71186000D03*
X76000000Y71186000D03*
%TD*%
%TO.C,R17*%
X77020000Y114686000D03*
X76000000Y114686000D03*
%TD*%
D15*
%TO.C,R28*%
X40005000Y32637000D03*
X40005000Y33657000D03*
%TD*%
%TO.C,R28*%
X100005000Y163137000D03*
X100005000Y164157000D03*
%TD*%
%TO.C,R28*%
X40005000Y163137000D03*
X40005000Y164157000D03*
%TD*%
%TO.C,R28*%
X100005000Y76137000D03*
X100005000Y77157000D03*
%TD*%
%TO.C,R28*%
X100005000Y119637000D03*
X100005000Y120657000D03*
%TD*%
%TO.C,R28*%
X40005000Y76137000D03*
X40005000Y77157000D03*
%TD*%
%TO.C,R28*%
X100005000Y32637000D03*
X100005000Y33657000D03*
%TD*%
%TO.C,R28*%
X40005000Y119637000D03*
X40005000Y120657000D03*
%TD*%
D23*
%TO.C,Q3*%
X46670000Y34560000D03*
X44770000Y34560000D03*
X45720000Y36660000D03*
%TD*%
%TO.C,Q3*%
X46670000Y78060000D03*
X44770000Y78060000D03*
X45720000Y80160000D03*
%TD*%
%TO.C,Q3*%
X46670000Y165060000D03*
X44770000Y165060000D03*
X45720000Y167160000D03*
%TD*%
%TO.C,Q3*%
X46670000Y121560000D03*
X44770000Y121560000D03*
X45720000Y123660000D03*
%TD*%
%TO.C,Q3*%
X106670000Y78060000D03*
X104770000Y78060000D03*
X105720000Y80160000D03*
%TD*%
%TO.C,Q3*%
X106670000Y121560000D03*
X104770000Y121560000D03*
X105720000Y123660000D03*
%TD*%
%TO.C,Q3*%
X106670000Y165060000D03*
X104770000Y165060000D03*
X105720000Y167160000D03*
%TD*%
%TO.C,Q3*%
X106670000Y34560000D03*
X104770000Y34560000D03*
X105720000Y36660000D03*
%TD*%
D13*
%TO.C,C13*%
X16030000Y28702000D03*
X16990000Y28702000D03*
%TD*%
%TO.C,C13*%
X76030000Y28702000D03*
X76990000Y28702000D03*
%TD*%
%TO.C,C13*%
X16030000Y72202000D03*
X16990000Y72202000D03*
%TD*%
%TO.C,C13*%
X16030000Y115702000D03*
X16990000Y115702000D03*
%TD*%
%TO.C,C13*%
X16030000Y159202000D03*
X16990000Y159202000D03*
%TD*%
%TO.C,C13*%
X76030000Y115702000D03*
X76990000Y115702000D03*
%TD*%
%TO.C,C13*%
X76030000Y159202000D03*
X76990000Y159202000D03*
%TD*%
%TO.C,C13*%
X76030000Y72202000D03*
X76990000Y72202000D03*
%TD*%
D24*
%TO.C,Q1*%
X17938000Y20462000D03*
X17938000Y19812000D03*
X17938000Y19162000D03*
X16098000Y19162000D03*
X16098000Y19812000D03*
X16098000Y20462000D03*
%TD*%
%TO.C,Q1*%
X17938000Y63962000D03*
X17938000Y63312000D03*
X17938000Y62662000D03*
X16098000Y62662000D03*
X16098000Y63312000D03*
X16098000Y63962000D03*
%TD*%
%TO.C,Q1*%
X17938000Y107462000D03*
X17938000Y106812000D03*
X17938000Y106162000D03*
X16098000Y106162000D03*
X16098000Y106812000D03*
X16098000Y107462000D03*
%TD*%
%TO.C,Q1*%
X17938000Y150962000D03*
X17938000Y150312000D03*
X17938000Y149662000D03*
X16098000Y149662000D03*
X16098000Y150312000D03*
X16098000Y150962000D03*
%TD*%
%TO.C,Q1*%
X77938000Y63962000D03*
X77938000Y63312000D03*
X77938000Y62662000D03*
X76098000Y62662000D03*
X76098000Y63312000D03*
X76098000Y63962000D03*
%TD*%
%TO.C,Q1*%
X77938000Y150962000D03*
X77938000Y150312000D03*
X77938000Y149662000D03*
X76098000Y149662000D03*
X76098000Y150312000D03*
X76098000Y150962000D03*
%TD*%
%TO.C,Q1*%
X77938000Y107462000D03*
X77938000Y106812000D03*
X77938000Y106162000D03*
X76098000Y106162000D03*
X76098000Y106812000D03*
X76098000Y107462000D03*
%TD*%
%TO.C,Q1*%
X77938000Y20462000D03*
X77938000Y19812000D03*
X77938000Y19162000D03*
X76098000Y19162000D03*
X76098000Y19812000D03*
X76098000Y20462000D03*
%TD*%
D12*
%TO.C,C22*%
X26416000Y13490000D03*
X26416000Y14450000D03*
%TD*%
%TO.C,C22*%
X86416000Y100490000D03*
X86416000Y101450000D03*
%TD*%
%TO.C,C22*%
X26416000Y100490000D03*
X26416000Y101450000D03*
%TD*%
%TO.C,C22*%
X86416000Y143990000D03*
X86416000Y144950000D03*
%TD*%
%TO.C,C22*%
X26416000Y143990000D03*
X26416000Y144950000D03*
%TD*%
%TO.C,C22*%
X86416000Y13490000D03*
X86416000Y14450000D03*
%TD*%
%TO.C,C22*%
X26416000Y56990000D03*
X26416000Y57950000D03*
%TD*%
%TO.C,C22*%
X86416000Y56990000D03*
X86416000Y57950000D03*
%TD*%
D25*
%TO.C,R7*%
X18288000Y8765000D03*
X18288000Y7745000D03*
%TD*%
%TO.C,R7*%
X78288000Y8765000D03*
X78288000Y7745000D03*
%TD*%
%TO.C,R7*%
X18288000Y52265000D03*
X18288000Y51245000D03*
%TD*%
%TO.C,R7*%
X18288000Y95765000D03*
X18288000Y94745000D03*
%TD*%
%TO.C,R7*%
X78288000Y95765000D03*
X78288000Y94745000D03*
%TD*%
%TO.C,R7*%
X78288000Y139265000D03*
X78288000Y138245000D03*
%TD*%
%TO.C,R7*%
X78288000Y52265000D03*
X78288000Y51245000D03*
%TD*%
%TO.C,R7*%
X18288000Y139265000D03*
X18288000Y138245000D03*
%TD*%
D15*
%TO.C,R15*%
X11176000Y36828000D03*
X11176000Y37848000D03*
%TD*%
%TO.C,R15*%
X11176000Y80328000D03*
X11176000Y81348000D03*
%TD*%
%TO.C,R15*%
X71176000Y167328000D03*
X71176000Y168348000D03*
%TD*%
%TO.C,R15*%
X11176000Y123828000D03*
X11176000Y124848000D03*
%TD*%
%TO.C,R15*%
X71176000Y36828000D03*
X71176000Y37848000D03*
%TD*%
%TO.C,R15*%
X71176000Y80328000D03*
X71176000Y81348000D03*
%TD*%
%TO.C,R15*%
X11176000Y167328000D03*
X11176000Y168348000D03*
%TD*%
%TO.C,R15*%
X71176000Y123828000D03*
X71176000Y124848000D03*
%TD*%
D26*
%TO.C,Q2*%
X47060000Y16830000D03*
X47060000Y17780000D03*
X47060000Y18730000D03*
X49460000Y18730000D03*
D27*
X49460000Y17780000D03*
D26*
X49460000Y16830000D03*
%TD*%
%TO.C,Q2*%
X107060000Y147330000D03*
X107060000Y148280000D03*
X107060000Y149230000D03*
X109460000Y149230000D03*
D27*
X109460000Y148280000D03*
D26*
X109460000Y147330000D03*
%TD*%
%TO.C,Q2*%
X107060000Y60330000D03*
X107060000Y61280000D03*
X107060000Y62230000D03*
X109460000Y62230000D03*
D27*
X109460000Y61280000D03*
D26*
X109460000Y60330000D03*
%TD*%
%TO.C,Q2*%
X107060000Y16830000D03*
X107060000Y17780000D03*
X107060000Y18730000D03*
X109460000Y18730000D03*
D27*
X109460000Y17780000D03*
D26*
X109460000Y16830000D03*
%TD*%
%TO.C,Q2*%
X107060000Y103830000D03*
X107060000Y104780000D03*
X107060000Y105730000D03*
X109460000Y105730000D03*
D27*
X109460000Y104780000D03*
D26*
X109460000Y103830000D03*
%TD*%
%TO.C,Q2*%
X47060000Y147330000D03*
X47060000Y148280000D03*
X47060000Y149230000D03*
X49460000Y149230000D03*
D27*
X49460000Y148280000D03*
D26*
X49460000Y147330000D03*
%TD*%
%TO.C,Q2*%
X47060000Y60330000D03*
X47060000Y61280000D03*
X47060000Y62230000D03*
X49460000Y62230000D03*
D27*
X49460000Y61280000D03*
D26*
X49460000Y60330000D03*
%TD*%
%TO.C,Q2*%
X47060000Y103830000D03*
X47060000Y104780000D03*
X47060000Y105730000D03*
X49460000Y105730000D03*
D27*
X49460000Y104780000D03*
D26*
X49460000Y103830000D03*
%TD*%
D28*
%TO.C,U11*%
X25466000Y11968100D03*
X26416000Y11968100D03*
X27366000Y11968100D03*
X27366000Y9367900D03*
X25466000Y9367900D03*
%TD*%
%TO.C,U11*%
X85466000Y98968100D03*
X86416000Y98968100D03*
X87366000Y98968100D03*
X87366000Y96367900D03*
X85466000Y96367900D03*
%TD*%
%TO.C,U11*%
X25466000Y98968100D03*
X26416000Y98968100D03*
X27366000Y98968100D03*
X27366000Y96367900D03*
X25466000Y96367900D03*
%TD*%
%TO.C,U11*%
X85466000Y11968100D03*
X86416000Y11968100D03*
X87366000Y11968100D03*
X87366000Y9367900D03*
X85466000Y9367900D03*
%TD*%
%TO.C,U11*%
X85466000Y142468100D03*
X86416000Y142468100D03*
X87366000Y142468100D03*
X87366000Y139867900D03*
X85466000Y139867900D03*
%TD*%
%TO.C,U11*%
X85466000Y55468100D03*
X86416000Y55468100D03*
X87366000Y55468100D03*
X87366000Y52867900D03*
X85466000Y52867900D03*
%TD*%
%TO.C,U11*%
X25466000Y142468100D03*
X26416000Y142468100D03*
X27366000Y142468100D03*
X27366000Y139867900D03*
X25466000Y139867900D03*
%TD*%
%TO.C,U11*%
X25466000Y55468100D03*
X26416000Y55468100D03*
X27366000Y55468100D03*
X27366000Y52867900D03*
X25466000Y52867900D03*
%TD*%
D29*
%TO.C,FID2*%
X770000Y38450000D03*
%TD*%
%TO.C,FID2*%
X60770000Y168950000D03*
%TD*%
%TO.C,FID2*%
X60770000Y81950000D03*
%TD*%
%TO.C,FID2*%
X770000Y168950000D03*
%TD*%
%TO.C,FID2*%
X770000Y81950000D03*
%TD*%
%TO.C,FID2*%
X770000Y125450000D03*
%TD*%
%TO.C,FID2*%
X60770000Y38450000D03*
%TD*%
%TO.C,FID2*%
X60770000Y125450000D03*
%TD*%
D11*
%TO.C,C7*%
X29972000Y14450000D03*
X29972000Y13490000D03*
%TD*%
%TO.C,C7*%
X29972000Y144950000D03*
X29972000Y143990000D03*
%TD*%
%TO.C,C7*%
X29972000Y57950000D03*
X29972000Y56990000D03*
%TD*%
%TO.C,C7*%
X29972000Y101450000D03*
X29972000Y100490000D03*
%TD*%
%TO.C,C7*%
X89972000Y14450000D03*
X89972000Y13490000D03*
%TD*%
%TO.C,C7*%
X89972000Y57950000D03*
X89972000Y56990000D03*
%TD*%
%TO.C,C7*%
X89972000Y101450000D03*
X89972000Y100490000D03*
%TD*%
%TO.C,C7*%
X89972000Y144950000D03*
X89972000Y143990000D03*
%TD*%
D30*
%TO.C,D5*%
X38220000Y19812000D03*
X40520000Y19812000D03*
%TD*%
%TO.C,D5*%
X38220000Y63312000D03*
X40520000Y63312000D03*
%TD*%
%TO.C,D5*%
X98220000Y63312000D03*
X100520000Y63312000D03*
%TD*%
%TO.C,D5*%
X38220000Y150312000D03*
X40520000Y150312000D03*
%TD*%
%TO.C,D5*%
X98220000Y106812000D03*
X100520000Y106812000D03*
%TD*%
%TO.C,D5*%
X38220000Y106812000D03*
X40520000Y106812000D03*
%TD*%
%TO.C,D5*%
X98220000Y19812000D03*
X100520000Y19812000D03*
%TD*%
%TO.C,D5*%
X98220000Y150312000D03*
X100520000Y150312000D03*
%TD*%
D12*
%TO.C,C11*%
X14224000Y36858000D03*
X14224000Y37818000D03*
%TD*%
%TO.C,C11*%
X14224000Y80358000D03*
X14224000Y81318000D03*
%TD*%
%TO.C,C11*%
X14224000Y123858000D03*
X14224000Y124818000D03*
%TD*%
%TO.C,C11*%
X14224000Y167358000D03*
X14224000Y168318000D03*
%TD*%
%TO.C,C11*%
X74224000Y80358000D03*
X74224000Y81318000D03*
%TD*%
%TO.C,C11*%
X74224000Y167358000D03*
X74224000Y168318000D03*
%TD*%
%TO.C,C11*%
X74224000Y123858000D03*
X74224000Y124818000D03*
%TD*%
%TO.C,C11*%
X74224000Y36858000D03*
X74224000Y37818000D03*
%TD*%
D29*
%TO.C,FID1*%
X58530000Y850000D03*
%TD*%
%TO.C,FID1*%
X58530000Y87850000D03*
%TD*%
%TO.C,FID1*%
X118530000Y131350000D03*
%TD*%
%TO.C,FID1*%
X118530000Y44350000D03*
%TD*%
%TO.C,FID1*%
X118530000Y850000D03*
%TD*%
%TO.C,FID1*%
X58530000Y44350000D03*
%TD*%
%TO.C,FID1*%
X58530000Y131350000D03*
%TD*%
%TO.C,FID1*%
X118530000Y87850000D03*
%TD*%
D17*
%TO.C,TP3*%
X26670000Y16510000D03*
%TD*%
%TO.C,TP3*%
X26670000Y147010000D03*
%TD*%
%TO.C,TP3*%
X86670000Y147010000D03*
%TD*%
%TO.C,TP3*%
X26670000Y103510000D03*
%TD*%
%TO.C,TP3*%
X26670000Y60010000D03*
%TD*%
%TO.C,TP3*%
X86670000Y16510000D03*
%TD*%
%TO.C,TP3*%
X86670000Y103510000D03*
%TD*%
%TO.C,TP3*%
X86670000Y60010000D03*
%TD*%
D25*
%TO.C,R19*%
X17272000Y37848000D03*
X17272000Y36828000D03*
%TD*%
%TO.C,R19*%
X77272000Y168348000D03*
X77272000Y167328000D03*
%TD*%
%TO.C,R19*%
X17272000Y168348000D03*
X17272000Y167328000D03*
%TD*%
%TO.C,R19*%
X17272000Y124848000D03*
X17272000Y123828000D03*
%TD*%
%TO.C,R19*%
X77272000Y37848000D03*
X77272000Y36828000D03*
%TD*%
%TO.C,R19*%
X17272000Y81348000D03*
X17272000Y80328000D03*
%TD*%
%TO.C,R19*%
X77272000Y124848000D03*
X77272000Y123828000D03*
%TD*%
%TO.C,R19*%
X77272000Y81348000D03*
X77272000Y80328000D03*
%TD*%
D18*
%TO.C,R27*%
X15748000Y33020000D03*
X16768000Y33020000D03*
%TD*%
%TO.C,R27*%
X15748000Y120020000D03*
X16768000Y120020000D03*
%TD*%
%TO.C,R27*%
X75748000Y33020000D03*
X76768000Y33020000D03*
%TD*%
%TO.C,R27*%
X75748000Y76520000D03*
X76768000Y76520000D03*
%TD*%
%TO.C,R27*%
X75748000Y163520000D03*
X76768000Y163520000D03*
%TD*%
%TO.C,R27*%
X15748000Y163520000D03*
X16768000Y163520000D03*
%TD*%
%TO.C,R27*%
X15748000Y76520000D03*
X16768000Y76520000D03*
%TD*%
%TO.C,R27*%
X75748000Y120020000D03*
X76768000Y120020000D03*
%TD*%
D13*
%TO.C,C18*%
X43716000Y19812000D03*
X44676000Y19812000D03*
%TD*%
%TO.C,C18*%
X103716000Y63312000D03*
X104676000Y63312000D03*
%TD*%
%TO.C,C18*%
X43716000Y63312000D03*
X44676000Y63312000D03*
%TD*%
%TO.C,C18*%
X43716000Y106812000D03*
X44676000Y106812000D03*
%TD*%
%TO.C,C18*%
X43716000Y150312000D03*
X44676000Y150312000D03*
%TD*%
%TO.C,C18*%
X103716000Y19812000D03*
X104676000Y19812000D03*
%TD*%
%TO.C,C18*%
X103716000Y106812000D03*
X104676000Y106812000D03*
%TD*%
%TO.C,C18*%
X103716000Y150312000D03*
X104676000Y150312000D03*
%TD*%
D31*
%TO.C,C4*%
X8354000Y14986000D03*
X7394000Y14986000D03*
%TD*%
%TO.C,C4*%
X8354000Y101986000D03*
X7394000Y101986000D03*
%TD*%
%TO.C,C4*%
X68354000Y14986000D03*
X67394000Y14986000D03*
%TD*%
%TO.C,C4*%
X68354000Y101986000D03*
X67394000Y101986000D03*
%TD*%
%TO.C,C4*%
X8354000Y58486000D03*
X7394000Y58486000D03*
%TD*%
%TO.C,C4*%
X8354000Y145486000D03*
X7394000Y145486000D03*
%TD*%
%TO.C,C4*%
X68354000Y58486000D03*
X67394000Y58486000D03*
%TD*%
%TO.C,C4*%
X68354000Y145486000D03*
X67394000Y145486000D03*
%TD*%
D32*
%TO.C,R16*%
X48260000Y36385000D03*
X48260000Y34735000D03*
%TD*%
%TO.C,R16*%
X48260000Y79885000D03*
X48260000Y78235000D03*
%TD*%
%TO.C,R16*%
X48260000Y123385000D03*
X48260000Y121735000D03*
%TD*%
%TO.C,R16*%
X48260000Y166885000D03*
X48260000Y165235000D03*
%TD*%
%TO.C,R16*%
X108260000Y36385000D03*
X108260000Y34735000D03*
%TD*%
%TO.C,R16*%
X108260000Y79885000D03*
X108260000Y78235000D03*
%TD*%
%TO.C,R16*%
X108260000Y123385000D03*
X108260000Y121735000D03*
%TD*%
%TO.C,R16*%
X108260000Y166885000D03*
X108260000Y165235000D03*
%TD*%
D25*
%TO.C,R29*%
X39116000Y14734000D03*
X39116000Y13714000D03*
%TD*%
%TO.C,R29*%
X39116000Y58234000D03*
X39116000Y57214000D03*
%TD*%
%TO.C,R29*%
X39116000Y101734000D03*
X39116000Y100714000D03*
%TD*%
%TO.C,R29*%
X39116000Y145234000D03*
X39116000Y144214000D03*
%TD*%
%TO.C,R29*%
X99116000Y14734000D03*
X99116000Y13714000D03*
%TD*%
%TO.C,R29*%
X99116000Y58234000D03*
X99116000Y57214000D03*
%TD*%
%TO.C,R29*%
X99116000Y101734000D03*
X99116000Y100714000D03*
%TD*%
%TO.C,R29*%
X99116000Y145234000D03*
X99116000Y144214000D03*
%TD*%
D15*
%TO.C,R33*%
X43688000Y17778000D03*
X43688000Y18798000D03*
%TD*%
%TO.C,R33*%
X43688000Y148278000D03*
X43688000Y149298000D03*
%TD*%
%TO.C,R33*%
X103688000Y104778000D03*
X103688000Y105798000D03*
%TD*%
%TO.C,R33*%
X103688000Y17778000D03*
X103688000Y18798000D03*
%TD*%
%TO.C,R33*%
X103688000Y148278000D03*
X103688000Y149298000D03*
%TD*%
%TO.C,R33*%
X103688000Y61278000D03*
X103688000Y62298000D03*
%TD*%
%TO.C,R33*%
X43688000Y61278000D03*
X43688000Y62298000D03*
%TD*%
%TO.C,R33*%
X43688000Y104778000D03*
X43688000Y105798000D03*
%TD*%
D25*
%TO.C,R8*%
X17272000Y8765000D03*
X17272000Y7745000D03*
%TD*%
%TO.C,R8*%
X77272000Y8765000D03*
X77272000Y7745000D03*
%TD*%
%TO.C,R8*%
X17272000Y95765000D03*
X17272000Y94745000D03*
%TD*%
%TO.C,R8*%
X17272000Y52265000D03*
X17272000Y51245000D03*
%TD*%
%TO.C,R8*%
X77272000Y52265000D03*
X77272000Y51245000D03*
%TD*%
%TO.C,R8*%
X77272000Y95765000D03*
X77272000Y94745000D03*
%TD*%
%TO.C,R8*%
X17272000Y139265000D03*
X17272000Y138245000D03*
%TD*%
%TO.C,R8*%
X77272000Y139265000D03*
X77272000Y138245000D03*
%TD*%
D33*
%TO.C,U13*%
X22225000Y38614000D03*
X23495000Y38614000D03*
X24765000Y38614000D03*
X26035000Y38614000D03*
X27305000Y38614000D03*
X28575000Y38614000D03*
X29845000Y38614000D03*
X31115000Y38614000D03*
X31115000Y33014000D03*
X29845000Y33014000D03*
X28575000Y33014000D03*
X27305000Y33014000D03*
X26035000Y33014000D03*
X24765000Y33014000D03*
X23495000Y33014000D03*
X22225000Y33014000D03*
%TD*%
%TO.C,U13*%
X82225000Y125614000D03*
X83495000Y125614000D03*
X84765000Y125614000D03*
X86035000Y125614000D03*
X87305000Y125614000D03*
X88575000Y125614000D03*
X89845000Y125614000D03*
X91115000Y125614000D03*
X91115000Y120014000D03*
X89845000Y120014000D03*
X88575000Y120014000D03*
X87305000Y120014000D03*
X86035000Y120014000D03*
X84765000Y120014000D03*
X83495000Y120014000D03*
X82225000Y120014000D03*
%TD*%
%TO.C,U13*%
X22225000Y82114000D03*
X23495000Y82114000D03*
X24765000Y82114000D03*
X26035000Y82114000D03*
X27305000Y82114000D03*
X28575000Y82114000D03*
X29845000Y82114000D03*
X31115000Y82114000D03*
X31115000Y76514000D03*
X29845000Y76514000D03*
X28575000Y76514000D03*
X27305000Y76514000D03*
X26035000Y76514000D03*
X24765000Y76514000D03*
X23495000Y76514000D03*
X22225000Y76514000D03*
%TD*%
%TO.C,U13*%
X22225000Y125614000D03*
X23495000Y125614000D03*
X24765000Y125614000D03*
X26035000Y125614000D03*
X27305000Y125614000D03*
X28575000Y125614000D03*
X29845000Y125614000D03*
X31115000Y125614000D03*
X31115000Y120014000D03*
X29845000Y120014000D03*
X28575000Y120014000D03*
X27305000Y120014000D03*
X26035000Y120014000D03*
X24765000Y120014000D03*
X23495000Y120014000D03*
X22225000Y120014000D03*
%TD*%
%TO.C,U13*%
X22225000Y169114000D03*
X23495000Y169114000D03*
X24765000Y169114000D03*
X26035000Y169114000D03*
X27305000Y169114000D03*
X28575000Y169114000D03*
X29845000Y169114000D03*
X31115000Y169114000D03*
X31115000Y163514000D03*
X29845000Y163514000D03*
X28575000Y163514000D03*
X27305000Y163514000D03*
X26035000Y163514000D03*
X24765000Y163514000D03*
X23495000Y163514000D03*
X22225000Y163514000D03*
%TD*%
%TO.C,U13*%
X82225000Y38614000D03*
X83495000Y38614000D03*
X84765000Y38614000D03*
X86035000Y38614000D03*
X87305000Y38614000D03*
X88575000Y38614000D03*
X89845000Y38614000D03*
X91115000Y38614000D03*
X91115000Y33014000D03*
X89845000Y33014000D03*
X88575000Y33014000D03*
X87305000Y33014000D03*
X86035000Y33014000D03*
X84765000Y33014000D03*
X83495000Y33014000D03*
X82225000Y33014000D03*
%TD*%
%TO.C,U13*%
X82225000Y82114000D03*
X83495000Y82114000D03*
X84765000Y82114000D03*
X86035000Y82114000D03*
X87305000Y82114000D03*
X88575000Y82114000D03*
X89845000Y82114000D03*
X91115000Y82114000D03*
X91115000Y76514000D03*
X89845000Y76514000D03*
X88575000Y76514000D03*
X87305000Y76514000D03*
X86035000Y76514000D03*
X84765000Y76514000D03*
X83495000Y76514000D03*
X82225000Y76514000D03*
%TD*%
%TO.C,U13*%
X82225000Y169114000D03*
X83495000Y169114000D03*
X84765000Y169114000D03*
X86035000Y169114000D03*
X87305000Y169114000D03*
X88575000Y169114000D03*
X89845000Y169114000D03*
X91115000Y169114000D03*
X91115000Y163514000D03*
X89845000Y163514000D03*
X88575000Y163514000D03*
X87305000Y163514000D03*
X86035000Y163514000D03*
X84765000Y163514000D03*
X83495000Y163514000D03*
X82225000Y163514000D03*
%TD*%
D20*
%TO.C,*%
X-3675000Y171500000D03*
%TD*%
D14*
%TO.C,R3*%
X14734000Y19304000D03*
X13714000Y19304000D03*
%TD*%
%TO.C,R3*%
X74734000Y149804000D03*
X73714000Y149804000D03*
%TD*%
%TO.C,R3*%
X14734000Y106304000D03*
X13714000Y106304000D03*
%TD*%
%TO.C,R3*%
X14734000Y62804000D03*
X13714000Y62804000D03*
%TD*%
%TO.C,R3*%
X14734000Y149804000D03*
X13714000Y149804000D03*
%TD*%
%TO.C,R3*%
X74734000Y62804000D03*
X73714000Y62804000D03*
%TD*%
%TO.C,R3*%
X74734000Y106304000D03*
X73714000Y106304000D03*
%TD*%
%TO.C,R3*%
X74734000Y19304000D03*
X73714000Y19304000D03*
%TD*%
D31*
%TO.C,C12*%
X6703000Y32258000D03*
X5743000Y32258000D03*
%TD*%
%TO.C,C12*%
X66703000Y162758000D03*
X65743000Y162758000D03*
%TD*%
%TO.C,C12*%
X6703000Y75758000D03*
X5743000Y75758000D03*
%TD*%
%TO.C,C12*%
X6703000Y119258000D03*
X5743000Y119258000D03*
%TD*%
%TO.C,C12*%
X66703000Y32258000D03*
X65743000Y32258000D03*
%TD*%
%TO.C,C12*%
X66703000Y75758000D03*
X65743000Y75758000D03*
%TD*%
%TO.C,C12*%
X66703000Y119258000D03*
X65743000Y119258000D03*
%TD*%
%TO.C,C12*%
X6703000Y162758000D03*
X5743000Y162758000D03*
%TD*%
D22*
%TO.C,C29*%
X33020000Y3328000D03*
X33020000Y1778000D03*
%TD*%
%TO.C,C29*%
X33020000Y46828000D03*
X33020000Y45278000D03*
%TD*%
%TO.C,C29*%
X33020000Y90328000D03*
X33020000Y88778000D03*
%TD*%
%TO.C,C29*%
X33020000Y133828000D03*
X33020000Y132278000D03*
%TD*%
%TO.C,C29*%
X93020000Y3328000D03*
X93020000Y1778000D03*
%TD*%
%TO.C,C29*%
X93020000Y46828000D03*
X93020000Y45278000D03*
%TD*%
%TO.C,C29*%
X93020000Y90328000D03*
X93020000Y88778000D03*
%TD*%
%TO.C,C29*%
X93020000Y133828000D03*
X93020000Y132278000D03*
%TD*%
D34*
%TO.C,L1*%
X28207000Y19685000D03*
X26657000Y19685000D03*
%TD*%
%TO.C,L1*%
X88207000Y63185000D03*
X86657000Y63185000D03*
%TD*%
%TO.C,L1*%
X28207000Y106685000D03*
X26657000Y106685000D03*
%TD*%
%TO.C,L1*%
X28207000Y150185000D03*
X26657000Y150185000D03*
%TD*%
%TO.C,L1*%
X28207000Y63185000D03*
X26657000Y63185000D03*
%TD*%
%TO.C,L1*%
X88207000Y19685000D03*
X86657000Y19685000D03*
%TD*%
%TO.C,L1*%
X88207000Y106685000D03*
X86657000Y106685000D03*
%TD*%
%TO.C,L1*%
X88207000Y150185000D03*
X86657000Y150185000D03*
%TD*%
D15*
%TO.C,R24*%
X12192000Y36828000D03*
X12192000Y37848000D03*
%TD*%
%TO.C,R24*%
X72192000Y36828000D03*
X72192000Y37848000D03*
%TD*%
%TO.C,R24*%
X72192000Y123828000D03*
X72192000Y124848000D03*
%TD*%
%TO.C,R24*%
X12192000Y80328000D03*
X12192000Y81348000D03*
%TD*%
%TO.C,R24*%
X72192000Y80328000D03*
X72192000Y81348000D03*
%TD*%
%TO.C,R24*%
X12192000Y123828000D03*
X12192000Y124848000D03*
%TD*%
%TO.C,R24*%
X72192000Y167328000D03*
X72192000Y168348000D03*
%TD*%
%TO.C,R24*%
X12192000Y167328000D03*
X12192000Y168348000D03*
%TD*%
D14*
%TO.C,R5*%
X51818000Y33274000D03*
X50798000Y33274000D03*
%TD*%
%TO.C,R5*%
X51818000Y76774000D03*
X50798000Y76774000D03*
%TD*%
%TO.C,R5*%
X51818000Y120274000D03*
X50798000Y120274000D03*
%TD*%
%TO.C,R5*%
X51818000Y163774000D03*
X50798000Y163774000D03*
%TD*%
%TO.C,R5*%
X111818000Y33274000D03*
X110798000Y33274000D03*
%TD*%
%TO.C,R5*%
X111818000Y120274000D03*
X110798000Y120274000D03*
%TD*%
%TO.C,R5*%
X111818000Y163774000D03*
X110798000Y163774000D03*
%TD*%
%TO.C,R5*%
X111818000Y76774000D03*
X110798000Y76774000D03*
%TD*%
D22*
%TO.C,C20*%
X51054000Y18555000D03*
X51054000Y17005000D03*
%TD*%
%TO.C,C20*%
X111054000Y18555000D03*
X111054000Y17005000D03*
%TD*%
%TO.C,C20*%
X51054000Y105555000D03*
X51054000Y104005000D03*
%TD*%
%TO.C,C20*%
X51054000Y149055000D03*
X51054000Y147505000D03*
%TD*%
%TO.C,C20*%
X51054000Y62055000D03*
X51054000Y60505000D03*
%TD*%
%TO.C,C20*%
X111054000Y62055000D03*
X111054000Y60505000D03*
%TD*%
%TO.C,C20*%
X111054000Y105555000D03*
X111054000Y104005000D03*
%TD*%
%TO.C,C20*%
X111054000Y149055000D03*
X111054000Y147505000D03*
%TD*%
D15*
%TO.C,R37*%
X38989000Y32637000D03*
X38989000Y33657000D03*
%TD*%
%TO.C,R37*%
X38989000Y119637000D03*
X38989000Y120657000D03*
%TD*%
%TO.C,R37*%
X38989000Y76137000D03*
X38989000Y77157000D03*
%TD*%
%TO.C,R37*%
X98989000Y76137000D03*
X98989000Y77157000D03*
%TD*%
%TO.C,R37*%
X98989000Y119637000D03*
X98989000Y120657000D03*
%TD*%
%TO.C,R37*%
X38989000Y163137000D03*
X38989000Y164157000D03*
%TD*%
%TO.C,R37*%
X98989000Y163137000D03*
X98989000Y164157000D03*
%TD*%
%TO.C,R37*%
X98989000Y32637000D03*
X98989000Y33657000D03*
%TD*%
D30*
%TO.C,D4*%
X38220000Y17780000D03*
X40520000Y17780000D03*
%TD*%
%TO.C,D4*%
X98220000Y148280000D03*
X100520000Y148280000D03*
%TD*%
%TO.C,D4*%
X38220000Y61280000D03*
X40520000Y61280000D03*
%TD*%
%TO.C,D4*%
X38220000Y104780000D03*
X40520000Y104780000D03*
%TD*%
%TO.C,D4*%
X98220000Y17780000D03*
X100520000Y17780000D03*
%TD*%
%TO.C,D4*%
X98220000Y61280000D03*
X100520000Y61280000D03*
%TD*%
%TO.C,D4*%
X98220000Y104780000D03*
X100520000Y104780000D03*
%TD*%
%TO.C,D4*%
X38220000Y148280000D03*
X40520000Y148280000D03*
%TD*%
D13*
%TO.C,C3*%
X42700000Y1778000D03*
X43660000Y1778000D03*
%TD*%
%TO.C,C3*%
X42700000Y45278000D03*
X43660000Y45278000D03*
%TD*%
%TO.C,C3*%
X102700000Y45278000D03*
X103660000Y45278000D03*
%TD*%
%TO.C,C3*%
X42700000Y132278000D03*
X43660000Y132278000D03*
%TD*%
%TO.C,C3*%
X42700000Y88778000D03*
X43660000Y88778000D03*
%TD*%
%TO.C,C3*%
X102700000Y1778000D03*
X103660000Y1778000D03*
%TD*%
%TO.C,C3*%
X102700000Y132278000D03*
X103660000Y132278000D03*
%TD*%
%TO.C,C3*%
X102700000Y88778000D03*
X103660000Y88778000D03*
%TD*%
D11*
%TO.C,C30*%
X9525000Y28166000D03*
X9525000Y27206000D03*
%TD*%
%TO.C,C30*%
X69525000Y28166000D03*
X69525000Y27206000D03*
%TD*%
%TO.C,C30*%
X9525000Y115166000D03*
X9525000Y114206000D03*
%TD*%
%TO.C,C30*%
X9525000Y158666000D03*
X9525000Y157706000D03*
%TD*%
%TO.C,C30*%
X9525000Y71666000D03*
X9525000Y70706000D03*
%TD*%
%TO.C,C30*%
X69525000Y115166000D03*
X69525000Y114206000D03*
%TD*%
%TO.C,C30*%
X69525000Y158666000D03*
X69525000Y157706000D03*
%TD*%
%TO.C,C30*%
X69525000Y71666000D03*
X69525000Y70706000D03*
%TD*%
D35*
%TO.C,U3*%
X6344000Y16637000D03*
X6344000Y17907000D03*
X6344000Y19177000D03*
X6344000Y20447000D03*
X6344000Y21717000D03*
X6344000Y22987000D03*
X6344000Y24257000D03*
X6344000Y25527000D03*
X11944000Y25527000D03*
X11944000Y24257000D03*
X11944000Y22987000D03*
X11944000Y21717000D03*
X11944000Y20447000D03*
X11944000Y19177000D03*
X11944000Y17907000D03*
X11944000Y16637000D03*
%TD*%
%TO.C,U3*%
X6344000Y103637000D03*
X6344000Y104907000D03*
X6344000Y106177000D03*
X6344000Y107447000D03*
X6344000Y108717000D03*
X6344000Y109987000D03*
X6344000Y111257000D03*
X6344000Y112527000D03*
X11944000Y112527000D03*
X11944000Y111257000D03*
X11944000Y109987000D03*
X11944000Y108717000D03*
X11944000Y107447000D03*
X11944000Y106177000D03*
X11944000Y104907000D03*
X11944000Y103637000D03*
%TD*%
%TO.C,U3*%
X66344000Y60137000D03*
X66344000Y61407000D03*
X66344000Y62677000D03*
X66344000Y63947000D03*
X66344000Y65217000D03*
X66344000Y66487000D03*
X66344000Y67757000D03*
X66344000Y69027000D03*
X71944000Y69027000D03*
X71944000Y67757000D03*
X71944000Y66487000D03*
X71944000Y65217000D03*
X71944000Y63947000D03*
X71944000Y62677000D03*
X71944000Y61407000D03*
X71944000Y60137000D03*
%TD*%
%TO.C,U3*%
X66344000Y16637000D03*
X66344000Y17907000D03*
X66344000Y19177000D03*
X66344000Y20447000D03*
X66344000Y21717000D03*
X66344000Y22987000D03*
X66344000Y24257000D03*
X66344000Y25527000D03*
X71944000Y25527000D03*
X71944000Y24257000D03*
X71944000Y22987000D03*
X71944000Y21717000D03*
X71944000Y20447000D03*
X71944000Y19177000D03*
X71944000Y17907000D03*
X71944000Y16637000D03*
%TD*%
%TO.C,U3*%
X66344000Y103637000D03*
X66344000Y104907000D03*
X66344000Y106177000D03*
X66344000Y107447000D03*
X66344000Y108717000D03*
X66344000Y109987000D03*
X66344000Y111257000D03*
X66344000Y112527000D03*
X71944000Y112527000D03*
X71944000Y111257000D03*
X71944000Y109987000D03*
X71944000Y108717000D03*
X71944000Y107447000D03*
X71944000Y106177000D03*
X71944000Y104907000D03*
X71944000Y103637000D03*
%TD*%
%TO.C,U3*%
X6344000Y147137000D03*
X6344000Y148407000D03*
X6344000Y149677000D03*
X6344000Y150947000D03*
X6344000Y152217000D03*
X6344000Y153487000D03*
X6344000Y154757000D03*
X6344000Y156027000D03*
X11944000Y156027000D03*
X11944000Y154757000D03*
X11944000Y153487000D03*
X11944000Y152217000D03*
X11944000Y150947000D03*
X11944000Y149677000D03*
X11944000Y148407000D03*
X11944000Y147137000D03*
%TD*%
%TO.C,U3*%
X66344000Y147137000D03*
X66344000Y148407000D03*
X66344000Y149677000D03*
X66344000Y150947000D03*
X66344000Y152217000D03*
X66344000Y153487000D03*
X66344000Y154757000D03*
X66344000Y156027000D03*
X71944000Y156027000D03*
X71944000Y154757000D03*
X71944000Y153487000D03*
X71944000Y152217000D03*
X71944000Y150947000D03*
X71944000Y149677000D03*
X71944000Y148407000D03*
X71944000Y147137000D03*
%TD*%
%TO.C,U3*%
X6344000Y60137000D03*
X6344000Y61407000D03*
X6344000Y62677000D03*
X6344000Y63947000D03*
X6344000Y65217000D03*
X6344000Y66487000D03*
X6344000Y67757000D03*
X6344000Y69027000D03*
X11944000Y69027000D03*
X11944000Y67757000D03*
X11944000Y66487000D03*
X11944000Y65217000D03*
X11944000Y63947000D03*
X11944000Y62677000D03*
X11944000Y61407000D03*
X11944000Y60137000D03*
%TD*%
D17*
%TO.C,TP18*%
X20320000Y24130000D03*
%TD*%
%TO.C,TP18*%
X80320000Y24130000D03*
%TD*%
%TO.C,TP18*%
X80320000Y67630000D03*
%TD*%
%TO.C,TP18*%
X20320000Y154630000D03*
%TD*%
%TO.C,TP18*%
X80320000Y111130000D03*
%TD*%
%TO.C,TP18*%
X20320000Y67630000D03*
%TD*%
%TO.C,TP18*%
X20320000Y111130000D03*
%TD*%
%TO.C,TP18*%
X80320000Y154630000D03*
%TD*%
D14*
%TO.C,R4*%
X18036000Y11176000D03*
X17016000Y11176000D03*
%TD*%
%TO.C,R4*%
X18036000Y98176000D03*
X17016000Y98176000D03*
%TD*%
%TO.C,R4*%
X18036000Y54676000D03*
X17016000Y54676000D03*
%TD*%
%TO.C,R4*%
X78036000Y141676000D03*
X77016000Y141676000D03*
%TD*%
%TO.C,R4*%
X78036000Y11176000D03*
X77016000Y11176000D03*
%TD*%
%TO.C,R4*%
X78036000Y54676000D03*
X77016000Y54676000D03*
%TD*%
%TO.C,R4*%
X78036000Y98176000D03*
X77016000Y98176000D03*
%TD*%
%TO.C,R4*%
X18036000Y141676000D03*
X17016000Y141676000D03*
%TD*%
D15*
%TO.C,R32*%
X37084000Y13714000D03*
X37084000Y14734000D03*
%TD*%
%TO.C,R32*%
X37084000Y57214000D03*
X37084000Y58234000D03*
%TD*%
%TO.C,R32*%
X37084000Y100714000D03*
X37084000Y101734000D03*
%TD*%
%TO.C,R32*%
X97084000Y57214000D03*
X97084000Y58234000D03*
%TD*%
%TO.C,R32*%
X97084000Y100714000D03*
X97084000Y101734000D03*
%TD*%
%TO.C,R32*%
X97084000Y13714000D03*
X97084000Y14734000D03*
%TD*%
%TO.C,R32*%
X97084000Y144214000D03*
X97084000Y145234000D03*
%TD*%
%TO.C,R32*%
X37084000Y144214000D03*
X37084000Y145234000D03*
%TD*%
D36*
%TO.C,J3*%
X15621000Y9168000D03*
X15621000Y10168000D03*
X15621000Y11168000D03*
X15621000Y12168000D03*
D37*
X11946000Y13468000D03*
X11946000Y7868000D03*
%TD*%
D36*
%TO.C,J3*%
X75621000Y139668000D03*
X75621000Y140668000D03*
X75621000Y141668000D03*
X75621000Y142668000D03*
D37*
X71946000Y143968000D03*
X71946000Y138368000D03*
%TD*%
D36*
%TO.C,J3*%
X15621000Y139668000D03*
X15621000Y140668000D03*
X15621000Y141668000D03*
X15621000Y142668000D03*
D37*
X11946000Y143968000D03*
X11946000Y138368000D03*
%TD*%
D36*
%TO.C,J3*%
X15621000Y96168000D03*
X15621000Y97168000D03*
X15621000Y98168000D03*
X15621000Y99168000D03*
D37*
X11946000Y100468000D03*
X11946000Y94868000D03*
%TD*%
D36*
%TO.C,J3*%
X75621000Y9168000D03*
X75621000Y10168000D03*
X75621000Y11168000D03*
X75621000Y12168000D03*
D37*
X71946000Y13468000D03*
X71946000Y7868000D03*
%TD*%
D36*
%TO.C,J3*%
X75621000Y96168000D03*
X75621000Y97168000D03*
X75621000Y98168000D03*
X75621000Y99168000D03*
D37*
X71946000Y100468000D03*
X71946000Y94868000D03*
%TD*%
D36*
%TO.C,J3*%
X75621000Y52668000D03*
X75621000Y53668000D03*
X75621000Y54668000D03*
X75621000Y55668000D03*
D37*
X71946000Y56968000D03*
X71946000Y51368000D03*
%TD*%
D36*
%TO.C,J3*%
X15621000Y52668000D03*
X15621000Y53668000D03*
X15621000Y54668000D03*
X15621000Y55668000D03*
D37*
X11946000Y56968000D03*
X11946000Y51368000D03*
%TD*%
D38*
%TO.C,Y1*%
X16343000Y31234000D03*
D39*
X17693000Y30234000D03*
D38*
X16343000Y30234000D03*
D39*
X17693000Y31234000D03*
%TD*%
D38*
%TO.C,Y1*%
X16343000Y161734000D03*
D39*
X17693000Y160734000D03*
D38*
X16343000Y160734000D03*
D39*
X17693000Y161734000D03*
%TD*%
D38*
%TO.C,Y1*%
X76343000Y118234000D03*
D39*
X77693000Y117234000D03*
D38*
X76343000Y117234000D03*
D39*
X77693000Y118234000D03*
%TD*%
D38*
%TO.C,Y1*%
X76343000Y74734000D03*
D39*
X77693000Y73734000D03*
D38*
X76343000Y73734000D03*
D39*
X77693000Y74734000D03*
%TD*%
D38*
%TO.C,Y1*%
X76343000Y31234000D03*
D39*
X77693000Y30234000D03*
D38*
X76343000Y30234000D03*
D39*
X77693000Y31234000D03*
%TD*%
D38*
%TO.C,Y1*%
X16343000Y118234000D03*
D39*
X17693000Y117234000D03*
D38*
X16343000Y117234000D03*
D39*
X17693000Y118234000D03*
%TD*%
D38*
%TO.C,Y1*%
X16343000Y74734000D03*
D39*
X17693000Y73734000D03*
D38*
X16343000Y73734000D03*
D39*
X17693000Y74734000D03*
%TD*%
D38*
%TO.C,Y1*%
X76343000Y161734000D03*
D39*
X77693000Y160734000D03*
D38*
X76343000Y160734000D03*
D39*
X77693000Y161734000D03*
%TD*%
D25*
%TO.C,R25*%
X18923000Y31244000D03*
X18923000Y30224000D03*
%TD*%
%TO.C,R25*%
X18923000Y118244000D03*
X18923000Y117224000D03*
%TD*%
%TO.C,R25*%
X18923000Y161744000D03*
X18923000Y160724000D03*
%TD*%
%TO.C,R25*%
X18923000Y74744000D03*
X18923000Y73724000D03*
%TD*%
%TO.C,R25*%
X78923000Y31244000D03*
X78923000Y30224000D03*
%TD*%
%TO.C,R25*%
X78923000Y74744000D03*
X78923000Y73724000D03*
%TD*%
%TO.C,R25*%
X78923000Y118244000D03*
X78923000Y117224000D03*
%TD*%
%TO.C,R25*%
X78923000Y161744000D03*
X78923000Y160724000D03*
%TD*%
D11*
%TO.C,C19*%
X45720000Y18768000D03*
X45720000Y17808000D03*
%TD*%
%TO.C,C19*%
X45720000Y149268000D03*
X45720000Y148308000D03*
%TD*%
%TO.C,C19*%
X45720000Y62268000D03*
X45720000Y61308000D03*
%TD*%
%TO.C,C19*%
X45720000Y105768000D03*
X45720000Y104808000D03*
%TD*%
%TO.C,C19*%
X105720000Y18768000D03*
X105720000Y17808000D03*
%TD*%
%TO.C,C19*%
X105720000Y105768000D03*
X105720000Y104808000D03*
%TD*%
%TO.C,C19*%
X105720000Y149268000D03*
X105720000Y148308000D03*
%TD*%
%TO.C,C19*%
X105720000Y62268000D03*
X105720000Y61308000D03*
%TD*%
D20*
%TO.C,*%
X123175000Y171500000D03*
%TD*%
D11*
%TO.C,C16*%
X40513000Y10640000D03*
X40513000Y9680000D03*
%TD*%
%TO.C,C16*%
X40513000Y97640000D03*
X40513000Y96680000D03*
%TD*%
%TO.C,C16*%
X100513000Y10640000D03*
X100513000Y9680000D03*
%TD*%
%TO.C,C16*%
X100513000Y54140000D03*
X100513000Y53180000D03*
%TD*%
%TO.C,C16*%
X100513000Y97640000D03*
X100513000Y96680000D03*
%TD*%
%TO.C,C16*%
X40513000Y54140000D03*
X40513000Y53180000D03*
%TD*%
%TO.C,C16*%
X40513000Y141140000D03*
X40513000Y140180000D03*
%TD*%
%TO.C,C16*%
X100513000Y141140000D03*
X100513000Y140180000D03*
%TD*%
D40*
%TO.C,TR1*%
X19900000Y33928000D03*
X18200000Y33928000D03*
X19900000Y33128000D03*
X18200000Y33128000D03*
%TD*%
%TO.C,TR1*%
X79900000Y120928000D03*
X78200000Y120928000D03*
X79900000Y120128000D03*
X78200000Y120128000D03*
%TD*%
%TO.C,TR1*%
X19900000Y77428000D03*
X18200000Y77428000D03*
X19900000Y76628000D03*
X18200000Y76628000D03*
%TD*%
%TO.C,TR1*%
X19900000Y120928000D03*
X18200000Y120928000D03*
X19900000Y120128000D03*
X18200000Y120128000D03*
%TD*%
%TO.C,TR1*%
X19900000Y164428000D03*
X18200000Y164428000D03*
X19900000Y163628000D03*
X18200000Y163628000D03*
%TD*%
%TO.C,TR1*%
X79900000Y33928000D03*
X78200000Y33928000D03*
X79900000Y33128000D03*
X78200000Y33128000D03*
%TD*%
%TO.C,TR1*%
X79900000Y77428000D03*
X78200000Y77428000D03*
X79900000Y76628000D03*
X78200000Y76628000D03*
%TD*%
%TO.C,TR1*%
X79900000Y164428000D03*
X78200000Y164428000D03*
X79900000Y163628000D03*
X78200000Y163628000D03*
%TD*%
D18*
%TO.C,R10*%
X36701000Y6350000D03*
X37721000Y6350000D03*
%TD*%
%TO.C,R10*%
X96701000Y136850000D03*
X97721000Y136850000D03*
%TD*%
%TO.C,R10*%
X36701000Y93350000D03*
X37721000Y93350000D03*
%TD*%
%TO.C,R10*%
X96701000Y93350000D03*
X97721000Y93350000D03*
%TD*%
%TO.C,R10*%
X36701000Y136850000D03*
X37721000Y136850000D03*
%TD*%
%TO.C,R10*%
X96701000Y49850000D03*
X97721000Y49850000D03*
%TD*%
%TO.C,R10*%
X36701000Y49850000D03*
X37721000Y49850000D03*
%TD*%
%TO.C,R10*%
X96701000Y6350000D03*
X97721000Y6350000D03*
%TD*%
D12*
%TO.C,C10*%
X16256000Y36858000D03*
X16256000Y37818000D03*
%TD*%
%TO.C,C10*%
X76256000Y167358000D03*
X76256000Y168318000D03*
%TD*%
%TO.C,C10*%
X16256000Y80358000D03*
X16256000Y81318000D03*
%TD*%
%TO.C,C10*%
X16256000Y123858000D03*
X16256000Y124818000D03*
%TD*%
%TO.C,C10*%
X76256000Y123858000D03*
X76256000Y124818000D03*
%TD*%
%TO.C,C10*%
X76256000Y36858000D03*
X76256000Y37818000D03*
%TD*%
%TO.C,C10*%
X16256000Y167358000D03*
X16256000Y168318000D03*
%TD*%
%TO.C,C10*%
X76256000Y80358000D03*
X76256000Y81318000D03*
%TD*%
D14*
%TO.C,R6*%
X18036000Y12192000D03*
X17016000Y12192000D03*
%TD*%
%TO.C,R6*%
X78036000Y12192000D03*
X77016000Y12192000D03*
%TD*%
%TO.C,R6*%
X18036000Y55692000D03*
X17016000Y55692000D03*
%TD*%
%TO.C,R6*%
X18036000Y99192000D03*
X17016000Y99192000D03*
%TD*%
%TO.C,R6*%
X18036000Y142692000D03*
X17016000Y142692000D03*
%TD*%
%TO.C,R6*%
X78036000Y55692000D03*
X77016000Y55692000D03*
%TD*%
%TO.C,R6*%
X78036000Y99192000D03*
X77016000Y99192000D03*
%TD*%
%TO.C,R6*%
X78036000Y142692000D03*
X77016000Y142692000D03*
%TD*%
D28*
%TO.C,U12*%
X32578000Y11968100D03*
X33528000Y11968100D03*
X34478000Y11968100D03*
X34478000Y9367900D03*
X32578000Y9367900D03*
%TD*%
%TO.C,U12*%
X32578000Y142468100D03*
X33528000Y142468100D03*
X34478000Y142468100D03*
X34478000Y139867900D03*
X32578000Y139867900D03*
%TD*%
%TO.C,U12*%
X92578000Y142468100D03*
X93528000Y142468100D03*
X94478000Y142468100D03*
X94478000Y139867900D03*
X92578000Y139867900D03*
%TD*%
%TO.C,U12*%
X32578000Y98968100D03*
X33528000Y98968100D03*
X34478000Y98968100D03*
X34478000Y96367900D03*
X32578000Y96367900D03*
%TD*%
%TO.C,U12*%
X32578000Y55468100D03*
X33528000Y55468100D03*
X34478000Y55468100D03*
X34478000Y52867900D03*
X32578000Y52867900D03*
%TD*%
%TO.C,U12*%
X92578000Y55468100D03*
X93528000Y55468100D03*
X94478000Y55468100D03*
X94478000Y52867900D03*
X92578000Y52867900D03*
%TD*%
%TO.C,U12*%
X92578000Y11968100D03*
X93528000Y11968100D03*
X94478000Y11968100D03*
X94478000Y9367900D03*
X92578000Y9367900D03*
%TD*%
%TO.C,U12*%
X92578000Y98968100D03*
X93528000Y98968100D03*
X94478000Y98968100D03*
X94478000Y96367900D03*
X92578000Y96367900D03*
%TD*%
D41*
%TO.C,D3*%
X42164000Y15360000D03*
X42164000Y17660000D03*
%TD*%
%TO.C,D3*%
X42164000Y145860000D03*
X42164000Y148160000D03*
%TD*%
%TO.C,D3*%
X102164000Y145860000D03*
X102164000Y148160000D03*
%TD*%
%TO.C,D3*%
X102164000Y102360000D03*
X102164000Y104660000D03*
%TD*%
%TO.C,D3*%
X42164000Y58860000D03*
X42164000Y61160000D03*
%TD*%
%TO.C,D3*%
X42164000Y102360000D03*
X42164000Y104660000D03*
%TD*%
%TO.C,D3*%
X102164000Y15360000D03*
X102164000Y17660000D03*
%TD*%
%TO.C,D3*%
X102164000Y58860000D03*
X102164000Y61160000D03*
%TD*%
D18*
%TO.C,R11*%
X40130000Y1778000D03*
X41150000Y1778000D03*
%TD*%
%TO.C,R11*%
X40130000Y88778000D03*
X41150000Y88778000D03*
%TD*%
%TO.C,R11*%
X40130000Y45278000D03*
X41150000Y45278000D03*
%TD*%
%TO.C,R11*%
X100130000Y132278000D03*
X101150000Y132278000D03*
%TD*%
%TO.C,R11*%
X40130000Y132278000D03*
X41150000Y132278000D03*
%TD*%
%TO.C,R11*%
X100130000Y45278000D03*
X101150000Y45278000D03*
%TD*%
%TO.C,R11*%
X100130000Y88778000D03*
X101150000Y88778000D03*
%TD*%
%TO.C,R11*%
X100130000Y1778000D03*
X101150000Y1778000D03*
%TD*%
D42*
%TO.C,U9*%
X13176000Y29508000D03*
X12676000Y29508000D03*
X12176000Y29508000D03*
X11676000Y29508000D03*
X11176000Y29508000D03*
X10676000Y29508000D03*
X10176000Y29508000D03*
X9676000Y29508000D03*
X9176000Y29508000D03*
D43*
X8426000Y30258000D03*
X8426000Y30758000D03*
X8426000Y31258000D03*
X8426000Y31758000D03*
X8426000Y32258000D03*
X8426000Y32758000D03*
X8426000Y33258000D03*
X8426000Y33758000D03*
X8426000Y34258000D03*
D44*
X9176000Y35008000D03*
X9676000Y35008000D03*
X10176000Y35008000D03*
X10676000Y35008000D03*
X11176000Y35008000D03*
X11676000Y35008000D03*
X12176000Y35008000D03*
X12676000Y35008000D03*
X13176000Y35008000D03*
D45*
X13926000Y34258000D03*
X13926000Y33758000D03*
X13926000Y33258000D03*
X13926000Y32758000D03*
X13926000Y32258000D03*
X13926000Y31758000D03*
X13926000Y31258000D03*
X13926000Y30758000D03*
X13926000Y30258000D03*
D46*
X11176000Y32258000D03*
%TD*%
D42*
%TO.C,U9*%
X13176000Y73008000D03*
X12676000Y73008000D03*
X12176000Y73008000D03*
X11676000Y73008000D03*
X11176000Y73008000D03*
X10676000Y73008000D03*
X10176000Y73008000D03*
X9676000Y73008000D03*
X9176000Y73008000D03*
D43*
X8426000Y73758000D03*
X8426000Y74258000D03*
X8426000Y74758000D03*
X8426000Y75258000D03*
X8426000Y75758000D03*
X8426000Y76258000D03*
X8426000Y76758000D03*
X8426000Y77258000D03*
X8426000Y77758000D03*
D44*
X9176000Y78508000D03*
X9676000Y78508000D03*
X10176000Y78508000D03*
X10676000Y78508000D03*
X11176000Y78508000D03*
X11676000Y78508000D03*
X12176000Y78508000D03*
X12676000Y78508000D03*
X13176000Y78508000D03*
D45*
X13926000Y77758000D03*
X13926000Y77258000D03*
X13926000Y76758000D03*
X13926000Y76258000D03*
X13926000Y75758000D03*
X13926000Y75258000D03*
X13926000Y74758000D03*
X13926000Y74258000D03*
X13926000Y73758000D03*
D46*
X11176000Y75758000D03*
%TD*%
D42*
%TO.C,U9*%
X13176000Y160008000D03*
X12676000Y160008000D03*
X12176000Y160008000D03*
X11676000Y160008000D03*
X11176000Y160008000D03*
X10676000Y160008000D03*
X10176000Y160008000D03*
X9676000Y160008000D03*
X9176000Y160008000D03*
D43*
X8426000Y160758000D03*
X8426000Y161258000D03*
X8426000Y161758000D03*
X8426000Y162258000D03*
X8426000Y162758000D03*
X8426000Y163258000D03*
X8426000Y163758000D03*
X8426000Y164258000D03*
X8426000Y164758000D03*
D44*
X9176000Y165508000D03*
X9676000Y165508000D03*
X10176000Y165508000D03*
X10676000Y165508000D03*
X11176000Y165508000D03*
X11676000Y165508000D03*
X12176000Y165508000D03*
X12676000Y165508000D03*
X13176000Y165508000D03*
D45*
X13926000Y164758000D03*
X13926000Y164258000D03*
X13926000Y163758000D03*
X13926000Y163258000D03*
X13926000Y162758000D03*
X13926000Y162258000D03*
X13926000Y161758000D03*
X13926000Y161258000D03*
X13926000Y160758000D03*
D46*
X11176000Y162758000D03*
%TD*%
D42*
%TO.C,U9*%
X73176000Y160008000D03*
X72676000Y160008000D03*
X72176000Y160008000D03*
X71676000Y160008000D03*
X71176000Y160008000D03*
X70676000Y160008000D03*
X70176000Y160008000D03*
X69676000Y160008000D03*
X69176000Y160008000D03*
D43*
X68426000Y160758000D03*
X68426000Y161258000D03*
X68426000Y161758000D03*
X68426000Y162258000D03*
X68426000Y162758000D03*
X68426000Y163258000D03*
X68426000Y163758000D03*
X68426000Y164258000D03*
X68426000Y164758000D03*
D44*
X69176000Y165508000D03*
X69676000Y165508000D03*
X70176000Y165508000D03*
X70676000Y165508000D03*
X71176000Y165508000D03*
X71676000Y165508000D03*
X72176000Y165508000D03*
X72676000Y165508000D03*
X73176000Y165508000D03*
D45*
X73926000Y164758000D03*
X73926000Y164258000D03*
X73926000Y163758000D03*
X73926000Y163258000D03*
X73926000Y162758000D03*
X73926000Y162258000D03*
X73926000Y161758000D03*
X73926000Y161258000D03*
X73926000Y160758000D03*
D46*
X71176000Y162758000D03*
%TD*%
D42*
%TO.C,U9*%
X73176000Y116508000D03*
X72676000Y116508000D03*
X72176000Y116508000D03*
X71676000Y116508000D03*
X71176000Y116508000D03*
X70676000Y116508000D03*
X70176000Y116508000D03*
X69676000Y116508000D03*
X69176000Y116508000D03*
D43*
X68426000Y117258000D03*
X68426000Y117758000D03*
X68426000Y118258000D03*
X68426000Y118758000D03*
X68426000Y119258000D03*
X68426000Y119758000D03*
X68426000Y120258000D03*
X68426000Y120758000D03*
X68426000Y121258000D03*
D44*
X69176000Y122008000D03*
X69676000Y122008000D03*
X70176000Y122008000D03*
X70676000Y122008000D03*
X71176000Y122008000D03*
X71676000Y122008000D03*
X72176000Y122008000D03*
X72676000Y122008000D03*
X73176000Y122008000D03*
D45*
X73926000Y121258000D03*
X73926000Y120758000D03*
X73926000Y120258000D03*
X73926000Y119758000D03*
X73926000Y119258000D03*
X73926000Y118758000D03*
X73926000Y118258000D03*
X73926000Y117758000D03*
X73926000Y117258000D03*
D46*
X71176000Y119258000D03*
%TD*%
D42*
%TO.C,U9*%
X73176000Y73008000D03*
X72676000Y73008000D03*
X72176000Y73008000D03*
X71676000Y73008000D03*
X71176000Y73008000D03*
X70676000Y73008000D03*
X70176000Y73008000D03*
X69676000Y73008000D03*
X69176000Y73008000D03*
D43*
X68426000Y73758000D03*
X68426000Y74258000D03*
X68426000Y74758000D03*
X68426000Y75258000D03*
X68426000Y75758000D03*
X68426000Y76258000D03*
X68426000Y76758000D03*
X68426000Y77258000D03*
X68426000Y77758000D03*
D44*
X69176000Y78508000D03*
X69676000Y78508000D03*
X70176000Y78508000D03*
X70676000Y78508000D03*
X71176000Y78508000D03*
X71676000Y78508000D03*
X72176000Y78508000D03*
X72676000Y78508000D03*
X73176000Y78508000D03*
D45*
X73926000Y77758000D03*
X73926000Y77258000D03*
X73926000Y76758000D03*
X73926000Y76258000D03*
X73926000Y75758000D03*
X73926000Y75258000D03*
X73926000Y74758000D03*
X73926000Y74258000D03*
X73926000Y73758000D03*
D46*
X71176000Y75758000D03*
%TD*%
D42*
%TO.C,U9*%
X13176000Y116508000D03*
X12676000Y116508000D03*
X12176000Y116508000D03*
X11676000Y116508000D03*
X11176000Y116508000D03*
X10676000Y116508000D03*
X10176000Y116508000D03*
X9676000Y116508000D03*
X9176000Y116508000D03*
D43*
X8426000Y117258000D03*
X8426000Y117758000D03*
X8426000Y118258000D03*
X8426000Y118758000D03*
X8426000Y119258000D03*
X8426000Y119758000D03*
X8426000Y120258000D03*
X8426000Y120758000D03*
X8426000Y121258000D03*
D44*
X9176000Y122008000D03*
X9676000Y122008000D03*
X10176000Y122008000D03*
X10676000Y122008000D03*
X11176000Y122008000D03*
X11676000Y122008000D03*
X12176000Y122008000D03*
X12676000Y122008000D03*
X13176000Y122008000D03*
D45*
X13926000Y121258000D03*
X13926000Y120758000D03*
X13926000Y120258000D03*
X13926000Y119758000D03*
X13926000Y119258000D03*
X13926000Y118758000D03*
X13926000Y118258000D03*
X13926000Y117758000D03*
X13926000Y117258000D03*
D46*
X11176000Y119258000D03*
%TD*%
D42*
%TO.C,U9*%
X73176000Y29508000D03*
X72676000Y29508000D03*
X72176000Y29508000D03*
X71676000Y29508000D03*
X71176000Y29508000D03*
X70676000Y29508000D03*
X70176000Y29508000D03*
X69676000Y29508000D03*
X69176000Y29508000D03*
D43*
X68426000Y30258000D03*
X68426000Y30758000D03*
X68426000Y31258000D03*
X68426000Y31758000D03*
X68426000Y32258000D03*
X68426000Y32758000D03*
X68426000Y33258000D03*
X68426000Y33758000D03*
X68426000Y34258000D03*
D44*
X69176000Y35008000D03*
X69676000Y35008000D03*
X70176000Y35008000D03*
X70676000Y35008000D03*
X71176000Y35008000D03*
X71676000Y35008000D03*
X72176000Y35008000D03*
X72676000Y35008000D03*
X73176000Y35008000D03*
D45*
X73926000Y34258000D03*
X73926000Y33758000D03*
X73926000Y33258000D03*
X73926000Y32758000D03*
X73926000Y32258000D03*
X73926000Y31758000D03*
X73926000Y31258000D03*
X73926000Y30758000D03*
X73926000Y30258000D03*
D46*
X71176000Y32258000D03*
%TD*%
D17*
%TO.C,TP16*%
X20320000Y21590000D03*
%TD*%
%TO.C,TP16*%
X20320000Y65090000D03*
%TD*%
%TO.C,TP16*%
X80320000Y65090000D03*
%TD*%
%TO.C,TP16*%
X20320000Y108590000D03*
%TD*%
%TO.C,TP16*%
X20320000Y152090000D03*
%TD*%
%TO.C,TP16*%
X80320000Y152090000D03*
%TD*%
%TO.C,TP16*%
X80320000Y21590000D03*
%TD*%
%TO.C,TP16*%
X80320000Y108590000D03*
%TD*%
D25*
%TO.C,R21*%
X13208000Y37848000D03*
X13208000Y36828000D03*
%TD*%
%TO.C,R21*%
X13208000Y124848000D03*
X13208000Y123828000D03*
%TD*%
%TO.C,R21*%
X73208000Y124848000D03*
X73208000Y123828000D03*
%TD*%
%TO.C,R21*%
X73208000Y37848000D03*
X73208000Y36828000D03*
%TD*%
%TO.C,R21*%
X13208000Y81348000D03*
X13208000Y80328000D03*
%TD*%
%TO.C,R21*%
X13208000Y168348000D03*
X13208000Y167328000D03*
%TD*%
%TO.C,R21*%
X73208000Y81348000D03*
X73208000Y80328000D03*
%TD*%
%TO.C,R21*%
X73208000Y168348000D03*
X73208000Y167328000D03*
%TD*%
D15*
%TO.C,R1*%
X20320000Y9652000D03*
X20320000Y10672000D03*
%TD*%
%TO.C,R1*%
X20320000Y53152000D03*
X20320000Y54172000D03*
%TD*%
%TO.C,R1*%
X80320000Y53152000D03*
X80320000Y54172000D03*
%TD*%
%TO.C,R1*%
X80320000Y96652000D03*
X80320000Y97672000D03*
%TD*%
%TO.C,R1*%
X20320000Y140152000D03*
X20320000Y141172000D03*
%TD*%
%TO.C,R1*%
X20320000Y96652000D03*
X20320000Y97672000D03*
%TD*%
%TO.C,R1*%
X80320000Y9652000D03*
X80320000Y10672000D03*
%TD*%
%TO.C,R1*%
X80320000Y140152000D03*
X80320000Y141172000D03*
%TD*%
%TO.C,R31*%
X38100000Y13714000D03*
X38100000Y14734000D03*
%TD*%
%TO.C,R31*%
X38100000Y100714000D03*
X38100000Y101734000D03*
%TD*%
%TO.C,R31*%
X38100000Y57214000D03*
X38100000Y58234000D03*
%TD*%
%TO.C,R31*%
X98100000Y57214000D03*
X98100000Y58234000D03*
%TD*%
%TO.C,R31*%
X98100000Y13714000D03*
X98100000Y14734000D03*
%TD*%
%TO.C,R31*%
X98100000Y100714000D03*
X98100000Y101734000D03*
%TD*%
%TO.C,R31*%
X98100000Y144214000D03*
X98100000Y145234000D03*
%TD*%
%TO.C,R31*%
X38100000Y144214000D03*
X38100000Y145234000D03*
%TD*%
D47*
%TO.C,D2*%
X38085000Y39408000D03*
X38735000Y39408000D03*
X39385000Y39408000D03*
X39385000Y37808000D03*
X38085000Y37808000D03*
%TD*%
%TO.C,D2*%
X98085000Y169908000D03*
X98735000Y169908000D03*
X99385000Y169908000D03*
X99385000Y168308000D03*
X98085000Y168308000D03*
%TD*%
%TO.C,D2*%
X98085000Y39408000D03*
X98735000Y39408000D03*
X99385000Y39408000D03*
X99385000Y37808000D03*
X98085000Y37808000D03*
%TD*%
%TO.C,D2*%
X98085000Y82908000D03*
X98735000Y82908000D03*
X99385000Y82908000D03*
X99385000Y81308000D03*
X98085000Y81308000D03*
%TD*%
%TO.C,D2*%
X98085000Y126408000D03*
X98735000Y126408000D03*
X99385000Y126408000D03*
X99385000Y124808000D03*
X98085000Y124808000D03*
%TD*%
%TO.C,D2*%
X38085000Y82908000D03*
X38735000Y82908000D03*
X39385000Y82908000D03*
X39385000Y81308000D03*
X38085000Y81308000D03*
%TD*%
%TO.C,D2*%
X38085000Y169908000D03*
X38735000Y169908000D03*
X39385000Y169908000D03*
X39385000Y168308000D03*
X38085000Y168308000D03*
%TD*%
%TO.C,D2*%
X38085000Y126408000D03*
X38735000Y126408000D03*
X39385000Y126408000D03*
X39385000Y124808000D03*
X38085000Y124808000D03*
%TD*%
D48*
%TO.C,J2*%
X43800000Y9160000D03*
X43800000Y11160000D03*
D49*
X49000000Y6760000D03*
X49000000Y13560000D03*
%TD*%
D48*
%TO.C,J2*%
X43800000Y96160000D03*
X43800000Y98160000D03*
D49*
X49000000Y93760000D03*
X49000000Y100560000D03*
%TD*%
D48*
%TO.C,J2*%
X103800000Y9160000D03*
X103800000Y11160000D03*
D49*
X109000000Y6760000D03*
X109000000Y13560000D03*
%TD*%
D48*
%TO.C,J2*%
X103800000Y96160000D03*
X103800000Y98160000D03*
D49*
X109000000Y93760000D03*
X109000000Y100560000D03*
%TD*%
D48*
%TO.C,J2*%
X43800000Y52660000D03*
X43800000Y54660000D03*
D49*
X49000000Y50260000D03*
X49000000Y57060000D03*
%TD*%
D48*
%TO.C,J2*%
X43800000Y139660000D03*
X43800000Y141660000D03*
D49*
X49000000Y137260000D03*
X49000000Y144060000D03*
%TD*%
D48*
%TO.C,J2*%
X103800000Y52660000D03*
X103800000Y54660000D03*
D49*
X109000000Y50260000D03*
X109000000Y57060000D03*
%TD*%
D48*
%TO.C,J2*%
X103800000Y139660000D03*
X103800000Y141660000D03*
D49*
X109000000Y137260000D03*
X109000000Y144060000D03*
%TD*%
D13*
%TO.C,C21*%
X29492000Y7620000D03*
X30452000Y7620000D03*
%TD*%
%TO.C,C21*%
X89492000Y94620000D03*
X90452000Y94620000D03*
%TD*%
%TO.C,C21*%
X29492000Y94620000D03*
X30452000Y94620000D03*
%TD*%
%TO.C,C21*%
X89492000Y7620000D03*
X90452000Y7620000D03*
%TD*%
%TO.C,C21*%
X29492000Y51120000D03*
X30452000Y51120000D03*
%TD*%
%TO.C,C21*%
X29492000Y138120000D03*
X30452000Y138120000D03*
%TD*%
%TO.C,C21*%
X89492000Y51120000D03*
X90452000Y51120000D03*
%TD*%
%TO.C,C21*%
X89492000Y138120000D03*
X90452000Y138120000D03*
%TD*%
D17*
%TO.C,TP19*%
X17780000Y39370000D03*
%TD*%
%TO.C,TP19*%
X17780000Y82870000D03*
%TD*%
%TO.C,TP19*%
X17780000Y169870000D03*
%TD*%
%TO.C,TP19*%
X77780000Y82870000D03*
%TD*%
%TO.C,TP19*%
X77780000Y126370000D03*
%TD*%
%TO.C,TP19*%
X17780000Y126370000D03*
%TD*%
%TO.C,TP19*%
X77780000Y169870000D03*
%TD*%
%TO.C,TP19*%
X77780000Y39370000D03*
%TD*%
D13*
%TO.C,C24*%
X33048000Y13970000D03*
X34008000Y13970000D03*
%TD*%
%TO.C,C24*%
X33048000Y57470000D03*
X34008000Y57470000D03*
%TD*%
%TO.C,C24*%
X33048000Y100970000D03*
X34008000Y100970000D03*
%TD*%
%TO.C,C24*%
X93048000Y57470000D03*
X94008000Y57470000D03*
%TD*%
%TO.C,C24*%
X93048000Y144470000D03*
X94008000Y144470000D03*
%TD*%
%TO.C,C24*%
X33048000Y144470000D03*
X34008000Y144470000D03*
%TD*%
%TO.C,C24*%
X93048000Y100970000D03*
X94008000Y100970000D03*
%TD*%
%TO.C,C24*%
X93048000Y13970000D03*
X94008000Y13970000D03*
%TD*%
%TO.C,C6*%
X33048000Y14986000D03*
X34008000Y14986000D03*
%TD*%
%TO.C,C6*%
X33048000Y58486000D03*
X34008000Y58486000D03*
%TD*%
%TO.C,C6*%
X33048000Y145486000D03*
X34008000Y145486000D03*
%TD*%
%TO.C,C6*%
X93048000Y14986000D03*
X94008000Y14986000D03*
%TD*%
%TO.C,C6*%
X93048000Y58486000D03*
X94008000Y58486000D03*
%TD*%
%TO.C,C6*%
X93048000Y101986000D03*
X94008000Y101986000D03*
%TD*%
%TO.C,C6*%
X33048000Y101986000D03*
X34008000Y101986000D03*
%TD*%
%TO.C,C6*%
X93048000Y145486000D03*
X94008000Y145486000D03*
%TD*%
D21*
%TO.C,C14*%
X20307000Y29718000D03*
X21857000Y29718000D03*
%TD*%
%TO.C,C14*%
X20307000Y116718000D03*
X21857000Y116718000D03*
%TD*%
%TO.C,C14*%
X80307000Y29718000D03*
X81857000Y29718000D03*
%TD*%
%TO.C,C14*%
X80307000Y116718000D03*
X81857000Y116718000D03*
%TD*%
%TO.C,C14*%
X20307000Y160218000D03*
X21857000Y160218000D03*
%TD*%
%TO.C,C14*%
X80307000Y73218000D03*
X81857000Y73218000D03*
%TD*%
%TO.C,C14*%
X80307000Y160218000D03*
X81857000Y160218000D03*
%TD*%
%TO.C,C14*%
X20307000Y73218000D03*
X21857000Y73218000D03*
%TD*%
D11*
%TO.C,C9*%
X8509000Y28166000D03*
X8509000Y27206000D03*
%TD*%
%TO.C,C9*%
X68509000Y28166000D03*
X68509000Y27206000D03*
%TD*%
%TO.C,C9*%
X8509000Y71666000D03*
X8509000Y70706000D03*
%TD*%
%TO.C,C9*%
X8509000Y115166000D03*
X8509000Y114206000D03*
%TD*%
%TO.C,C9*%
X8509000Y158666000D03*
X8509000Y157706000D03*
%TD*%
%TO.C,C9*%
X68509000Y158666000D03*
X68509000Y157706000D03*
%TD*%
%TO.C,C9*%
X68509000Y71666000D03*
X68509000Y70706000D03*
%TD*%
%TO.C,C9*%
X68509000Y115166000D03*
X68509000Y114206000D03*
%TD*%
D15*
%TO.C,R20*%
X15240000Y36828000D03*
X15240000Y37848000D03*
%TD*%
%TO.C,R20*%
X75240000Y123828000D03*
X75240000Y124848000D03*
%TD*%
%TO.C,R20*%
X75240000Y36828000D03*
X75240000Y37848000D03*
%TD*%
%TO.C,R20*%
X15240000Y80328000D03*
X15240000Y81348000D03*
%TD*%
%TO.C,R20*%
X75240000Y167328000D03*
X75240000Y168348000D03*
%TD*%
%TO.C,R20*%
X75240000Y80328000D03*
X75240000Y81348000D03*
%TD*%
%TO.C,R20*%
X15240000Y123828000D03*
X15240000Y124848000D03*
%TD*%
%TO.C,R20*%
X15240000Y167328000D03*
X15240000Y168348000D03*
%TD*%
%TO.C,R38*%
X37973000Y32637000D03*
X37973000Y33657000D03*
%TD*%
%TO.C,R38*%
X97973000Y119637000D03*
X97973000Y120657000D03*
%TD*%
%TO.C,R38*%
X97973000Y76137000D03*
X97973000Y77157000D03*
%TD*%
%TO.C,R38*%
X37973000Y119637000D03*
X37973000Y120657000D03*
%TD*%
%TO.C,R38*%
X37973000Y163137000D03*
X37973000Y164157000D03*
%TD*%
%TO.C,R38*%
X97973000Y32637000D03*
X97973000Y33657000D03*
%TD*%
%TO.C,R38*%
X37973000Y76137000D03*
X37973000Y77157000D03*
%TD*%
%TO.C,R38*%
X97973000Y163137000D03*
X97973000Y164157000D03*
%TD*%
D50*
%TO.C,R35*%
X49085000Y20828000D03*
X47435000Y20828000D03*
%TD*%
%TO.C,R35*%
X49085000Y64328000D03*
X47435000Y64328000D03*
%TD*%
%TO.C,R35*%
X109085000Y20828000D03*
X107435000Y20828000D03*
%TD*%
%TO.C,R35*%
X109085000Y64328000D03*
X107435000Y64328000D03*
%TD*%
%TO.C,R35*%
X109085000Y107828000D03*
X107435000Y107828000D03*
%TD*%
%TO.C,R35*%
X49085000Y151328000D03*
X47435000Y151328000D03*
%TD*%
%TO.C,R35*%
X49085000Y107828000D03*
X47435000Y107828000D03*
%TD*%
%TO.C,R35*%
X109085000Y151328000D03*
X107435000Y151328000D03*
%TD*%
D28*
%TO.C,U5*%
X29022000Y11968100D03*
X29972000Y11968100D03*
X30922000Y11968100D03*
X30922000Y9367900D03*
X29022000Y9367900D03*
%TD*%
%TO.C,U5*%
X89022000Y11968100D03*
X89972000Y11968100D03*
X90922000Y11968100D03*
X90922000Y9367900D03*
X89022000Y9367900D03*
%TD*%
%TO.C,U5*%
X89022000Y142468100D03*
X89972000Y142468100D03*
X90922000Y142468100D03*
X90922000Y139867900D03*
X89022000Y139867900D03*
%TD*%
%TO.C,U5*%
X89022000Y98968100D03*
X89972000Y98968100D03*
X90922000Y98968100D03*
X90922000Y96367900D03*
X89022000Y96367900D03*
%TD*%
%TO.C,U5*%
X89022000Y55468100D03*
X89972000Y55468100D03*
X90922000Y55468100D03*
X90922000Y52867900D03*
X89022000Y52867900D03*
%TD*%
%TO.C,U5*%
X29022000Y98968100D03*
X29972000Y98968100D03*
X30922000Y98968100D03*
X30922000Y96367900D03*
X29022000Y96367900D03*
%TD*%
%TO.C,U5*%
X29022000Y55468100D03*
X29972000Y55468100D03*
X30922000Y55468100D03*
X30922000Y52867900D03*
X29022000Y52867900D03*
%TD*%
%TO.C,U5*%
X29022000Y142468100D03*
X29972000Y142468100D03*
X30922000Y142468100D03*
X30922000Y139867900D03*
X29022000Y139867900D03*
%TD*%
D15*
%TO.C,R36*%
X51054000Y19810000D03*
X51054000Y20830000D03*
%TD*%
%TO.C,R36*%
X111054000Y19810000D03*
X111054000Y20830000D03*
%TD*%
%TO.C,R36*%
X51054000Y150310000D03*
X51054000Y151330000D03*
%TD*%
%TO.C,R36*%
X111054000Y63310000D03*
X111054000Y64330000D03*
%TD*%
%TO.C,R36*%
X111054000Y150310000D03*
X111054000Y151330000D03*
%TD*%
%TO.C,R36*%
X51054000Y63310000D03*
X51054000Y64330000D03*
%TD*%
%TO.C,R36*%
X111054000Y106810000D03*
X111054000Y107830000D03*
%TD*%
%TO.C,R36*%
X51054000Y106810000D03*
X51054000Y107830000D03*
%TD*%
D13*
%TO.C,C5*%
X9934000Y14986000D03*
X10894000Y14986000D03*
%TD*%
%TO.C,C5*%
X69934000Y58486000D03*
X70894000Y58486000D03*
%TD*%
%TO.C,C5*%
X69934000Y14986000D03*
X70894000Y14986000D03*
%TD*%
%TO.C,C5*%
X9934000Y101986000D03*
X10894000Y101986000D03*
%TD*%
%TO.C,C5*%
X9934000Y58486000D03*
X10894000Y58486000D03*
%TD*%
%TO.C,C5*%
X9934000Y145486000D03*
X10894000Y145486000D03*
%TD*%
%TO.C,C5*%
X69934000Y101986000D03*
X70894000Y101986000D03*
%TD*%
%TO.C,C5*%
X69934000Y145486000D03*
X70894000Y145486000D03*
%TD*%
M02*
