%TF.GenerationSoftware,KiCad,Pcbnew,8.0.5*%
%TF.CreationDate,2024-10-08T14:56:37+01:00*%
%TF.ProjectId,SparkFun_RTK_Facet_mosaic_panelized,53706172-6b46-4756-9e5f-52544b5f4661,rev?*%
%TF.SameCoordinates,Original*%
%TF.FileFunction,Paste,Bot*%
%TF.FilePolarity,Positive*%
%FSLAX46Y46*%
G04 Gerber Fmt 4.6, Leading zero omitted, Abs format (unit mm)*
G04 Created by KiCad (PCBNEW 8.0.5) date 2024-10-08 14:56:37*
%MOMM*%
%LPD*%
G01*
G04 APERTURE LIST*
G04 Aperture macros list*
%AMRoundRect*
0 Rectangle with rounded corners*
0 $1 Rounding radius*
0 $2 $3 $4 $5 $6 $7 $8 $9 X,Y pos of 4 corners*
0 Add a 4 corners polygon primitive as box body*
4,1,4,$2,$3,$4,$5,$6,$7,$8,$9,$2,$3,0*
0 Add four circle primitives for the rounded corners*
1,1,$1+$1,$2,$3*
1,1,$1+$1,$4,$5*
1,1,$1+$1,$6,$7*
1,1,$1+$1,$8,$9*
0 Add four rect primitives between the rounded corners*
20,1,$1+$1,$2,$3,$4,$5,0*
20,1,$1+$1,$4,$5,$6,$7,0*
20,1,$1+$1,$6,$7,$8,$9,0*
20,1,$1+$1,$8,$9,$2,$3,0*%
G04 Aperture macros list end*
%ADD10C,0.000000*%
%ADD11RoundRect,0.140000X-0.170000X0.140000X-0.170000X-0.140000X0.170000X-0.140000X0.170000X0.140000X0*%
%ADD12RoundRect,0.140000X0.170000X-0.140000X0.170000X0.140000X-0.170000X0.140000X-0.170000X-0.140000X0*%
%ADD13RoundRect,0.140000X-0.140000X-0.170000X0.140000X-0.170000X0.140000X0.170000X-0.140000X0.170000X0*%
%ADD14RoundRect,0.135000X0.135000X0.185000X-0.135000X0.185000X-0.135000X-0.185000X0.135000X-0.185000X0*%
%ADD15RoundRect,0.135000X-0.135000X-0.185000X0.135000X-0.185000X0.135000X0.185000X-0.135000X0.185000X0*%
%ADD16RoundRect,0.200000X-0.275000X0.200000X-0.275000X-0.200000X0.275000X-0.200000X0.275000X0.200000X0*%
%ADD17RoundRect,0.135000X-0.185000X0.135000X-0.185000X-0.135000X0.185000X-0.135000X0.185000X0.135000X0*%
%ADD18RoundRect,0.135000X0.185000X-0.135000X0.185000X0.135000X-0.185000X0.135000X-0.185000X-0.135000X0*%
%ADD19RoundRect,0.225000X-0.225000X-0.250000X0.225000X-0.250000X0.225000X0.250000X-0.225000X0.250000X0*%
%ADD20R,0.900000X0.800000*%
%ADD21R,0.830000X0.630000*%
%ADD22RoundRect,0.225000X-0.250000X0.225000X-0.250000X-0.225000X0.250000X-0.225000X0.250000X0.225000X0*%
%ADD23R,0.800000X0.900000*%
%ADD24R,0.660000X0.300000*%
%ADD25R,0.550000X1.200000*%
%ADD26RoundRect,0.140000X0.140000X0.170000X-0.140000X0.170000X-0.140000X-0.170000X0.140000X-0.170000X0*%
%ADD27R,0.600000X1.200000*%
%ADD28RoundRect,0.225000X0.225000X0.250000X-0.225000X0.250000X-0.225000X-0.250000X0.225000X-0.250000X0*%
%ADD29R,1.200000X0.600000*%
%ADD30R,0.300000X0.700000*%
%ADD31R,1.350000X0.600000*%
%ADD32R,2.000000X1.200000*%
%ADD33RoundRect,0.200000X0.275000X-0.200000X0.275000X0.200000X-0.275000X0.200000X-0.275000X-0.200000X0*%
%ADD34R,0.750000X0.700000*%
%ADD35R,0.900000X0.400000*%
%ADD36RoundRect,0.250000X0.925000X-0.412500X0.925000X0.412500X-0.925000X0.412500X-0.925000X-0.412500X0*%
%ADD37R,0.800000X0.550000*%
%ADD38R,0.700000X0.300000*%
%ADD39R,0.630000X0.830000*%
%ADD40R,0.280000X0.900000*%
%ADD41R,0.900000X0.280000*%
%ADD42R,4.600000X1.000000*%
%ADD43R,3.400000X1.600000*%
G04 APERTURE END LIST*
D10*
%TO.C,U10*%
G36*
X37225000Y11785000D02*
G01*
X36975000Y11785000D01*
X36975000Y12660000D01*
X37225000Y12660000D01*
X37225000Y11785000D01*
G37*
G36*
X37225000Y7660000D02*
G01*
X36975000Y7660000D01*
X36975000Y8535000D01*
X37225000Y8535000D01*
X37225000Y7660000D01*
G37*
G36*
X37725000Y11785000D02*
G01*
X37475000Y11785000D01*
X37475000Y12660000D01*
X37725000Y12660000D01*
X37725000Y11785000D01*
G37*
G36*
X37725000Y7660000D02*
G01*
X37475000Y7660000D01*
X37475000Y8535000D01*
X37725000Y8535000D01*
X37725000Y7660000D01*
G37*
G36*
X38225000Y11785000D02*
G01*
X37975000Y11785000D01*
X37975000Y12660000D01*
X38225000Y12660000D01*
X38225000Y11785000D01*
G37*
G36*
X38225000Y7660000D02*
G01*
X37975000Y7660000D01*
X37975000Y8535000D01*
X38225000Y8535000D01*
X38225000Y7660000D01*
G37*
G36*
X38725000Y11785000D02*
G01*
X38475000Y11785000D01*
X38475000Y12660000D01*
X38725000Y12660000D01*
X38725000Y11785000D01*
G37*
G36*
X38725000Y7660000D02*
G01*
X38475000Y7660000D01*
X38475000Y8535000D01*
X38725000Y8535000D01*
X38725000Y7660000D01*
G37*
G36*
X39225000Y11785000D02*
G01*
X38975000Y11785000D01*
X38975000Y12660000D01*
X39225000Y12660000D01*
X39225000Y11785000D01*
G37*
G36*
X39225000Y7660000D02*
G01*
X38975000Y7660000D01*
X38975000Y8535000D01*
X39225000Y8535000D01*
X39225000Y7660000D01*
G37*
G36*
X37225000Y55285000D02*
G01*
X36975000Y55285000D01*
X36975000Y56160000D01*
X37225000Y56160000D01*
X37225000Y55285000D01*
G37*
G36*
X37225000Y51160000D02*
G01*
X36975000Y51160000D01*
X36975000Y52035000D01*
X37225000Y52035000D01*
X37225000Y51160000D01*
G37*
G36*
X37725000Y55285000D02*
G01*
X37475000Y55285000D01*
X37475000Y56160000D01*
X37725000Y56160000D01*
X37725000Y55285000D01*
G37*
G36*
X37725000Y51160000D02*
G01*
X37475000Y51160000D01*
X37475000Y52035000D01*
X37725000Y52035000D01*
X37725000Y51160000D01*
G37*
G36*
X38225000Y55285000D02*
G01*
X37975000Y55285000D01*
X37975000Y56160000D01*
X38225000Y56160000D01*
X38225000Y55285000D01*
G37*
G36*
X38225000Y51160000D02*
G01*
X37975000Y51160000D01*
X37975000Y52035000D01*
X38225000Y52035000D01*
X38225000Y51160000D01*
G37*
G36*
X38725000Y55285000D02*
G01*
X38475000Y55285000D01*
X38475000Y56160000D01*
X38725000Y56160000D01*
X38725000Y55285000D01*
G37*
G36*
X38725000Y51160000D02*
G01*
X38475000Y51160000D01*
X38475000Y52035000D01*
X38725000Y52035000D01*
X38725000Y51160000D01*
G37*
G36*
X39225000Y55285000D02*
G01*
X38975000Y55285000D01*
X38975000Y56160000D01*
X39225000Y56160000D01*
X39225000Y55285000D01*
G37*
G36*
X39225000Y51160000D02*
G01*
X38975000Y51160000D01*
X38975000Y52035000D01*
X39225000Y52035000D01*
X39225000Y51160000D01*
G37*
G36*
X37225000Y98785000D02*
G01*
X36975000Y98785000D01*
X36975000Y99660000D01*
X37225000Y99660000D01*
X37225000Y98785000D01*
G37*
G36*
X37225000Y94660000D02*
G01*
X36975000Y94660000D01*
X36975000Y95535000D01*
X37225000Y95535000D01*
X37225000Y94660000D01*
G37*
G36*
X37725000Y98785000D02*
G01*
X37475000Y98785000D01*
X37475000Y99660000D01*
X37725000Y99660000D01*
X37725000Y98785000D01*
G37*
G36*
X37725000Y94660000D02*
G01*
X37475000Y94660000D01*
X37475000Y95535000D01*
X37725000Y95535000D01*
X37725000Y94660000D01*
G37*
G36*
X38225000Y98785000D02*
G01*
X37975000Y98785000D01*
X37975000Y99660000D01*
X38225000Y99660000D01*
X38225000Y98785000D01*
G37*
G36*
X38225000Y94660000D02*
G01*
X37975000Y94660000D01*
X37975000Y95535000D01*
X38225000Y95535000D01*
X38225000Y94660000D01*
G37*
G36*
X38725000Y98785000D02*
G01*
X38475000Y98785000D01*
X38475000Y99660000D01*
X38725000Y99660000D01*
X38725000Y98785000D01*
G37*
G36*
X38725000Y94660000D02*
G01*
X38475000Y94660000D01*
X38475000Y95535000D01*
X38725000Y95535000D01*
X38725000Y94660000D01*
G37*
G36*
X39225000Y98785000D02*
G01*
X38975000Y98785000D01*
X38975000Y99660000D01*
X39225000Y99660000D01*
X39225000Y98785000D01*
G37*
G36*
X39225000Y94660000D02*
G01*
X38975000Y94660000D01*
X38975000Y95535000D01*
X39225000Y95535000D01*
X39225000Y94660000D01*
G37*
G36*
X97225000Y142285000D02*
G01*
X96975000Y142285000D01*
X96975000Y143160000D01*
X97225000Y143160000D01*
X97225000Y142285000D01*
G37*
G36*
X97225000Y138160000D02*
G01*
X96975000Y138160000D01*
X96975000Y139035000D01*
X97225000Y139035000D01*
X97225000Y138160000D01*
G37*
G36*
X97725000Y142285000D02*
G01*
X97475000Y142285000D01*
X97475000Y143160000D01*
X97725000Y143160000D01*
X97725000Y142285000D01*
G37*
G36*
X97725000Y138160000D02*
G01*
X97475000Y138160000D01*
X97475000Y139035000D01*
X97725000Y139035000D01*
X97725000Y138160000D01*
G37*
G36*
X98225000Y142285000D02*
G01*
X97975000Y142285000D01*
X97975000Y143160000D01*
X98225000Y143160000D01*
X98225000Y142285000D01*
G37*
G36*
X98225000Y138160000D02*
G01*
X97975000Y138160000D01*
X97975000Y139035000D01*
X98225000Y139035000D01*
X98225000Y138160000D01*
G37*
G36*
X98725000Y142285000D02*
G01*
X98475000Y142285000D01*
X98475000Y143160000D01*
X98725000Y143160000D01*
X98725000Y142285000D01*
G37*
G36*
X98725000Y138160000D02*
G01*
X98475000Y138160000D01*
X98475000Y139035000D01*
X98725000Y139035000D01*
X98725000Y138160000D01*
G37*
G36*
X99225000Y142285000D02*
G01*
X98975000Y142285000D01*
X98975000Y143160000D01*
X99225000Y143160000D01*
X99225000Y142285000D01*
G37*
G36*
X99225000Y138160000D02*
G01*
X98975000Y138160000D01*
X98975000Y139035000D01*
X99225000Y139035000D01*
X99225000Y138160000D01*
G37*
G36*
X97225000Y11785000D02*
G01*
X96975000Y11785000D01*
X96975000Y12660000D01*
X97225000Y12660000D01*
X97225000Y11785000D01*
G37*
G36*
X97225000Y7660000D02*
G01*
X96975000Y7660000D01*
X96975000Y8535000D01*
X97225000Y8535000D01*
X97225000Y7660000D01*
G37*
G36*
X97725000Y11785000D02*
G01*
X97475000Y11785000D01*
X97475000Y12660000D01*
X97725000Y12660000D01*
X97725000Y11785000D01*
G37*
G36*
X97725000Y7660000D02*
G01*
X97475000Y7660000D01*
X97475000Y8535000D01*
X97725000Y8535000D01*
X97725000Y7660000D01*
G37*
G36*
X98225000Y11785000D02*
G01*
X97975000Y11785000D01*
X97975000Y12660000D01*
X98225000Y12660000D01*
X98225000Y11785000D01*
G37*
G36*
X98225000Y7660000D02*
G01*
X97975000Y7660000D01*
X97975000Y8535000D01*
X98225000Y8535000D01*
X98225000Y7660000D01*
G37*
G36*
X98725000Y11785000D02*
G01*
X98475000Y11785000D01*
X98475000Y12660000D01*
X98725000Y12660000D01*
X98725000Y11785000D01*
G37*
G36*
X98725000Y7660000D02*
G01*
X98475000Y7660000D01*
X98475000Y8535000D01*
X98725000Y8535000D01*
X98725000Y7660000D01*
G37*
G36*
X99225000Y11785000D02*
G01*
X98975000Y11785000D01*
X98975000Y12660000D01*
X99225000Y12660000D01*
X99225000Y11785000D01*
G37*
G36*
X99225000Y7660000D02*
G01*
X98975000Y7660000D01*
X98975000Y8535000D01*
X99225000Y8535000D01*
X99225000Y7660000D01*
G37*
G36*
X37225000Y142285000D02*
G01*
X36975000Y142285000D01*
X36975000Y143160000D01*
X37225000Y143160000D01*
X37225000Y142285000D01*
G37*
G36*
X37225000Y138160000D02*
G01*
X36975000Y138160000D01*
X36975000Y139035000D01*
X37225000Y139035000D01*
X37225000Y138160000D01*
G37*
G36*
X37725000Y142285000D02*
G01*
X37475000Y142285000D01*
X37475000Y143160000D01*
X37725000Y143160000D01*
X37725000Y142285000D01*
G37*
G36*
X37725000Y138160000D02*
G01*
X37475000Y138160000D01*
X37475000Y139035000D01*
X37725000Y139035000D01*
X37725000Y138160000D01*
G37*
G36*
X38225000Y142285000D02*
G01*
X37975000Y142285000D01*
X37975000Y143160000D01*
X38225000Y143160000D01*
X38225000Y142285000D01*
G37*
G36*
X38225000Y138160000D02*
G01*
X37975000Y138160000D01*
X37975000Y139035000D01*
X38225000Y139035000D01*
X38225000Y138160000D01*
G37*
G36*
X38725000Y142285000D02*
G01*
X38475000Y142285000D01*
X38475000Y143160000D01*
X38725000Y143160000D01*
X38725000Y142285000D01*
G37*
G36*
X38725000Y138160000D02*
G01*
X38475000Y138160000D01*
X38475000Y139035000D01*
X38725000Y139035000D01*
X38725000Y138160000D01*
G37*
G36*
X39225000Y142285000D02*
G01*
X38975000Y142285000D01*
X38975000Y143160000D01*
X39225000Y143160000D01*
X39225000Y142285000D01*
G37*
G36*
X39225000Y138160000D02*
G01*
X38975000Y138160000D01*
X38975000Y139035000D01*
X39225000Y139035000D01*
X39225000Y138160000D01*
G37*
G36*
X97225000Y98785000D02*
G01*
X96975000Y98785000D01*
X96975000Y99660000D01*
X97225000Y99660000D01*
X97225000Y98785000D01*
G37*
G36*
X97225000Y94660000D02*
G01*
X96975000Y94660000D01*
X96975000Y95535000D01*
X97225000Y95535000D01*
X97225000Y94660000D01*
G37*
G36*
X97725000Y98785000D02*
G01*
X97475000Y98785000D01*
X97475000Y99660000D01*
X97725000Y99660000D01*
X97725000Y98785000D01*
G37*
G36*
X97725000Y94660000D02*
G01*
X97475000Y94660000D01*
X97475000Y95535000D01*
X97725000Y95535000D01*
X97725000Y94660000D01*
G37*
G36*
X98225000Y98785000D02*
G01*
X97975000Y98785000D01*
X97975000Y99660000D01*
X98225000Y99660000D01*
X98225000Y98785000D01*
G37*
G36*
X98225000Y94660000D02*
G01*
X97975000Y94660000D01*
X97975000Y95535000D01*
X98225000Y95535000D01*
X98225000Y94660000D01*
G37*
G36*
X98725000Y98785000D02*
G01*
X98475000Y98785000D01*
X98475000Y99660000D01*
X98725000Y99660000D01*
X98725000Y98785000D01*
G37*
G36*
X98725000Y94660000D02*
G01*
X98475000Y94660000D01*
X98475000Y95535000D01*
X98725000Y95535000D01*
X98725000Y94660000D01*
G37*
G36*
X99225000Y98785000D02*
G01*
X98975000Y98785000D01*
X98975000Y99660000D01*
X99225000Y99660000D01*
X99225000Y98785000D01*
G37*
G36*
X99225000Y94660000D02*
G01*
X98975000Y94660000D01*
X98975000Y95535000D01*
X99225000Y95535000D01*
X99225000Y94660000D01*
G37*
G36*
X97225000Y55285000D02*
G01*
X96975000Y55285000D01*
X96975000Y56160000D01*
X97225000Y56160000D01*
X97225000Y55285000D01*
G37*
G36*
X97225000Y51160000D02*
G01*
X96975000Y51160000D01*
X96975000Y52035000D01*
X97225000Y52035000D01*
X97225000Y51160000D01*
G37*
G36*
X97725000Y55285000D02*
G01*
X97475000Y55285000D01*
X97475000Y56160000D01*
X97725000Y56160000D01*
X97725000Y55285000D01*
G37*
G36*
X97725000Y51160000D02*
G01*
X97475000Y51160000D01*
X97475000Y52035000D01*
X97725000Y52035000D01*
X97725000Y51160000D01*
G37*
G36*
X98225000Y55285000D02*
G01*
X97975000Y55285000D01*
X97975000Y56160000D01*
X98225000Y56160000D01*
X98225000Y55285000D01*
G37*
G36*
X98225000Y51160000D02*
G01*
X97975000Y51160000D01*
X97975000Y52035000D01*
X98225000Y52035000D01*
X98225000Y51160000D01*
G37*
G36*
X98725000Y55285000D02*
G01*
X98475000Y55285000D01*
X98475000Y56160000D01*
X98725000Y56160000D01*
X98725000Y55285000D01*
G37*
G36*
X98725000Y51160000D02*
G01*
X98475000Y51160000D01*
X98475000Y52035000D01*
X98725000Y52035000D01*
X98725000Y51160000D01*
G37*
G36*
X99225000Y55285000D02*
G01*
X98975000Y55285000D01*
X98975000Y56160000D01*
X99225000Y56160000D01*
X99225000Y55285000D01*
G37*
G36*
X99225000Y51160000D02*
G01*
X98975000Y51160000D01*
X98975000Y52035000D01*
X99225000Y52035000D01*
X99225000Y51160000D01*
G37*
%TO.C,U9*%
G36*
X11026000Y117808000D02*
G01*
X9726000Y117808000D01*
X9726000Y119108000D01*
X11026000Y119108000D01*
X11026000Y117808000D01*
G37*
G36*
X11026000Y119408000D02*
G01*
X9726000Y119408000D01*
X9726000Y120708000D01*
X11026000Y120708000D01*
X11026000Y119408000D01*
G37*
G36*
X12626000Y117808000D02*
G01*
X11326000Y117808000D01*
X11326000Y119108000D01*
X12626000Y119108000D01*
X12626000Y117808000D01*
G37*
G36*
X12626000Y119408000D02*
G01*
X11326000Y119408000D01*
X11326000Y120708000D01*
X12626000Y120708000D01*
X12626000Y119408000D01*
G37*
G36*
X71026000Y117808000D02*
G01*
X69726000Y117808000D01*
X69726000Y119108000D01*
X71026000Y119108000D01*
X71026000Y117808000D01*
G37*
G36*
X71026000Y119408000D02*
G01*
X69726000Y119408000D01*
X69726000Y120708000D01*
X71026000Y120708000D01*
X71026000Y119408000D01*
G37*
G36*
X72626000Y117808000D02*
G01*
X71326000Y117808000D01*
X71326000Y119108000D01*
X72626000Y119108000D01*
X72626000Y117808000D01*
G37*
G36*
X72626000Y119408000D02*
G01*
X71326000Y119408000D01*
X71326000Y120708000D01*
X72626000Y120708000D01*
X72626000Y119408000D01*
G37*
G36*
X11026000Y74308000D02*
G01*
X9726000Y74308000D01*
X9726000Y75608000D01*
X11026000Y75608000D01*
X11026000Y74308000D01*
G37*
G36*
X11026000Y75908000D02*
G01*
X9726000Y75908000D01*
X9726000Y77208000D01*
X11026000Y77208000D01*
X11026000Y75908000D01*
G37*
G36*
X12626000Y74308000D02*
G01*
X11326000Y74308000D01*
X11326000Y75608000D01*
X12626000Y75608000D01*
X12626000Y74308000D01*
G37*
G36*
X12626000Y75908000D02*
G01*
X11326000Y75908000D01*
X11326000Y77208000D01*
X12626000Y77208000D01*
X12626000Y75908000D01*
G37*
G36*
X71026000Y74308000D02*
G01*
X69726000Y74308000D01*
X69726000Y75608000D01*
X71026000Y75608000D01*
X71026000Y74308000D01*
G37*
G36*
X71026000Y75908000D02*
G01*
X69726000Y75908000D01*
X69726000Y77208000D01*
X71026000Y77208000D01*
X71026000Y75908000D01*
G37*
G36*
X72626000Y74308000D02*
G01*
X71326000Y74308000D01*
X71326000Y75608000D01*
X72626000Y75608000D01*
X72626000Y74308000D01*
G37*
G36*
X72626000Y75908000D02*
G01*
X71326000Y75908000D01*
X71326000Y77208000D01*
X72626000Y77208000D01*
X72626000Y75908000D01*
G37*
G36*
X11026000Y161308000D02*
G01*
X9726000Y161308000D01*
X9726000Y162608000D01*
X11026000Y162608000D01*
X11026000Y161308000D01*
G37*
G36*
X11026000Y162908000D02*
G01*
X9726000Y162908000D01*
X9726000Y164208000D01*
X11026000Y164208000D01*
X11026000Y162908000D01*
G37*
G36*
X12626000Y161308000D02*
G01*
X11326000Y161308000D01*
X11326000Y162608000D01*
X12626000Y162608000D01*
X12626000Y161308000D01*
G37*
G36*
X12626000Y162908000D02*
G01*
X11326000Y162908000D01*
X11326000Y164208000D01*
X12626000Y164208000D01*
X12626000Y162908000D01*
G37*
G36*
X71026000Y30808000D02*
G01*
X69726000Y30808000D01*
X69726000Y32108000D01*
X71026000Y32108000D01*
X71026000Y30808000D01*
G37*
G36*
X71026000Y32408000D02*
G01*
X69726000Y32408000D01*
X69726000Y33708000D01*
X71026000Y33708000D01*
X71026000Y32408000D01*
G37*
G36*
X72626000Y30808000D02*
G01*
X71326000Y30808000D01*
X71326000Y32108000D01*
X72626000Y32108000D01*
X72626000Y30808000D01*
G37*
G36*
X72626000Y32408000D02*
G01*
X71326000Y32408000D01*
X71326000Y33708000D01*
X72626000Y33708000D01*
X72626000Y32408000D01*
G37*
G36*
X71026000Y161308000D02*
G01*
X69726000Y161308000D01*
X69726000Y162608000D01*
X71026000Y162608000D01*
X71026000Y161308000D01*
G37*
G36*
X71026000Y162908000D02*
G01*
X69726000Y162908000D01*
X69726000Y164208000D01*
X71026000Y164208000D01*
X71026000Y162908000D01*
G37*
G36*
X72626000Y161308000D02*
G01*
X71326000Y161308000D01*
X71326000Y162608000D01*
X72626000Y162608000D01*
X72626000Y161308000D01*
G37*
G36*
X72626000Y162908000D02*
G01*
X71326000Y162908000D01*
X71326000Y164208000D01*
X72626000Y164208000D01*
X72626000Y162908000D01*
G37*
G36*
X11026000Y30808000D02*
G01*
X9726000Y30808000D01*
X9726000Y32108000D01*
X11026000Y32108000D01*
X11026000Y30808000D01*
G37*
G36*
X11026000Y32408000D02*
G01*
X9726000Y32408000D01*
X9726000Y33708000D01*
X11026000Y33708000D01*
X11026000Y32408000D01*
G37*
G36*
X12626000Y30808000D02*
G01*
X11326000Y30808000D01*
X11326000Y32108000D01*
X12626000Y32108000D01*
X12626000Y30808000D01*
G37*
G36*
X12626000Y32408000D02*
G01*
X11326000Y32408000D01*
X11326000Y33708000D01*
X12626000Y33708000D01*
X12626000Y32408000D01*
G37*
%TO.C,U4*%
G36*
X32903000Y61472000D02*
G01*
X32653000Y61472000D01*
X32653000Y62109500D01*
X32903000Y62109500D01*
X32903000Y61472000D01*
G37*
G36*
X32903000Y59434500D02*
G01*
X32653000Y59434500D01*
X32653000Y60072000D01*
X32903000Y60072000D01*
X32903000Y59434500D01*
G37*
G36*
X33403000Y61472000D02*
G01*
X33153000Y61472000D01*
X33153000Y62109500D01*
X33403000Y62109500D01*
X33403000Y61472000D01*
G37*
G36*
X33403000Y59434500D02*
G01*
X33153000Y59434500D01*
X33153000Y60072000D01*
X33403000Y60072000D01*
X33403000Y59434500D01*
G37*
G36*
X33438000Y60452000D02*
G01*
X32938000Y60452000D01*
X32938000Y61092000D01*
X33438000Y61092000D01*
X33438000Y60452000D01*
G37*
G36*
X33903000Y61472000D02*
G01*
X33653000Y61472000D01*
X33653000Y62109500D01*
X33903000Y62109500D01*
X33903000Y61472000D01*
G37*
G36*
X33903000Y59434500D02*
G01*
X33653000Y59434500D01*
X33653000Y60072000D01*
X33903000Y60072000D01*
X33903000Y59434500D01*
G37*
G36*
X34118000Y60452000D02*
G01*
X33618000Y60452000D01*
X33618000Y61092000D01*
X34118000Y61092000D01*
X34118000Y60452000D01*
G37*
G36*
X34403000Y61472000D02*
G01*
X34153000Y61472000D01*
X34153000Y62109500D01*
X34403000Y62109500D01*
X34403000Y61472000D01*
G37*
G36*
X34403000Y59434500D02*
G01*
X34153000Y59434500D01*
X34153000Y60072000D01*
X34403000Y60072000D01*
X34403000Y59434500D01*
G37*
G36*
X32903000Y148472000D02*
G01*
X32653000Y148472000D01*
X32653000Y149109500D01*
X32903000Y149109500D01*
X32903000Y148472000D01*
G37*
G36*
X32903000Y146434500D02*
G01*
X32653000Y146434500D01*
X32653000Y147072000D01*
X32903000Y147072000D01*
X32903000Y146434500D01*
G37*
G36*
X33403000Y148472000D02*
G01*
X33153000Y148472000D01*
X33153000Y149109500D01*
X33403000Y149109500D01*
X33403000Y148472000D01*
G37*
G36*
X33403000Y146434500D02*
G01*
X33153000Y146434500D01*
X33153000Y147072000D01*
X33403000Y147072000D01*
X33403000Y146434500D01*
G37*
G36*
X33438000Y147452000D02*
G01*
X32938000Y147452000D01*
X32938000Y148092000D01*
X33438000Y148092000D01*
X33438000Y147452000D01*
G37*
G36*
X33903000Y148472000D02*
G01*
X33653000Y148472000D01*
X33653000Y149109500D01*
X33903000Y149109500D01*
X33903000Y148472000D01*
G37*
G36*
X33903000Y146434500D02*
G01*
X33653000Y146434500D01*
X33653000Y147072000D01*
X33903000Y147072000D01*
X33903000Y146434500D01*
G37*
G36*
X34118000Y147452000D02*
G01*
X33618000Y147452000D01*
X33618000Y148092000D01*
X34118000Y148092000D01*
X34118000Y147452000D01*
G37*
G36*
X34403000Y148472000D02*
G01*
X34153000Y148472000D01*
X34153000Y149109500D01*
X34403000Y149109500D01*
X34403000Y148472000D01*
G37*
G36*
X34403000Y146434500D02*
G01*
X34153000Y146434500D01*
X34153000Y147072000D01*
X34403000Y147072000D01*
X34403000Y146434500D01*
G37*
G36*
X92903000Y17972000D02*
G01*
X92653000Y17972000D01*
X92653000Y18609500D01*
X92903000Y18609500D01*
X92903000Y17972000D01*
G37*
G36*
X92903000Y15934500D02*
G01*
X92653000Y15934500D01*
X92653000Y16572000D01*
X92903000Y16572000D01*
X92903000Y15934500D01*
G37*
G36*
X93403000Y17972000D02*
G01*
X93153000Y17972000D01*
X93153000Y18609500D01*
X93403000Y18609500D01*
X93403000Y17972000D01*
G37*
G36*
X93403000Y15934500D02*
G01*
X93153000Y15934500D01*
X93153000Y16572000D01*
X93403000Y16572000D01*
X93403000Y15934500D01*
G37*
G36*
X93438000Y16952000D02*
G01*
X92938000Y16952000D01*
X92938000Y17592000D01*
X93438000Y17592000D01*
X93438000Y16952000D01*
G37*
G36*
X93903000Y17972000D02*
G01*
X93653000Y17972000D01*
X93653000Y18609500D01*
X93903000Y18609500D01*
X93903000Y17972000D01*
G37*
G36*
X93903000Y15934500D02*
G01*
X93653000Y15934500D01*
X93653000Y16572000D01*
X93903000Y16572000D01*
X93903000Y15934500D01*
G37*
G36*
X94118000Y16952000D02*
G01*
X93618000Y16952000D01*
X93618000Y17592000D01*
X94118000Y17592000D01*
X94118000Y16952000D01*
G37*
G36*
X94403000Y17972000D02*
G01*
X94153000Y17972000D01*
X94153000Y18609500D01*
X94403000Y18609500D01*
X94403000Y17972000D01*
G37*
G36*
X94403000Y15934500D02*
G01*
X94153000Y15934500D01*
X94153000Y16572000D01*
X94403000Y16572000D01*
X94403000Y15934500D01*
G37*
G36*
X92903000Y61472000D02*
G01*
X92653000Y61472000D01*
X92653000Y62109500D01*
X92903000Y62109500D01*
X92903000Y61472000D01*
G37*
G36*
X92903000Y59434500D02*
G01*
X92653000Y59434500D01*
X92653000Y60072000D01*
X92903000Y60072000D01*
X92903000Y59434500D01*
G37*
G36*
X93403000Y61472000D02*
G01*
X93153000Y61472000D01*
X93153000Y62109500D01*
X93403000Y62109500D01*
X93403000Y61472000D01*
G37*
G36*
X93403000Y59434500D02*
G01*
X93153000Y59434500D01*
X93153000Y60072000D01*
X93403000Y60072000D01*
X93403000Y59434500D01*
G37*
G36*
X93438000Y60452000D02*
G01*
X92938000Y60452000D01*
X92938000Y61092000D01*
X93438000Y61092000D01*
X93438000Y60452000D01*
G37*
G36*
X93903000Y61472000D02*
G01*
X93653000Y61472000D01*
X93653000Y62109500D01*
X93903000Y62109500D01*
X93903000Y61472000D01*
G37*
G36*
X93903000Y59434500D02*
G01*
X93653000Y59434500D01*
X93653000Y60072000D01*
X93903000Y60072000D01*
X93903000Y59434500D01*
G37*
G36*
X94118000Y60452000D02*
G01*
X93618000Y60452000D01*
X93618000Y61092000D01*
X94118000Y61092000D01*
X94118000Y60452000D01*
G37*
G36*
X94403000Y61472000D02*
G01*
X94153000Y61472000D01*
X94153000Y62109500D01*
X94403000Y62109500D01*
X94403000Y61472000D01*
G37*
G36*
X94403000Y59434500D02*
G01*
X94153000Y59434500D01*
X94153000Y60072000D01*
X94403000Y60072000D01*
X94403000Y59434500D01*
G37*
G36*
X92903000Y104972000D02*
G01*
X92653000Y104972000D01*
X92653000Y105609500D01*
X92903000Y105609500D01*
X92903000Y104972000D01*
G37*
G36*
X92903000Y102934500D02*
G01*
X92653000Y102934500D01*
X92653000Y103572000D01*
X92903000Y103572000D01*
X92903000Y102934500D01*
G37*
G36*
X93403000Y104972000D02*
G01*
X93153000Y104972000D01*
X93153000Y105609500D01*
X93403000Y105609500D01*
X93403000Y104972000D01*
G37*
G36*
X93403000Y102934500D02*
G01*
X93153000Y102934500D01*
X93153000Y103572000D01*
X93403000Y103572000D01*
X93403000Y102934500D01*
G37*
G36*
X93438000Y103952000D02*
G01*
X92938000Y103952000D01*
X92938000Y104592000D01*
X93438000Y104592000D01*
X93438000Y103952000D01*
G37*
G36*
X93903000Y104972000D02*
G01*
X93653000Y104972000D01*
X93653000Y105609500D01*
X93903000Y105609500D01*
X93903000Y104972000D01*
G37*
G36*
X93903000Y102934500D02*
G01*
X93653000Y102934500D01*
X93653000Y103572000D01*
X93903000Y103572000D01*
X93903000Y102934500D01*
G37*
G36*
X94118000Y103952000D02*
G01*
X93618000Y103952000D01*
X93618000Y104592000D01*
X94118000Y104592000D01*
X94118000Y103952000D01*
G37*
G36*
X94403000Y104972000D02*
G01*
X94153000Y104972000D01*
X94153000Y105609500D01*
X94403000Y105609500D01*
X94403000Y104972000D01*
G37*
G36*
X94403000Y102934500D02*
G01*
X94153000Y102934500D01*
X94153000Y103572000D01*
X94403000Y103572000D01*
X94403000Y102934500D01*
G37*
G36*
X32903000Y104972000D02*
G01*
X32653000Y104972000D01*
X32653000Y105609500D01*
X32903000Y105609500D01*
X32903000Y104972000D01*
G37*
G36*
X32903000Y102934500D02*
G01*
X32653000Y102934500D01*
X32653000Y103572000D01*
X32903000Y103572000D01*
X32903000Y102934500D01*
G37*
G36*
X33403000Y104972000D02*
G01*
X33153000Y104972000D01*
X33153000Y105609500D01*
X33403000Y105609500D01*
X33403000Y104972000D01*
G37*
G36*
X33403000Y102934500D02*
G01*
X33153000Y102934500D01*
X33153000Y103572000D01*
X33403000Y103572000D01*
X33403000Y102934500D01*
G37*
G36*
X33438000Y103952000D02*
G01*
X32938000Y103952000D01*
X32938000Y104592000D01*
X33438000Y104592000D01*
X33438000Y103952000D01*
G37*
G36*
X33903000Y104972000D02*
G01*
X33653000Y104972000D01*
X33653000Y105609500D01*
X33903000Y105609500D01*
X33903000Y104972000D01*
G37*
G36*
X33903000Y102934500D02*
G01*
X33653000Y102934500D01*
X33653000Y103572000D01*
X33903000Y103572000D01*
X33903000Y102934500D01*
G37*
G36*
X34118000Y103952000D02*
G01*
X33618000Y103952000D01*
X33618000Y104592000D01*
X34118000Y104592000D01*
X34118000Y103952000D01*
G37*
G36*
X34403000Y104972000D02*
G01*
X34153000Y104972000D01*
X34153000Y105609500D01*
X34403000Y105609500D01*
X34403000Y104972000D01*
G37*
G36*
X34403000Y102934500D02*
G01*
X34153000Y102934500D01*
X34153000Y103572000D01*
X34403000Y103572000D01*
X34403000Y102934500D01*
G37*
G36*
X92903000Y148472000D02*
G01*
X92653000Y148472000D01*
X92653000Y149109500D01*
X92903000Y149109500D01*
X92903000Y148472000D01*
G37*
G36*
X92903000Y146434500D02*
G01*
X92653000Y146434500D01*
X92653000Y147072000D01*
X92903000Y147072000D01*
X92903000Y146434500D01*
G37*
G36*
X93403000Y148472000D02*
G01*
X93153000Y148472000D01*
X93153000Y149109500D01*
X93403000Y149109500D01*
X93403000Y148472000D01*
G37*
G36*
X93403000Y146434500D02*
G01*
X93153000Y146434500D01*
X93153000Y147072000D01*
X93403000Y147072000D01*
X93403000Y146434500D01*
G37*
G36*
X93438000Y147452000D02*
G01*
X92938000Y147452000D01*
X92938000Y148092000D01*
X93438000Y148092000D01*
X93438000Y147452000D01*
G37*
G36*
X93903000Y148472000D02*
G01*
X93653000Y148472000D01*
X93653000Y149109500D01*
X93903000Y149109500D01*
X93903000Y148472000D01*
G37*
G36*
X93903000Y146434500D02*
G01*
X93653000Y146434500D01*
X93653000Y147072000D01*
X93903000Y147072000D01*
X93903000Y146434500D01*
G37*
G36*
X94118000Y147452000D02*
G01*
X93618000Y147452000D01*
X93618000Y148092000D01*
X94118000Y148092000D01*
X94118000Y147452000D01*
G37*
G36*
X94403000Y148472000D02*
G01*
X94153000Y148472000D01*
X94153000Y149109500D01*
X94403000Y149109500D01*
X94403000Y148472000D01*
G37*
G36*
X94403000Y146434500D02*
G01*
X94153000Y146434500D01*
X94153000Y147072000D01*
X94403000Y147072000D01*
X94403000Y146434500D01*
G37*
G36*
X32903000Y17972000D02*
G01*
X32653000Y17972000D01*
X32653000Y18609500D01*
X32903000Y18609500D01*
X32903000Y17972000D01*
G37*
G36*
X32903000Y15934500D02*
G01*
X32653000Y15934500D01*
X32653000Y16572000D01*
X32903000Y16572000D01*
X32903000Y15934500D01*
G37*
G36*
X33403000Y17972000D02*
G01*
X33153000Y17972000D01*
X33153000Y18609500D01*
X33403000Y18609500D01*
X33403000Y17972000D01*
G37*
G36*
X33403000Y15934500D02*
G01*
X33153000Y15934500D01*
X33153000Y16572000D01*
X33403000Y16572000D01*
X33403000Y15934500D01*
G37*
G36*
X33438000Y16952000D02*
G01*
X32938000Y16952000D01*
X32938000Y17592000D01*
X33438000Y17592000D01*
X33438000Y16952000D01*
G37*
G36*
X33903000Y17972000D02*
G01*
X33653000Y17972000D01*
X33653000Y18609500D01*
X33903000Y18609500D01*
X33903000Y17972000D01*
G37*
G36*
X33903000Y15934500D02*
G01*
X33653000Y15934500D01*
X33653000Y16572000D01*
X33903000Y16572000D01*
X33903000Y15934500D01*
G37*
G36*
X34118000Y16952000D02*
G01*
X33618000Y16952000D01*
X33618000Y17592000D01*
X34118000Y17592000D01*
X34118000Y16952000D01*
G37*
G36*
X34403000Y17972000D02*
G01*
X34153000Y17972000D01*
X34153000Y18609500D01*
X34403000Y18609500D01*
X34403000Y17972000D01*
G37*
G36*
X34403000Y15934500D02*
G01*
X34153000Y15934500D01*
X34153000Y16572000D01*
X34403000Y16572000D01*
X34403000Y15934500D01*
G37*
%TD*%
D11*
%TO.C,C27*%
X30480000Y2512000D03*
X30480000Y1552000D03*
%TD*%
%TO.C,C27*%
X90480000Y46012000D03*
X90480000Y45052000D03*
%TD*%
%TO.C,C27*%
X30480000Y89512000D03*
X30480000Y88552000D03*
%TD*%
%TO.C,C27*%
X90480000Y89512000D03*
X90480000Y88552000D03*
%TD*%
%TO.C,C27*%
X30480000Y133012000D03*
X30480000Y132052000D03*
%TD*%
%TO.C,C27*%
X90480000Y2512000D03*
X90480000Y1552000D03*
%TD*%
%TO.C,C27*%
X30480000Y46012000D03*
X30480000Y45052000D03*
%TD*%
%TO.C,C27*%
X90480000Y133012000D03*
X90480000Y132052000D03*
%TD*%
%TO.C,C1*%
X19304000Y9116000D03*
X19304000Y8156000D03*
%TD*%
%TO.C,C1*%
X19304000Y96116000D03*
X19304000Y95156000D03*
%TD*%
%TO.C,C1*%
X79304000Y139616000D03*
X79304000Y138656000D03*
%TD*%
%TO.C,C1*%
X79304000Y9116000D03*
X79304000Y8156000D03*
%TD*%
%TO.C,C1*%
X19304000Y52616000D03*
X19304000Y51656000D03*
%TD*%
%TO.C,C1*%
X19304000Y139616000D03*
X19304000Y138656000D03*
%TD*%
%TO.C,C1*%
X79304000Y52616000D03*
X79304000Y51656000D03*
%TD*%
%TO.C,C1*%
X79304000Y96116000D03*
X79304000Y95156000D03*
%TD*%
D12*
%TO.C,C8*%
X20320000Y12093000D03*
X20320000Y13053000D03*
%TD*%
%TO.C,C8*%
X20320000Y142593000D03*
X20320000Y143553000D03*
%TD*%
%TO.C,C8*%
X20320000Y99093000D03*
X20320000Y100053000D03*
%TD*%
%TO.C,C8*%
X80320000Y142593000D03*
X80320000Y143553000D03*
%TD*%
%TO.C,C8*%
X80320000Y12093000D03*
X80320000Y13053000D03*
%TD*%
%TO.C,C8*%
X80320000Y55593000D03*
X80320000Y56553000D03*
%TD*%
%TO.C,C8*%
X80320000Y99093000D03*
X80320000Y100053000D03*
%TD*%
%TO.C,C8*%
X20320000Y55593000D03*
X20320000Y56553000D03*
%TD*%
D13*
%TO.C,C23*%
X25936000Y7620000D03*
X26896000Y7620000D03*
%TD*%
%TO.C,C23*%
X25936000Y94620000D03*
X26896000Y94620000D03*
%TD*%
%TO.C,C23*%
X25936000Y51120000D03*
X26896000Y51120000D03*
%TD*%
%TO.C,C23*%
X85936000Y94620000D03*
X86896000Y94620000D03*
%TD*%
%TO.C,C23*%
X85936000Y138120000D03*
X86896000Y138120000D03*
%TD*%
%TO.C,C23*%
X25936000Y138120000D03*
X26896000Y138120000D03*
%TD*%
%TO.C,C23*%
X85936000Y51120000D03*
X86896000Y51120000D03*
%TD*%
%TO.C,C23*%
X85936000Y7620000D03*
X86896000Y7620000D03*
%TD*%
D14*
%TO.C,R2*%
X14734000Y20320000D03*
X13714000Y20320000D03*
%TD*%
%TO.C,R2*%
X14734000Y150820000D03*
X13714000Y150820000D03*
%TD*%
%TO.C,R2*%
X14734000Y107320000D03*
X13714000Y107320000D03*
%TD*%
%TO.C,R2*%
X14734000Y63820000D03*
X13714000Y63820000D03*
%TD*%
%TO.C,R2*%
X74734000Y107320000D03*
X73714000Y107320000D03*
%TD*%
%TO.C,R2*%
X74734000Y150820000D03*
X73714000Y150820000D03*
%TD*%
%TO.C,R2*%
X74734000Y20320000D03*
X73714000Y20320000D03*
%TD*%
%TO.C,R2*%
X74734000Y63820000D03*
X73714000Y63820000D03*
%TD*%
D11*
%TO.C,C28*%
X31750000Y2512000D03*
X31750000Y1552000D03*
%TD*%
%TO.C,C28*%
X91750000Y2512000D03*
X91750000Y1552000D03*
%TD*%
%TO.C,C28*%
X31750000Y46012000D03*
X31750000Y45052000D03*
%TD*%
%TO.C,C28*%
X31750000Y133012000D03*
X31750000Y132052000D03*
%TD*%
%TO.C,C28*%
X31750000Y89512000D03*
X31750000Y88552000D03*
%TD*%
%TO.C,C28*%
X91750000Y46012000D03*
X91750000Y45052000D03*
%TD*%
%TO.C,C28*%
X91750000Y89512000D03*
X91750000Y88552000D03*
%TD*%
%TO.C,C28*%
X91750000Y133012000D03*
X91750000Y132052000D03*
%TD*%
D15*
%TO.C,R23*%
X15746000Y35052000D03*
X16766000Y35052000D03*
%TD*%
%TO.C,R23*%
X75746000Y78552000D03*
X76766000Y78552000D03*
%TD*%
%TO.C,R23*%
X15746000Y78552000D03*
X16766000Y78552000D03*
%TD*%
%TO.C,R23*%
X15746000Y165552000D03*
X16766000Y165552000D03*
%TD*%
%TO.C,R23*%
X15746000Y122052000D03*
X16766000Y122052000D03*
%TD*%
%TO.C,R23*%
X75746000Y35052000D03*
X76766000Y35052000D03*
%TD*%
%TO.C,R23*%
X75746000Y122052000D03*
X76766000Y122052000D03*
%TD*%
%TO.C,R23*%
X75746000Y165552000D03*
X76766000Y165552000D03*
%TD*%
D14*
%TO.C,R12*%
X46230000Y33274000D03*
X45210000Y33274000D03*
%TD*%
%TO.C,R12*%
X46230000Y163774000D03*
X45210000Y163774000D03*
%TD*%
%TO.C,R12*%
X106230000Y163774000D03*
X105210000Y163774000D03*
%TD*%
%TO.C,R12*%
X46230000Y76774000D03*
X45210000Y76774000D03*
%TD*%
%TO.C,R12*%
X46230000Y120274000D03*
X45210000Y120274000D03*
%TD*%
%TO.C,R12*%
X106230000Y76774000D03*
X105210000Y76774000D03*
%TD*%
%TO.C,R12*%
X106230000Y33274000D03*
X105210000Y33274000D03*
%TD*%
%TO.C,R12*%
X106230000Y120274000D03*
X105210000Y120274000D03*
%TD*%
D13*
%TO.C,C26*%
X41049000Y35179000D03*
X42009000Y35179000D03*
%TD*%
%TO.C,C26*%
X41049000Y78679000D03*
X42009000Y78679000D03*
%TD*%
%TO.C,C26*%
X41049000Y165679000D03*
X42009000Y165679000D03*
%TD*%
%TO.C,C26*%
X101049000Y78679000D03*
X102009000Y78679000D03*
%TD*%
%TO.C,C26*%
X101049000Y165679000D03*
X102009000Y165679000D03*
%TD*%
%TO.C,C26*%
X101049000Y35179000D03*
X102009000Y35179000D03*
%TD*%
%TO.C,C26*%
X101049000Y122179000D03*
X102009000Y122179000D03*
%TD*%
%TO.C,C26*%
X41049000Y122179000D03*
X42009000Y122179000D03*
%TD*%
D11*
%TO.C,C2*%
X20320000Y9116000D03*
X20320000Y8156000D03*
%TD*%
%TO.C,C2*%
X80320000Y139616000D03*
X80320000Y138656000D03*
%TD*%
%TO.C,C2*%
X20320000Y96116000D03*
X20320000Y95156000D03*
%TD*%
%TO.C,C2*%
X80320000Y9116000D03*
X80320000Y8156000D03*
%TD*%
%TO.C,C2*%
X80320000Y52616000D03*
X80320000Y51656000D03*
%TD*%
%TO.C,C2*%
X80320000Y96116000D03*
X80320000Y95156000D03*
%TD*%
%TO.C,C2*%
X20320000Y139616000D03*
X20320000Y138656000D03*
%TD*%
%TO.C,C2*%
X20320000Y52616000D03*
X20320000Y51656000D03*
%TD*%
D16*
%TO.C,R30*%
X3175000Y2857000D03*
X3175000Y1207000D03*
%TD*%
%TO.C,R30*%
X3175000Y133357000D03*
X3175000Y131707000D03*
%TD*%
%TO.C,R30*%
X3175000Y89857000D03*
X3175000Y88207000D03*
%TD*%
%TO.C,R30*%
X3175000Y46357000D03*
X3175000Y44707000D03*
%TD*%
%TO.C,R30*%
X63175000Y2857000D03*
X63175000Y1207000D03*
%TD*%
%TO.C,R30*%
X63175000Y89857000D03*
X63175000Y88207000D03*
%TD*%
%TO.C,R30*%
X63175000Y46357000D03*
X63175000Y44707000D03*
%TD*%
%TO.C,R30*%
X63175000Y133357000D03*
X63175000Y131707000D03*
%TD*%
D17*
%TO.C,R22*%
X45847000Y22100000D03*
X45847000Y21080000D03*
%TD*%
%TO.C,R22*%
X105847000Y22100000D03*
X105847000Y21080000D03*
%TD*%
%TO.C,R22*%
X45847000Y152600000D03*
X45847000Y151580000D03*
%TD*%
%TO.C,R22*%
X105847000Y152600000D03*
X105847000Y151580000D03*
%TD*%
%TO.C,R22*%
X45847000Y65600000D03*
X45847000Y64580000D03*
%TD*%
%TO.C,R22*%
X45847000Y109100000D03*
X45847000Y108080000D03*
%TD*%
%TO.C,R22*%
X105847000Y109100000D03*
X105847000Y108080000D03*
%TD*%
%TO.C,R22*%
X105847000Y65600000D03*
X105847000Y64580000D03*
%TD*%
D14*
%TO.C,R13*%
X46230000Y38100000D03*
X45210000Y38100000D03*
%TD*%
%TO.C,R13*%
X106230000Y38100000D03*
X105210000Y38100000D03*
%TD*%
%TO.C,R13*%
X106230000Y125100000D03*
X105210000Y125100000D03*
%TD*%
%TO.C,R13*%
X46230000Y81600000D03*
X45210000Y81600000D03*
%TD*%
%TO.C,R13*%
X106230000Y81600000D03*
X105210000Y81600000D03*
%TD*%
%TO.C,R13*%
X46230000Y168600000D03*
X45210000Y168600000D03*
%TD*%
%TO.C,R13*%
X106230000Y168600000D03*
X105210000Y168600000D03*
%TD*%
%TO.C,R13*%
X46230000Y125100000D03*
X45210000Y125100000D03*
%TD*%
D18*
%TO.C,R14*%
X9652000Y36828000D03*
X9652000Y37848000D03*
%TD*%
%TO.C,R14*%
X9652000Y80328000D03*
X9652000Y81348000D03*
%TD*%
%TO.C,R14*%
X9652000Y123828000D03*
X9652000Y124848000D03*
%TD*%
%TO.C,R14*%
X9652000Y167328000D03*
X9652000Y168348000D03*
%TD*%
%TO.C,R14*%
X69652000Y36828000D03*
X69652000Y37848000D03*
%TD*%
%TO.C,R14*%
X69652000Y80328000D03*
X69652000Y81348000D03*
%TD*%
%TO.C,R14*%
X69652000Y123828000D03*
X69652000Y124848000D03*
%TD*%
%TO.C,R14*%
X69652000Y167328000D03*
X69652000Y168348000D03*
%TD*%
D19*
%TO.C,C15*%
X20307000Y30734000D03*
X21857000Y30734000D03*
%TD*%
%TO.C,C15*%
X80307000Y161234000D03*
X81857000Y161234000D03*
%TD*%
%TO.C,C15*%
X20307000Y74234000D03*
X21857000Y74234000D03*
%TD*%
%TO.C,C15*%
X20307000Y117734000D03*
X21857000Y117734000D03*
%TD*%
%TO.C,C15*%
X20307000Y161234000D03*
X21857000Y161234000D03*
%TD*%
%TO.C,C15*%
X80307000Y30734000D03*
X81857000Y30734000D03*
%TD*%
%TO.C,C15*%
X80307000Y74234000D03*
X81857000Y74234000D03*
%TD*%
%TO.C,C15*%
X80307000Y117734000D03*
X81857000Y117734000D03*
%TD*%
D20*
%TO.C,Q4*%
X44847000Y24958000D03*
X44847000Y26858000D03*
X46947000Y25908000D03*
%TD*%
%TO.C,Q4*%
X104847000Y24958000D03*
X104847000Y26858000D03*
X106947000Y25908000D03*
%TD*%
%TO.C,Q4*%
X104847000Y155458000D03*
X104847000Y157358000D03*
X106947000Y156408000D03*
%TD*%
%TO.C,Q4*%
X44847000Y155458000D03*
X44847000Y157358000D03*
X46947000Y156408000D03*
%TD*%
%TO.C,Q4*%
X44847000Y111958000D03*
X44847000Y113858000D03*
X46947000Y112908000D03*
%TD*%
%TO.C,Q4*%
X104847000Y68458000D03*
X104847000Y70358000D03*
X106947000Y69408000D03*
%TD*%
%TO.C,Q4*%
X44847000Y68458000D03*
X44847000Y70358000D03*
X46947000Y69408000D03*
%TD*%
%TO.C,Q4*%
X104847000Y111958000D03*
X104847000Y113858000D03*
X106947000Y112908000D03*
%TD*%
D21*
%TO.C,D6*%
X37338000Y3549000D03*
X37338000Y5849000D03*
%TD*%
%TO.C,D6*%
X37338000Y90549000D03*
X37338000Y92849000D03*
%TD*%
%TO.C,D6*%
X37338000Y47049000D03*
X37338000Y49349000D03*
%TD*%
%TO.C,D6*%
X97338000Y47049000D03*
X97338000Y49349000D03*
%TD*%
%TO.C,D6*%
X97338000Y134049000D03*
X97338000Y136349000D03*
%TD*%
%TO.C,D6*%
X97338000Y90549000D03*
X97338000Y92849000D03*
%TD*%
%TO.C,D6*%
X97338000Y3549000D03*
X97338000Y5849000D03*
%TD*%
%TO.C,D6*%
X37338000Y134049000D03*
X37338000Y136349000D03*
%TD*%
D13*
%TO.C,C25*%
X33048000Y7620000D03*
X34008000Y7620000D03*
%TD*%
%TO.C,C25*%
X33048000Y138120000D03*
X34008000Y138120000D03*
%TD*%
%TO.C,C25*%
X93048000Y7620000D03*
X94008000Y7620000D03*
%TD*%
%TO.C,C25*%
X93048000Y51120000D03*
X94008000Y51120000D03*
%TD*%
%TO.C,C25*%
X93048000Y94620000D03*
X94008000Y94620000D03*
%TD*%
%TO.C,C25*%
X33048000Y94620000D03*
X34008000Y94620000D03*
%TD*%
%TO.C,C25*%
X93048000Y138120000D03*
X94008000Y138120000D03*
%TD*%
%TO.C,C25*%
X33048000Y51120000D03*
X34008000Y51120000D03*
%TD*%
D22*
%TO.C,C17*%
X45085000Y4712000D03*
X45085000Y3162000D03*
%TD*%
%TO.C,C17*%
X45085000Y91712000D03*
X45085000Y90162000D03*
%TD*%
%TO.C,C17*%
X105085000Y4712000D03*
X105085000Y3162000D03*
%TD*%
%TO.C,C17*%
X45085000Y135212000D03*
X45085000Y133662000D03*
%TD*%
%TO.C,C17*%
X105085000Y48212000D03*
X105085000Y46662000D03*
%TD*%
%TO.C,C17*%
X45085000Y48212000D03*
X45085000Y46662000D03*
%TD*%
%TO.C,C17*%
X105085000Y91712000D03*
X105085000Y90162000D03*
%TD*%
%TO.C,C17*%
X105085000Y135212000D03*
X105085000Y133662000D03*
%TD*%
D15*
%TO.C,R26*%
X16000000Y33147000D03*
X17020000Y33147000D03*
%TD*%
%TO.C,R26*%
X76000000Y120147000D03*
X77020000Y120147000D03*
%TD*%
%TO.C,R26*%
X16000000Y76647000D03*
X17020000Y76647000D03*
%TD*%
%TO.C,R26*%
X16000000Y120147000D03*
X17020000Y120147000D03*
%TD*%
%TO.C,R26*%
X76000000Y33147000D03*
X77020000Y33147000D03*
%TD*%
%TO.C,R26*%
X76000000Y163647000D03*
X77020000Y163647000D03*
%TD*%
%TO.C,R26*%
X76000000Y76647000D03*
X77020000Y76647000D03*
%TD*%
%TO.C,R26*%
X16000000Y163647000D03*
X17020000Y163647000D03*
%TD*%
D14*
%TO.C,R17*%
X17147000Y26797000D03*
X16127000Y26797000D03*
%TD*%
%TO.C,R17*%
X77147000Y70297000D03*
X76127000Y70297000D03*
%TD*%
%TO.C,R17*%
X77147000Y26797000D03*
X76127000Y26797000D03*
%TD*%
%TO.C,R17*%
X77147000Y113797000D03*
X76127000Y113797000D03*
%TD*%
%TO.C,R17*%
X77147000Y157297000D03*
X76127000Y157297000D03*
%TD*%
%TO.C,R17*%
X17147000Y113797000D03*
X16127000Y113797000D03*
%TD*%
%TO.C,R17*%
X17147000Y157297000D03*
X16127000Y157297000D03*
%TD*%
%TO.C,R17*%
X17147000Y70297000D03*
X16127000Y70297000D03*
%TD*%
D18*
%TO.C,R28*%
X42799000Y31875000D03*
X42799000Y32895000D03*
%TD*%
%TO.C,R28*%
X102799000Y75375000D03*
X102799000Y76395000D03*
%TD*%
%TO.C,R28*%
X42799000Y162375000D03*
X42799000Y163395000D03*
%TD*%
%TO.C,R28*%
X102799000Y31875000D03*
X102799000Y32895000D03*
%TD*%
%TO.C,R28*%
X102799000Y162375000D03*
X102799000Y163395000D03*
%TD*%
%TO.C,R28*%
X42799000Y75375000D03*
X42799000Y76395000D03*
%TD*%
%TO.C,R28*%
X102799000Y118875000D03*
X102799000Y119895000D03*
%TD*%
%TO.C,R28*%
X42799000Y118875000D03*
X42799000Y119895000D03*
%TD*%
D23*
%TO.C,Q3*%
X46670000Y34560000D03*
X44770000Y34560000D03*
X45720000Y36660000D03*
%TD*%
%TO.C,Q3*%
X46670000Y121560000D03*
X44770000Y121560000D03*
X45720000Y123660000D03*
%TD*%
%TO.C,Q3*%
X106670000Y165060000D03*
X104770000Y165060000D03*
X105720000Y167160000D03*
%TD*%
%TO.C,Q3*%
X106670000Y34560000D03*
X104770000Y34560000D03*
X105720000Y36660000D03*
%TD*%
%TO.C,Q3*%
X106670000Y121560000D03*
X104770000Y121560000D03*
X105720000Y123660000D03*
%TD*%
%TO.C,Q3*%
X46670000Y78060000D03*
X44770000Y78060000D03*
X45720000Y80160000D03*
%TD*%
%TO.C,Q3*%
X46670000Y165060000D03*
X44770000Y165060000D03*
X45720000Y167160000D03*
%TD*%
%TO.C,Q3*%
X106670000Y78060000D03*
X104770000Y78060000D03*
X105720000Y80160000D03*
%TD*%
D13*
%TO.C,C13*%
X16157000Y27813000D03*
X17117000Y27813000D03*
%TD*%
%TO.C,C13*%
X16157000Y114813000D03*
X17117000Y114813000D03*
%TD*%
%TO.C,C13*%
X76157000Y27813000D03*
X77117000Y27813000D03*
%TD*%
%TO.C,C13*%
X76157000Y114813000D03*
X77117000Y114813000D03*
%TD*%
%TO.C,C13*%
X16157000Y71313000D03*
X17117000Y71313000D03*
%TD*%
%TO.C,C13*%
X16157000Y158313000D03*
X17117000Y158313000D03*
%TD*%
%TO.C,C13*%
X76157000Y71313000D03*
X77117000Y71313000D03*
%TD*%
%TO.C,C13*%
X76157000Y158313000D03*
X77117000Y158313000D03*
%TD*%
D24*
%TO.C,Q1*%
X17938000Y20462000D03*
X17938000Y19812000D03*
X17938000Y19162000D03*
X16098000Y19162000D03*
X16098000Y19812000D03*
X16098000Y20462000D03*
%TD*%
%TO.C,Q1*%
X77938000Y20462000D03*
X77938000Y19812000D03*
X77938000Y19162000D03*
X76098000Y19162000D03*
X76098000Y19812000D03*
X76098000Y20462000D03*
%TD*%
%TO.C,Q1*%
X17938000Y63962000D03*
X17938000Y63312000D03*
X17938000Y62662000D03*
X16098000Y62662000D03*
X16098000Y63312000D03*
X16098000Y63962000D03*
%TD*%
%TO.C,Q1*%
X17938000Y107462000D03*
X17938000Y106812000D03*
X17938000Y106162000D03*
X16098000Y106162000D03*
X16098000Y106812000D03*
X16098000Y107462000D03*
%TD*%
%TO.C,Q1*%
X17938000Y150962000D03*
X17938000Y150312000D03*
X17938000Y149662000D03*
X16098000Y149662000D03*
X16098000Y150312000D03*
X16098000Y150962000D03*
%TD*%
%TO.C,Q1*%
X77938000Y63962000D03*
X77938000Y63312000D03*
X77938000Y62662000D03*
X76098000Y62662000D03*
X76098000Y63312000D03*
X76098000Y63962000D03*
%TD*%
%TO.C,Q1*%
X77938000Y107462000D03*
X77938000Y106812000D03*
X77938000Y106162000D03*
X76098000Y106162000D03*
X76098000Y106812000D03*
X76098000Y107462000D03*
%TD*%
%TO.C,Q1*%
X77938000Y150962000D03*
X77938000Y150312000D03*
X77938000Y149662000D03*
X76098000Y149662000D03*
X76098000Y150312000D03*
X76098000Y150962000D03*
%TD*%
D12*
%TO.C,C22*%
X26416000Y13490000D03*
X26416000Y14450000D03*
%TD*%
%TO.C,C22*%
X26416000Y56990000D03*
X26416000Y57950000D03*
%TD*%
%TO.C,C22*%
X26416000Y143990000D03*
X26416000Y144950000D03*
%TD*%
%TO.C,C22*%
X26416000Y100490000D03*
X26416000Y101450000D03*
%TD*%
%TO.C,C22*%
X86416000Y56990000D03*
X86416000Y57950000D03*
%TD*%
%TO.C,C22*%
X86416000Y100490000D03*
X86416000Y101450000D03*
%TD*%
%TO.C,C22*%
X86416000Y143990000D03*
X86416000Y144950000D03*
%TD*%
%TO.C,C22*%
X86416000Y13490000D03*
X86416000Y14450000D03*
%TD*%
D17*
%TO.C,R7*%
X18288000Y9146000D03*
X18288000Y8126000D03*
%TD*%
%TO.C,R7*%
X78288000Y52646000D03*
X78288000Y51626000D03*
%TD*%
%TO.C,R7*%
X18288000Y96146000D03*
X18288000Y95126000D03*
%TD*%
%TO.C,R7*%
X18288000Y52646000D03*
X18288000Y51626000D03*
%TD*%
%TO.C,R7*%
X78288000Y96146000D03*
X78288000Y95126000D03*
%TD*%
%TO.C,R7*%
X18288000Y139646000D03*
X18288000Y138626000D03*
%TD*%
%TO.C,R7*%
X78288000Y9146000D03*
X78288000Y8126000D03*
%TD*%
%TO.C,R7*%
X78288000Y139646000D03*
X78288000Y138626000D03*
%TD*%
D24*
%TO.C,U14*%
X41560000Y22240000D03*
X41560000Y21590000D03*
X41560000Y20940000D03*
X39720000Y20940000D03*
X39720000Y21590000D03*
X39720000Y22240000D03*
%TD*%
%TO.C,U14*%
X101560000Y65740000D03*
X101560000Y65090000D03*
X101560000Y64440000D03*
X99720000Y64440000D03*
X99720000Y65090000D03*
X99720000Y65740000D03*
%TD*%
%TO.C,U14*%
X101560000Y152740000D03*
X101560000Y152090000D03*
X101560000Y151440000D03*
X99720000Y151440000D03*
X99720000Y152090000D03*
X99720000Y152740000D03*
%TD*%
%TO.C,U14*%
X41560000Y109240000D03*
X41560000Y108590000D03*
X41560000Y107940000D03*
X39720000Y107940000D03*
X39720000Y108590000D03*
X39720000Y109240000D03*
%TD*%
%TO.C,U14*%
X101560000Y22240000D03*
X101560000Y21590000D03*
X101560000Y20940000D03*
X99720000Y20940000D03*
X99720000Y21590000D03*
X99720000Y22240000D03*
%TD*%
%TO.C,U14*%
X41560000Y65740000D03*
X41560000Y65090000D03*
X41560000Y64440000D03*
X39720000Y64440000D03*
X39720000Y65090000D03*
X39720000Y65740000D03*
%TD*%
%TO.C,U14*%
X41560000Y152740000D03*
X41560000Y152090000D03*
X41560000Y151440000D03*
X39720000Y151440000D03*
X39720000Y152090000D03*
X39720000Y152740000D03*
%TD*%
%TO.C,U14*%
X101560000Y109240000D03*
X101560000Y108590000D03*
X101560000Y107940000D03*
X99720000Y107940000D03*
X99720000Y108590000D03*
X99720000Y109240000D03*
%TD*%
D18*
%TO.C,R15*%
X11176000Y36828000D03*
X11176000Y37848000D03*
%TD*%
%TO.C,R15*%
X11176000Y80328000D03*
X11176000Y81348000D03*
%TD*%
%TO.C,R15*%
X71176000Y36828000D03*
X71176000Y37848000D03*
%TD*%
%TO.C,R15*%
X71176000Y123828000D03*
X71176000Y124848000D03*
%TD*%
%TO.C,R15*%
X71176000Y167328000D03*
X71176000Y168348000D03*
%TD*%
%TO.C,R15*%
X71176000Y80328000D03*
X71176000Y81348000D03*
%TD*%
%TO.C,R15*%
X11176000Y167328000D03*
X11176000Y168348000D03*
%TD*%
%TO.C,R15*%
X11176000Y123828000D03*
X11176000Y124848000D03*
%TD*%
D25*
%TO.C,U11*%
X25466000Y11968100D03*
X26416000Y11968100D03*
X27366000Y11968100D03*
X27366000Y9367900D03*
X25466000Y9367900D03*
%TD*%
%TO.C,U11*%
X85466000Y142468100D03*
X86416000Y142468100D03*
X87366000Y142468100D03*
X87366000Y139867900D03*
X85466000Y139867900D03*
%TD*%
%TO.C,U11*%
X85466000Y11968100D03*
X86416000Y11968100D03*
X87366000Y11968100D03*
X87366000Y9367900D03*
X85466000Y9367900D03*
%TD*%
%TO.C,U11*%
X85466000Y55468100D03*
X86416000Y55468100D03*
X87366000Y55468100D03*
X87366000Y52867900D03*
X85466000Y52867900D03*
%TD*%
%TO.C,U11*%
X85466000Y98968100D03*
X86416000Y98968100D03*
X87366000Y98968100D03*
X87366000Y96367900D03*
X85466000Y96367900D03*
%TD*%
%TO.C,U11*%
X25466000Y142468100D03*
X26416000Y142468100D03*
X27366000Y142468100D03*
X27366000Y139867900D03*
X25466000Y139867900D03*
%TD*%
%TO.C,U11*%
X25466000Y98968100D03*
X26416000Y98968100D03*
X27366000Y98968100D03*
X27366000Y96367900D03*
X25466000Y96367900D03*
%TD*%
%TO.C,U11*%
X25466000Y55468100D03*
X26416000Y55468100D03*
X27366000Y55468100D03*
X27366000Y52867900D03*
X25466000Y52867900D03*
%TD*%
D11*
%TO.C,C7*%
X29972000Y14450000D03*
X29972000Y13490000D03*
%TD*%
%TO.C,C7*%
X29972000Y57950000D03*
X29972000Y56990000D03*
%TD*%
%TO.C,C7*%
X29972000Y144950000D03*
X29972000Y143990000D03*
%TD*%
%TO.C,C7*%
X89972000Y57950000D03*
X89972000Y56990000D03*
%TD*%
%TO.C,C7*%
X89972000Y144950000D03*
X89972000Y143990000D03*
%TD*%
%TO.C,C7*%
X89972000Y101450000D03*
X89972000Y100490000D03*
%TD*%
%TO.C,C7*%
X29972000Y101450000D03*
X29972000Y100490000D03*
%TD*%
%TO.C,C7*%
X89972000Y14450000D03*
X89972000Y13490000D03*
%TD*%
D12*
%TO.C,C11*%
X14224000Y36858000D03*
X14224000Y37818000D03*
%TD*%
%TO.C,C11*%
X14224000Y123858000D03*
X14224000Y124818000D03*
%TD*%
%TO.C,C11*%
X74224000Y36858000D03*
X74224000Y37818000D03*
%TD*%
%TO.C,C11*%
X74224000Y123858000D03*
X74224000Y124818000D03*
%TD*%
%TO.C,C11*%
X74224000Y167358000D03*
X74224000Y168318000D03*
%TD*%
%TO.C,C11*%
X14224000Y80358000D03*
X14224000Y81318000D03*
%TD*%
%TO.C,C11*%
X14224000Y167358000D03*
X14224000Y168318000D03*
%TD*%
%TO.C,C11*%
X74224000Y80358000D03*
X74224000Y81318000D03*
%TD*%
D20*
%TO.C,Q5*%
X35036000Y26858000D03*
X35036000Y24958000D03*
X32936000Y25908000D03*
%TD*%
%TO.C,Q5*%
X35036000Y113858000D03*
X35036000Y111958000D03*
X32936000Y112908000D03*
%TD*%
%TO.C,Q5*%
X35036000Y70358000D03*
X35036000Y68458000D03*
X32936000Y69408000D03*
%TD*%
%TO.C,Q5*%
X95036000Y113858000D03*
X95036000Y111958000D03*
X92936000Y112908000D03*
%TD*%
%TO.C,Q5*%
X95036000Y26858000D03*
X95036000Y24958000D03*
X92936000Y25908000D03*
%TD*%
%TO.C,Q5*%
X35036000Y157358000D03*
X35036000Y155458000D03*
X32936000Y156408000D03*
%TD*%
%TO.C,Q5*%
X95036000Y70358000D03*
X95036000Y68458000D03*
X92936000Y69408000D03*
%TD*%
%TO.C,Q5*%
X95036000Y157358000D03*
X95036000Y155458000D03*
X92936000Y156408000D03*
%TD*%
D17*
%TO.C,R19*%
X18034000Y37848000D03*
X18034000Y36828000D03*
%TD*%
%TO.C,R19*%
X18034000Y81348000D03*
X18034000Y80328000D03*
%TD*%
%TO.C,R19*%
X78034000Y81348000D03*
X78034000Y80328000D03*
%TD*%
%TO.C,R19*%
X18034000Y124848000D03*
X18034000Y123828000D03*
%TD*%
%TO.C,R19*%
X18034000Y168348000D03*
X18034000Y167328000D03*
%TD*%
%TO.C,R19*%
X78034000Y37848000D03*
X78034000Y36828000D03*
%TD*%
%TO.C,R19*%
X78034000Y124848000D03*
X78034000Y123828000D03*
%TD*%
%TO.C,R19*%
X78034000Y168348000D03*
X78034000Y167328000D03*
%TD*%
D15*
%TO.C,R27*%
X16000000Y32131000D03*
X17020000Y32131000D03*
%TD*%
%TO.C,R27*%
X76000000Y32131000D03*
X77020000Y32131000D03*
%TD*%
%TO.C,R27*%
X76000000Y162631000D03*
X77020000Y162631000D03*
%TD*%
%TO.C,R27*%
X16000000Y75631000D03*
X17020000Y75631000D03*
%TD*%
%TO.C,R27*%
X16000000Y119131000D03*
X17020000Y119131000D03*
%TD*%
%TO.C,R27*%
X16000000Y162631000D03*
X17020000Y162631000D03*
%TD*%
%TO.C,R27*%
X76000000Y75631000D03*
X77020000Y75631000D03*
%TD*%
%TO.C,R27*%
X76000000Y119131000D03*
X77020000Y119131000D03*
%TD*%
D26*
%TO.C,C4*%
X8354000Y14986000D03*
X7394000Y14986000D03*
%TD*%
%TO.C,C4*%
X68354000Y101986000D03*
X67394000Y101986000D03*
%TD*%
%TO.C,C4*%
X68354000Y14986000D03*
X67394000Y14986000D03*
%TD*%
%TO.C,C4*%
X68354000Y145486000D03*
X67394000Y145486000D03*
%TD*%
%TO.C,C4*%
X8354000Y58486000D03*
X7394000Y58486000D03*
%TD*%
%TO.C,C4*%
X8354000Y145486000D03*
X7394000Y145486000D03*
%TD*%
%TO.C,C4*%
X68354000Y58486000D03*
X67394000Y58486000D03*
%TD*%
%TO.C,C4*%
X8354000Y101986000D03*
X7394000Y101986000D03*
%TD*%
D16*
%TO.C,R16*%
X50038000Y36385000D03*
X50038000Y34735000D03*
%TD*%
%TO.C,R16*%
X50038000Y123385000D03*
X50038000Y121735000D03*
%TD*%
%TO.C,R16*%
X110038000Y36385000D03*
X110038000Y34735000D03*
%TD*%
%TO.C,R16*%
X110038000Y123385000D03*
X110038000Y121735000D03*
%TD*%
%TO.C,R16*%
X50038000Y166885000D03*
X50038000Y165235000D03*
%TD*%
%TO.C,R16*%
X110038000Y166885000D03*
X110038000Y165235000D03*
%TD*%
%TO.C,R16*%
X110038000Y79885000D03*
X110038000Y78235000D03*
%TD*%
%TO.C,R16*%
X50038000Y79885000D03*
X50038000Y78235000D03*
%TD*%
D17*
%TO.C,R29*%
X39116000Y14734000D03*
X39116000Y13714000D03*
%TD*%
%TO.C,R29*%
X39116000Y101734000D03*
X39116000Y100714000D03*
%TD*%
%TO.C,R29*%
X39116000Y58234000D03*
X39116000Y57214000D03*
%TD*%
%TO.C,R29*%
X99116000Y14734000D03*
X99116000Y13714000D03*
%TD*%
%TO.C,R29*%
X99116000Y145234000D03*
X99116000Y144214000D03*
%TD*%
%TO.C,R29*%
X39116000Y145234000D03*
X39116000Y144214000D03*
%TD*%
%TO.C,R29*%
X99116000Y58234000D03*
X99116000Y57214000D03*
%TD*%
%TO.C,R29*%
X99116000Y101734000D03*
X99116000Y100714000D03*
%TD*%
%TO.C,R8*%
X17272000Y9146000D03*
X17272000Y8126000D03*
%TD*%
%TO.C,R8*%
X17272000Y139646000D03*
X17272000Y138626000D03*
%TD*%
%TO.C,R8*%
X77272000Y9146000D03*
X77272000Y8126000D03*
%TD*%
%TO.C,R8*%
X77272000Y52646000D03*
X77272000Y51626000D03*
%TD*%
%TO.C,R8*%
X17272000Y52646000D03*
X17272000Y51626000D03*
%TD*%
%TO.C,R8*%
X77272000Y96146000D03*
X77272000Y95126000D03*
%TD*%
%TO.C,R8*%
X17272000Y96146000D03*
X17272000Y95126000D03*
%TD*%
%TO.C,R8*%
X77272000Y139646000D03*
X77272000Y138626000D03*
%TD*%
D18*
%TO.C,R43*%
X19304000Y10031000D03*
X19304000Y11051000D03*
%TD*%
%TO.C,R43*%
X79304000Y53531000D03*
X79304000Y54551000D03*
%TD*%
%TO.C,R43*%
X19304000Y140531000D03*
X19304000Y141551000D03*
%TD*%
%TO.C,R43*%
X19304000Y53531000D03*
X19304000Y54551000D03*
%TD*%
%TO.C,R43*%
X19304000Y97031000D03*
X19304000Y98051000D03*
%TD*%
%TO.C,R43*%
X79304000Y10031000D03*
X79304000Y11051000D03*
%TD*%
%TO.C,R43*%
X79304000Y140531000D03*
X79304000Y141551000D03*
%TD*%
%TO.C,R43*%
X79304000Y97031000D03*
X79304000Y98051000D03*
%TD*%
D27*
%TO.C,U13*%
X39116000Y32887000D03*
X37846000Y32887000D03*
X36576000Y32887000D03*
X35306000Y32887000D03*
X34036000Y32887000D03*
X32766000Y32887000D03*
X31496000Y32887000D03*
X30226000Y32887000D03*
X30226000Y38487000D03*
X31496000Y38487000D03*
X32766000Y38487000D03*
X34036000Y38487000D03*
X35306000Y38487000D03*
X36576000Y38487000D03*
X37846000Y38487000D03*
X39116000Y38487000D03*
%TD*%
%TO.C,U13*%
X39116000Y119887000D03*
X37846000Y119887000D03*
X36576000Y119887000D03*
X35306000Y119887000D03*
X34036000Y119887000D03*
X32766000Y119887000D03*
X31496000Y119887000D03*
X30226000Y119887000D03*
X30226000Y125487000D03*
X31496000Y125487000D03*
X32766000Y125487000D03*
X34036000Y125487000D03*
X35306000Y125487000D03*
X36576000Y125487000D03*
X37846000Y125487000D03*
X39116000Y125487000D03*
%TD*%
%TO.C,U13*%
X39116000Y76387000D03*
X37846000Y76387000D03*
X36576000Y76387000D03*
X35306000Y76387000D03*
X34036000Y76387000D03*
X32766000Y76387000D03*
X31496000Y76387000D03*
X30226000Y76387000D03*
X30226000Y81987000D03*
X31496000Y81987000D03*
X32766000Y81987000D03*
X34036000Y81987000D03*
X35306000Y81987000D03*
X36576000Y81987000D03*
X37846000Y81987000D03*
X39116000Y81987000D03*
%TD*%
%TO.C,U13*%
X99116000Y119887000D03*
X97846000Y119887000D03*
X96576000Y119887000D03*
X95306000Y119887000D03*
X94036000Y119887000D03*
X92766000Y119887000D03*
X91496000Y119887000D03*
X90226000Y119887000D03*
X90226000Y125487000D03*
X91496000Y125487000D03*
X92766000Y125487000D03*
X94036000Y125487000D03*
X95306000Y125487000D03*
X96576000Y125487000D03*
X97846000Y125487000D03*
X99116000Y125487000D03*
%TD*%
%TO.C,U13*%
X99116000Y163387000D03*
X97846000Y163387000D03*
X96576000Y163387000D03*
X95306000Y163387000D03*
X94036000Y163387000D03*
X92766000Y163387000D03*
X91496000Y163387000D03*
X90226000Y163387000D03*
X90226000Y168987000D03*
X91496000Y168987000D03*
X92766000Y168987000D03*
X94036000Y168987000D03*
X95306000Y168987000D03*
X96576000Y168987000D03*
X97846000Y168987000D03*
X99116000Y168987000D03*
%TD*%
%TO.C,U13*%
X39116000Y163387000D03*
X37846000Y163387000D03*
X36576000Y163387000D03*
X35306000Y163387000D03*
X34036000Y163387000D03*
X32766000Y163387000D03*
X31496000Y163387000D03*
X30226000Y163387000D03*
X30226000Y168987000D03*
X31496000Y168987000D03*
X32766000Y168987000D03*
X34036000Y168987000D03*
X35306000Y168987000D03*
X36576000Y168987000D03*
X37846000Y168987000D03*
X39116000Y168987000D03*
%TD*%
%TO.C,U13*%
X99116000Y76387000D03*
X97846000Y76387000D03*
X96576000Y76387000D03*
X95306000Y76387000D03*
X94036000Y76387000D03*
X92766000Y76387000D03*
X91496000Y76387000D03*
X90226000Y76387000D03*
X90226000Y81987000D03*
X91496000Y81987000D03*
X92766000Y81987000D03*
X94036000Y81987000D03*
X95306000Y81987000D03*
X96576000Y81987000D03*
X97846000Y81987000D03*
X99116000Y81987000D03*
%TD*%
%TO.C,U13*%
X99116000Y32887000D03*
X97846000Y32887000D03*
X96576000Y32887000D03*
X95306000Y32887000D03*
X94036000Y32887000D03*
X92766000Y32887000D03*
X91496000Y32887000D03*
X90226000Y32887000D03*
X90226000Y38487000D03*
X91496000Y38487000D03*
X92766000Y38487000D03*
X94036000Y38487000D03*
X95306000Y38487000D03*
X96576000Y38487000D03*
X97846000Y38487000D03*
X99116000Y38487000D03*
%TD*%
D14*
%TO.C,R39*%
X44073000Y23622000D03*
X43053000Y23622000D03*
%TD*%
%TO.C,R39*%
X104073000Y67122000D03*
X103053000Y67122000D03*
%TD*%
%TO.C,R39*%
X104073000Y110622000D03*
X103053000Y110622000D03*
%TD*%
%TO.C,R39*%
X44073000Y110622000D03*
X43053000Y110622000D03*
%TD*%
%TO.C,R39*%
X104073000Y23622000D03*
X103053000Y23622000D03*
%TD*%
%TO.C,R39*%
X104073000Y154122000D03*
X103053000Y154122000D03*
%TD*%
%TO.C,R39*%
X44073000Y154122000D03*
X43053000Y154122000D03*
%TD*%
%TO.C,R39*%
X44073000Y67122000D03*
X43053000Y67122000D03*
%TD*%
%TO.C,R9*%
X40769000Y19558000D03*
X39749000Y19558000D03*
%TD*%
%TO.C,R9*%
X40769000Y106558000D03*
X39749000Y106558000D03*
%TD*%
%TO.C,R9*%
X40769000Y150058000D03*
X39749000Y150058000D03*
%TD*%
%TO.C,R9*%
X100769000Y19558000D03*
X99749000Y19558000D03*
%TD*%
%TO.C,R9*%
X40769000Y63058000D03*
X39749000Y63058000D03*
%TD*%
%TO.C,R9*%
X100769000Y63058000D03*
X99749000Y63058000D03*
%TD*%
%TO.C,R9*%
X100769000Y106558000D03*
X99749000Y106558000D03*
%TD*%
%TO.C,R9*%
X100769000Y150058000D03*
X99749000Y150058000D03*
%TD*%
%TO.C,R3*%
X14734000Y19304000D03*
X13714000Y19304000D03*
%TD*%
%TO.C,R3*%
X14734000Y62804000D03*
X13714000Y62804000D03*
%TD*%
%TO.C,R3*%
X14734000Y106304000D03*
X13714000Y106304000D03*
%TD*%
%TO.C,R3*%
X14734000Y149804000D03*
X13714000Y149804000D03*
%TD*%
%TO.C,R3*%
X74734000Y62804000D03*
X73714000Y62804000D03*
%TD*%
%TO.C,R3*%
X74734000Y19304000D03*
X73714000Y19304000D03*
%TD*%
%TO.C,R3*%
X74734000Y149804000D03*
X73714000Y149804000D03*
%TD*%
%TO.C,R3*%
X74734000Y106304000D03*
X73714000Y106304000D03*
%TD*%
D26*
%TO.C,C12*%
X6703000Y32258000D03*
X5743000Y32258000D03*
%TD*%
%TO.C,C12*%
X6703000Y75758000D03*
X5743000Y75758000D03*
%TD*%
%TO.C,C12*%
X6703000Y119258000D03*
X5743000Y119258000D03*
%TD*%
%TO.C,C12*%
X66703000Y32258000D03*
X65743000Y32258000D03*
%TD*%
%TO.C,C12*%
X66703000Y75758000D03*
X65743000Y75758000D03*
%TD*%
%TO.C,C12*%
X66703000Y119258000D03*
X65743000Y119258000D03*
%TD*%
%TO.C,C12*%
X66703000Y162758000D03*
X65743000Y162758000D03*
%TD*%
%TO.C,C12*%
X6703000Y162758000D03*
X5743000Y162758000D03*
%TD*%
D17*
%TO.C,R42*%
X39116000Y5463000D03*
X39116000Y4443000D03*
%TD*%
%TO.C,R42*%
X99116000Y92463000D03*
X99116000Y91443000D03*
%TD*%
%TO.C,R42*%
X99116000Y48963000D03*
X99116000Y47943000D03*
%TD*%
%TO.C,R42*%
X99116000Y5463000D03*
X99116000Y4443000D03*
%TD*%
%TO.C,R42*%
X99116000Y135963000D03*
X99116000Y134943000D03*
%TD*%
%TO.C,R42*%
X39116000Y135963000D03*
X39116000Y134943000D03*
%TD*%
%TO.C,R42*%
X39116000Y92463000D03*
X39116000Y91443000D03*
%TD*%
%TO.C,R42*%
X39116000Y48963000D03*
X39116000Y47943000D03*
%TD*%
D22*
%TO.C,C29*%
X33020000Y3328000D03*
X33020000Y1778000D03*
%TD*%
%TO.C,C29*%
X33020000Y46828000D03*
X33020000Y45278000D03*
%TD*%
%TO.C,C29*%
X93020000Y3328000D03*
X93020000Y1778000D03*
%TD*%
%TO.C,C29*%
X33020000Y90328000D03*
X33020000Y88778000D03*
%TD*%
%TO.C,C29*%
X93020000Y90328000D03*
X93020000Y88778000D03*
%TD*%
%TO.C,C29*%
X93020000Y46828000D03*
X93020000Y45278000D03*
%TD*%
%TO.C,C29*%
X93020000Y133828000D03*
X93020000Y132278000D03*
%TD*%
%TO.C,C29*%
X33020000Y133828000D03*
X33020000Y132278000D03*
%TD*%
D28*
%TO.C,L1*%
X28207000Y19685000D03*
X26657000Y19685000D03*
%TD*%
%TO.C,L1*%
X88207000Y150185000D03*
X86657000Y150185000D03*
%TD*%
%TO.C,L1*%
X28207000Y106685000D03*
X26657000Y106685000D03*
%TD*%
%TO.C,L1*%
X88207000Y63185000D03*
X86657000Y63185000D03*
%TD*%
%TO.C,L1*%
X28207000Y63185000D03*
X26657000Y63185000D03*
%TD*%
%TO.C,L1*%
X28207000Y150185000D03*
X26657000Y150185000D03*
%TD*%
%TO.C,L1*%
X88207000Y19685000D03*
X86657000Y19685000D03*
%TD*%
%TO.C,L1*%
X88207000Y106685000D03*
X86657000Y106685000D03*
%TD*%
D18*
%TO.C,R24*%
X12192000Y36828000D03*
X12192000Y37848000D03*
%TD*%
%TO.C,R24*%
X12192000Y80328000D03*
X12192000Y81348000D03*
%TD*%
%TO.C,R24*%
X72192000Y123828000D03*
X72192000Y124848000D03*
%TD*%
%TO.C,R24*%
X12192000Y123828000D03*
X12192000Y124848000D03*
%TD*%
%TO.C,R24*%
X12192000Y167328000D03*
X12192000Y168348000D03*
%TD*%
%TO.C,R24*%
X72192000Y36828000D03*
X72192000Y37848000D03*
%TD*%
%TO.C,R24*%
X72192000Y80328000D03*
X72192000Y81348000D03*
%TD*%
%TO.C,R24*%
X72192000Y167328000D03*
X72192000Y168348000D03*
%TD*%
D14*
%TO.C,R5*%
X51818000Y33274000D03*
X50798000Y33274000D03*
%TD*%
%TO.C,R5*%
X51818000Y76774000D03*
X50798000Y76774000D03*
%TD*%
%TO.C,R5*%
X51818000Y120274000D03*
X50798000Y120274000D03*
%TD*%
%TO.C,R5*%
X111818000Y163774000D03*
X110798000Y163774000D03*
%TD*%
%TO.C,R5*%
X51818000Y163774000D03*
X50798000Y163774000D03*
%TD*%
%TO.C,R5*%
X111818000Y33274000D03*
X110798000Y33274000D03*
%TD*%
%TO.C,R5*%
X111818000Y76774000D03*
X110798000Y76774000D03*
%TD*%
%TO.C,R5*%
X111818000Y120274000D03*
X110798000Y120274000D03*
%TD*%
D18*
%TO.C,R33*%
X36322000Y25398000D03*
X36322000Y26418000D03*
%TD*%
%TO.C,R33*%
X96322000Y25398000D03*
X96322000Y26418000D03*
%TD*%
%TO.C,R33*%
X96322000Y112398000D03*
X96322000Y113418000D03*
%TD*%
%TO.C,R33*%
X96322000Y68898000D03*
X96322000Y69918000D03*
%TD*%
%TO.C,R33*%
X36322000Y112398000D03*
X36322000Y113418000D03*
%TD*%
%TO.C,R33*%
X96322000Y155898000D03*
X96322000Y156918000D03*
%TD*%
%TO.C,R33*%
X36322000Y68898000D03*
X36322000Y69918000D03*
%TD*%
%TO.C,R33*%
X36322000Y155898000D03*
X36322000Y156918000D03*
%TD*%
%TO.C,R37*%
X41783000Y31875000D03*
X41783000Y32895000D03*
%TD*%
%TO.C,R37*%
X41783000Y75375000D03*
X41783000Y76395000D03*
%TD*%
%TO.C,R37*%
X41783000Y118875000D03*
X41783000Y119895000D03*
%TD*%
%TO.C,R37*%
X101783000Y31875000D03*
X101783000Y32895000D03*
%TD*%
%TO.C,R37*%
X101783000Y118875000D03*
X101783000Y119895000D03*
%TD*%
%TO.C,R37*%
X41783000Y162375000D03*
X41783000Y163395000D03*
%TD*%
%TO.C,R37*%
X101783000Y75375000D03*
X101783000Y76395000D03*
%TD*%
%TO.C,R37*%
X101783000Y162375000D03*
X101783000Y163395000D03*
%TD*%
D21*
%TO.C,D4*%
X103053000Y15487000D03*
X103053000Y17787000D03*
%TD*%
%TO.C,D4*%
X103053000Y58987000D03*
X103053000Y61287000D03*
%TD*%
%TO.C,D4*%
X103053000Y145987000D03*
X103053000Y148287000D03*
%TD*%
%TO.C,D4*%
X43053000Y145987000D03*
X43053000Y148287000D03*
%TD*%
%TO.C,D4*%
X43053000Y102487000D03*
X43053000Y104787000D03*
%TD*%
%TO.C,D4*%
X103053000Y102487000D03*
X103053000Y104787000D03*
%TD*%
%TO.C,D4*%
X43053000Y15487000D03*
X43053000Y17787000D03*
%TD*%
%TO.C,D4*%
X43053000Y58987000D03*
X43053000Y61287000D03*
%TD*%
D13*
%TO.C,C3*%
X102700000Y45278000D03*
X103660000Y45278000D03*
%TD*%
%TO.C,C3*%
X102700000Y88778000D03*
X103660000Y88778000D03*
%TD*%
%TO.C,C3*%
X102700000Y132278000D03*
X103660000Y132278000D03*
%TD*%
%TO.C,C3*%
X102700000Y1778000D03*
X103660000Y1778000D03*
%TD*%
%TO.C,C3*%
X42700000Y45278000D03*
X43660000Y45278000D03*
%TD*%
%TO.C,C3*%
X42700000Y132278000D03*
X43660000Y132278000D03*
%TD*%
%TO.C,C3*%
X42700000Y88778000D03*
X43660000Y88778000D03*
%TD*%
%TO.C,C3*%
X42700000Y1778000D03*
X43660000Y1778000D03*
%TD*%
D11*
%TO.C,C30*%
X69525000Y115166000D03*
X69525000Y114206000D03*
%TD*%
%TO.C,C30*%
X69525000Y28166000D03*
X69525000Y27206000D03*
%TD*%
%TO.C,C30*%
X69525000Y71666000D03*
X69525000Y70706000D03*
%TD*%
%TO.C,C30*%
X9525000Y71666000D03*
X9525000Y70706000D03*
%TD*%
%TO.C,C30*%
X9525000Y115166000D03*
X9525000Y114206000D03*
%TD*%
%TO.C,C30*%
X9525000Y158666000D03*
X9525000Y157706000D03*
%TD*%
%TO.C,C30*%
X69525000Y158666000D03*
X69525000Y157706000D03*
%TD*%
%TO.C,C30*%
X9525000Y28166000D03*
X9525000Y27206000D03*
%TD*%
D29*
%TO.C,U3*%
X6344000Y60137000D03*
X6344000Y61407000D03*
X6344000Y62677000D03*
X6344000Y63947000D03*
X6344000Y65217000D03*
X6344000Y66487000D03*
X6344000Y67757000D03*
X6344000Y69027000D03*
X11944000Y69027000D03*
X11944000Y67757000D03*
X11944000Y66487000D03*
X11944000Y65217000D03*
X11944000Y63947000D03*
X11944000Y62677000D03*
X11944000Y61407000D03*
X11944000Y60137000D03*
%TD*%
%TO.C,U3*%
X66344000Y103637000D03*
X66344000Y104907000D03*
X66344000Y106177000D03*
X66344000Y107447000D03*
X66344000Y108717000D03*
X66344000Y109987000D03*
X66344000Y111257000D03*
X66344000Y112527000D03*
X71944000Y112527000D03*
X71944000Y111257000D03*
X71944000Y109987000D03*
X71944000Y108717000D03*
X71944000Y107447000D03*
X71944000Y106177000D03*
X71944000Y104907000D03*
X71944000Y103637000D03*
%TD*%
%TO.C,U3*%
X66344000Y60137000D03*
X66344000Y61407000D03*
X66344000Y62677000D03*
X66344000Y63947000D03*
X66344000Y65217000D03*
X66344000Y66487000D03*
X66344000Y67757000D03*
X66344000Y69027000D03*
X71944000Y69027000D03*
X71944000Y67757000D03*
X71944000Y66487000D03*
X71944000Y65217000D03*
X71944000Y63947000D03*
X71944000Y62677000D03*
X71944000Y61407000D03*
X71944000Y60137000D03*
%TD*%
%TO.C,U3*%
X66344000Y147137000D03*
X66344000Y148407000D03*
X66344000Y149677000D03*
X66344000Y150947000D03*
X66344000Y152217000D03*
X66344000Y153487000D03*
X66344000Y154757000D03*
X66344000Y156027000D03*
X71944000Y156027000D03*
X71944000Y154757000D03*
X71944000Y153487000D03*
X71944000Y152217000D03*
X71944000Y150947000D03*
X71944000Y149677000D03*
X71944000Y148407000D03*
X71944000Y147137000D03*
%TD*%
%TO.C,U3*%
X6344000Y147137000D03*
X6344000Y148407000D03*
X6344000Y149677000D03*
X6344000Y150947000D03*
X6344000Y152217000D03*
X6344000Y153487000D03*
X6344000Y154757000D03*
X6344000Y156027000D03*
X11944000Y156027000D03*
X11944000Y154757000D03*
X11944000Y153487000D03*
X11944000Y152217000D03*
X11944000Y150947000D03*
X11944000Y149677000D03*
X11944000Y148407000D03*
X11944000Y147137000D03*
%TD*%
%TO.C,U3*%
X6344000Y103637000D03*
X6344000Y104907000D03*
X6344000Y106177000D03*
X6344000Y107447000D03*
X6344000Y108717000D03*
X6344000Y109987000D03*
X6344000Y111257000D03*
X6344000Y112527000D03*
X11944000Y112527000D03*
X11944000Y111257000D03*
X11944000Y109987000D03*
X11944000Y108717000D03*
X11944000Y107447000D03*
X11944000Y106177000D03*
X11944000Y104907000D03*
X11944000Y103637000D03*
%TD*%
%TO.C,U3*%
X66344000Y16637000D03*
X66344000Y17907000D03*
X66344000Y19177000D03*
X66344000Y20447000D03*
X66344000Y21717000D03*
X66344000Y22987000D03*
X66344000Y24257000D03*
X66344000Y25527000D03*
X71944000Y25527000D03*
X71944000Y24257000D03*
X71944000Y22987000D03*
X71944000Y21717000D03*
X71944000Y20447000D03*
X71944000Y19177000D03*
X71944000Y17907000D03*
X71944000Y16637000D03*
%TD*%
%TO.C,U3*%
X6344000Y16637000D03*
X6344000Y17907000D03*
X6344000Y19177000D03*
X6344000Y20447000D03*
X6344000Y21717000D03*
X6344000Y22987000D03*
X6344000Y24257000D03*
X6344000Y25527000D03*
X11944000Y25527000D03*
X11944000Y24257000D03*
X11944000Y22987000D03*
X11944000Y21717000D03*
X11944000Y20447000D03*
X11944000Y19177000D03*
X11944000Y17907000D03*
X11944000Y16637000D03*
%TD*%
D14*
%TO.C,R4*%
X78036000Y141676000D03*
X77016000Y141676000D03*
%TD*%
%TO.C,R4*%
X78036000Y11176000D03*
X77016000Y11176000D03*
%TD*%
%TO.C,R4*%
X18036000Y54676000D03*
X17016000Y54676000D03*
%TD*%
%TO.C,R4*%
X18036000Y98176000D03*
X17016000Y98176000D03*
%TD*%
%TO.C,R4*%
X18036000Y141676000D03*
X17016000Y141676000D03*
%TD*%
%TO.C,R4*%
X78036000Y54676000D03*
X77016000Y54676000D03*
%TD*%
%TO.C,R4*%
X78036000Y98176000D03*
X77016000Y98176000D03*
%TD*%
%TO.C,R4*%
X18036000Y11176000D03*
X17016000Y11176000D03*
%TD*%
D30*
%TO.C,U6*%
X44465000Y151290000D03*
X43815000Y151290000D03*
X43165000Y151290000D03*
X43165000Y152890000D03*
X44465000Y152890000D03*
%TD*%
%TO.C,U6*%
X44465000Y64290000D03*
X43815000Y64290000D03*
X43165000Y64290000D03*
X43165000Y65890000D03*
X44465000Y65890000D03*
%TD*%
%TO.C,U6*%
X44465000Y107790000D03*
X43815000Y107790000D03*
X43165000Y107790000D03*
X43165000Y109390000D03*
X44465000Y109390000D03*
%TD*%
%TO.C,U6*%
X104465000Y151290000D03*
X103815000Y151290000D03*
X103165000Y151290000D03*
X103165000Y152890000D03*
X104465000Y152890000D03*
%TD*%
%TO.C,U6*%
X104465000Y107790000D03*
X103815000Y107790000D03*
X103165000Y107790000D03*
X103165000Y109390000D03*
X104465000Y109390000D03*
%TD*%
%TO.C,U6*%
X104465000Y20790000D03*
X103815000Y20790000D03*
X103165000Y20790000D03*
X103165000Y22390000D03*
X104465000Y22390000D03*
%TD*%
%TO.C,U6*%
X104465000Y64290000D03*
X103815000Y64290000D03*
X103165000Y64290000D03*
X103165000Y65890000D03*
X104465000Y65890000D03*
%TD*%
%TO.C,U6*%
X44465000Y20790000D03*
X43815000Y20790000D03*
X43165000Y20790000D03*
X43165000Y22390000D03*
X44465000Y22390000D03*
%TD*%
D18*
%TO.C,R32*%
X37084000Y57214000D03*
X37084000Y58234000D03*
%TD*%
%TO.C,R32*%
X37084000Y100714000D03*
X37084000Y101734000D03*
%TD*%
%TO.C,R32*%
X97084000Y57214000D03*
X97084000Y58234000D03*
%TD*%
%TO.C,R32*%
X97084000Y13714000D03*
X97084000Y14734000D03*
%TD*%
%TO.C,R32*%
X97084000Y144214000D03*
X97084000Y145234000D03*
%TD*%
%TO.C,R32*%
X97084000Y100714000D03*
X97084000Y101734000D03*
%TD*%
%TO.C,R32*%
X37084000Y144214000D03*
X37084000Y145234000D03*
%TD*%
%TO.C,R32*%
X37084000Y13714000D03*
X37084000Y14734000D03*
%TD*%
D31*
%TO.C,J3*%
X15621000Y139668000D03*
X15621000Y140668000D03*
X15621000Y141668000D03*
X15621000Y142668000D03*
D32*
X11946000Y143968000D03*
X11946000Y138368000D03*
%TD*%
D31*
%TO.C,J3*%
X75621000Y9168000D03*
X75621000Y10168000D03*
X75621000Y11168000D03*
X75621000Y12168000D03*
D32*
X71946000Y13468000D03*
X71946000Y7868000D03*
%TD*%
D31*
%TO.C,J3*%
X75621000Y96168000D03*
X75621000Y97168000D03*
X75621000Y98168000D03*
X75621000Y99168000D03*
D32*
X71946000Y100468000D03*
X71946000Y94868000D03*
%TD*%
D31*
%TO.C,J3*%
X75621000Y52668000D03*
X75621000Y53668000D03*
X75621000Y54668000D03*
X75621000Y55668000D03*
D32*
X71946000Y56968000D03*
X71946000Y51368000D03*
%TD*%
D31*
%TO.C,J3*%
X75621000Y139668000D03*
X75621000Y140668000D03*
X75621000Y141668000D03*
X75621000Y142668000D03*
D32*
X71946000Y143968000D03*
X71946000Y138368000D03*
%TD*%
D31*
%TO.C,J3*%
X15621000Y96168000D03*
X15621000Y97168000D03*
X15621000Y98168000D03*
X15621000Y99168000D03*
D32*
X11946000Y100468000D03*
X11946000Y94868000D03*
%TD*%
D31*
%TO.C,J3*%
X15621000Y52668000D03*
X15621000Y53668000D03*
X15621000Y54668000D03*
X15621000Y55668000D03*
D32*
X11946000Y56968000D03*
X11946000Y51368000D03*
%TD*%
D31*
%TO.C,J3*%
X15621000Y9168000D03*
X15621000Y10168000D03*
X15621000Y11168000D03*
X15621000Y12168000D03*
D32*
X11946000Y13468000D03*
X11946000Y7868000D03*
%TD*%
D33*
%TO.C,R34*%
X103307000Y112083000D03*
X103307000Y113733000D03*
%TD*%
%TO.C,R34*%
X43307000Y68583000D03*
X43307000Y70233000D03*
%TD*%
%TO.C,R34*%
X43307000Y155583000D03*
X43307000Y157233000D03*
%TD*%
%TO.C,R34*%
X103307000Y25083000D03*
X103307000Y26733000D03*
%TD*%
%TO.C,R34*%
X103307000Y68583000D03*
X103307000Y70233000D03*
%TD*%
%TO.C,R34*%
X43307000Y112083000D03*
X43307000Y113733000D03*
%TD*%
%TO.C,R34*%
X103307000Y155583000D03*
X103307000Y157233000D03*
%TD*%
%TO.C,R34*%
X43307000Y25083000D03*
X43307000Y26733000D03*
%TD*%
D34*
%TO.C,Y1*%
X16343000Y117599000D03*
X17693000Y116599000D03*
X16343000Y116599000D03*
X17693000Y117599000D03*
%TD*%
%TO.C,Y1*%
X76343000Y74099000D03*
X77693000Y73099000D03*
X76343000Y73099000D03*
X77693000Y74099000D03*
%TD*%
%TO.C,Y1*%
X16343000Y74099000D03*
X17693000Y73099000D03*
X16343000Y73099000D03*
X17693000Y74099000D03*
%TD*%
%TO.C,Y1*%
X76343000Y117599000D03*
X77693000Y116599000D03*
X76343000Y116599000D03*
X77693000Y117599000D03*
%TD*%
%TO.C,Y1*%
X76343000Y161099000D03*
X77693000Y160099000D03*
X76343000Y160099000D03*
X77693000Y161099000D03*
%TD*%
%TO.C,Y1*%
X76343000Y30599000D03*
X77693000Y29599000D03*
X76343000Y29599000D03*
X77693000Y30599000D03*
%TD*%
%TO.C,Y1*%
X16343000Y161099000D03*
X17693000Y160099000D03*
X16343000Y160099000D03*
X17693000Y161099000D03*
%TD*%
%TO.C,Y1*%
X16343000Y30599000D03*
X17693000Y29599000D03*
X16343000Y29599000D03*
X17693000Y30599000D03*
%TD*%
D17*
%TO.C,R25*%
X78923000Y74109000D03*
X78923000Y73089000D03*
%TD*%
%TO.C,R25*%
X18923000Y74109000D03*
X18923000Y73089000D03*
%TD*%
%TO.C,R25*%
X18923000Y117609000D03*
X18923000Y116589000D03*
%TD*%
%TO.C,R25*%
X78923000Y30609000D03*
X78923000Y29589000D03*
%TD*%
%TO.C,R25*%
X78923000Y161109000D03*
X78923000Y160089000D03*
%TD*%
%TO.C,R25*%
X18923000Y161109000D03*
X18923000Y160089000D03*
%TD*%
%TO.C,R25*%
X78923000Y117609000D03*
X78923000Y116589000D03*
%TD*%
%TO.C,R25*%
X18923000Y30609000D03*
X18923000Y29589000D03*
%TD*%
D11*
%TO.C,C16*%
X100513000Y54140000D03*
X100513000Y53180000D03*
%TD*%
%TO.C,C16*%
X40513000Y97640000D03*
X40513000Y96680000D03*
%TD*%
%TO.C,C16*%
X40513000Y141140000D03*
X40513000Y140180000D03*
%TD*%
%TO.C,C16*%
X100513000Y10640000D03*
X100513000Y9680000D03*
%TD*%
%TO.C,C16*%
X100513000Y97640000D03*
X100513000Y96680000D03*
%TD*%
%TO.C,C16*%
X100513000Y141140000D03*
X100513000Y140180000D03*
%TD*%
%TO.C,C16*%
X40513000Y54140000D03*
X40513000Y53180000D03*
%TD*%
%TO.C,C16*%
X40513000Y10640000D03*
X40513000Y9680000D03*
%TD*%
D16*
%TO.C,R41*%
X108260000Y79885000D03*
X108260000Y78235000D03*
%TD*%
%TO.C,R41*%
X108260000Y166885000D03*
X108260000Y165235000D03*
%TD*%
%TO.C,R41*%
X48260000Y79885000D03*
X48260000Y78235000D03*
%TD*%
%TO.C,R41*%
X48260000Y166885000D03*
X48260000Y165235000D03*
%TD*%
%TO.C,R41*%
X48260000Y123385000D03*
X48260000Y121735000D03*
%TD*%
%TO.C,R41*%
X108260000Y36385000D03*
X108260000Y34735000D03*
%TD*%
%TO.C,R41*%
X108260000Y123385000D03*
X108260000Y121735000D03*
%TD*%
%TO.C,R41*%
X48260000Y36385000D03*
X48260000Y34735000D03*
%TD*%
D21*
%TO.C,D5*%
X37846000Y70558000D03*
X37846000Y68258000D03*
%TD*%
%TO.C,D5*%
X37846000Y157558000D03*
X37846000Y155258000D03*
%TD*%
%TO.C,D5*%
X97846000Y114058000D03*
X97846000Y111758000D03*
%TD*%
%TO.C,D5*%
X97846000Y70558000D03*
X97846000Y68258000D03*
%TD*%
%TO.C,D5*%
X97846000Y157558000D03*
X97846000Y155258000D03*
%TD*%
%TO.C,D5*%
X97846000Y27058000D03*
X97846000Y24758000D03*
%TD*%
%TO.C,D5*%
X37846000Y114058000D03*
X37846000Y111758000D03*
%TD*%
%TO.C,D5*%
X37846000Y27058000D03*
X37846000Y24758000D03*
%TD*%
D35*
%TO.C,TR1*%
X19900000Y76666000D03*
X18200000Y76666000D03*
X19900000Y75866000D03*
X18200000Y75866000D03*
%TD*%
%TO.C,TR1*%
X19900000Y120166000D03*
X18200000Y120166000D03*
X19900000Y119366000D03*
X18200000Y119366000D03*
%TD*%
%TO.C,TR1*%
X19900000Y163666000D03*
X18200000Y163666000D03*
X19900000Y162866000D03*
X18200000Y162866000D03*
%TD*%
%TO.C,TR1*%
X79900000Y76666000D03*
X78200000Y76666000D03*
X79900000Y75866000D03*
X78200000Y75866000D03*
%TD*%
%TO.C,TR1*%
X79900000Y163666000D03*
X78200000Y163666000D03*
X79900000Y162866000D03*
X78200000Y162866000D03*
%TD*%
%TO.C,TR1*%
X79900000Y33166000D03*
X78200000Y33166000D03*
X79900000Y32366000D03*
X78200000Y32366000D03*
%TD*%
%TO.C,TR1*%
X79900000Y120166000D03*
X78200000Y120166000D03*
X79900000Y119366000D03*
X78200000Y119366000D03*
%TD*%
%TO.C,TR1*%
X19900000Y33166000D03*
X18200000Y33166000D03*
X19900000Y32366000D03*
X18200000Y32366000D03*
%TD*%
D14*
%TO.C,R10*%
X8384000Y13970000D03*
X7364000Y13970000D03*
%TD*%
%TO.C,R10*%
X8384000Y100970000D03*
X7364000Y100970000D03*
%TD*%
%TO.C,R10*%
X8384000Y57470000D03*
X7364000Y57470000D03*
%TD*%
%TO.C,R10*%
X68384000Y100970000D03*
X67364000Y100970000D03*
%TD*%
%TO.C,R10*%
X8384000Y144470000D03*
X7364000Y144470000D03*
%TD*%
%TO.C,R10*%
X68384000Y13970000D03*
X67364000Y13970000D03*
%TD*%
%TO.C,R10*%
X68384000Y57470000D03*
X67364000Y57470000D03*
%TD*%
%TO.C,R10*%
X68384000Y144470000D03*
X67364000Y144470000D03*
%TD*%
D36*
%TO.C,C19*%
X40640000Y24370500D03*
X40640000Y27445500D03*
%TD*%
%TO.C,C19*%
X100640000Y67870500D03*
X100640000Y70945500D03*
%TD*%
%TO.C,C19*%
X100640000Y24370500D03*
X100640000Y27445500D03*
%TD*%
%TO.C,C19*%
X40640000Y154870500D03*
X40640000Y157945500D03*
%TD*%
%TO.C,C19*%
X40640000Y111370500D03*
X40640000Y114445500D03*
%TD*%
%TO.C,C19*%
X40640000Y67870500D03*
X40640000Y70945500D03*
%TD*%
%TO.C,C19*%
X100640000Y111370500D03*
X100640000Y114445500D03*
%TD*%
%TO.C,C19*%
X100640000Y154870500D03*
X100640000Y157945500D03*
%TD*%
D37*
%TO.C,Q2*%
X47060000Y16830000D03*
X47060000Y17780000D03*
X47060000Y18730000D03*
X49460000Y18730000D03*
X49460000Y17780000D03*
X49460000Y16830000D03*
%TD*%
%TO.C,Q2*%
X47060000Y147330000D03*
X47060000Y148280000D03*
X47060000Y149230000D03*
X49460000Y149230000D03*
X49460000Y148280000D03*
X49460000Y147330000D03*
%TD*%
%TO.C,Q2*%
X47060000Y60330000D03*
X47060000Y61280000D03*
X47060000Y62230000D03*
X49460000Y62230000D03*
X49460000Y61280000D03*
X49460000Y60330000D03*
%TD*%
%TO.C,Q2*%
X47060000Y103830000D03*
X47060000Y104780000D03*
X47060000Y105730000D03*
X49460000Y105730000D03*
X49460000Y104780000D03*
X49460000Y103830000D03*
%TD*%
%TO.C,Q2*%
X107060000Y60330000D03*
X107060000Y61280000D03*
X107060000Y62230000D03*
X109460000Y62230000D03*
X109460000Y61280000D03*
X109460000Y60330000D03*
%TD*%
%TO.C,Q2*%
X107060000Y147330000D03*
X107060000Y148280000D03*
X107060000Y149230000D03*
X109460000Y149230000D03*
X109460000Y148280000D03*
X109460000Y147330000D03*
%TD*%
%TO.C,Q2*%
X107060000Y16830000D03*
X107060000Y17780000D03*
X107060000Y18730000D03*
X109460000Y18730000D03*
X109460000Y17780000D03*
X109460000Y16830000D03*
%TD*%
%TO.C,Q2*%
X107060000Y103830000D03*
X107060000Y104780000D03*
X107060000Y105730000D03*
X109460000Y105730000D03*
X109460000Y104780000D03*
X109460000Y103830000D03*
%TD*%
D12*
%TO.C,C10*%
X16256000Y36858000D03*
X16256000Y37818000D03*
%TD*%
%TO.C,C10*%
X76256000Y167358000D03*
X76256000Y168318000D03*
%TD*%
%TO.C,C10*%
X16256000Y167358000D03*
X16256000Y168318000D03*
%TD*%
%TO.C,C10*%
X16256000Y80358000D03*
X16256000Y81318000D03*
%TD*%
%TO.C,C10*%
X76256000Y36858000D03*
X76256000Y37818000D03*
%TD*%
%TO.C,C10*%
X76256000Y80358000D03*
X76256000Y81318000D03*
%TD*%
%TO.C,C10*%
X76256000Y123858000D03*
X76256000Y124818000D03*
%TD*%
%TO.C,C10*%
X16256000Y123858000D03*
X16256000Y124818000D03*
%TD*%
D14*
%TO.C,R6*%
X18036000Y12192000D03*
X17016000Y12192000D03*
%TD*%
%TO.C,R6*%
X18036000Y142692000D03*
X17016000Y142692000D03*
%TD*%
%TO.C,R6*%
X78036000Y99192000D03*
X77016000Y99192000D03*
%TD*%
%TO.C,R6*%
X78036000Y55692000D03*
X77016000Y55692000D03*
%TD*%
%TO.C,R6*%
X78036000Y142692000D03*
X77016000Y142692000D03*
%TD*%
%TO.C,R6*%
X18036000Y55692000D03*
X17016000Y55692000D03*
%TD*%
%TO.C,R6*%
X18036000Y99192000D03*
X17016000Y99192000D03*
%TD*%
%TO.C,R6*%
X78036000Y12192000D03*
X77016000Y12192000D03*
%TD*%
D38*
%TO.C,U8*%
X36665000Y20940000D03*
X36665000Y21590000D03*
X36665000Y22240000D03*
X38265000Y22240000D03*
X38265000Y20940000D03*
%TD*%
%TO.C,U8*%
X36665000Y107940000D03*
X36665000Y108590000D03*
X36665000Y109240000D03*
X38265000Y109240000D03*
X38265000Y107940000D03*
%TD*%
%TO.C,U8*%
X36665000Y64440000D03*
X36665000Y65090000D03*
X36665000Y65740000D03*
X38265000Y65740000D03*
X38265000Y64440000D03*
%TD*%
%TO.C,U8*%
X96665000Y20940000D03*
X96665000Y21590000D03*
X96665000Y22240000D03*
X98265000Y22240000D03*
X98265000Y20940000D03*
%TD*%
%TO.C,U8*%
X96665000Y151440000D03*
X96665000Y152090000D03*
X96665000Y152740000D03*
X98265000Y152740000D03*
X98265000Y151440000D03*
%TD*%
%TO.C,U8*%
X96665000Y107940000D03*
X96665000Y108590000D03*
X96665000Y109240000D03*
X98265000Y109240000D03*
X98265000Y107940000D03*
%TD*%
%TO.C,U8*%
X36665000Y151440000D03*
X36665000Y152090000D03*
X36665000Y152740000D03*
X38265000Y152740000D03*
X38265000Y151440000D03*
%TD*%
%TO.C,U8*%
X96665000Y64440000D03*
X96665000Y65090000D03*
X96665000Y65740000D03*
X98265000Y65740000D03*
X98265000Y64440000D03*
%TD*%
D17*
%TO.C,R18*%
X45593000Y106687000D03*
X45593000Y105667000D03*
%TD*%
%TO.C,R18*%
X45593000Y150187000D03*
X45593000Y149167000D03*
%TD*%
%TO.C,R18*%
X45593000Y63187000D03*
X45593000Y62167000D03*
%TD*%
%TO.C,R18*%
X105593000Y150187000D03*
X105593000Y149167000D03*
%TD*%
%TO.C,R18*%
X105593000Y106687000D03*
X105593000Y105667000D03*
%TD*%
%TO.C,R18*%
X105593000Y63187000D03*
X105593000Y62167000D03*
%TD*%
%TO.C,R18*%
X105593000Y19687000D03*
X105593000Y18667000D03*
%TD*%
%TO.C,R18*%
X45593000Y19687000D03*
X45593000Y18667000D03*
%TD*%
D25*
%TO.C,U12*%
X32578000Y142468100D03*
X33528000Y142468100D03*
X34478000Y142468100D03*
X34478000Y139867900D03*
X32578000Y139867900D03*
%TD*%
%TO.C,U12*%
X32578000Y55468100D03*
X33528000Y55468100D03*
X34478000Y55468100D03*
X34478000Y52867900D03*
X32578000Y52867900D03*
%TD*%
%TO.C,U12*%
X92578000Y11968100D03*
X93528000Y11968100D03*
X94478000Y11968100D03*
X94478000Y9367900D03*
X92578000Y9367900D03*
%TD*%
%TO.C,U12*%
X92578000Y142468100D03*
X93528000Y142468100D03*
X94478000Y142468100D03*
X94478000Y139867900D03*
X92578000Y139867900D03*
%TD*%
%TO.C,U12*%
X92578000Y55468100D03*
X93528000Y55468100D03*
X94478000Y55468100D03*
X94478000Y52867900D03*
X92578000Y52867900D03*
%TD*%
%TO.C,U12*%
X32578000Y98968100D03*
X33528000Y98968100D03*
X34478000Y98968100D03*
X34478000Y96367900D03*
X32578000Y96367900D03*
%TD*%
%TO.C,U12*%
X92578000Y98968100D03*
X93528000Y98968100D03*
X94478000Y98968100D03*
X94478000Y96367900D03*
X92578000Y96367900D03*
%TD*%
%TO.C,U12*%
X32578000Y11968100D03*
X33528000Y11968100D03*
X34478000Y11968100D03*
X34478000Y9367900D03*
X32578000Y9367900D03*
%TD*%
D39*
%TO.C,D3*%
X38474000Y104780000D03*
X40774000Y104780000D03*
%TD*%
%TO.C,D3*%
X38474000Y148280000D03*
X40774000Y148280000D03*
%TD*%
%TO.C,D3*%
X98474000Y17780000D03*
X100774000Y17780000D03*
%TD*%
%TO.C,D3*%
X98474000Y148280000D03*
X100774000Y148280000D03*
%TD*%
%TO.C,D3*%
X98474000Y61280000D03*
X100774000Y61280000D03*
%TD*%
%TO.C,D3*%
X38474000Y61280000D03*
X40774000Y61280000D03*
%TD*%
%TO.C,D3*%
X98474000Y104780000D03*
X100774000Y104780000D03*
%TD*%
%TO.C,D3*%
X38474000Y17780000D03*
X40774000Y17780000D03*
%TD*%
D15*
%TO.C,R11*%
X100130000Y1778000D03*
X101150000Y1778000D03*
%TD*%
%TO.C,R11*%
X100130000Y88778000D03*
X101150000Y88778000D03*
%TD*%
%TO.C,R11*%
X40130000Y132278000D03*
X41150000Y132278000D03*
%TD*%
%TO.C,R11*%
X40130000Y45278000D03*
X41150000Y45278000D03*
%TD*%
%TO.C,R11*%
X40130000Y88778000D03*
X41150000Y88778000D03*
%TD*%
%TO.C,R11*%
X100130000Y45278000D03*
X101150000Y45278000D03*
%TD*%
%TO.C,R11*%
X100130000Y132278000D03*
X101150000Y132278000D03*
%TD*%
%TO.C,R11*%
X40130000Y1778000D03*
X41150000Y1778000D03*
%TD*%
D40*
%TO.C,U9*%
X13176000Y116508000D03*
X12676000Y116508000D03*
X12176000Y116508000D03*
X11676000Y116508000D03*
X11176000Y116508000D03*
X10676000Y116508000D03*
X10176000Y116508000D03*
X9676000Y116508000D03*
X9176000Y116508000D03*
D41*
X8426000Y117258000D03*
X8426000Y117758000D03*
X8426000Y118258000D03*
X8426000Y118758000D03*
X8426000Y119258000D03*
X8426000Y119758000D03*
X8426000Y120258000D03*
X8426000Y120758000D03*
X8426000Y121258000D03*
D40*
X9176000Y122008000D03*
X9676000Y122008000D03*
X10176000Y122008000D03*
X10676000Y122008000D03*
X11176000Y122008000D03*
X11676000Y122008000D03*
X12176000Y122008000D03*
X12676000Y122008000D03*
X13176000Y122008000D03*
D41*
X13926000Y121258000D03*
X13926000Y120758000D03*
X13926000Y120258000D03*
X13926000Y119758000D03*
X13926000Y119258000D03*
X13926000Y118758000D03*
X13926000Y118258000D03*
X13926000Y117758000D03*
X13926000Y117258000D03*
%TD*%
D40*
%TO.C,U9*%
X73176000Y116508000D03*
X72676000Y116508000D03*
X72176000Y116508000D03*
X71676000Y116508000D03*
X71176000Y116508000D03*
X70676000Y116508000D03*
X70176000Y116508000D03*
X69676000Y116508000D03*
X69176000Y116508000D03*
D41*
X68426000Y117258000D03*
X68426000Y117758000D03*
X68426000Y118258000D03*
X68426000Y118758000D03*
X68426000Y119258000D03*
X68426000Y119758000D03*
X68426000Y120258000D03*
X68426000Y120758000D03*
X68426000Y121258000D03*
D40*
X69176000Y122008000D03*
X69676000Y122008000D03*
X70176000Y122008000D03*
X70676000Y122008000D03*
X71176000Y122008000D03*
X71676000Y122008000D03*
X72176000Y122008000D03*
X72676000Y122008000D03*
X73176000Y122008000D03*
D41*
X73926000Y121258000D03*
X73926000Y120758000D03*
X73926000Y120258000D03*
X73926000Y119758000D03*
X73926000Y119258000D03*
X73926000Y118758000D03*
X73926000Y118258000D03*
X73926000Y117758000D03*
X73926000Y117258000D03*
%TD*%
D40*
%TO.C,U9*%
X13176000Y73008000D03*
X12676000Y73008000D03*
X12176000Y73008000D03*
X11676000Y73008000D03*
X11176000Y73008000D03*
X10676000Y73008000D03*
X10176000Y73008000D03*
X9676000Y73008000D03*
X9176000Y73008000D03*
D41*
X8426000Y73758000D03*
X8426000Y74258000D03*
X8426000Y74758000D03*
X8426000Y75258000D03*
X8426000Y75758000D03*
X8426000Y76258000D03*
X8426000Y76758000D03*
X8426000Y77258000D03*
X8426000Y77758000D03*
D40*
X9176000Y78508000D03*
X9676000Y78508000D03*
X10176000Y78508000D03*
X10676000Y78508000D03*
X11176000Y78508000D03*
X11676000Y78508000D03*
X12176000Y78508000D03*
X12676000Y78508000D03*
X13176000Y78508000D03*
D41*
X13926000Y77758000D03*
X13926000Y77258000D03*
X13926000Y76758000D03*
X13926000Y76258000D03*
X13926000Y75758000D03*
X13926000Y75258000D03*
X13926000Y74758000D03*
X13926000Y74258000D03*
X13926000Y73758000D03*
%TD*%
D40*
%TO.C,U9*%
X73176000Y73008000D03*
X72676000Y73008000D03*
X72176000Y73008000D03*
X71676000Y73008000D03*
X71176000Y73008000D03*
X70676000Y73008000D03*
X70176000Y73008000D03*
X69676000Y73008000D03*
X69176000Y73008000D03*
D41*
X68426000Y73758000D03*
X68426000Y74258000D03*
X68426000Y74758000D03*
X68426000Y75258000D03*
X68426000Y75758000D03*
X68426000Y76258000D03*
X68426000Y76758000D03*
X68426000Y77258000D03*
X68426000Y77758000D03*
D40*
X69176000Y78508000D03*
X69676000Y78508000D03*
X70176000Y78508000D03*
X70676000Y78508000D03*
X71176000Y78508000D03*
X71676000Y78508000D03*
X72176000Y78508000D03*
X72676000Y78508000D03*
X73176000Y78508000D03*
D41*
X73926000Y77758000D03*
X73926000Y77258000D03*
X73926000Y76758000D03*
X73926000Y76258000D03*
X73926000Y75758000D03*
X73926000Y75258000D03*
X73926000Y74758000D03*
X73926000Y74258000D03*
X73926000Y73758000D03*
%TD*%
D40*
%TO.C,U9*%
X13176000Y160008000D03*
X12676000Y160008000D03*
X12176000Y160008000D03*
X11676000Y160008000D03*
X11176000Y160008000D03*
X10676000Y160008000D03*
X10176000Y160008000D03*
X9676000Y160008000D03*
X9176000Y160008000D03*
D41*
X8426000Y160758000D03*
X8426000Y161258000D03*
X8426000Y161758000D03*
X8426000Y162258000D03*
X8426000Y162758000D03*
X8426000Y163258000D03*
X8426000Y163758000D03*
X8426000Y164258000D03*
X8426000Y164758000D03*
D40*
X9176000Y165508000D03*
X9676000Y165508000D03*
X10176000Y165508000D03*
X10676000Y165508000D03*
X11176000Y165508000D03*
X11676000Y165508000D03*
X12176000Y165508000D03*
X12676000Y165508000D03*
X13176000Y165508000D03*
D41*
X13926000Y164758000D03*
X13926000Y164258000D03*
X13926000Y163758000D03*
X13926000Y163258000D03*
X13926000Y162758000D03*
X13926000Y162258000D03*
X13926000Y161758000D03*
X13926000Y161258000D03*
X13926000Y160758000D03*
%TD*%
D40*
%TO.C,U9*%
X73176000Y29508000D03*
X72676000Y29508000D03*
X72176000Y29508000D03*
X71676000Y29508000D03*
X71176000Y29508000D03*
X70676000Y29508000D03*
X70176000Y29508000D03*
X69676000Y29508000D03*
X69176000Y29508000D03*
D41*
X68426000Y30258000D03*
X68426000Y30758000D03*
X68426000Y31258000D03*
X68426000Y31758000D03*
X68426000Y32258000D03*
X68426000Y32758000D03*
X68426000Y33258000D03*
X68426000Y33758000D03*
X68426000Y34258000D03*
D40*
X69176000Y35008000D03*
X69676000Y35008000D03*
X70176000Y35008000D03*
X70676000Y35008000D03*
X71176000Y35008000D03*
X71676000Y35008000D03*
X72176000Y35008000D03*
X72676000Y35008000D03*
X73176000Y35008000D03*
D41*
X73926000Y34258000D03*
X73926000Y33758000D03*
X73926000Y33258000D03*
X73926000Y32758000D03*
X73926000Y32258000D03*
X73926000Y31758000D03*
X73926000Y31258000D03*
X73926000Y30758000D03*
X73926000Y30258000D03*
%TD*%
D40*
%TO.C,U9*%
X73176000Y160008000D03*
X72676000Y160008000D03*
X72176000Y160008000D03*
X71676000Y160008000D03*
X71176000Y160008000D03*
X70676000Y160008000D03*
X70176000Y160008000D03*
X69676000Y160008000D03*
X69176000Y160008000D03*
D41*
X68426000Y160758000D03*
X68426000Y161258000D03*
X68426000Y161758000D03*
X68426000Y162258000D03*
X68426000Y162758000D03*
X68426000Y163258000D03*
X68426000Y163758000D03*
X68426000Y164258000D03*
X68426000Y164758000D03*
D40*
X69176000Y165508000D03*
X69676000Y165508000D03*
X70176000Y165508000D03*
X70676000Y165508000D03*
X71176000Y165508000D03*
X71676000Y165508000D03*
X72176000Y165508000D03*
X72676000Y165508000D03*
X73176000Y165508000D03*
D41*
X73926000Y164758000D03*
X73926000Y164258000D03*
X73926000Y163758000D03*
X73926000Y163258000D03*
X73926000Y162758000D03*
X73926000Y162258000D03*
X73926000Y161758000D03*
X73926000Y161258000D03*
X73926000Y160758000D03*
%TD*%
D40*
%TO.C,U9*%
X13176000Y29508000D03*
X12676000Y29508000D03*
X12176000Y29508000D03*
X11676000Y29508000D03*
X11176000Y29508000D03*
X10676000Y29508000D03*
X10176000Y29508000D03*
X9676000Y29508000D03*
X9176000Y29508000D03*
D41*
X8426000Y30258000D03*
X8426000Y30758000D03*
X8426000Y31258000D03*
X8426000Y31758000D03*
X8426000Y32258000D03*
X8426000Y32758000D03*
X8426000Y33258000D03*
X8426000Y33758000D03*
X8426000Y34258000D03*
D40*
X9176000Y35008000D03*
X9676000Y35008000D03*
X10176000Y35008000D03*
X10676000Y35008000D03*
X11176000Y35008000D03*
X11676000Y35008000D03*
X12176000Y35008000D03*
X12676000Y35008000D03*
X13176000Y35008000D03*
D41*
X13926000Y34258000D03*
X13926000Y33758000D03*
X13926000Y33258000D03*
X13926000Y32758000D03*
X13926000Y32258000D03*
X13926000Y31758000D03*
X13926000Y31258000D03*
X13926000Y30758000D03*
X13926000Y30258000D03*
%TD*%
D17*
%TO.C,R21*%
X73208000Y81348000D03*
X73208000Y80328000D03*
%TD*%
%TO.C,R21*%
X73208000Y124848000D03*
X73208000Y123828000D03*
%TD*%
%TO.C,R21*%
X13208000Y168348000D03*
X13208000Y167328000D03*
%TD*%
%TO.C,R21*%
X73208000Y37848000D03*
X73208000Y36828000D03*
%TD*%
%TO.C,R21*%
X13208000Y124848000D03*
X13208000Y123828000D03*
%TD*%
%TO.C,R21*%
X73208000Y168348000D03*
X73208000Y167328000D03*
%TD*%
%TO.C,R21*%
X13208000Y81348000D03*
X13208000Y80328000D03*
%TD*%
%TO.C,R21*%
X13208000Y37848000D03*
X13208000Y36828000D03*
%TD*%
D18*
%TO.C,R1*%
X20320000Y97031000D03*
X20320000Y98051000D03*
%TD*%
%TO.C,R1*%
X80320000Y140531000D03*
X80320000Y141551000D03*
%TD*%
%TO.C,R1*%
X80320000Y53531000D03*
X80320000Y54551000D03*
%TD*%
%TO.C,R1*%
X80320000Y97031000D03*
X80320000Y98051000D03*
%TD*%
%TO.C,R1*%
X20320000Y140531000D03*
X20320000Y141551000D03*
%TD*%
%TO.C,R1*%
X80320000Y10031000D03*
X80320000Y11051000D03*
%TD*%
%TO.C,R1*%
X20320000Y53531000D03*
X20320000Y54551000D03*
%TD*%
%TO.C,R1*%
X20320000Y10031000D03*
X20320000Y11051000D03*
%TD*%
%TO.C,R31*%
X38100000Y100714000D03*
X38100000Y101734000D03*
%TD*%
%TO.C,R31*%
X98100000Y100714000D03*
X98100000Y101734000D03*
%TD*%
%TO.C,R31*%
X98100000Y13714000D03*
X98100000Y14734000D03*
%TD*%
%TO.C,R31*%
X38100000Y144214000D03*
X38100000Y145234000D03*
%TD*%
%TO.C,R31*%
X38100000Y57214000D03*
X38100000Y58234000D03*
%TD*%
%TO.C,R31*%
X98100000Y144214000D03*
X98100000Y145234000D03*
%TD*%
%TO.C,R31*%
X98100000Y57214000D03*
X98100000Y58234000D03*
%TD*%
%TO.C,R31*%
X38100000Y13714000D03*
X38100000Y14734000D03*
%TD*%
D14*
%TO.C,R36*%
X35689000Y67122000D03*
X34669000Y67122000D03*
%TD*%
%TO.C,R36*%
X35689000Y110622000D03*
X34669000Y110622000D03*
%TD*%
%TO.C,R36*%
X95689000Y23622000D03*
X94669000Y23622000D03*
%TD*%
%TO.C,R36*%
X35689000Y154122000D03*
X34669000Y154122000D03*
%TD*%
%TO.C,R36*%
X95689000Y67122000D03*
X94669000Y67122000D03*
%TD*%
%TO.C,R36*%
X95689000Y154122000D03*
X94669000Y154122000D03*
%TD*%
%TO.C,R36*%
X95689000Y110622000D03*
X94669000Y110622000D03*
%TD*%
%TO.C,R36*%
X35689000Y23622000D03*
X34669000Y23622000D03*
%TD*%
D38*
%TO.C,D2*%
X43434000Y125384000D03*
X43434000Y124734000D03*
X43434000Y124084000D03*
X41834000Y124084000D03*
X41834000Y125384000D03*
%TD*%
%TO.C,D2*%
X43434000Y168884000D03*
X43434000Y168234000D03*
X43434000Y167584000D03*
X41834000Y167584000D03*
X41834000Y168884000D03*
%TD*%
%TO.C,D2*%
X103434000Y38384000D03*
X103434000Y37734000D03*
X103434000Y37084000D03*
X101834000Y37084000D03*
X101834000Y38384000D03*
%TD*%
%TO.C,D2*%
X103434000Y81884000D03*
X103434000Y81234000D03*
X103434000Y80584000D03*
X101834000Y80584000D03*
X101834000Y81884000D03*
%TD*%
%TO.C,D2*%
X103434000Y125384000D03*
X103434000Y124734000D03*
X103434000Y124084000D03*
X101834000Y124084000D03*
X101834000Y125384000D03*
%TD*%
%TO.C,D2*%
X43434000Y81884000D03*
X43434000Y81234000D03*
X43434000Y80584000D03*
X41834000Y80584000D03*
X41834000Y81884000D03*
%TD*%
%TO.C,D2*%
X103434000Y168884000D03*
X103434000Y168234000D03*
X103434000Y167584000D03*
X101834000Y167584000D03*
X101834000Y168884000D03*
%TD*%
%TO.C,D2*%
X43434000Y38384000D03*
X43434000Y37734000D03*
X43434000Y37084000D03*
X41834000Y37084000D03*
X41834000Y38384000D03*
%TD*%
D42*
%TO.C,J2*%
X43800000Y52660000D03*
X43800000Y54660000D03*
D43*
X49000000Y50260000D03*
X49000000Y57060000D03*
%TD*%
D42*
%TO.C,J2*%
X103800000Y139660000D03*
X103800000Y141660000D03*
D43*
X109000000Y137260000D03*
X109000000Y144060000D03*
%TD*%
D42*
%TO.C,J2*%
X103800000Y96160000D03*
X103800000Y98160000D03*
D43*
X109000000Y93760000D03*
X109000000Y100560000D03*
%TD*%
D42*
%TO.C,J2*%
X43800000Y96160000D03*
X43800000Y98160000D03*
D43*
X49000000Y93760000D03*
X49000000Y100560000D03*
%TD*%
D42*
%TO.C,J2*%
X43800000Y139660000D03*
X43800000Y141660000D03*
D43*
X49000000Y137260000D03*
X49000000Y144060000D03*
%TD*%
D42*
%TO.C,J2*%
X103800000Y9160000D03*
X103800000Y11160000D03*
D43*
X109000000Y6760000D03*
X109000000Y13560000D03*
%TD*%
D42*
%TO.C,J2*%
X103800000Y52660000D03*
X103800000Y54660000D03*
D43*
X109000000Y50260000D03*
X109000000Y57060000D03*
%TD*%
D42*
%TO.C,J2*%
X43800000Y9160000D03*
X43800000Y11160000D03*
D43*
X49000000Y6760000D03*
X49000000Y13560000D03*
%TD*%
D13*
%TO.C,C21*%
X89492000Y51120000D03*
X90452000Y51120000D03*
%TD*%
%TO.C,C21*%
X29492000Y138120000D03*
X30452000Y138120000D03*
%TD*%
%TO.C,C21*%
X29492000Y51120000D03*
X30452000Y51120000D03*
%TD*%
%TO.C,C21*%
X89492000Y7620000D03*
X90452000Y7620000D03*
%TD*%
%TO.C,C21*%
X89492000Y94620000D03*
X90452000Y94620000D03*
%TD*%
%TO.C,C21*%
X89492000Y138120000D03*
X90452000Y138120000D03*
%TD*%
%TO.C,C21*%
X29492000Y94620000D03*
X30452000Y94620000D03*
%TD*%
%TO.C,C21*%
X29492000Y7620000D03*
X30452000Y7620000D03*
%TD*%
D14*
%TO.C,R35*%
X106230000Y67122000D03*
X105210000Y67122000D03*
%TD*%
%TO.C,R35*%
X46230000Y110622000D03*
X45210000Y110622000D03*
%TD*%
%TO.C,R35*%
X46230000Y154122000D03*
X45210000Y154122000D03*
%TD*%
%TO.C,R35*%
X46230000Y67122000D03*
X45210000Y67122000D03*
%TD*%
%TO.C,R35*%
X106230000Y23622000D03*
X105210000Y23622000D03*
%TD*%
%TO.C,R35*%
X106230000Y110622000D03*
X105210000Y110622000D03*
%TD*%
%TO.C,R35*%
X106230000Y154122000D03*
X105210000Y154122000D03*
%TD*%
%TO.C,R35*%
X46230000Y23622000D03*
X45210000Y23622000D03*
%TD*%
D13*
%TO.C,C24*%
X33048000Y57470000D03*
X34008000Y57470000D03*
%TD*%
%TO.C,C24*%
X93048000Y57470000D03*
X94008000Y57470000D03*
%TD*%
%TO.C,C24*%
X93048000Y100970000D03*
X94008000Y100970000D03*
%TD*%
%TO.C,C24*%
X93048000Y13970000D03*
X94008000Y13970000D03*
%TD*%
%TO.C,C24*%
X33048000Y100970000D03*
X34008000Y100970000D03*
%TD*%
%TO.C,C24*%
X33048000Y144470000D03*
X34008000Y144470000D03*
%TD*%
%TO.C,C24*%
X93048000Y144470000D03*
X94008000Y144470000D03*
%TD*%
%TO.C,C24*%
X33048000Y13970000D03*
X34008000Y13970000D03*
%TD*%
%TO.C,C6*%
X33048000Y58486000D03*
X34008000Y58486000D03*
%TD*%
%TO.C,C6*%
X33048000Y145486000D03*
X34008000Y145486000D03*
%TD*%
%TO.C,C6*%
X93048000Y14986000D03*
X94008000Y14986000D03*
%TD*%
%TO.C,C6*%
X93048000Y58486000D03*
X94008000Y58486000D03*
%TD*%
%TO.C,C6*%
X93048000Y101986000D03*
X94008000Y101986000D03*
%TD*%
%TO.C,C6*%
X33048000Y101986000D03*
X34008000Y101986000D03*
%TD*%
%TO.C,C6*%
X93048000Y145486000D03*
X94008000Y145486000D03*
%TD*%
%TO.C,C6*%
X33048000Y14986000D03*
X34008000Y14986000D03*
%TD*%
D19*
%TO.C,C14*%
X80307000Y29083000D03*
X81857000Y29083000D03*
%TD*%
%TO.C,C14*%
X20307000Y72583000D03*
X21857000Y72583000D03*
%TD*%
%TO.C,C14*%
X80307000Y159583000D03*
X81857000Y159583000D03*
%TD*%
%TO.C,C14*%
X20307000Y116083000D03*
X21857000Y116083000D03*
%TD*%
%TO.C,C14*%
X20307000Y159583000D03*
X21857000Y159583000D03*
%TD*%
%TO.C,C14*%
X80307000Y116083000D03*
X81857000Y116083000D03*
%TD*%
%TO.C,C14*%
X80307000Y72583000D03*
X81857000Y72583000D03*
%TD*%
%TO.C,C14*%
X20307000Y29083000D03*
X21857000Y29083000D03*
%TD*%
D11*
%TO.C,C9*%
X8509000Y115166000D03*
X8509000Y114206000D03*
%TD*%
%TO.C,C9*%
X68509000Y158666000D03*
X68509000Y157706000D03*
%TD*%
%TO.C,C9*%
X68509000Y28166000D03*
X68509000Y27206000D03*
%TD*%
%TO.C,C9*%
X68509000Y115166000D03*
X68509000Y114206000D03*
%TD*%
%TO.C,C9*%
X68509000Y71666000D03*
X68509000Y70706000D03*
%TD*%
%TO.C,C9*%
X8509000Y158666000D03*
X8509000Y157706000D03*
%TD*%
%TO.C,C9*%
X8509000Y71666000D03*
X8509000Y70706000D03*
%TD*%
%TO.C,C9*%
X8509000Y28166000D03*
X8509000Y27206000D03*
%TD*%
D26*
%TO.C,C18*%
X104295000Y106558000D03*
X103335000Y106558000D03*
%TD*%
%TO.C,C18*%
X44295000Y106558000D03*
X43335000Y106558000D03*
%TD*%
%TO.C,C18*%
X104295000Y63058000D03*
X103335000Y63058000D03*
%TD*%
%TO.C,C18*%
X44295000Y63058000D03*
X43335000Y63058000D03*
%TD*%
%TO.C,C18*%
X44295000Y150058000D03*
X43335000Y150058000D03*
%TD*%
%TO.C,C18*%
X104295000Y19558000D03*
X103335000Y19558000D03*
%TD*%
%TO.C,C18*%
X104295000Y150058000D03*
X103335000Y150058000D03*
%TD*%
%TO.C,C18*%
X44295000Y19558000D03*
X43335000Y19558000D03*
%TD*%
D18*
%TO.C,R20*%
X15240000Y80328000D03*
X15240000Y81348000D03*
%TD*%
%TO.C,R20*%
X75240000Y36828000D03*
X75240000Y37848000D03*
%TD*%
%TO.C,R20*%
X15240000Y123828000D03*
X15240000Y124848000D03*
%TD*%
%TO.C,R20*%
X75240000Y80328000D03*
X75240000Y81348000D03*
%TD*%
%TO.C,R20*%
X75240000Y123828000D03*
X75240000Y124848000D03*
%TD*%
%TO.C,R20*%
X75240000Y167328000D03*
X75240000Y168348000D03*
%TD*%
%TO.C,R20*%
X15240000Y167328000D03*
X15240000Y168348000D03*
%TD*%
%TO.C,R20*%
X15240000Y36828000D03*
X15240000Y37848000D03*
%TD*%
%TO.C,R38*%
X40767000Y162375000D03*
X40767000Y163395000D03*
%TD*%
%TO.C,R38*%
X100767000Y162375000D03*
X100767000Y163395000D03*
%TD*%
%TO.C,R38*%
X100767000Y75375000D03*
X100767000Y76395000D03*
%TD*%
%TO.C,R38*%
X40767000Y118875000D03*
X40767000Y119895000D03*
%TD*%
%TO.C,R38*%
X100767000Y31875000D03*
X100767000Y32895000D03*
%TD*%
%TO.C,R38*%
X40767000Y75375000D03*
X40767000Y76395000D03*
%TD*%
%TO.C,R38*%
X100767000Y118875000D03*
X100767000Y119895000D03*
%TD*%
%TO.C,R38*%
X40767000Y31875000D03*
X40767000Y32895000D03*
%TD*%
D25*
%TO.C,U5*%
X89022000Y55468100D03*
X89972000Y55468100D03*
X90922000Y55468100D03*
X90922000Y52867900D03*
X89022000Y52867900D03*
%TD*%
%TO.C,U5*%
X89022000Y11968100D03*
X89972000Y11968100D03*
X90922000Y11968100D03*
X90922000Y9367900D03*
X89022000Y9367900D03*
%TD*%
%TO.C,U5*%
X29022000Y98968100D03*
X29972000Y98968100D03*
X30922000Y98968100D03*
X30922000Y96367900D03*
X29022000Y96367900D03*
%TD*%
%TO.C,U5*%
X89022000Y98968100D03*
X89972000Y98968100D03*
X90922000Y98968100D03*
X90922000Y96367900D03*
X89022000Y96367900D03*
%TD*%
%TO.C,U5*%
X29022000Y142468100D03*
X29972000Y142468100D03*
X30922000Y142468100D03*
X30922000Y139867900D03*
X29022000Y139867900D03*
%TD*%
%TO.C,U5*%
X29022000Y55468100D03*
X29972000Y55468100D03*
X30922000Y55468100D03*
X30922000Y52867900D03*
X29022000Y52867900D03*
%TD*%
%TO.C,U5*%
X89022000Y142468100D03*
X89972000Y142468100D03*
X90922000Y142468100D03*
X90922000Y139867900D03*
X89022000Y139867900D03*
%TD*%
%TO.C,U5*%
X29022000Y11968100D03*
X29972000Y11968100D03*
X30922000Y11968100D03*
X30922000Y9367900D03*
X29022000Y9367900D03*
%TD*%
D13*
%TO.C,C5*%
X9934000Y58486000D03*
X10894000Y58486000D03*
%TD*%
%TO.C,C5*%
X9934000Y101986000D03*
X10894000Y101986000D03*
%TD*%
%TO.C,C5*%
X69934000Y58486000D03*
X70894000Y58486000D03*
%TD*%
%TO.C,C5*%
X69934000Y145486000D03*
X70894000Y145486000D03*
%TD*%
%TO.C,C5*%
X69934000Y101986000D03*
X70894000Y101986000D03*
%TD*%
%TO.C,C5*%
X9934000Y145486000D03*
X10894000Y145486000D03*
%TD*%
%TO.C,C5*%
X69934000Y14986000D03*
X70894000Y14986000D03*
%TD*%
%TO.C,C5*%
X9934000Y14986000D03*
X10894000Y14986000D03*
%TD*%
M02*
