%TF.GenerationSoftware,KiCad,Pcbnew,7.0.10*%
%TF.CreationDate,2024-01-23T10:39:53+00:00*%
%TF.ProjectId,SparkFun_RTK_Facet_mosaic_panelized,53706172-6b46-4756-9e5f-52544b5f4661,rev?*%
%TF.SameCoordinates,Original*%
%TF.FileFunction,Paste,Bot*%
%TF.FilePolarity,Positive*%
%FSLAX46Y46*%
G04 Gerber Fmt 4.6, Leading zero omitted, Abs format (unit mm)*
G04 Created by KiCad (PCBNEW 7.0.10) date 2024-01-23 10:39:53*
%MOMM*%
%LPD*%
G01*
G04 APERTURE LIST*
G04 Aperture macros list*
%AMRoundRect*
0 Rectangle with rounded corners*
0 $1 Rounding radius*
0 $2 $3 $4 $5 $6 $7 $8 $9 X,Y pos of 4 corners*
0 Add a 4 corners polygon primitive as box body*
4,1,4,$2,$3,$4,$5,$6,$7,$8,$9,$2,$3,0*
0 Add four circle primitives for the rounded corners*
1,1,$1+$1,$2,$3*
1,1,$1+$1,$4,$5*
1,1,$1+$1,$6,$7*
1,1,$1+$1,$8,$9*
0 Add four rect primitives between the rounded corners*
20,1,$1+$1,$2,$3,$4,$5,0*
20,1,$1+$1,$4,$5,$6,$7,0*
20,1,$1+$1,$6,$7,$8,$9,0*
20,1,$1+$1,$8,$9,$2,$3,0*%
G04 Aperture macros list end*
%ADD10RoundRect,0.140000X-0.140000X-0.170000X0.140000X-0.170000X0.140000X0.170000X-0.140000X0.170000X0*%
%ADD11RoundRect,0.135000X0.185000X-0.135000X0.185000X0.135000X-0.185000X0.135000X-0.185000X-0.135000X0*%
%ADD12R,0.550000X1.200000*%
%ADD13RoundRect,0.200000X0.200000X0.275000X-0.200000X0.275000X-0.200000X-0.275000X0.200000X-0.275000X0*%
%ADD14RoundRect,0.140000X-0.170000X0.140000X-0.170000X-0.140000X0.170000X-0.140000X0.170000X0.140000X0*%
%ADD15RoundRect,0.225000X-0.225000X-0.250000X0.225000X-0.250000X0.225000X0.250000X-0.225000X0.250000X0*%
%ADD16R,4.600000X1.000000*%
%ADD17R,3.400000X1.600000*%
%ADD18R,0.300000X0.700000*%
%ADD19RoundRect,0.135000X-0.185000X0.135000X-0.185000X-0.135000X0.185000X-0.135000X0.185000X0.135000X0*%
%ADD20R,0.280000X0.900000*%
%ADD21R,0.900000X0.280000*%
%ADD22RoundRect,0.135000X-0.135000X-0.185000X0.135000X-0.185000X0.135000X0.185000X-0.135000X0.185000X0*%
%ADD23R,0.830000X0.630000*%
%ADD24RoundRect,0.135000X0.135000X0.185000X-0.135000X0.185000X-0.135000X-0.185000X0.135000X-0.185000X0*%
%ADD25RoundRect,0.140000X0.170000X-0.140000X0.170000X0.140000X-0.170000X0.140000X-0.170000X-0.140000X0*%
%ADD26R,0.900000X0.400000*%
%ADD27R,0.750000X0.700000*%
%ADD28R,1.350000X0.600000*%
%ADD29R,2.000000X1.200000*%
%ADD30R,1.200000X0.600000*%
%ADD31R,0.630000X0.830000*%
%ADD32RoundRect,0.225000X-0.250000X0.225000X-0.250000X-0.225000X0.250000X-0.225000X0.250000X0.225000X0*%
%ADD33RoundRect,0.225000X0.225000X0.250000X-0.225000X0.250000X-0.225000X-0.250000X0.225000X-0.250000X0*%
%ADD34RoundRect,0.140000X0.140000X0.170000X-0.140000X0.170000X-0.140000X-0.170000X0.140000X-0.170000X0*%
%ADD35R,0.600000X1.200000*%
%ADD36RoundRect,0.200000X-0.275000X0.200000X-0.275000X-0.200000X0.275000X-0.200000X0.275000X0.200000X0*%
%ADD37R,0.800000X0.550000*%
%ADD38R,0.660000X0.300000*%
%ADD39R,0.800000X0.900000*%
%ADD40RoundRect,0.200000X0.275000X-0.200000X0.275000X0.200000X-0.275000X0.200000X-0.275000X-0.200000X0*%
G04 APERTURE END LIST*
%TO.C,U4*%
G36*
X92903000Y146434500D02*
G01*
X92653000Y146434500D01*
X92653000Y147072000D01*
X92903000Y147072000D01*
X92903000Y146434500D01*
G37*
G36*
X93403000Y146434500D02*
G01*
X93153000Y146434500D01*
X93153000Y147072000D01*
X93403000Y147072000D01*
X93403000Y146434500D01*
G37*
G36*
X93903000Y146434500D02*
G01*
X93653000Y146434500D01*
X93653000Y147072000D01*
X93903000Y147072000D01*
X93903000Y146434500D01*
G37*
G36*
X94403000Y146434500D02*
G01*
X94153000Y146434500D01*
X94153000Y147072000D01*
X94403000Y147072000D01*
X94403000Y146434500D01*
G37*
G36*
X93438000Y147452000D02*
G01*
X92938000Y147452000D01*
X92938000Y148092000D01*
X93438000Y148092000D01*
X93438000Y147452000D01*
G37*
G36*
X94118000Y147452000D02*
G01*
X93618000Y147452000D01*
X93618000Y148092000D01*
X94118000Y148092000D01*
X94118000Y147452000D01*
G37*
G36*
X92903000Y148472000D02*
G01*
X92653000Y148472000D01*
X92653000Y149109500D01*
X92903000Y149109500D01*
X92903000Y148472000D01*
G37*
G36*
X93403000Y148472000D02*
G01*
X93153000Y148472000D01*
X93153000Y149109500D01*
X93403000Y149109500D01*
X93403000Y148472000D01*
G37*
G36*
X93903000Y148472000D02*
G01*
X93653000Y148472000D01*
X93653000Y149109500D01*
X93903000Y149109500D01*
X93903000Y148472000D01*
G37*
G36*
X94403000Y148472000D02*
G01*
X94153000Y148472000D01*
X94153000Y149109500D01*
X94403000Y149109500D01*
X94403000Y148472000D01*
G37*
G36*
X92903000Y102934500D02*
G01*
X92653000Y102934500D01*
X92653000Y103572000D01*
X92903000Y103572000D01*
X92903000Y102934500D01*
G37*
G36*
X93403000Y102934500D02*
G01*
X93153000Y102934500D01*
X93153000Y103572000D01*
X93403000Y103572000D01*
X93403000Y102934500D01*
G37*
G36*
X93903000Y102934500D02*
G01*
X93653000Y102934500D01*
X93653000Y103572000D01*
X93903000Y103572000D01*
X93903000Y102934500D01*
G37*
G36*
X94403000Y102934500D02*
G01*
X94153000Y102934500D01*
X94153000Y103572000D01*
X94403000Y103572000D01*
X94403000Y102934500D01*
G37*
G36*
X93438000Y103952000D02*
G01*
X92938000Y103952000D01*
X92938000Y104592000D01*
X93438000Y104592000D01*
X93438000Y103952000D01*
G37*
G36*
X94118000Y103952000D02*
G01*
X93618000Y103952000D01*
X93618000Y104592000D01*
X94118000Y104592000D01*
X94118000Y103952000D01*
G37*
G36*
X92903000Y104972000D02*
G01*
X92653000Y104972000D01*
X92653000Y105609500D01*
X92903000Y105609500D01*
X92903000Y104972000D01*
G37*
G36*
X93403000Y104972000D02*
G01*
X93153000Y104972000D01*
X93153000Y105609500D01*
X93403000Y105609500D01*
X93403000Y104972000D01*
G37*
G36*
X93903000Y104972000D02*
G01*
X93653000Y104972000D01*
X93653000Y105609500D01*
X93903000Y105609500D01*
X93903000Y104972000D01*
G37*
G36*
X94403000Y104972000D02*
G01*
X94153000Y104972000D01*
X94153000Y105609500D01*
X94403000Y105609500D01*
X94403000Y104972000D01*
G37*
G36*
X92903000Y59434500D02*
G01*
X92653000Y59434500D01*
X92653000Y60072000D01*
X92903000Y60072000D01*
X92903000Y59434500D01*
G37*
G36*
X93403000Y59434500D02*
G01*
X93153000Y59434500D01*
X93153000Y60072000D01*
X93403000Y60072000D01*
X93403000Y59434500D01*
G37*
G36*
X93903000Y59434500D02*
G01*
X93653000Y59434500D01*
X93653000Y60072000D01*
X93903000Y60072000D01*
X93903000Y59434500D01*
G37*
G36*
X94403000Y59434500D02*
G01*
X94153000Y59434500D01*
X94153000Y60072000D01*
X94403000Y60072000D01*
X94403000Y59434500D01*
G37*
G36*
X93438000Y60452000D02*
G01*
X92938000Y60452000D01*
X92938000Y61092000D01*
X93438000Y61092000D01*
X93438000Y60452000D01*
G37*
G36*
X94118000Y60452000D02*
G01*
X93618000Y60452000D01*
X93618000Y61092000D01*
X94118000Y61092000D01*
X94118000Y60452000D01*
G37*
G36*
X92903000Y61472000D02*
G01*
X92653000Y61472000D01*
X92653000Y62109500D01*
X92903000Y62109500D01*
X92903000Y61472000D01*
G37*
G36*
X93403000Y61472000D02*
G01*
X93153000Y61472000D01*
X93153000Y62109500D01*
X93403000Y62109500D01*
X93403000Y61472000D01*
G37*
G36*
X93903000Y61472000D02*
G01*
X93653000Y61472000D01*
X93653000Y62109500D01*
X93903000Y62109500D01*
X93903000Y61472000D01*
G37*
G36*
X94403000Y61472000D02*
G01*
X94153000Y61472000D01*
X94153000Y62109500D01*
X94403000Y62109500D01*
X94403000Y61472000D01*
G37*
G36*
X92903000Y15934500D02*
G01*
X92653000Y15934500D01*
X92653000Y16572000D01*
X92903000Y16572000D01*
X92903000Y15934500D01*
G37*
G36*
X93403000Y15934500D02*
G01*
X93153000Y15934500D01*
X93153000Y16572000D01*
X93403000Y16572000D01*
X93403000Y15934500D01*
G37*
G36*
X93903000Y15934500D02*
G01*
X93653000Y15934500D01*
X93653000Y16572000D01*
X93903000Y16572000D01*
X93903000Y15934500D01*
G37*
G36*
X94403000Y15934500D02*
G01*
X94153000Y15934500D01*
X94153000Y16572000D01*
X94403000Y16572000D01*
X94403000Y15934500D01*
G37*
G36*
X93438000Y16952000D02*
G01*
X92938000Y16952000D01*
X92938000Y17592000D01*
X93438000Y17592000D01*
X93438000Y16952000D01*
G37*
G36*
X94118000Y16952000D02*
G01*
X93618000Y16952000D01*
X93618000Y17592000D01*
X94118000Y17592000D01*
X94118000Y16952000D01*
G37*
G36*
X92903000Y17972000D02*
G01*
X92653000Y17972000D01*
X92653000Y18609500D01*
X92903000Y18609500D01*
X92903000Y17972000D01*
G37*
G36*
X93403000Y17972000D02*
G01*
X93153000Y17972000D01*
X93153000Y18609500D01*
X93403000Y18609500D01*
X93403000Y17972000D01*
G37*
G36*
X93903000Y17972000D02*
G01*
X93653000Y17972000D01*
X93653000Y18609500D01*
X93903000Y18609500D01*
X93903000Y17972000D01*
G37*
G36*
X94403000Y17972000D02*
G01*
X94153000Y17972000D01*
X94153000Y18609500D01*
X94403000Y18609500D01*
X94403000Y17972000D01*
G37*
G36*
X32903000Y146434500D02*
G01*
X32653000Y146434500D01*
X32653000Y147072000D01*
X32903000Y147072000D01*
X32903000Y146434500D01*
G37*
G36*
X33403000Y146434500D02*
G01*
X33153000Y146434500D01*
X33153000Y147072000D01*
X33403000Y147072000D01*
X33403000Y146434500D01*
G37*
G36*
X33903000Y146434500D02*
G01*
X33653000Y146434500D01*
X33653000Y147072000D01*
X33903000Y147072000D01*
X33903000Y146434500D01*
G37*
G36*
X34403000Y146434500D02*
G01*
X34153000Y146434500D01*
X34153000Y147072000D01*
X34403000Y147072000D01*
X34403000Y146434500D01*
G37*
G36*
X33438000Y147452000D02*
G01*
X32938000Y147452000D01*
X32938000Y148092000D01*
X33438000Y148092000D01*
X33438000Y147452000D01*
G37*
G36*
X34118000Y147452000D02*
G01*
X33618000Y147452000D01*
X33618000Y148092000D01*
X34118000Y148092000D01*
X34118000Y147452000D01*
G37*
G36*
X32903000Y148472000D02*
G01*
X32653000Y148472000D01*
X32653000Y149109500D01*
X32903000Y149109500D01*
X32903000Y148472000D01*
G37*
G36*
X33403000Y148472000D02*
G01*
X33153000Y148472000D01*
X33153000Y149109500D01*
X33403000Y149109500D01*
X33403000Y148472000D01*
G37*
G36*
X33903000Y148472000D02*
G01*
X33653000Y148472000D01*
X33653000Y149109500D01*
X33903000Y149109500D01*
X33903000Y148472000D01*
G37*
G36*
X34403000Y148472000D02*
G01*
X34153000Y148472000D01*
X34153000Y149109500D01*
X34403000Y149109500D01*
X34403000Y148472000D01*
G37*
G36*
X32903000Y102934500D02*
G01*
X32653000Y102934500D01*
X32653000Y103572000D01*
X32903000Y103572000D01*
X32903000Y102934500D01*
G37*
G36*
X33403000Y102934500D02*
G01*
X33153000Y102934500D01*
X33153000Y103572000D01*
X33403000Y103572000D01*
X33403000Y102934500D01*
G37*
G36*
X33903000Y102934500D02*
G01*
X33653000Y102934500D01*
X33653000Y103572000D01*
X33903000Y103572000D01*
X33903000Y102934500D01*
G37*
G36*
X34403000Y102934500D02*
G01*
X34153000Y102934500D01*
X34153000Y103572000D01*
X34403000Y103572000D01*
X34403000Y102934500D01*
G37*
G36*
X33438000Y103952000D02*
G01*
X32938000Y103952000D01*
X32938000Y104592000D01*
X33438000Y104592000D01*
X33438000Y103952000D01*
G37*
G36*
X34118000Y103952000D02*
G01*
X33618000Y103952000D01*
X33618000Y104592000D01*
X34118000Y104592000D01*
X34118000Y103952000D01*
G37*
G36*
X32903000Y104972000D02*
G01*
X32653000Y104972000D01*
X32653000Y105609500D01*
X32903000Y105609500D01*
X32903000Y104972000D01*
G37*
G36*
X33403000Y104972000D02*
G01*
X33153000Y104972000D01*
X33153000Y105609500D01*
X33403000Y105609500D01*
X33403000Y104972000D01*
G37*
G36*
X33903000Y104972000D02*
G01*
X33653000Y104972000D01*
X33653000Y105609500D01*
X33903000Y105609500D01*
X33903000Y104972000D01*
G37*
G36*
X34403000Y104972000D02*
G01*
X34153000Y104972000D01*
X34153000Y105609500D01*
X34403000Y105609500D01*
X34403000Y104972000D01*
G37*
G36*
X32903000Y59434500D02*
G01*
X32653000Y59434500D01*
X32653000Y60072000D01*
X32903000Y60072000D01*
X32903000Y59434500D01*
G37*
G36*
X33403000Y59434500D02*
G01*
X33153000Y59434500D01*
X33153000Y60072000D01*
X33403000Y60072000D01*
X33403000Y59434500D01*
G37*
G36*
X33903000Y59434500D02*
G01*
X33653000Y59434500D01*
X33653000Y60072000D01*
X33903000Y60072000D01*
X33903000Y59434500D01*
G37*
G36*
X34403000Y59434500D02*
G01*
X34153000Y59434500D01*
X34153000Y60072000D01*
X34403000Y60072000D01*
X34403000Y59434500D01*
G37*
G36*
X33438000Y60452000D02*
G01*
X32938000Y60452000D01*
X32938000Y61092000D01*
X33438000Y61092000D01*
X33438000Y60452000D01*
G37*
G36*
X34118000Y60452000D02*
G01*
X33618000Y60452000D01*
X33618000Y61092000D01*
X34118000Y61092000D01*
X34118000Y60452000D01*
G37*
G36*
X32903000Y61472000D02*
G01*
X32653000Y61472000D01*
X32653000Y62109500D01*
X32903000Y62109500D01*
X32903000Y61472000D01*
G37*
G36*
X33403000Y61472000D02*
G01*
X33153000Y61472000D01*
X33153000Y62109500D01*
X33403000Y62109500D01*
X33403000Y61472000D01*
G37*
G36*
X33903000Y61472000D02*
G01*
X33653000Y61472000D01*
X33653000Y62109500D01*
X33903000Y62109500D01*
X33903000Y61472000D01*
G37*
G36*
X34403000Y61472000D02*
G01*
X34153000Y61472000D01*
X34153000Y62109500D01*
X34403000Y62109500D01*
X34403000Y61472000D01*
G37*
%TO.C,U9*%
G36*
X72626000Y161308000D02*
G01*
X71326000Y161308000D01*
X71326000Y162608000D01*
X72626000Y162608000D01*
X72626000Y161308000D01*
G37*
G36*
X71026000Y161308000D02*
G01*
X69726000Y161308000D01*
X69726000Y162608000D01*
X71026000Y162608000D01*
X71026000Y161308000D01*
G37*
G36*
X72626000Y162908000D02*
G01*
X71326000Y162908000D01*
X71326000Y164208000D01*
X72626000Y164208000D01*
X72626000Y162908000D01*
G37*
G36*
X71026000Y162908000D02*
G01*
X69726000Y162908000D01*
X69726000Y164208000D01*
X71026000Y164208000D01*
X71026000Y162908000D01*
G37*
G36*
X72626000Y117808000D02*
G01*
X71326000Y117808000D01*
X71326000Y119108000D01*
X72626000Y119108000D01*
X72626000Y117808000D01*
G37*
G36*
X71026000Y117808000D02*
G01*
X69726000Y117808000D01*
X69726000Y119108000D01*
X71026000Y119108000D01*
X71026000Y117808000D01*
G37*
G36*
X72626000Y119408000D02*
G01*
X71326000Y119408000D01*
X71326000Y120708000D01*
X72626000Y120708000D01*
X72626000Y119408000D01*
G37*
G36*
X71026000Y119408000D02*
G01*
X69726000Y119408000D01*
X69726000Y120708000D01*
X71026000Y120708000D01*
X71026000Y119408000D01*
G37*
G36*
X72626000Y74308000D02*
G01*
X71326000Y74308000D01*
X71326000Y75608000D01*
X72626000Y75608000D01*
X72626000Y74308000D01*
G37*
G36*
X71026000Y74308000D02*
G01*
X69726000Y74308000D01*
X69726000Y75608000D01*
X71026000Y75608000D01*
X71026000Y74308000D01*
G37*
G36*
X72626000Y75908000D02*
G01*
X71326000Y75908000D01*
X71326000Y77208000D01*
X72626000Y77208000D01*
X72626000Y75908000D01*
G37*
G36*
X71026000Y75908000D02*
G01*
X69726000Y75908000D01*
X69726000Y77208000D01*
X71026000Y77208000D01*
X71026000Y75908000D01*
G37*
G36*
X72626000Y30808000D02*
G01*
X71326000Y30808000D01*
X71326000Y32108000D01*
X72626000Y32108000D01*
X72626000Y30808000D01*
G37*
G36*
X71026000Y30808000D02*
G01*
X69726000Y30808000D01*
X69726000Y32108000D01*
X71026000Y32108000D01*
X71026000Y30808000D01*
G37*
G36*
X72626000Y32408000D02*
G01*
X71326000Y32408000D01*
X71326000Y33708000D01*
X72626000Y33708000D01*
X72626000Y32408000D01*
G37*
G36*
X71026000Y32408000D02*
G01*
X69726000Y32408000D01*
X69726000Y33708000D01*
X71026000Y33708000D01*
X71026000Y32408000D01*
G37*
G36*
X12626000Y161308000D02*
G01*
X11326000Y161308000D01*
X11326000Y162608000D01*
X12626000Y162608000D01*
X12626000Y161308000D01*
G37*
G36*
X11026000Y161308000D02*
G01*
X9726000Y161308000D01*
X9726000Y162608000D01*
X11026000Y162608000D01*
X11026000Y161308000D01*
G37*
G36*
X12626000Y162908000D02*
G01*
X11326000Y162908000D01*
X11326000Y164208000D01*
X12626000Y164208000D01*
X12626000Y162908000D01*
G37*
G36*
X11026000Y162908000D02*
G01*
X9726000Y162908000D01*
X9726000Y164208000D01*
X11026000Y164208000D01*
X11026000Y162908000D01*
G37*
G36*
X12626000Y117808000D02*
G01*
X11326000Y117808000D01*
X11326000Y119108000D01*
X12626000Y119108000D01*
X12626000Y117808000D01*
G37*
G36*
X11026000Y117808000D02*
G01*
X9726000Y117808000D01*
X9726000Y119108000D01*
X11026000Y119108000D01*
X11026000Y117808000D01*
G37*
G36*
X12626000Y119408000D02*
G01*
X11326000Y119408000D01*
X11326000Y120708000D01*
X12626000Y120708000D01*
X12626000Y119408000D01*
G37*
G36*
X11026000Y119408000D02*
G01*
X9726000Y119408000D01*
X9726000Y120708000D01*
X11026000Y120708000D01*
X11026000Y119408000D01*
G37*
G36*
X12626000Y74308000D02*
G01*
X11326000Y74308000D01*
X11326000Y75608000D01*
X12626000Y75608000D01*
X12626000Y74308000D01*
G37*
G36*
X11026000Y74308000D02*
G01*
X9726000Y74308000D01*
X9726000Y75608000D01*
X11026000Y75608000D01*
X11026000Y74308000D01*
G37*
G36*
X12626000Y75908000D02*
G01*
X11326000Y75908000D01*
X11326000Y77208000D01*
X12626000Y77208000D01*
X12626000Y75908000D01*
G37*
G36*
X11026000Y75908000D02*
G01*
X9726000Y75908000D01*
X9726000Y77208000D01*
X11026000Y77208000D01*
X11026000Y75908000D01*
G37*
%TO.C,U10*%
G36*
X97225000Y138160000D02*
G01*
X96975000Y138160000D01*
X96975000Y139035000D01*
X97225000Y139035000D01*
X97225000Y138160000D01*
G37*
G36*
X97725000Y138160000D02*
G01*
X97475000Y138160000D01*
X97475000Y139035000D01*
X97725000Y139035000D01*
X97725000Y138160000D01*
G37*
G36*
X98225000Y138160000D02*
G01*
X97975000Y138160000D01*
X97975000Y139035000D01*
X98225000Y139035000D01*
X98225000Y138160000D01*
G37*
G36*
X98725000Y138160000D02*
G01*
X98475000Y138160000D01*
X98475000Y139035000D01*
X98725000Y139035000D01*
X98725000Y138160000D01*
G37*
G36*
X99225000Y138160000D02*
G01*
X98975000Y138160000D01*
X98975000Y139035000D01*
X99225000Y139035000D01*
X99225000Y138160000D01*
G37*
G36*
X97225000Y142285000D02*
G01*
X96975000Y142285000D01*
X96975000Y143160000D01*
X97225000Y143160000D01*
X97225000Y142285000D01*
G37*
G36*
X97725000Y142285000D02*
G01*
X97475000Y142285000D01*
X97475000Y143160000D01*
X97725000Y143160000D01*
X97725000Y142285000D01*
G37*
G36*
X98225000Y142285000D02*
G01*
X97975000Y142285000D01*
X97975000Y143160000D01*
X98225000Y143160000D01*
X98225000Y142285000D01*
G37*
G36*
X98725000Y142285000D02*
G01*
X98475000Y142285000D01*
X98475000Y143160000D01*
X98725000Y143160000D01*
X98725000Y142285000D01*
G37*
G36*
X99225000Y142285000D02*
G01*
X98975000Y142285000D01*
X98975000Y143160000D01*
X99225000Y143160000D01*
X99225000Y142285000D01*
G37*
G36*
X97225000Y94660000D02*
G01*
X96975000Y94660000D01*
X96975000Y95535000D01*
X97225000Y95535000D01*
X97225000Y94660000D01*
G37*
G36*
X97725000Y94660000D02*
G01*
X97475000Y94660000D01*
X97475000Y95535000D01*
X97725000Y95535000D01*
X97725000Y94660000D01*
G37*
G36*
X98225000Y94660000D02*
G01*
X97975000Y94660000D01*
X97975000Y95535000D01*
X98225000Y95535000D01*
X98225000Y94660000D01*
G37*
G36*
X98725000Y94660000D02*
G01*
X98475000Y94660000D01*
X98475000Y95535000D01*
X98725000Y95535000D01*
X98725000Y94660000D01*
G37*
G36*
X99225000Y94660000D02*
G01*
X98975000Y94660000D01*
X98975000Y95535000D01*
X99225000Y95535000D01*
X99225000Y94660000D01*
G37*
G36*
X97225000Y98785000D02*
G01*
X96975000Y98785000D01*
X96975000Y99660000D01*
X97225000Y99660000D01*
X97225000Y98785000D01*
G37*
G36*
X97725000Y98785000D02*
G01*
X97475000Y98785000D01*
X97475000Y99660000D01*
X97725000Y99660000D01*
X97725000Y98785000D01*
G37*
G36*
X98225000Y98785000D02*
G01*
X97975000Y98785000D01*
X97975000Y99660000D01*
X98225000Y99660000D01*
X98225000Y98785000D01*
G37*
G36*
X98725000Y98785000D02*
G01*
X98475000Y98785000D01*
X98475000Y99660000D01*
X98725000Y99660000D01*
X98725000Y98785000D01*
G37*
G36*
X99225000Y98785000D02*
G01*
X98975000Y98785000D01*
X98975000Y99660000D01*
X99225000Y99660000D01*
X99225000Y98785000D01*
G37*
G36*
X97225000Y51160000D02*
G01*
X96975000Y51160000D01*
X96975000Y52035000D01*
X97225000Y52035000D01*
X97225000Y51160000D01*
G37*
G36*
X97725000Y51160000D02*
G01*
X97475000Y51160000D01*
X97475000Y52035000D01*
X97725000Y52035000D01*
X97725000Y51160000D01*
G37*
G36*
X98225000Y51160000D02*
G01*
X97975000Y51160000D01*
X97975000Y52035000D01*
X98225000Y52035000D01*
X98225000Y51160000D01*
G37*
G36*
X98725000Y51160000D02*
G01*
X98475000Y51160000D01*
X98475000Y52035000D01*
X98725000Y52035000D01*
X98725000Y51160000D01*
G37*
G36*
X99225000Y51160000D02*
G01*
X98975000Y51160000D01*
X98975000Y52035000D01*
X99225000Y52035000D01*
X99225000Y51160000D01*
G37*
G36*
X97225000Y55285000D02*
G01*
X96975000Y55285000D01*
X96975000Y56160000D01*
X97225000Y56160000D01*
X97225000Y55285000D01*
G37*
G36*
X97725000Y55285000D02*
G01*
X97475000Y55285000D01*
X97475000Y56160000D01*
X97725000Y56160000D01*
X97725000Y55285000D01*
G37*
G36*
X98225000Y55285000D02*
G01*
X97975000Y55285000D01*
X97975000Y56160000D01*
X98225000Y56160000D01*
X98225000Y55285000D01*
G37*
G36*
X98725000Y55285000D02*
G01*
X98475000Y55285000D01*
X98475000Y56160000D01*
X98725000Y56160000D01*
X98725000Y55285000D01*
G37*
G36*
X99225000Y55285000D02*
G01*
X98975000Y55285000D01*
X98975000Y56160000D01*
X99225000Y56160000D01*
X99225000Y55285000D01*
G37*
G36*
X97225000Y7660000D02*
G01*
X96975000Y7660000D01*
X96975000Y8535000D01*
X97225000Y8535000D01*
X97225000Y7660000D01*
G37*
G36*
X97725000Y7660000D02*
G01*
X97475000Y7660000D01*
X97475000Y8535000D01*
X97725000Y8535000D01*
X97725000Y7660000D01*
G37*
G36*
X98225000Y7660000D02*
G01*
X97975000Y7660000D01*
X97975000Y8535000D01*
X98225000Y8535000D01*
X98225000Y7660000D01*
G37*
G36*
X98725000Y7660000D02*
G01*
X98475000Y7660000D01*
X98475000Y8535000D01*
X98725000Y8535000D01*
X98725000Y7660000D01*
G37*
G36*
X99225000Y7660000D02*
G01*
X98975000Y7660000D01*
X98975000Y8535000D01*
X99225000Y8535000D01*
X99225000Y7660000D01*
G37*
G36*
X97225000Y11785000D02*
G01*
X96975000Y11785000D01*
X96975000Y12660000D01*
X97225000Y12660000D01*
X97225000Y11785000D01*
G37*
G36*
X97725000Y11785000D02*
G01*
X97475000Y11785000D01*
X97475000Y12660000D01*
X97725000Y12660000D01*
X97725000Y11785000D01*
G37*
G36*
X98225000Y11785000D02*
G01*
X97975000Y11785000D01*
X97975000Y12660000D01*
X98225000Y12660000D01*
X98225000Y11785000D01*
G37*
G36*
X98725000Y11785000D02*
G01*
X98475000Y11785000D01*
X98475000Y12660000D01*
X98725000Y12660000D01*
X98725000Y11785000D01*
G37*
G36*
X99225000Y11785000D02*
G01*
X98975000Y11785000D01*
X98975000Y12660000D01*
X99225000Y12660000D01*
X99225000Y11785000D01*
G37*
G36*
X37225000Y138160000D02*
G01*
X36975000Y138160000D01*
X36975000Y139035000D01*
X37225000Y139035000D01*
X37225000Y138160000D01*
G37*
G36*
X37725000Y138160000D02*
G01*
X37475000Y138160000D01*
X37475000Y139035000D01*
X37725000Y139035000D01*
X37725000Y138160000D01*
G37*
G36*
X38225000Y138160000D02*
G01*
X37975000Y138160000D01*
X37975000Y139035000D01*
X38225000Y139035000D01*
X38225000Y138160000D01*
G37*
G36*
X38725000Y138160000D02*
G01*
X38475000Y138160000D01*
X38475000Y139035000D01*
X38725000Y139035000D01*
X38725000Y138160000D01*
G37*
G36*
X39225000Y138160000D02*
G01*
X38975000Y138160000D01*
X38975000Y139035000D01*
X39225000Y139035000D01*
X39225000Y138160000D01*
G37*
G36*
X37225000Y142285000D02*
G01*
X36975000Y142285000D01*
X36975000Y143160000D01*
X37225000Y143160000D01*
X37225000Y142285000D01*
G37*
G36*
X37725000Y142285000D02*
G01*
X37475000Y142285000D01*
X37475000Y143160000D01*
X37725000Y143160000D01*
X37725000Y142285000D01*
G37*
G36*
X38225000Y142285000D02*
G01*
X37975000Y142285000D01*
X37975000Y143160000D01*
X38225000Y143160000D01*
X38225000Y142285000D01*
G37*
G36*
X38725000Y142285000D02*
G01*
X38475000Y142285000D01*
X38475000Y143160000D01*
X38725000Y143160000D01*
X38725000Y142285000D01*
G37*
G36*
X39225000Y142285000D02*
G01*
X38975000Y142285000D01*
X38975000Y143160000D01*
X39225000Y143160000D01*
X39225000Y142285000D01*
G37*
G36*
X37225000Y94660000D02*
G01*
X36975000Y94660000D01*
X36975000Y95535000D01*
X37225000Y95535000D01*
X37225000Y94660000D01*
G37*
G36*
X37725000Y94660000D02*
G01*
X37475000Y94660000D01*
X37475000Y95535000D01*
X37725000Y95535000D01*
X37725000Y94660000D01*
G37*
G36*
X38225000Y94660000D02*
G01*
X37975000Y94660000D01*
X37975000Y95535000D01*
X38225000Y95535000D01*
X38225000Y94660000D01*
G37*
G36*
X38725000Y94660000D02*
G01*
X38475000Y94660000D01*
X38475000Y95535000D01*
X38725000Y95535000D01*
X38725000Y94660000D01*
G37*
G36*
X39225000Y94660000D02*
G01*
X38975000Y94660000D01*
X38975000Y95535000D01*
X39225000Y95535000D01*
X39225000Y94660000D01*
G37*
G36*
X37225000Y98785000D02*
G01*
X36975000Y98785000D01*
X36975000Y99660000D01*
X37225000Y99660000D01*
X37225000Y98785000D01*
G37*
G36*
X37725000Y98785000D02*
G01*
X37475000Y98785000D01*
X37475000Y99660000D01*
X37725000Y99660000D01*
X37725000Y98785000D01*
G37*
G36*
X38225000Y98785000D02*
G01*
X37975000Y98785000D01*
X37975000Y99660000D01*
X38225000Y99660000D01*
X38225000Y98785000D01*
G37*
G36*
X38725000Y98785000D02*
G01*
X38475000Y98785000D01*
X38475000Y99660000D01*
X38725000Y99660000D01*
X38725000Y98785000D01*
G37*
G36*
X39225000Y98785000D02*
G01*
X38975000Y98785000D01*
X38975000Y99660000D01*
X39225000Y99660000D01*
X39225000Y98785000D01*
G37*
G36*
X37225000Y51160000D02*
G01*
X36975000Y51160000D01*
X36975000Y52035000D01*
X37225000Y52035000D01*
X37225000Y51160000D01*
G37*
G36*
X37725000Y51160000D02*
G01*
X37475000Y51160000D01*
X37475000Y52035000D01*
X37725000Y52035000D01*
X37725000Y51160000D01*
G37*
G36*
X38225000Y51160000D02*
G01*
X37975000Y51160000D01*
X37975000Y52035000D01*
X38225000Y52035000D01*
X38225000Y51160000D01*
G37*
G36*
X38725000Y51160000D02*
G01*
X38475000Y51160000D01*
X38475000Y52035000D01*
X38725000Y52035000D01*
X38725000Y51160000D01*
G37*
G36*
X39225000Y51160000D02*
G01*
X38975000Y51160000D01*
X38975000Y52035000D01*
X39225000Y52035000D01*
X39225000Y51160000D01*
G37*
G36*
X37225000Y55285000D02*
G01*
X36975000Y55285000D01*
X36975000Y56160000D01*
X37225000Y56160000D01*
X37225000Y55285000D01*
G37*
G36*
X37725000Y55285000D02*
G01*
X37475000Y55285000D01*
X37475000Y56160000D01*
X37725000Y56160000D01*
X37725000Y55285000D01*
G37*
G36*
X38225000Y55285000D02*
G01*
X37975000Y55285000D01*
X37975000Y56160000D01*
X38225000Y56160000D01*
X38225000Y55285000D01*
G37*
G36*
X38725000Y55285000D02*
G01*
X38475000Y55285000D01*
X38475000Y56160000D01*
X38725000Y56160000D01*
X38725000Y55285000D01*
G37*
G36*
X39225000Y55285000D02*
G01*
X38975000Y55285000D01*
X38975000Y56160000D01*
X39225000Y56160000D01*
X39225000Y55285000D01*
G37*
G36*
X37225000Y7660000D02*
G01*
X36975000Y7660000D01*
X36975000Y8535000D01*
X37225000Y8535000D01*
X37225000Y7660000D01*
G37*
G36*
X37725000Y7660000D02*
G01*
X37475000Y7660000D01*
X37475000Y8535000D01*
X37725000Y8535000D01*
X37725000Y7660000D01*
G37*
G36*
X38225000Y7660000D02*
G01*
X37975000Y7660000D01*
X37975000Y8535000D01*
X38225000Y8535000D01*
X38225000Y7660000D01*
G37*
G36*
X38725000Y7660000D02*
G01*
X38475000Y7660000D01*
X38475000Y8535000D01*
X38725000Y8535000D01*
X38725000Y7660000D01*
G37*
G36*
X39225000Y7660000D02*
G01*
X38975000Y7660000D01*
X38975000Y8535000D01*
X39225000Y8535000D01*
X39225000Y7660000D01*
G37*
G36*
X37225000Y11785000D02*
G01*
X36975000Y11785000D01*
X36975000Y12660000D01*
X37225000Y12660000D01*
X37225000Y11785000D01*
G37*
G36*
X37725000Y11785000D02*
G01*
X37475000Y11785000D01*
X37475000Y12660000D01*
X37725000Y12660000D01*
X37725000Y11785000D01*
G37*
G36*
X38225000Y11785000D02*
G01*
X37975000Y11785000D01*
X37975000Y12660000D01*
X38225000Y12660000D01*
X38225000Y11785000D01*
G37*
G36*
X38725000Y11785000D02*
G01*
X38475000Y11785000D01*
X38475000Y12660000D01*
X38725000Y12660000D01*
X38725000Y11785000D01*
G37*
G36*
X39225000Y11785000D02*
G01*
X38975000Y11785000D01*
X38975000Y12660000D01*
X39225000Y12660000D01*
X39225000Y11785000D01*
G37*
%TO.C,U9*%
G36*
X12626000Y30808000D02*
G01*
X11326000Y30808000D01*
X11326000Y32108000D01*
X12626000Y32108000D01*
X12626000Y30808000D01*
G37*
G36*
X11026000Y30808000D02*
G01*
X9726000Y30808000D01*
X9726000Y32108000D01*
X11026000Y32108000D01*
X11026000Y30808000D01*
G37*
G36*
X12626000Y32408000D02*
G01*
X11326000Y32408000D01*
X11326000Y33708000D01*
X12626000Y33708000D01*
X12626000Y32408000D01*
G37*
G36*
X11026000Y32408000D02*
G01*
X9726000Y32408000D01*
X9726000Y33708000D01*
X11026000Y33708000D01*
X11026000Y32408000D01*
G37*
%TO.C,U4*%
G36*
X32903000Y15934500D02*
G01*
X32653000Y15934500D01*
X32653000Y16572000D01*
X32903000Y16572000D01*
X32903000Y15934500D01*
G37*
G36*
X33403000Y15934500D02*
G01*
X33153000Y15934500D01*
X33153000Y16572000D01*
X33403000Y16572000D01*
X33403000Y15934500D01*
G37*
G36*
X33903000Y15934500D02*
G01*
X33653000Y15934500D01*
X33653000Y16572000D01*
X33903000Y16572000D01*
X33903000Y15934500D01*
G37*
G36*
X34403000Y15934500D02*
G01*
X34153000Y15934500D01*
X34153000Y16572000D01*
X34403000Y16572000D01*
X34403000Y15934500D01*
G37*
G36*
X33438000Y16952000D02*
G01*
X32938000Y16952000D01*
X32938000Y17592000D01*
X33438000Y17592000D01*
X33438000Y16952000D01*
G37*
G36*
X34118000Y16952000D02*
G01*
X33618000Y16952000D01*
X33618000Y17592000D01*
X34118000Y17592000D01*
X34118000Y16952000D01*
G37*
G36*
X32903000Y17972000D02*
G01*
X32653000Y17972000D01*
X32653000Y18609500D01*
X32903000Y18609500D01*
X32903000Y17972000D01*
G37*
G36*
X33403000Y17972000D02*
G01*
X33153000Y17972000D01*
X33153000Y18609500D01*
X33403000Y18609500D01*
X33403000Y17972000D01*
G37*
G36*
X33903000Y17972000D02*
G01*
X33653000Y17972000D01*
X33653000Y18609500D01*
X33903000Y18609500D01*
X33903000Y17972000D01*
G37*
G36*
X34403000Y17972000D02*
G01*
X34153000Y17972000D01*
X34153000Y18609500D01*
X34403000Y18609500D01*
X34403000Y17972000D01*
G37*
%TD*%
D10*
%TO.C,C5*%
X69934000Y145486000D03*
X70894000Y145486000D03*
%TD*%
%TO.C,C5*%
X69934000Y101986000D03*
X70894000Y101986000D03*
%TD*%
%TO.C,C5*%
X69934000Y58486000D03*
X70894000Y58486000D03*
%TD*%
%TO.C,C5*%
X69934000Y14986000D03*
X70894000Y14986000D03*
%TD*%
%TO.C,C5*%
X9934000Y145486000D03*
X10894000Y145486000D03*
%TD*%
%TO.C,C5*%
X9934000Y101986000D03*
X10894000Y101986000D03*
%TD*%
%TO.C,C5*%
X9934000Y58486000D03*
X10894000Y58486000D03*
%TD*%
D11*
%TO.C,R36*%
X111054000Y150310000D03*
X111054000Y151330000D03*
%TD*%
%TO.C,R36*%
X111054000Y106810000D03*
X111054000Y107830000D03*
%TD*%
%TO.C,R36*%
X111054000Y63310000D03*
X111054000Y64330000D03*
%TD*%
%TO.C,R36*%
X111054000Y19810000D03*
X111054000Y20830000D03*
%TD*%
%TO.C,R36*%
X51054000Y150310000D03*
X51054000Y151330000D03*
%TD*%
%TO.C,R36*%
X51054000Y106810000D03*
X51054000Y107830000D03*
%TD*%
%TO.C,R36*%
X51054000Y63310000D03*
X51054000Y64330000D03*
%TD*%
D12*
%TO.C,U5*%
X89022000Y142468100D03*
X89972000Y142468100D03*
X90922000Y142468100D03*
X90922000Y139867900D03*
X89022000Y139867900D03*
%TD*%
%TO.C,U5*%
X89022000Y98968100D03*
X89972000Y98968100D03*
X90922000Y98968100D03*
X90922000Y96367900D03*
X89022000Y96367900D03*
%TD*%
%TO.C,U5*%
X89022000Y55468100D03*
X89972000Y55468100D03*
X90922000Y55468100D03*
X90922000Y52867900D03*
X89022000Y52867900D03*
%TD*%
%TO.C,U5*%
X89022000Y11968100D03*
X89972000Y11968100D03*
X90922000Y11968100D03*
X90922000Y9367900D03*
X89022000Y9367900D03*
%TD*%
%TO.C,U5*%
X29022000Y142468100D03*
X29972000Y142468100D03*
X30922000Y142468100D03*
X30922000Y139867900D03*
X29022000Y139867900D03*
%TD*%
%TO.C,U5*%
X29022000Y98968100D03*
X29972000Y98968100D03*
X30922000Y98968100D03*
X30922000Y96367900D03*
X29022000Y96367900D03*
%TD*%
%TO.C,U5*%
X29022000Y55468100D03*
X29972000Y55468100D03*
X30922000Y55468100D03*
X30922000Y52867900D03*
X29022000Y52867900D03*
%TD*%
D13*
%TO.C,R35*%
X109085000Y151328000D03*
X107435000Y151328000D03*
%TD*%
%TO.C,R35*%
X109085000Y107828000D03*
X107435000Y107828000D03*
%TD*%
%TO.C,R35*%
X109085000Y64328000D03*
X107435000Y64328000D03*
%TD*%
%TO.C,R35*%
X109085000Y20828000D03*
X107435000Y20828000D03*
%TD*%
%TO.C,R35*%
X49085000Y151328000D03*
X47435000Y151328000D03*
%TD*%
%TO.C,R35*%
X49085000Y107828000D03*
X47435000Y107828000D03*
%TD*%
%TO.C,R35*%
X49085000Y64328000D03*
X47435000Y64328000D03*
%TD*%
D11*
%TO.C,R38*%
X97973000Y163137000D03*
X97973000Y164157000D03*
%TD*%
%TO.C,R38*%
X97973000Y119637000D03*
X97973000Y120657000D03*
%TD*%
%TO.C,R38*%
X97973000Y76137000D03*
X97973000Y77157000D03*
%TD*%
%TO.C,R38*%
X97973000Y32637000D03*
X97973000Y33657000D03*
%TD*%
%TO.C,R38*%
X37973000Y163137000D03*
X37973000Y164157000D03*
%TD*%
%TO.C,R38*%
X37973000Y119637000D03*
X37973000Y120657000D03*
%TD*%
%TO.C,R38*%
X37973000Y76137000D03*
X37973000Y77157000D03*
%TD*%
%TO.C,R20*%
X75240000Y167328000D03*
X75240000Y168348000D03*
%TD*%
%TO.C,R20*%
X75240000Y123828000D03*
X75240000Y124848000D03*
%TD*%
%TO.C,R20*%
X75240000Y80328000D03*
X75240000Y81348000D03*
%TD*%
%TO.C,R20*%
X75240000Y36828000D03*
X75240000Y37848000D03*
%TD*%
%TO.C,R20*%
X15240000Y167328000D03*
X15240000Y168348000D03*
%TD*%
%TO.C,R20*%
X15240000Y123828000D03*
X15240000Y124848000D03*
%TD*%
%TO.C,R20*%
X15240000Y80328000D03*
X15240000Y81348000D03*
%TD*%
D14*
%TO.C,C9*%
X68509000Y158666000D03*
X68509000Y157706000D03*
%TD*%
%TO.C,C9*%
X68509000Y115166000D03*
X68509000Y114206000D03*
%TD*%
%TO.C,C9*%
X68509000Y71666000D03*
X68509000Y70706000D03*
%TD*%
%TO.C,C9*%
X68509000Y28166000D03*
X68509000Y27206000D03*
%TD*%
%TO.C,C9*%
X8509000Y158666000D03*
X8509000Y157706000D03*
%TD*%
%TO.C,C9*%
X8509000Y115166000D03*
X8509000Y114206000D03*
%TD*%
%TO.C,C9*%
X8509000Y71666000D03*
X8509000Y70706000D03*
%TD*%
D15*
%TO.C,C14*%
X80307000Y160218000D03*
X81857000Y160218000D03*
%TD*%
%TO.C,C14*%
X80307000Y116718000D03*
X81857000Y116718000D03*
%TD*%
%TO.C,C14*%
X80307000Y73218000D03*
X81857000Y73218000D03*
%TD*%
%TO.C,C14*%
X80307000Y29718000D03*
X81857000Y29718000D03*
%TD*%
%TO.C,C14*%
X20307000Y160218000D03*
X21857000Y160218000D03*
%TD*%
%TO.C,C14*%
X20307000Y116718000D03*
X21857000Y116718000D03*
%TD*%
%TO.C,C14*%
X20307000Y73218000D03*
X21857000Y73218000D03*
%TD*%
D10*
%TO.C,C6*%
X93048000Y145486000D03*
X94008000Y145486000D03*
%TD*%
%TO.C,C6*%
X93048000Y101986000D03*
X94008000Y101986000D03*
%TD*%
%TO.C,C6*%
X93048000Y58486000D03*
X94008000Y58486000D03*
%TD*%
%TO.C,C6*%
X93048000Y14986000D03*
X94008000Y14986000D03*
%TD*%
%TO.C,C6*%
X33048000Y145486000D03*
X34008000Y145486000D03*
%TD*%
%TO.C,C6*%
X33048000Y101986000D03*
X34008000Y101986000D03*
%TD*%
%TO.C,C6*%
X33048000Y58486000D03*
X34008000Y58486000D03*
%TD*%
%TO.C,C24*%
X93048000Y144470000D03*
X94008000Y144470000D03*
%TD*%
%TO.C,C24*%
X93048000Y100970000D03*
X94008000Y100970000D03*
%TD*%
%TO.C,C24*%
X93048000Y57470000D03*
X94008000Y57470000D03*
%TD*%
%TO.C,C24*%
X93048000Y13970000D03*
X94008000Y13970000D03*
%TD*%
%TO.C,C24*%
X33048000Y144470000D03*
X34008000Y144470000D03*
%TD*%
%TO.C,C24*%
X33048000Y100970000D03*
X34008000Y100970000D03*
%TD*%
%TO.C,C24*%
X33048000Y57470000D03*
X34008000Y57470000D03*
%TD*%
%TO.C,C21*%
X89492000Y138120000D03*
X90452000Y138120000D03*
%TD*%
%TO.C,C21*%
X89492000Y94620000D03*
X90452000Y94620000D03*
%TD*%
%TO.C,C21*%
X89492000Y51120000D03*
X90452000Y51120000D03*
%TD*%
%TO.C,C21*%
X89492000Y7620000D03*
X90452000Y7620000D03*
%TD*%
%TO.C,C21*%
X29492000Y138120000D03*
X30452000Y138120000D03*
%TD*%
%TO.C,C21*%
X29492000Y94620000D03*
X30452000Y94620000D03*
%TD*%
%TO.C,C21*%
X29492000Y51120000D03*
X30452000Y51120000D03*
%TD*%
D16*
%TO.C,J2*%
X103800000Y139660000D03*
X103800000Y141660000D03*
D17*
X109000000Y137260000D03*
X109000000Y144060000D03*
%TD*%
D16*
%TO.C,J2*%
X103800000Y96160000D03*
X103800000Y98160000D03*
D17*
X109000000Y93760000D03*
X109000000Y100560000D03*
%TD*%
D16*
%TO.C,J2*%
X103800000Y52660000D03*
X103800000Y54660000D03*
D17*
X109000000Y50260000D03*
X109000000Y57060000D03*
%TD*%
D16*
%TO.C,J2*%
X103800000Y9160000D03*
X103800000Y11160000D03*
D17*
X109000000Y6760000D03*
X109000000Y13560000D03*
%TD*%
D16*
%TO.C,J2*%
X43800000Y139660000D03*
X43800000Y141660000D03*
D17*
X49000000Y137260000D03*
X49000000Y144060000D03*
%TD*%
D16*
%TO.C,J2*%
X43800000Y96160000D03*
X43800000Y98160000D03*
D17*
X49000000Y93760000D03*
X49000000Y100560000D03*
%TD*%
D16*
%TO.C,J2*%
X43800000Y52660000D03*
X43800000Y54660000D03*
D17*
X49000000Y50260000D03*
X49000000Y57060000D03*
%TD*%
D18*
%TO.C,D2*%
X98085000Y169908000D03*
X98735000Y169908000D03*
X99385000Y169908000D03*
X99385000Y168308000D03*
X98085000Y168308000D03*
%TD*%
%TO.C,D2*%
X98085000Y126408000D03*
X98735000Y126408000D03*
X99385000Y126408000D03*
X99385000Y124808000D03*
X98085000Y124808000D03*
%TD*%
%TO.C,D2*%
X98085000Y82908000D03*
X98735000Y82908000D03*
X99385000Y82908000D03*
X99385000Y81308000D03*
X98085000Y81308000D03*
%TD*%
%TO.C,D2*%
X98085000Y39408000D03*
X98735000Y39408000D03*
X99385000Y39408000D03*
X99385000Y37808000D03*
X98085000Y37808000D03*
%TD*%
%TO.C,D2*%
X38085000Y169908000D03*
X38735000Y169908000D03*
X39385000Y169908000D03*
X39385000Y168308000D03*
X38085000Y168308000D03*
%TD*%
%TO.C,D2*%
X38085000Y126408000D03*
X38735000Y126408000D03*
X39385000Y126408000D03*
X39385000Y124808000D03*
X38085000Y124808000D03*
%TD*%
%TO.C,D2*%
X38085000Y82908000D03*
X38735000Y82908000D03*
X39385000Y82908000D03*
X39385000Y81308000D03*
X38085000Y81308000D03*
%TD*%
D11*
%TO.C,R31*%
X98100000Y144214000D03*
X98100000Y145234000D03*
%TD*%
%TO.C,R31*%
X98100000Y100714000D03*
X98100000Y101734000D03*
%TD*%
%TO.C,R31*%
X98100000Y57214000D03*
X98100000Y58234000D03*
%TD*%
%TO.C,R31*%
X98100000Y13714000D03*
X98100000Y14734000D03*
%TD*%
%TO.C,R31*%
X38100000Y144214000D03*
X38100000Y145234000D03*
%TD*%
%TO.C,R31*%
X38100000Y100714000D03*
X38100000Y101734000D03*
%TD*%
%TO.C,R31*%
X38100000Y57214000D03*
X38100000Y58234000D03*
%TD*%
%TO.C,R1*%
X80320000Y140152000D03*
X80320000Y141172000D03*
%TD*%
%TO.C,R1*%
X80320000Y96652000D03*
X80320000Y97672000D03*
%TD*%
%TO.C,R1*%
X80320000Y53152000D03*
X80320000Y54172000D03*
%TD*%
%TO.C,R1*%
X80320000Y9652000D03*
X80320000Y10672000D03*
%TD*%
%TO.C,R1*%
X20320000Y140152000D03*
X20320000Y141172000D03*
%TD*%
%TO.C,R1*%
X20320000Y96652000D03*
X20320000Y97672000D03*
%TD*%
%TO.C,R1*%
X20320000Y53152000D03*
X20320000Y54172000D03*
%TD*%
D19*
%TO.C,R21*%
X73208000Y168348000D03*
X73208000Y167328000D03*
%TD*%
%TO.C,R21*%
X73208000Y124848000D03*
X73208000Y123828000D03*
%TD*%
%TO.C,R21*%
X73208000Y81348000D03*
X73208000Y80328000D03*
%TD*%
%TO.C,R21*%
X73208000Y37848000D03*
X73208000Y36828000D03*
%TD*%
%TO.C,R21*%
X13208000Y168348000D03*
X13208000Y167328000D03*
%TD*%
%TO.C,R21*%
X13208000Y124848000D03*
X13208000Y123828000D03*
%TD*%
%TO.C,R21*%
X13208000Y81348000D03*
X13208000Y80328000D03*
%TD*%
D20*
%TO.C,U9*%
X73176000Y160008000D03*
X72676000Y160008000D03*
X72176000Y160008000D03*
X71676000Y160008000D03*
X71176000Y160008000D03*
X70676000Y160008000D03*
X70176000Y160008000D03*
X69676000Y160008000D03*
X69176000Y160008000D03*
D21*
X68426000Y160758000D03*
X68426000Y161258000D03*
X68426000Y161758000D03*
X68426000Y162258000D03*
X68426000Y162758000D03*
X68426000Y163258000D03*
X68426000Y163758000D03*
X68426000Y164258000D03*
X68426000Y164758000D03*
D20*
X69176000Y165508000D03*
X69676000Y165508000D03*
X70176000Y165508000D03*
X70676000Y165508000D03*
X71176000Y165508000D03*
X71676000Y165508000D03*
X72176000Y165508000D03*
X72676000Y165508000D03*
X73176000Y165508000D03*
D21*
X73926000Y164758000D03*
X73926000Y164258000D03*
X73926000Y163758000D03*
X73926000Y163258000D03*
X73926000Y162758000D03*
X73926000Y162258000D03*
X73926000Y161758000D03*
X73926000Y161258000D03*
X73926000Y160758000D03*
%TD*%
D20*
%TO.C,U9*%
X73176000Y116508000D03*
X72676000Y116508000D03*
X72176000Y116508000D03*
X71676000Y116508000D03*
X71176000Y116508000D03*
X70676000Y116508000D03*
X70176000Y116508000D03*
X69676000Y116508000D03*
X69176000Y116508000D03*
D21*
X68426000Y117258000D03*
X68426000Y117758000D03*
X68426000Y118258000D03*
X68426000Y118758000D03*
X68426000Y119258000D03*
X68426000Y119758000D03*
X68426000Y120258000D03*
X68426000Y120758000D03*
X68426000Y121258000D03*
D20*
X69176000Y122008000D03*
X69676000Y122008000D03*
X70176000Y122008000D03*
X70676000Y122008000D03*
X71176000Y122008000D03*
X71676000Y122008000D03*
X72176000Y122008000D03*
X72676000Y122008000D03*
X73176000Y122008000D03*
D21*
X73926000Y121258000D03*
X73926000Y120758000D03*
X73926000Y120258000D03*
X73926000Y119758000D03*
X73926000Y119258000D03*
X73926000Y118758000D03*
X73926000Y118258000D03*
X73926000Y117758000D03*
X73926000Y117258000D03*
%TD*%
D20*
%TO.C,U9*%
X73176000Y73008000D03*
X72676000Y73008000D03*
X72176000Y73008000D03*
X71676000Y73008000D03*
X71176000Y73008000D03*
X70676000Y73008000D03*
X70176000Y73008000D03*
X69676000Y73008000D03*
X69176000Y73008000D03*
D21*
X68426000Y73758000D03*
X68426000Y74258000D03*
X68426000Y74758000D03*
X68426000Y75258000D03*
X68426000Y75758000D03*
X68426000Y76258000D03*
X68426000Y76758000D03*
X68426000Y77258000D03*
X68426000Y77758000D03*
D20*
X69176000Y78508000D03*
X69676000Y78508000D03*
X70176000Y78508000D03*
X70676000Y78508000D03*
X71176000Y78508000D03*
X71676000Y78508000D03*
X72176000Y78508000D03*
X72676000Y78508000D03*
X73176000Y78508000D03*
D21*
X73926000Y77758000D03*
X73926000Y77258000D03*
X73926000Y76758000D03*
X73926000Y76258000D03*
X73926000Y75758000D03*
X73926000Y75258000D03*
X73926000Y74758000D03*
X73926000Y74258000D03*
X73926000Y73758000D03*
%TD*%
D20*
%TO.C,U9*%
X73176000Y29508000D03*
X72676000Y29508000D03*
X72176000Y29508000D03*
X71676000Y29508000D03*
X71176000Y29508000D03*
X70676000Y29508000D03*
X70176000Y29508000D03*
X69676000Y29508000D03*
X69176000Y29508000D03*
D21*
X68426000Y30258000D03*
X68426000Y30758000D03*
X68426000Y31258000D03*
X68426000Y31758000D03*
X68426000Y32258000D03*
X68426000Y32758000D03*
X68426000Y33258000D03*
X68426000Y33758000D03*
X68426000Y34258000D03*
D20*
X69176000Y35008000D03*
X69676000Y35008000D03*
X70176000Y35008000D03*
X70676000Y35008000D03*
X71176000Y35008000D03*
X71676000Y35008000D03*
X72176000Y35008000D03*
X72676000Y35008000D03*
X73176000Y35008000D03*
D21*
X73926000Y34258000D03*
X73926000Y33758000D03*
X73926000Y33258000D03*
X73926000Y32758000D03*
X73926000Y32258000D03*
X73926000Y31758000D03*
X73926000Y31258000D03*
X73926000Y30758000D03*
X73926000Y30258000D03*
%TD*%
D20*
%TO.C,U9*%
X13176000Y160008000D03*
X12676000Y160008000D03*
X12176000Y160008000D03*
X11676000Y160008000D03*
X11176000Y160008000D03*
X10676000Y160008000D03*
X10176000Y160008000D03*
X9676000Y160008000D03*
X9176000Y160008000D03*
D21*
X8426000Y160758000D03*
X8426000Y161258000D03*
X8426000Y161758000D03*
X8426000Y162258000D03*
X8426000Y162758000D03*
X8426000Y163258000D03*
X8426000Y163758000D03*
X8426000Y164258000D03*
X8426000Y164758000D03*
D20*
X9176000Y165508000D03*
X9676000Y165508000D03*
X10176000Y165508000D03*
X10676000Y165508000D03*
X11176000Y165508000D03*
X11676000Y165508000D03*
X12176000Y165508000D03*
X12676000Y165508000D03*
X13176000Y165508000D03*
D21*
X13926000Y164758000D03*
X13926000Y164258000D03*
X13926000Y163758000D03*
X13926000Y163258000D03*
X13926000Y162758000D03*
X13926000Y162258000D03*
X13926000Y161758000D03*
X13926000Y161258000D03*
X13926000Y160758000D03*
%TD*%
D20*
%TO.C,U9*%
X13176000Y116508000D03*
X12676000Y116508000D03*
X12176000Y116508000D03*
X11676000Y116508000D03*
X11176000Y116508000D03*
X10676000Y116508000D03*
X10176000Y116508000D03*
X9676000Y116508000D03*
X9176000Y116508000D03*
D21*
X8426000Y117258000D03*
X8426000Y117758000D03*
X8426000Y118258000D03*
X8426000Y118758000D03*
X8426000Y119258000D03*
X8426000Y119758000D03*
X8426000Y120258000D03*
X8426000Y120758000D03*
X8426000Y121258000D03*
D20*
X9176000Y122008000D03*
X9676000Y122008000D03*
X10176000Y122008000D03*
X10676000Y122008000D03*
X11176000Y122008000D03*
X11676000Y122008000D03*
X12176000Y122008000D03*
X12676000Y122008000D03*
X13176000Y122008000D03*
D21*
X13926000Y121258000D03*
X13926000Y120758000D03*
X13926000Y120258000D03*
X13926000Y119758000D03*
X13926000Y119258000D03*
X13926000Y118758000D03*
X13926000Y118258000D03*
X13926000Y117758000D03*
X13926000Y117258000D03*
%TD*%
D20*
%TO.C,U9*%
X13176000Y73008000D03*
X12676000Y73008000D03*
X12176000Y73008000D03*
X11676000Y73008000D03*
X11176000Y73008000D03*
X10676000Y73008000D03*
X10176000Y73008000D03*
X9676000Y73008000D03*
X9176000Y73008000D03*
D21*
X8426000Y73758000D03*
X8426000Y74258000D03*
X8426000Y74758000D03*
X8426000Y75258000D03*
X8426000Y75758000D03*
X8426000Y76258000D03*
X8426000Y76758000D03*
X8426000Y77258000D03*
X8426000Y77758000D03*
D20*
X9176000Y78508000D03*
X9676000Y78508000D03*
X10176000Y78508000D03*
X10676000Y78508000D03*
X11176000Y78508000D03*
X11676000Y78508000D03*
X12176000Y78508000D03*
X12676000Y78508000D03*
X13176000Y78508000D03*
D21*
X13926000Y77758000D03*
X13926000Y77258000D03*
X13926000Y76758000D03*
X13926000Y76258000D03*
X13926000Y75758000D03*
X13926000Y75258000D03*
X13926000Y74758000D03*
X13926000Y74258000D03*
X13926000Y73758000D03*
%TD*%
D22*
%TO.C,R11*%
X100130000Y132278000D03*
X101150000Y132278000D03*
%TD*%
%TO.C,R11*%
X100130000Y88778000D03*
X101150000Y88778000D03*
%TD*%
%TO.C,R11*%
X100130000Y45278000D03*
X101150000Y45278000D03*
%TD*%
%TO.C,R11*%
X100130000Y1778000D03*
X101150000Y1778000D03*
%TD*%
%TO.C,R11*%
X40130000Y132278000D03*
X41150000Y132278000D03*
%TD*%
%TO.C,R11*%
X40130000Y88778000D03*
X41150000Y88778000D03*
%TD*%
%TO.C,R11*%
X40130000Y45278000D03*
X41150000Y45278000D03*
%TD*%
D23*
%TO.C,D3*%
X102164000Y145860000D03*
X102164000Y148160000D03*
%TD*%
%TO.C,D3*%
X102164000Y102360000D03*
X102164000Y104660000D03*
%TD*%
%TO.C,D3*%
X102164000Y58860000D03*
X102164000Y61160000D03*
%TD*%
%TO.C,D3*%
X102164000Y15360000D03*
X102164000Y17660000D03*
%TD*%
%TO.C,D3*%
X42164000Y145860000D03*
X42164000Y148160000D03*
%TD*%
%TO.C,D3*%
X42164000Y102360000D03*
X42164000Y104660000D03*
%TD*%
%TO.C,D3*%
X42164000Y58860000D03*
X42164000Y61160000D03*
%TD*%
D12*
%TO.C,U12*%
X92578000Y142468100D03*
X93528000Y142468100D03*
X94478000Y142468100D03*
X94478000Y139867900D03*
X92578000Y139867900D03*
%TD*%
%TO.C,U12*%
X92578000Y98968100D03*
X93528000Y98968100D03*
X94478000Y98968100D03*
X94478000Y96367900D03*
X92578000Y96367900D03*
%TD*%
%TO.C,U12*%
X92578000Y55468100D03*
X93528000Y55468100D03*
X94478000Y55468100D03*
X94478000Y52867900D03*
X92578000Y52867900D03*
%TD*%
%TO.C,U12*%
X92578000Y11968100D03*
X93528000Y11968100D03*
X94478000Y11968100D03*
X94478000Y9367900D03*
X92578000Y9367900D03*
%TD*%
%TO.C,U12*%
X32578000Y142468100D03*
X33528000Y142468100D03*
X34478000Y142468100D03*
X34478000Y139867900D03*
X32578000Y139867900D03*
%TD*%
%TO.C,U12*%
X32578000Y98968100D03*
X33528000Y98968100D03*
X34478000Y98968100D03*
X34478000Y96367900D03*
X32578000Y96367900D03*
%TD*%
%TO.C,U12*%
X32578000Y55468100D03*
X33528000Y55468100D03*
X34478000Y55468100D03*
X34478000Y52867900D03*
X32578000Y52867900D03*
%TD*%
D24*
%TO.C,R6*%
X78036000Y142692000D03*
X77016000Y142692000D03*
%TD*%
%TO.C,R6*%
X78036000Y99192000D03*
X77016000Y99192000D03*
%TD*%
%TO.C,R6*%
X78036000Y55692000D03*
X77016000Y55692000D03*
%TD*%
%TO.C,R6*%
X78036000Y12192000D03*
X77016000Y12192000D03*
%TD*%
%TO.C,R6*%
X18036000Y142692000D03*
X17016000Y142692000D03*
%TD*%
%TO.C,R6*%
X18036000Y99192000D03*
X17016000Y99192000D03*
%TD*%
%TO.C,R6*%
X18036000Y55692000D03*
X17016000Y55692000D03*
%TD*%
D25*
%TO.C,C10*%
X76256000Y167358000D03*
X76256000Y168318000D03*
%TD*%
%TO.C,C10*%
X76256000Y123858000D03*
X76256000Y124818000D03*
%TD*%
%TO.C,C10*%
X76256000Y80358000D03*
X76256000Y81318000D03*
%TD*%
%TO.C,C10*%
X76256000Y36858000D03*
X76256000Y37818000D03*
%TD*%
%TO.C,C10*%
X16256000Y167358000D03*
X16256000Y168318000D03*
%TD*%
%TO.C,C10*%
X16256000Y123858000D03*
X16256000Y124818000D03*
%TD*%
%TO.C,C10*%
X16256000Y80358000D03*
X16256000Y81318000D03*
%TD*%
D22*
%TO.C,R10*%
X96701000Y136850000D03*
X97721000Y136850000D03*
%TD*%
%TO.C,R10*%
X96701000Y93350000D03*
X97721000Y93350000D03*
%TD*%
%TO.C,R10*%
X96701000Y49850000D03*
X97721000Y49850000D03*
%TD*%
%TO.C,R10*%
X96701000Y6350000D03*
X97721000Y6350000D03*
%TD*%
%TO.C,R10*%
X36701000Y136850000D03*
X37721000Y136850000D03*
%TD*%
%TO.C,R10*%
X36701000Y93350000D03*
X37721000Y93350000D03*
%TD*%
%TO.C,R10*%
X36701000Y49850000D03*
X37721000Y49850000D03*
%TD*%
D26*
%TO.C,TR1*%
X79900000Y164428000D03*
X78200000Y164428000D03*
X79900000Y163628000D03*
X78200000Y163628000D03*
%TD*%
%TO.C,TR1*%
X79900000Y120928000D03*
X78200000Y120928000D03*
X79900000Y120128000D03*
X78200000Y120128000D03*
%TD*%
%TO.C,TR1*%
X79900000Y77428000D03*
X78200000Y77428000D03*
X79900000Y76628000D03*
X78200000Y76628000D03*
%TD*%
%TO.C,TR1*%
X79900000Y33928000D03*
X78200000Y33928000D03*
X79900000Y33128000D03*
X78200000Y33128000D03*
%TD*%
%TO.C,TR1*%
X19900000Y164428000D03*
X18200000Y164428000D03*
X19900000Y163628000D03*
X18200000Y163628000D03*
%TD*%
%TO.C,TR1*%
X19900000Y120928000D03*
X18200000Y120928000D03*
X19900000Y120128000D03*
X18200000Y120128000D03*
%TD*%
%TO.C,TR1*%
X19900000Y77428000D03*
X18200000Y77428000D03*
X19900000Y76628000D03*
X18200000Y76628000D03*
%TD*%
D14*
%TO.C,C16*%
X100513000Y141140000D03*
X100513000Y140180000D03*
%TD*%
%TO.C,C16*%
X100513000Y97640000D03*
X100513000Y96680000D03*
%TD*%
%TO.C,C16*%
X100513000Y54140000D03*
X100513000Y53180000D03*
%TD*%
%TO.C,C16*%
X100513000Y10640000D03*
X100513000Y9680000D03*
%TD*%
%TO.C,C16*%
X40513000Y141140000D03*
X40513000Y140180000D03*
%TD*%
%TO.C,C16*%
X40513000Y97640000D03*
X40513000Y96680000D03*
%TD*%
%TO.C,C16*%
X40513000Y54140000D03*
X40513000Y53180000D03*
%TD*%
%TO.C,C19*%
X105720000Y149268000D03*
X105720000Y148308000D03*
%TD*%
%TO.C,C19*%
X105720000Y105768000D03*
X105720000Y104808000D03*
%TD*%
%TO.C,C19*%
X105720000Y62268000D03*
X105720000Y61308000D03*
%TD*%
%TO.C,C19*%
X105720000Y18768000D03*
X105720000Y17808000D03*
%TD*%
%TO.C,C19*%
X45720000Y149268000D03*
X45720000Y148308000D03*
%TD*%
%TO.C,C19*%
X45720000Y105768000D03*
X45720000Y104808000D03*
%TD*%
%TO.C,C19*%
X45720000Y62268000D03*
X45720000Y61308000D03*
%TD*%
D19*
%TO.C,R25*%
X78923000Y161744000D03*
X78923000Y160724000D03*
%TD*%
%TO.C,R25*%
X78923000Y118244000D03*
X78923000Y117224000D03*
%TD*%
%TO.C,R25*%
X78923000Y74744000D03*
X78923000Y73724000D03*
%TD*%
%TO.C,R25*%
X78923000Y31244000D03*
X78923000Y30224000D03*
%TD*%
%TO.C,R25*%
X18923000Y161744000D03*
X18923000Y160724000D03*
%TD*%
%TO.C,R25*%
X18923000Y118244000D03*
X18923000Y117224000D03*
%TD*%
%TO.C,R25*%
X18923000Y74744000D03*
X18923000Y73724000D03*
%TD*%
D27*
%TO.C,Y1*%
X76343000Y161734000D03*
X77693000Y160734000D03*
X76343000Y160734000D03*
X77693000Y161734000D03*
%TD*%
%TO.C,Y1*%
X76343000Y118234000D03*
X77693000Y117234000D03*
X76343000Y117234000D03*
X77693000Y118234000D03*
%TD*%
%TO.C,Y1*%
X76343000Y74734000D03*
X77693000Y73734000D03*
X76343000Y73734000D03*
X77693000Y74734000D03*
%TD*%
%TO.C,Y1*%
X76343000Y31234000D03*
X77693000Y30234000D03*
X76343000Y30234000D03*
X77693000Y31234000D03*
%TD*%
%TO.C,Y1*%
X16343000Y161734000D03*
X17693000Y160734000D03*
X16343000Y160734000D03*
X17693000Y161734000D03*
%TD*%
%TO.C,Y1*%
X16343000Y118234000D03*
X17693000Y117234000D03*
X16343000Y117234000D03*
X17693000Y118234000D03*
%TD*%
%TO.C,Y1*%
X16343000Y74734000D03*
X17693000Y73734000D03*
X16343000Y73734000D03*
X17693000Y74734000D03*
%TD*%
D28*
%TO.C,J3*%
X75621000Y139668000D03*
X75621000Y140668000D03*
X75621000Y141668000D03*
X75621000Y142668000D03*
D29*
X71946000Y143968000D03*
X71946000Y138368000D03*
%TD*%
D28*
%TO.C,J3*%
X75621000Y96168000D03*
X75621000Y97168000D03*
X75621000Y98168000D03*
X75621000Y99168000D03*
D29*
X71946000Y100468000D03*
X71946000Y94868000D03*
%TD*%
D28*
%TO.C,J3*%
X75621000Y52668000D03*
X75621000Y53668000D03*
X75621000Y54668000D03*
X75621000Y55668000D03*
D29*
X71946000Y56968000D03*
X71946000Y51368000D03*
%TD*%
D28*
%TO.C,J3*%
X75621000Y9168000D03*
X75621000Y10168000D03*
X75621000Y11168000D03*
X75621000Y12168000D03*
D29*
X71946000Y13468000D03*
X71946000Y7868000D03*
%TD*%
D28*
%TO.C,J3*%
X15621000Y139668000D03*
X15621000Y140668000D03*
X15621000Y141668000D03*
X15621000Y142668000D03*
D29*
X11946000Y143968000D03*
X11946000Y138368000D03*
%TD*%
D28*
%TO.C,J3*%
X15621000Y96168000D03*
X15621000Y97168000D03*
X15621000Y98168000D03*
X15621000Y99168000D03*
D29*
X11946000Y100468000D03*
X11946000Y94868000D03*
%TD*%
D28*
%TO.C,J3*%
X15621000Y52668000D03*
X15621000Y53668000D03*
X15621000Y54668000D03*
X15621000Y55668000D03*
D29*
X11946000Y56968000D03*
X11946000Y51368000D03*
%TD*%
D11*
%TO.C,R32*%
X97084000Y144214000D03*
X97084000Y145234000D03*
%TD*%
%TO.C,R32*%
X97084000Y100714000D03*
X97084000Y101734000D03*
%TD*%
%TO.C,R32*%
X97084000Y57214000D03*
X97084000Y58234000D03*
%TD*%
%TO.C,R32*%
X97084000Y13714000D03*
X97084000Y14734000D03*
%TD*%
%TO.C,R32*%
X37084000Y144214000D03*
X37084000Y145234000D03*
%TD*%
%TO.C,R32*%
X37084000Y100714000D03*
X37084000Y101734000D03*
%TD*%
%TO.C,R32*%
X37084000Y57214000D03*
X37084000Y58234000D03*
%TD*%
D24*
%TO.C,R4*%
X78036000Y141676000D03*
X77016000Y141676000D03*
%TD*%
%TO.C,R4*%
X78036000Y98176000D03*
X77016000Y98176000D03*
%TD*%
%TO.C,R4*%
X78036000Y54676000D03*
X77016000Y54676000D03*
%TD*%
%TO.C,R4*%
X78036000Y11176000D03*
X77016000Y11176000D03*
%TD*%
%TO.C,R4*%
X18036000Y141676000D03*
X17016000Y141676000D03*
%TD*%
%TO.C,R4*%
X18036000Y98176000D03*
X17016000Y98176000D03*
%TD*%
%TO.C,R4*%
X18036000Y54676000D03*
X17016000Y54676000D03*
%TD*%
D30*
%TO.C,U3*%
X66344000Y147137000D03*
X66344000Y148407000D03*
X66344000Y149677000D03*
X66344000Y150947000D03*
X66344000Y152217000D03*
X66344000Y153487000D03*
X66344000Y154757000D03*
X66344000Y156027000D03*
X71944000Y156027000D03*
X71944000Y154757000D03*
X71944000Y153487000D03*
X71944000Y152217000D03*
X71944000Y150947000D03*
X71944000Y149677000D03*
X71944000Y148407000D03*
X71944000Y147137000D03*
%TD*%
%TO.C,U3*%
X66344000Y103637000D03*
X66344000Y104907000D03*
X66344000Y106177000D03*
X66344000Y107447000D03*
X66344000Y108717000D03*
X66344000Y109987000D03*
X66344000Y111257000D03*
X66344000Y112527000D03*
X71944000Y112527000D03*
X71944000Y111257000D03*
X71944000Y109987000D03*
X71944000Y108717000D03*
X71944000Y107447000D03*
X71944000Y106177000D03*
X71944000Y104907000D03*
X71944000Y103637000D03*
%TD*%
%TO.C,U3*%
X66344000Y60137000D03*
X66344000Y61407000D03*
X66344000Y62677000D03*
X66344000Y63947000D03*
X66344000Y65217000D03*
X66344000Y66487000D03*
X66344000Y67757000D03*
X66344000Y69027000D03*
X71944000Y69027000D03*
X71944000Y67757000D03*
X71944000Y66487000D03*
X71944000Y65217000D03*
X71944000Y63947000D03*
X71944000Y62677000D03*
X71944000Y61407000D03*
X71944000Y60137000D03*
%TD*%
%TO.C,U3*%
X66344000Y16637000D03*
X66344000Y17907000D03*
X66344000Y19177000D03*
X66344000Y20447000D03*
X66344000Y21717000D03*
X66344000Y22987000D03*
X66344000Y24257000D03*
X66344000Y25527000D03*
X71944000Y25527000D03*
X71944000Y24257000D03*
X71944000Y22987000D03*
X71944000Y21717000D03*
X71944000Y20447000D03*
X71944000Y19177000D03*
X71944000Y17907000D03*
X71944000Y16637000D03*
%TD*%
%TO.C,U3*%
X6344000Y147137000D03*
X6344000Y148407000D03*
X6344000Y149677000D03*
X6344000Y150947000D03*
X6344000Y152217000D03*
X6344000Y153487000D03*
X6344000Y154757000D03*
X6344000Y156027000D03*
X11944000Y156027000D03*
X11944000Y154757000D03*
X11944000Y153487000D03*
X11944000Y152217000D03*
X11944000Y150947000D03*
X11944000Y149677000D03*
X11944000Y148407000D03*
X11944000Y147137000D03*
%TD*%
%TO.C,U3*%
X6344000Y103637000D03*
X6344000Y104907000D03*
X6344000Y106177000D03*
X6344000Y107447000D03*
X6344000Y108717000D03*
X6344000Y109987000D03*
X6344000Y111257000D03*
X6344000Y112527000D03*
X11944000Y112527000D03*
X11944000Y111257000D03*
X11944000Y109987000D03*
X11944000Y108717000D03*
X11944000Y107447000D03*
X11944000Y106177000D03*
X11944000Y104907000D03*
X11944000Y103637000D03*
%TD*%
%TO.C,U3*%
X6344000Y60137000D03*
X6344000Y61407000D03*
X6344000Y62677000D03*
X6344000Y63947000D03*
X6344000Y65217000D03*
X6344000Y66487000D03*
X6344000Y67757000D03*
X6344000Y69027000D03*
X11944000Y69027000D03*
X11944000Y67757000D03*
X11944000Y66487000D03*
X11944000Y65217000D03*
X11944000Y63947000D03*
X11944000Y62677000D03*
X11944000Y61407000D03*
X11944000Y60137000D03*
%TD*%
D14*
%TO.C,C30*%
X69525000Y158666000D03*
X69525000Y157706000D03*
%TD*%
%TO.C,C30*%
X69525000Y115166000D03*
X69525000Y114206000D03*
%TD*%
%TO.C,C30*%
X69525000Y71666000D03*
X69525000Y70706000D03*
%TD*%
%TO.C,C30*%
X69525000Y28166000D03*
X69525000Y27206000D03*
%TD*%
%TO.C,C30*%
X9525000Y158666000D03*
X9525000Y157706000D03*
%TD*%
%TO.C,C30*%
X9525000Y115166000D03*
X9525000Y114206000D03*
%TD*%
%TO.C,C30*%
X9525000Y71666000D03*
X9525000Y70706000D03*
%TD*%
D10*
%TO.C,C3*%
X102700000Y132278000D03*
X103660000Y132278000D03*
%TD*%
%TO.C,C3*%
X102700000Y88778000D03*
X103660000Y88778000D03*
%TD*%
%TO.C,C3*%
X102700000Y45278000D03*
X103660000Y45278000D03*
%TD*%
%TO.C,C3*%
X102700000Y1778000D03*
X103660000Y1778000D03*
%TD*%
%TO.C,C3*%
X42700000Y132278000D03*
X43660000Y132278000D03*
%TD*%
%TO.C,C3*%
X42700000Y88778000D03*
X43660000Y88778000D03*
%TD*%
%TO.C,C3*%
X42700000Y45278000D03*
X43660000Y45278000D03*
%TD*%
D31*
%TO.C,D4*%
X98220000Y148280000D03*
X100520000Y148280000D03*
%TD*%
%TO.C,D4*%
X98220000Y104780000D03*
X100520000Y104780000D03*
%TD*%
%TO.C,D4*%
X98220000Y61280000D03*
X100520000Y61280000D03*
%TD*%
%TO.C,D4*%
X98220000Y17780000D03*
X100520000Y17780000D03*
%TD*%
%TO.C,D4*%
X38220000Y148280000D03*
X40520000Y148280000D03*
%TD*%
%TO.C,D4*%
X38220000Y104780000D03*
X40520000Y104780000D03*
%TD*%
%TO.C,D4*%
X38220000Y61280000D03*
X40520000Y61280000D03*
%TD*%
D11*
%TO.C,R37*%
X98989000Y163137000D03*
X98989000Y164157000D03*
%TD*%
%TO.C,R37*%
X98989000Y119637000D03*
X98989000Y120657000D03*
%TD*%
%TO.C,R37*%
X98989000Y76137000D03*
X98989000Y77157000D03*
%TD*%
%TO.C,R37*%
X98989000Y32637000D03*
X98989000Y33657000D03*
%TD*%
%TO.C,R37*%
X38989000Y163137000D03*
X38989000Y164157000D03*
%TD*%
%TO.C,R37*%
X38989000Y119637000D03*
X38989000Y120657000D03*
%TD*%
%TO.C,R37*%
X38989000Y76137000D03*
X38989000Y77157000D03*
%TD*%
D32*
%TO.C,C20*%
X111054000Y149055000D03*
X111054000Y147505000D03*
%TD*%
%TO.C,C20*%
X111054000Y105555000D03*
X111054000Y104005000D03*
%TD*%
%TO.C,C20*%
X111054000Y62055000D03*
X111054000Y60505000D03*
%TD*%
%TO.C,C20*%
X111054000Y18555000D03*
X111054000Y17005000D03*
%TD*%
%TO.C,C20*%
X51054000Y149055000D03*
X51054000Y147505000D03*
%TD*%
%TO.C,C20*%
X51054000Y105555000D03*
X51054000Y104005000D03*
%TD*%
%TO.C,C20*%
X51054000Y62055000D03*
X51054000Y60505000D03*
%TD*%
D24*
%TO.C,R5*%
X111818000Y163774000D03*
X110798000Y163774000D03*
%TD*%
%TO.C,R5*%
X111818000Y120274000D03*
X110798000Y120274000D03*
%TD*%
%TO.C,R5*%
X111818000Y76774000D03*
X110798000Y76774000D03*
%TD*%
%TO.C,R5*%
X111818000Y33274000D03*
X110798000Y33274000D03*
%TD*%
%TO.C,R5*%
X51818000Y163774000D03*
X50798000Y163774000D03*
%TD*%
%TO.C,R5*%
X51818000Y120274000D03*
X50798000Y120274000D03*
%TD*%
%TO.C,R5*%
X51818000Y76774000D03*
X50798000Y76774000D03*
%TD*%
D11*
%TO.C,R24*%
X72192000Y167328000D03*
X72192000Y168348000D03*
%TD*%
%TO.C,R24*%
X72192000Y123828000D03*
X72192000Y124848000D03*
%TD*%
%TO.C,R24*%
X72192000Y80328000D03*
X72192000Y81348000D03*
%TD*%
%TO.C,R24*%
X72192000Y36828000D03*
X72192000Y37848000D03*
%TD*%
%TO.C,R24*%
X12192000Y167328000D03*
X12192000Y168348000D03*
%TD*%
%TO.C,R24*%
X12192000Y123828000D03*
X12192000Y124848000D03*
%TD*%
%TO.C,R24*%
X12192000Y80328000D03*
X12192000Y81348000D03*
%TD*%
D33*
%TO.C,L1*%
X88207000Y150185000D03*
X86657000Y150185000D03*
%TD*%
%TO.C,L1*%
X88207000Y106685000D03*
X86657000Y106685000D03*
%TD*%
%TO.C,L1*%
X88207000Y63185000D03*
X86657000Y63185000D03*
%TD*%
%TO.C,L1*%
X88207000Y19685000D03*
X86657000Y19685000D03*
%TD*%
%TO.C,L1*%
X28207000Y150185000D03*
X26657000Y150185000D03*
%TD*%
%TO.C,L1*%
X28207000Y106685000D03*
X26657000Y106685000D03*
%TD*%
%TO.C,L1*%
X28207000Y63185000D03*
X26657000Y63185000D03*
%TD*%
D32*
%TO.C,C29*%
X93020000Y133828000D03*
X93020000Y132278000D03*
%TD*%
%TO.C,C29*%
X93020000Y90328000D03*
X93020000Y88778000D03*
%TD*%
%TO.C,C29*%
X93020000Y46828000D03*
X93020000Y45278000D03*
%TD*%
%TO.C,C29*%
X93020000Y3328000D03*
X93020000Y1778000D03*
%TD*%
%TO.C,C29*%
X33020000Y133828000D03*
X33020000Y132278000D03*
%TD*%
%TO.C,C29*%
X33020000Y90328000D03*
X33020000Y88778000D03*
%TD*%
%TO.C,C29*%
X33020000Y46828000D03*
X33020000Y45278000D03*
%TD*%
D34*
%TO.C,C12*%
X66703000Y162758000D03*
X65743000Y162758000D03*
%TD*%
%TO.C,C12*%
X66703000Y119258000D03*
X65743000Y119258000D03*
%TD*%
%TO.C,C12*%
X66703000Y75758000D03*
X65743000Y75758000D03*
%TD*%
%TO.C,C12*%
X66703000Y32258000D03*
X65743000Y32258000D03*
%TD*%
%TO.C,C12*%
X6703000Y162758000D03*
X5743000Y162758000D03*
%TD*%
%TO.C,C12*%
X6703000Y119258000D03*
X5743000Y119258000D03*
%TD*%
%TO.C,C12*%
X6703000Y75758000D03*
X5743000Y75758000D03*
%TD*%
D24*
%TO.C,R3*%
X74734000Y149804000D03*
X73714000Y149804000D03*
%TD*%
%TO.C,R3*%
X74734000Y106304000D03*
X73714000Y106304000D03*
%TD*%
%TO.C,R3*%
X74734000Y62804000D03*
X73714000Y62804000D03*
%TD*%
%TO.C,R3*%
X74734000Y19304000D03*
X73714000Y19304000D03*
%TD*%
%TO.C,R3*%
X14734000Y149804000D03*
X13714000Y149804000D03*
%TD*%
%TO.C,R3*%
X14734000Y106304000D03*
X13714000Y106304000D03*
%TD*%
%TO.C,R3*%
X14734000Y62804000D03*
X13714000Y62804000D03*
%TD*%
D35*
%TO.C,U13*%
X82225000Y169114000D03*
X83495000Y169114000D03*
X84765000Y169114000D03*
X86035000Y169114000D03*
X87305000Y169114000D03*
X88575000Y169114000D03*
X89845000Y169114000D03*
X91115000Y169114000D03*
X91115000Y163514000D03*
X89845000Y163514000D03*
X88575000Y163514000D03*
X87305000Y163514000D03*
X86035000Y163514000D03*
X84765000Y163514000D03*
X83495000Y163514000D03*
X82225000Y163514000D03*
%TD*%
%TO.C,U13*%
X82225000Y125614000D03*
X83495000Y125614000D03*
X84765000Y125614000D03*
X86035000Y125614000D03*
X87305000Y125614000D03*
X88575000Y125614000D03*
X89845000Y125614000D03*
X91115000Y125614000D03*
X91115000Y120014000D03*
X89845000Y120014000D03*
X88575000Y120014000D03*
X87305000Y120014000D03*
X86035000Y120014000D03*
X84765000Y120014000D03*
X83495000Y120014000D03*
X82225000Y120014000D03*
%TD*%
%TO.C,U13*%
X82225000Y82114000D03*
X83495000Y82114000D03*
X84765000Y82114000D03*
X86035000Y82114000D03*
X87305000Y82114000D03*
X88575000Y82114000D03*
X89845000Y82114000D03*
X91115000Y82114000D03*
X91115000Y76514000D03*
X89845000Y76514000D03*
X88575000Y76514000D03*
X87305000Y76514000D03*
X86035000Y76514000D03*
X84765000Y76514000D03*
X83495000Y76514000D03*
X82225000Y76514000D03*
%TD*%
%TO.C,U13*%
X82225000Y38614000D03*
X83495000Y38614000D03*
X84765000Y38614000D03*
X86035000Y38614000D03*
X87305000Y38614000D03*
X88575000Y38614000D03*
X89845000Y38614000D03*
X91115000Y38614000D03*
X91115000Y33014000D03*
X89845000Y33014000D03*
X88575000Y33014000D03*
X87305000Y33014000D03*
X86035000Y33014000D03*
X84765000Y33014000D03*
X83495000Y33014000D03*
X82225000Y33014000D03*
%TD*%
%TO.C,U13*%
X22225000Y169114000D03*
X23495000Y169114000D03*
X24765000Y169114000D03*
X26035000Y169114000D03*
X27305000Y169114000D03*
X28575000Y169114000D03*
X29845000Y169114000D03*
X31115000Y169114000D03*
X31115000Y163514000D03*
X29845000Y163514000D03*
X28575000Y163514000D03*
X27305000Y163514000D03*
X26035000Y163514000D03*
X24765000Y163514000D03*
X23495000Y163514000D03*
X22225000Y163514000D03*
%TD*%
%TO.C,U13*%
X22225000Y125614000D03*
X23495000Y125614000D03*
X24765000Y125614000D03*
X26035000Y125614000D03*
X27305000Y125614000D03*
X28575000Y125614000D03*
X29845000Y125614000D03*
X31115000Y125614000D03*
X31115000Y120014000D03*
X29845000Y120014000D03*
X28575000Y120014000D03*
X27305000Y120014000D03*
X26035000Y120014000D03*
X24765000Y120014000D03*
X23495000Y120014000D03*
X22225000Y120014000D03*
%TD*%
%TO.C,U13*%
X22225000Y82114000D03*
X23495000Y82114000D03*
X24765000Y82114000D03*
X26035000Y82114000D03*
X27305000Y82114000D03*
X28575000Y82114000D03*
X29845000Y82114000D03*
X31115000Y82114000D03*
X31115000Y76514000D03*
X29845000Y76514000D03*
X28575000Y76514000D03*
X27305000Y76514000D03*
X26035000Y76514000D03*
X24765000Y76514000D03*
X23495000Y76514000D03*
X22225000Y76514000D03*
%TD*%
D19*
%TO.C,R8*%
X77272000Y139265000D03*
X77272000Y138245000D03*
%TD*%
%TO.C,R8*%
X77272000Y95765000D03*
X77272000Y94745000D03*
%TD*%
%TO.C,R8*%
X77272000Y52265000D03*
X77272000Y51245000D03*
%TD*%
%TO.C,R8*%
X77272000Y8765000D03*
X77272000Y7745000D03*
%TD*%
%TO.C,R8*%
X17272000Y139265000D03*
X17272000Y138245000D03*
%TD*%
%TO.C,R8*%
X17272000Y95765000D03*
X17272000Y94745000D03*
%TD*%
%TO.C,R8*%
X17272000Y52265000D03*
X17272000Y51245000D03*
%TD*%
D11*
%TO.C,R33*%
X103688000Y148278000D03*
X103688000Y149298000D03*
%TD*%
%TO.C,R33*%
X103688000Y104778000D03*
X103688000Y105798000D03*
%TD*%
%TO.C,R33*%
X103688000Y61278000D03*
X103688000Y62298000D03*
%TD*%
%TO.C,R33*%
X103688000Y17778000D03*
X103688000Y18798000D03*
%TD*%
%TO.C,R33*%
X43688000Y148278000D03*
X43688000Y149298000D03*
%TD*%
%TO.C,R33*%
X43688000Y104778000D03*
X43688000Y105798000D03*
%TD*%
%TO.C,R33*%
X43688000Y61278000D03*
X43688000Y62298000D03*
%TD*%
D19*
%TO.C,R29*%
X99116000Y145234000D03*
X99116000Y144214000D03*
%TD*%
%TO.C,R29*%
X99116000Y101734000D03*
X99116000Y100714000D03*
%TD*%
%TO.C,R29*%
X99116000Y58234000D03*
X99116000Y57214000D03*
%TD*%
%TO.C,R29*%
X99116000Y14734000D03*
X99116000Y13714000D03*
%TD*%
%TO.C,R29*%
X39116000Y145234000D03*
X39116000Y144214000D03*
%TD*%
%TO.C,R29*%
X39116000Y101734000D03*
X39116000Y100714000D03*
%TD*%
%TO.C,R29*%
X39116000Y58234000D03*
X39116000Y57214000D03*
%TD*%
D36*
%TO.C,R16*%
X108260000Y166885000D03*
X108260000Y165235000D03*
%TD*%
%TO.C,R16*%
X108260000Y123385000D03*
X108260000Y121735000D03*
%TD*%
%TO.C,R16*%
X108260000Y79885000D03*
X108260000Y78235000D03*
%TD*%
%TO.C,R16*%
X108260000Y36385000D03*
X108260000Y34735000D03*
%TD*%
%TO.C,R16*%
X48260000Y166885000D03*
X48260000Y165235000D03*
%TD*%
%TO.C,R16*%
X48260000Y123385000D03*
X48260000Y121735000D03*
%TD*%
%TO.C,R16*%
X48260000Y79885000D03*
X48260000Y78235000D03*
%TD*%
D34*
%TO.C,C4*%
X68354000Y145486000D03*
X67394000Y145486000D03*
%TD*%
%TO.C,C4*%
X68354000Y101986000D03*
X67394000Y101986000D03*
%TD*%
%TO.C,C4*%
X68354000Y58486000D03*
X67394000Y58486000D03*
%TD*%
%TO.C,C4*%
X68354000Y14986000D03*
X67394000Y14986000D03*
%TD*%
%TO.C,C4*%
X8354000Y145486000D03*
X7394000Y145486000D03*
%TD*%
%TO.C,C4*%
X8354000Y101986000D03*
X7394000Y101986000D03*
%TD*%
%TO.C,C4*%
X8354000Y58486000D03*
X7394000Y58486000D03*
%TD*%
D10*
%TO.C,C18*%
X103716000Y150312000D03*
X104676000Y150312000D03*
%TD*%
%TO.C,C18*%
X103716000Y106812000D03*
X104676000Y106812000D03*
%TD*%
%TO.C,C18*%
X103716000Y63312000D03*
X104676000Y63312000D03*
%TD*%
%TO.C,C18*%
X103716000Y19812000D03*
X104676000Y19812000D03*
%TD*%
%TO.C,C18*%
X43716000Y150312000D03*
X44676000Y150312000D03*
%TD*%
%TO.C,C18*%
X43716000Y106812000D03*
X44676000Y106812000D03*
%TD*%
%TO.C,C18*%
X43716000Y63312000D03*
X44676000Y63312000D03*
%TD*%
D22*
%TO.C,R27*%
X75748000Y163520000D03*
X76768000Y163520000D03*
%TD*%
%TO.C,R27*%
X75748000Y120020000D03*
X76768000Y120020000D03*
%TD*%
%TO.C,R27*%
X75748000Y76520000D03*
X76768000Y76520000D03*
%TD*%
%TO.C,R27*%
X75748000Y33020000D03*
X76768000Y33020000D03*
%TD*%
%TO.C,R27*%
X15748000Y163520000D03*
X16768000Y163520000D03*
%TD*%
%TO.C,R27*%
X15748000Y120020000D03*
X16768000Y120020000D03*
%TD*%
%TO.C,R27*%
X15748000Y76520000D03*
X16768000Y76520000D03*
%TD*%
D19*
%TO.C,R19*%
X77272000Y168348000D03*
X77272000Y167328000D03*
%TD*%
%TO.C,R19*%
X77272000Y124848000D03*
X77272000Y123828000D03*
%TD*%
%TO.C,R19*%
X77272000Y81348000D03*
X77272000Y80328000D03*
%TD*%
%TO.C,R19*%
X77272000Y37848000D03*
X77272000Y36828000D03*
%TD*%
%TO.C,R19*%
X17272000Y168348000D03*
X17272000Y167328000D03*
%TD*%
%TO.C,R19*%
X17272000Y124848000D03*
X17272000Y123828000D03*
%TD*%
%TO.C,R19*%
X17272000Y81348000D03*
X17272000Y80328000D03*
%TD*%
D25*
%TO.C,C11*%
X74224000Y167358000D03*
X74224000Y168318000D03*
%TD*%
%TO.C,C11*%
X74224000Y123858000D03*
X74224000Y124818000D03*
%TD*%
%TO.C,C11*%
X74224000Y80358000D03*
X74224000Y81318000D03*
%TD*%
%TO.C,C11*%
X74224000Y36858000D03*
X74224000Y37818000D03*
%TD*%
%TO.C,C11*%
X14224000Y167358000D03*
X14224000Y168318000D03*
%TD*%
%TO.C,C11*%
X14224000Y123858000D03*
X14224000Y124818000D03*
%TD*%
%TO.C,C11*%
X14224000Y80358000D03*
X14224000Y81318000D03*
%TD*%
D31*
%TO.C,D5*%
X98220000Y150312000D03*
X100520000Y150312000D03*
%TD*%
%TO.C,D5*%
X98220000Y106812000D03*
X100520000Y106812000D03*
%TD*%
%TO.C,D5*%
X98220000Y63312000D03*
X100520000Y63312000D03*
%TD*%
%TO.C,D5*%
X98220000Y19812000D03*
X100520000Y19812000D03*
%TD*%
%TO.C,D5*%
X38220000Y150312000D03*
X40520000Y150312000D03*
%TD*%
%TO.C,D5*%
X38220000Y106812000D03*
X40520000Y106812000D03*
%TD*%
%TO.C,D5*%
X38220000Y63312000D03*
X40520000Y63312000D03*
%TD*%
D14*
%TO.C,C7*%
X89972000Y144950000D03*
X89972000Y143990000D03*
%TD*%
%TO.C,C7*%
X89972000Y101450000D03*
X89972000Y100490000D03*
%TD*%
%TO.C,C7*%
X89972000Y57950000D03*
X89972000Y56990000D03*
%TD*%
%TO.C,C7*%
X89972000Y14450000D03*
X89972000Y13490000D03*
%TD*%
%TO.C,C7*%
X29972000Y144950000D03*
X29972000Y143990000D03*
%TD*%
%TO.C,C7*%
X29972000Y101450000D03*
X29972000Y100490000D03*
%TD*%
%TO.C,C7*%
X29972000Y57950000D03*
X29972000Y56990000D03*
%TD*%
D12*
%TO.C,U11*%
X85466000Y142468100D03*
X86416000Y142468100D03*
X87366000Y142468100D03*
X87366000Y139867900D03*
X85466000Y139867900D03*
%TD*%
%TO.C,U11*%
X85466000Y98968100D03*
X86416000Y98968100D03*
X87366000Y98968100D03*
X87366000Y96367900D03*
X85466000Y96367900D03*
%TD*%
%TO.C,U11*%
X85466000Y55468100D03*
X86416000Y55468100D03*
X87366000Y55468100D03*
X87366000Y52867900D03*
X85466000Y52867900D03*
%TD*%
%TO.C,U11*%
X85466000Y11968100D03*
X86416000Y11968100D03*
X87366000Y11968100D03*
X87366000Y9367900D03*
X85466000Y9367900D03*
%TD*%
%TO.C,U11*%
X25466000Y142468100D03*
X26416000Y142468100D03*
X27366000Y142468100D03*
X27366000Y139867900D03*
X25466000Y139867900D03*
%TD*%
%TO.C,U11*%
X25466000Y98968100D03*
X26416000Y98968100D03*
X27366000Y98968100D03*
X27366000Y96367900D03*
X25466000Y96367900D03*
%TD*%
%TO.C,U11*%
X25466000Y55468100D03*
X26416000Y55468100D03*
X27366000Y55468100D03*
X27366000Y52867900D03*
X25466000Y52867900D03*
%TD*%
D37*
%TO.C,Q2*%
X107060000Y147330000D03*
X107060000Y148280000D03*
X107060000Y149230000D03*
X109460000Y149230000D03*
X109460000Y148280000D03*
X109460000Y147330000D03*
%TD*%
%TO.C,Q2*%
X107060000Y103830000D03*
X107060000Y104780000D03*
X107060000Y105730000D03*
X109460000Y105730000D03*
X109460000Y104780000D03*
X109460000Y103830000D03*
%TD*%
%TO.C,Q2*%
X107060000Y60330000D03*
X107060000Y61280000D03*
X107060000Y62230000D03*
X109460000Y62230000D03*
X109460000Y61280000D03*
X109460000Y60330000D03*
%TD*%
%TO.C,Q2*%
X107060000Y16830000D03*
X107060000Y17780000D03*
X107060000Y18730000D03*
X109460000Y18730000D03*
X109460000Y17780000D03*
X109460000Y16830000D03*
%TD*%
%TO.C,Q2*%
X47060000Y147330000D03*
X47060000Y148280000D03*
X47060000Y149230000D03*
X49460000Y149230000D03*
X49460000Y148280000D03*
X49460000Y147330000D03*
%TD*%
%TO.C,Q2*%
X47060000Y103830000D03*
X47060000Y104780000D03*
X47060000Y105730000D03*
X49460000Y105730000D03*
X49460000Y104780000D03*
X49460000Y103830000D03*
%TD*%
%TO.C,Q2*%
X47060000Y60330000D03*
X47060000Y61280000D03*
X47060000Y62230000D03*
X49460000Y62230000D03*
X49460000Y61280000D03*
X49460000Y60330000D03*
%TD*%
D11*
%TO.C,R15*%
X71176000Y167328000D03*
X71176000Y168348000D03*
%TD*%
%TO.C,R15*%
X71176000Y123828000D03*
X71176000Y124848000D03*
%TD*%
%TO.C,R15*%
X71176000Y80328000D03*
X71176000Y81348000D03*
%TD*%
%TO.C,R15*%
X71176000Y36828000D03*
X71176000Y37848000D03*
%TD*%
%TO.C,R15*%
X11176000Y167328000D03*
X11176000Y168348000D03*
%TD*%
%TO.C,R15*%
X11176000Y123828000D03*
X11176000Y124848000D03*
%TD*%
%TO.C,R15*%
X11176000Y80328000D03*
X11176000Y81348000D03*
%TD*%
D19*
%TO.C,R7*%
X78288000Y139265000D03*
X78288000Y138245000D03*
%TD*%
%TO.C,R7*%
X78288000Y95765000D03*
X78288000Y94745000D03*
%TD*%
%TO.C,R7*%
X78288000Y52265000D03*
X78288000Y51245000D03*
%TD*%
%TO.C,R7*%
X78288000Y8765000D03*
X78288000Y7745000D03*
%TD*%
%TO.C,R7*%
X18288000Y139265000D03*
X18288000Y138245000D03*
%TD*%
%TO.C,R7*%
X18288000Y95765000D03*
X18288000Y94745000D03*
%TD*%
%TO.C,R7*%
X18288000Y52265000D03*
X18288000Y51245000D03*
%TD*%
D25*
%TO.C,C22*%
X86416000Y143990000D03*
X86416000Y144950000D03*
%TD*%
%TO.C,C22*%
X86416000Y100490000D03*
X86416000Y101450000D03*
%TD*%
%TO.C,C22*%
X86416000Y56990000D03*
X86416000Y57950000D03*
%TD*%
%TO.C,C22*%
X86416000Y13490000D03*
X86416000Y14450000D03*
%TD*%
%TO.C,C22*%
X26416000Y143990000D03*
X26416000Y144950000D03*
%TD*%
%TO.C,C22*%
X26416000Y100490000D03*
X26416000Y101450000D03*
%TD*%
%TO.C,C22*%
X26416000Y56990000D03*
X26416000Y57950000D03*
%TD*%
D38*
%TO.C,Q1*%
X77938000Y150962000D03*
X77938000Y150312000D03*
X77938000Y149662000D03*
X76098000Y149662000D03*
X76098000Y150312000D03*
X76098000Y150962000D03*
%TD*%
%TO.C,Q1*%
X77938000Y107462000D03*
X77938000Y106812000D03*
X77938000Y106162000D03*
X76098000Y106162000D03*
X76098000Y106812000D03*
X76098000Y107462000D03*
%TD*%
%TO.C,Q1*%
X77938000Y63962000D03*
X77938000Y63312000D03*
X77938000Y62662000D03*
X76098000Y62662000D03*
X76098000Y63312000D03*
X76098000Y63962000D03*
%TD*%
%TO.C,Q1*%
X77938000Y20462000D03*
X77938000Y19812000D03*
X77938000Y19162000D03*
X76098000Y19162000D03*
X76098000Y19812000D03*
X76098000Y20462000D03*
%TD*%
%TO.C,Q1*%
X17938000Y150962000D03*
X17938000Y150312000D03*
X17938000Y149662000D03*
X16098000Y149662000D03*
X16098000Y150312000D03*
X16098000Y150962000D03*
%TD*%
%TO.C,Q1*%
X17938000Y107462000D03*
X17938000Y106812000D03*
X17938000Y106162000D03*
X16098000Y106162000D03*
X16098000Y106812000D03*
X16098000Y107462000D03*
%TD*%
%TO.C,Q1*%
X17938000Y63962000D03*
X17938000Y63312000D03*
X17938000Y62662000D03*
X16098000Y62662000D03*
X16098000Y63312000D03*
X16098000Y63962000D03*
%TD*%
D10*
%TO.C,C13*%
X76030000Y159202000D03*
X76990000Y159202000D03*
%TD*%
%TO.C,C13*%
X76030000Y115702000D03*
X76990000Y115702000D03*
%TD*%
%TO.C,C13*%
X76030000Y72202000D03*
X76990000Y72202000D03*
%TD*%
%TO.C,C13*%
X76030000Y28702000D03*
X76990000Y28702000D03*
%TD*%
%TO.C,C13*%
X16030000Y159202000D03*
X16990000Y159202000D03*
%TD*%
%TO.C,C13*%
X16030000Y115702000D03*
X16990000Y115702000D03*
%TD*%
%TO.C,C13*%
X16030000Y72202000D03*
X16990000Y72202000D03*
%TD*%
D39*
%TO.C,Q3*%
X106670000Y165060000D03*
X104770000Y165060000D03*
X105720000Y167160000D03*
%TD*%
%TO.C,Q3*%
X106670000Y121560000D03*
X104770000Y121560000D03*
X105720000Y123660000D03*
%TD*%
%TO.C,Q3*%
X106670000Y78060000D03*
X104770000Y78060000D03*
X105720000Y80160000D03*
%TD*%
%TO.C,Q3*%
X106670000Y34560000D03*
X104770000Y34560000D03*
X105720000Y36660000D03*
%TD*%
%TO.C,Q3*%
X46670000Y165060000D03*
X44770000Y165060000D03*
X45720000Y167160000D03*
%TD*%
%TO.C,Q3*%
X46670000Y121560000D03*
X44770000Y121560000D03*
X45720000Y123660000D03*
%TD*%
%TO.C,Q3*%
X46670000Y78060000D03*
X44770000Y78060000D03*
X45720000Y80160000D03*
%TD*%
D11*
%TO.C,R28*%
X100005000Y163137000D03*
X100005000Y164157000D03*
%TD*%
%TO.C,R28*%
X100005000Y119637000D03*
X100005000Y120657000D03*
%TD*%
%TO.C,R28*%
X100005000Y76137000D03*
X100005000Y77157000D03*
%TD*%
%TO.C,R28*%
X100005000Y32637000D03*
X100005000Y33657000D03*
%TD*%
%TO.C,R28*%
X40005000Y163137000D03*
X40005000Y164157000D03*
%TD*%
%TO.C,R28*%
X40005000Y119637000D03*
X40005000Y120657000D03*
%TD*%
%TO.C,R28*%
X40005000Y76137000D03*
X40005000Y77157000D03*
%TD*%
D24*
%TO.C,R17*%
X77020000Y158186000D03*
X76000000Y158186000D03*
%TD*%
%TO.C,R17*%
X77020000Y114686000D03*
X76000000Y114686000D03*
%TD*%
%TO.C,R17*%
X77020000Y71186000D03*
X76000000Y71186000D03*
%TD*%
%TO.C,R17*%
X77020000Y27686000D03*
X76000000Y27686000D03*
%TD*%
%TO.C,R17*%
X17020000Y158186000D03*
X16000000Y158186000D03*
%TD*%
%TO.C,R17*%
X17020000Y114686000D03*
X16000000Y114686000D03*
%TD*%
%TO.C,R17*%
X17020000Y71186000D03*
X16000000Y71186000D03*
%TD*%
D22*
%TO.C,R26*%
X75748000Y164536000D03*
X76768000Y164536000D03*
%TD*%
%TO.C,R26*%
X75748000Y121036000D03*
X76768000Y121036000D03*
%TD*%
%TO.C,R26*%
X75748000Y77536000D03*
X76768000Y77536000D03*
%TD*%
%TO.C,R26*%
X75748000Y34036000D03*
X76768000Y34036000D03*
%TD*%
%TO.C,R26*%
X15748000Y164536000D03*
X16768000Y164536000D03*
%TD*%
%TO.C,R26*%
X15748000Y121036000D03*
X16768000Y121036000D03*
%TD*%
%TO.C,R26*%
X15748000Y77536000D03*
X16768000Y77536000D03*
%TD*%
D32*
%TO.C,C17*%
X99116000Y136863000D03*
X99116000Y135313000D03*
%TD*%
%TO.C,C17*%
X99116000Y93363000D03*
X99116000Y91813000D03*
%TD*%
%TO.C,C17*%
X99116000Y49863000D03*
X99116000Y48313000D03*
%TD*%
%TO.C,C17*%
X99116000Y6363000D03*
X99116000Y4813000D03*
%TD*%
%TO.C,C17*%
X39116000Y136863000D03*
X39116000Y135313000D03*
%TD*%
%TO.C,C17*%
X39116000Y93363000D03*
X39116000Y91813000D03*
%TD*%
%TO.C,C17*%
X39116000Y49863000D03*
X39116000Y48313000D03*
%TD*%
D10*
%TO.C,C25*%
X93048000Y138120000D03*
X94008000Y138120000D03*
%TD*%
%TO.C,C25*%
X93048000Y94620000D03*
X94008000Y94620000D03*
%TD*%
%TO.C,C25*%
X93048000Y51120000D03*
X94008000Y51120000D03*
%TD*%
%TO.C,C25*%
X93048000Y7620000D03*
X94008000Y7620000D03*
%TD*%
%TO.C,C25*%
X33048000Y138120000D03*
X34008000Y138120000D03*
%TD*%
%TO.C,C25*%
X33048000Y94620000D03*
X34008000Y94620000D03*
%TD*%
%TO.C,C25*%
X33048000Y51120000D03*
X34008000Y51120000D03*
%TD*%
D15*
%TO.C,C15*%
X80307000Y161742000D03*
X81857000Y161742000D03*
%TD*%
%TO.C,C15*%
X80307000Y118242000D03*
X81857000Y118242000D03*
%TD*%
%TO.C,C15*%
X80307000Y74742000D03*
X81857000Y74742000D03*
%TD*%
%TO.C,C15*%
X80307000Y31242000D03*
X81857000Y31242000D03*
%TD*%
%TO.C,C15*%
X20307000Y161742000D03*
X21857000Y161742000D03*
%TD*%
%TO.C,C15*%
X20307000Y118242000D03*
X21857000Y118242000D03*
%TD*%
%TO.C,C15*%
X20307000Y74742000D03*
X21857000Y74742000D03*
%TD*%
D11*
%TO.C,R14*%
X69652000Y167328000D03*
X69652000Y168348000D03*
%TD*%
%TO.C,R14*%
X69652000Y123828000D03*
X69652000Y124848000D03*
%TD*%
%TO.C,R14*%
X69652000Y80328000D03*
X69652000Y81348000D03*
%TD*%
%TO.C,R14*%
X69652000Y36828000D03*
X69652000Y37848000D03*
%TD*%
%TO.C,R14*%
X9652000Y167328000D03*
X9652000Y168348000D03*
%TD*%
%TO.C,R14*%
X9652000Y123828000D03*
X9652000Y124848000D03*
%TD*%
%TO.C,R14*%
X9652000Y80328000D03*
X9652000Y81348000D03*
%TD*%
D24*
%TO.C,R13*%
X106230000Y168600000D03*
X105210000Y168600000D03*
%TD*%
%TO.C,R13*%
X106230000Y125100000D03*
X105210000Y125100000D03*
%TD*%
%TO.C,R13*%
X106230000Y81600000D03*
X105210000Y81600000D03*
%TD*%
%TO.C,R13*%
X106230000Y38100000D03*
X105210000Y38100000D03*
%TD*%
%TO.C,R13*%
X46230000Y168600000D03*
X45210000Y168600000D03*
%TD*%
%TO.C,R13*%
X46230000Y125100000D03*
X45210000Y125100000D03*
%TD*%
%TO.C,R13*%
X46230000Y81600000D03*
X45210000Y81600000D03*
%TD*%
D40*
%TO.C,R30*%
X100513000Y143645000D03*
X100513000Y145295000D03*
%TD*%
%TO.C,R30*%
X100513000Y100145000D03*
X100513000Y101795000D03*
%TD*%
%TO.C,R30*%
X100513000Y56645000D03*
X100513000Y58295000D03*
%TD*%
%TO.C,R30*%
X100513000Y13145000D03*
X100513000Y14795000D03*
%TD*%
%TO.C,R30*%
X40513000Y143645000D03*
X40513000Y145295000D03*
%TD*%
%TO.C,R30*%
X40513000Y100145000D03*
X40513000Y101795000D03*
%TD*%
%TO.C,R30*%
X40513000Y56645000D03*
X40513000Y58295000D03*
%TD*%
D14*
%TO.C,C2*%
X80320000Y139235000D03*
X80320000Y138275000D03*
%TD*%
%TO.C,C2*%
X80320000Y95735000D03*
X80320000Y94775000D03*
%TD*%
%TO.C,C2*%
X80320000Y52235000D03*
X80320000Y51275000D03*
%TD*%
%TO.C,C2*%
X80320000Y8735000D03*
X80320000Y7775000D03*
%TD*%
%TO.C,C2*%
X20320000Y139235000D03*
X20320000Y138275000D03*
%TD*%
%TO.C,C2*%
X20320000Y95735000D03*
X20320000Y94775000D03*
%TD*%
%TO.C,C2*%
X20320000Y52235000D03*
X20320000Y51275000D03*
%TD*%
%TO.C,C26*%
X83749000Y161460000D03*
X83749000Y160500000D03*
%TD*%
%TO.C,C26*%
X83749000Y117960000D03*
X83749000Y117000000D03*
%TD*%
%TO.C,C26*%
X83749000Y74460000D03*
X83749000Y73500000D03*
%TD*%
%TO.C,C26*%
X83749000Y30960000D03*
X83749000Y30000000D03*
%TD*%
%TO.C,C26*%
X23749000Y161460000D03*
X23749000Y160500000D03*
%TD*%
%TO.C,C26*%
X23749000Y117960000D03*
X23749000Y117000000D03*
%TD*%
%TO.C,C26*%
X23749000Y74460000D03*
X23749000Y73500000D03*
%TD*%
D24*
%TO.C,R12*%
X106230000Y163774000D03*
X105210000Y163774000D03*
%TD*%
%TO.C,R12*%
X106230000Y120274000D03*
X105210000Y120274000D03*
%TD*%
%TO.C,R12*%
X106230000Y76774000D03*
X105210000Y76774000D03*
%TD*%
%TO.C,R12*%
X106230000Y33274000D03*
X105210000Y33274000D03*
%TD*%
%TO.C,R12*%
X46230000Y163774000D03*
X45210000Y163774000D03*
%TD*%
%TO.C,R12*%
X46230000Y120274000D03*
X45210000Y120274000D03*
%TD*%
%TO.C,R12*%
X46230000Y76774000D03*
X45210000Y76774000D03*
%TD*%
D22*
%TO.C,R23*%
X75746000Y165552000D03*
X76766000Y165552000D03*
%TD*%
%TO.C,R23*%
X75746000Y122052000D03*
X76766000Y122052000D03*
%TD*%
%TO.C,R23*%
X75746000Y78552000D03*
X76766000Y78552000D03*
%TD*%
%TO.C,R23*%
X75746000Y35052000D03*
X76766000Y35052000D03*
%TD*%
%TO.C,R23*%
X15746000Y165552000D03*
X16766000Y165552000D03*
%TD*%
%TO.C,R23*%
X15746000Y122052000D03*
X16766000Y122052000D03*
%TD*%
%TO.C,R23*%
X15746000Y78552000D03*
X16766000Y78552000D03*
%TD*%
D14*
%TO.C,C28*%
X91750000Y133012000D03*
X91750000Y132052000D03*
%TD*%
%TO.C,C28*%
X91750000Y89512000D03*
X91750000Y88552000D03*
%TD*%
%TO.C,C28*%
X91750000Y46012000D03*
X91750000Y45052000D03*
%TD*%
%TO.C,C28*%
X91750000Y2512000D03*
X91750000Y1552000D03*
%TD*%
%TO.C,C28*%
X31750000Y133012000D03*
X31750000Y132052000D03*
%TD*%
%TO.C,C28*%
X31750000Y89512000D03*
X31750000Y88552000D03*
%TD*%
%TO.C,C28*%
X31750000Y46012000D03*
X31750000Y45052000D03*
%TD*%
D11*
%TO.C,R34*%
X104704000Y148278000D03*
X104704000Y149298000D03*
%TD*%
%TO.C,R34*%
X104704000Y104778000D03*
X104704000Y105798000D03*
%TD*%
%TO.C,R34*%
X104704000Y61278000D03*
X104704000Y62298000D03*
%TD*%
%TO.C,R34*%
X104704000Y17778000D03*
X104704000Y18798000D03*
%TD*%
%TO.C,R34*%
X44704000Y148278000D03*
X44704000Y149298000D03*
%TD*%
%TO.C,R34*%
X44704000Y104778000D03*
X44704000Y105798000D03*
%TD*%
%TO.C,R34*%
X44704000Y61278000D03*
X44704000Y62298000D03*
%TD*%
D24*
%TO.C,R2*%
X74734000Y150820000D03*
X73714000Y150820000D03*
%TD*%
%TO.C,R2*%
X74734000Y107320000D03*
X73714000Y107320000D03*
%TD*%
%TO.C,R2*%
X74734000Y63820000D03*
X73714000Y63820000D03*
%TD*%
%TO.C,R2*%
X74734000Y20320000D03*
X73714000Y20320000D03*
%TD*%
%TO.C,R2*%
X14734000Y150820000D03*
X13714000Y150820000D03*
%TD*%
%TO.C,R2*%
X14734000Y107320000D03*
X13714000Y107320000D03*
%TD*%
%TO.C,R2*%
X14734000Y63820000D03*
X13714000Y63820000D03*
%TD*%
D10*
%TO.C,C23*%
X85936000Y138120000D03*
X86896000Y138120000D03*
%TD*%
%TO.C,C23*%
X85936000Y94620000D03*
X86896000Y94620000D03*
%TD*%
%TO.C,C23*%
X85936000Y51120000D03*
X86896000Y51120000D03*
%TD*%
%TO.C,C23*%
X85936000Y7620000D03*
X86896000Y7620000D03*
%TD*%
%TO.C,C23*%
X25936000Y138120000D03*
X26896000Y138120000D03*
%TD*%
%TO.C,C23*%
X25936000Y94620000D03*
X26896000Y94620000D03*
%TD*%
%TO.C,C23*%
X25936000Y51120000D03*
X26896000Y51120000D03*
%TD*%
D25*
%TO.C,C8*%
X80320000Y142085000D03*
X80320000Y143045000D03*
%TD*%
%TO.C,C8*%
X80320000Y98585000D03*
X80320000Y99545000D03*
%TD*%
%TO.C,C8*%
X80320000Y55085000D03*
X80320000Y56045000D03*
%TD*%
%TO.C,C8*%
X80320000Y11585000D03*
X80320000Y12545000D03*
%TD*%
%TO.C,C8*%
X20320000Y142085000D03*
X20320000Y143045000D03*
%TD*%
%TO.C,C8*%
X20320000Y98585000D03*
X20320000Y99545000D03*
%TD*%
%TO.C,C8*%
X20320000Y55085000D03*
X20320000Y56045000D03*
%TD*%
D14*
%TO.C,C1*%
X79304000Y139235000D03*
X79304000Y138275000D03*
%TD*%
%TO.C,C1*%
X79304000Y95735000D03*
X79304000Y94775000D03*
%TD*%
%TO.C,C1*%
X79304000Y52235000D03*
X79304000Y51275000D03*
%TD*%
%TO.C,C1*%
X79304000Y8735000D03*
X79304000Y7775000D03*
%TD*%
%TO.C,C1*%
X19304000Y139235000D03*
X19304000Y138275000D03*
%TD*%
%TO.C,C1*%
X19304000Y95735000D03*
X19304000Y94775000D03*
%TD*%
%TO.C,C1*%
X19304000Y52235000D03*
X19304000Y51275000D03*
%TD*%
%TO.C,C27*%
X90480000Y133012000D03*
X90480000Y132052000D03*
%TD*%
%TO.C,C27*%
X90480000Y89512000D03*
X90480000Y88552000D03*
%TD*%
%TO.C,C27*%
X90480000Y46012000D03*
X90480000Y45052000D03*
%TD*%
%TO.C,C27*%
X90480000Y2512000D03*
X90480000Y1552000D03*
%TD*%
%TO.C,C27*%
X30480000Y133012000D03*
X30480000Y132052000D03*
%TD*%
%TO.C,C27*%
X30480000Y89512000D03*
X30480000Y88552000D03*
%TD*%
%TO.C,C27*%
X30480000Y46012000D03*
X30480000Y45052000D03*
%TD*%
%TO.C,C27*%
X30480000Y2512000D03*
X30480000Y1552000D03*
%TD*%
%TO.C,C1*%
X19304000Y8735000D03*
X19304000Y7775000D03*
%TD*%
D25*
%TO.C,C8*%
X20320000Y11585000D03*
X20320000Y12545000D03*
%TD*%
D10*
%TO.C,C23*%
X25936000Y7620000D03*
X26896000Y7620000D03*
%TD*%
D24*
%TO.C,R2*%
X14734000Y20320000D03*
X13714000Y20320000D03*
%TD*%
D11*
%TO.C,R34*%
X44704000Y17778000D03*
X44704000Y18798000D03*
%TD*%
D14*
%TO.C,C28*%
X31750000Y2512000D03*
X31750000Y1552000D03*
%TD*%
D22*
%TO.C,R23*%
X15746000Y35052000D03*
X16766000Y35052000D03*
%TD*%
D24*
%TO.C,R12*%
X46230000Y33274000D03*
X45210000Y33274000D03*
%TD*%
D14*
%TO.C,C26*%
X23749000Y30960000D03*
X23749000Y30000000D03*
%TD*%
%TO.C,C2*%
X20320000Y8735000D03*
X20320000Y7775000D03*
%TD*%
D40*
%TO.C,R30*%
X40513000Y13145000D03*
X40513000Y14795000D03*
%TD*%
D24*
%TO.C,R13*%
X46230000Y38100000D03*
X45210000Y38100000D03*
%TD*%
D11*
%TO.C,R14*%
X9652000Y36828000D03*
X9652000Y37848000D03*
%TD*%
D15*
%TO.C,C15*%
X20307000Y31242000D03*
X21857000Y31242000D03*
%TD*%
D10*
%TO.C,C25*%
X33048000Y7620000D03*
X34008000Y7620000D03*
%TD*%
D32*
%TO.C,C17*%
X39116000Y6363000D03*
X39116000Y4813000D03*
%TD*%
D22*
%TO.C,R26*%
X15748000Y34036000D03*
X16768000Y34036000D03*
%TD*%
D24*
%TO.C,R17*%
X17020000Y27686000D03*
X16000000Y27686000D03*
%TD*%
D11*
%TO.C,R28*%
X40005000Y32637000D03*
X40005000Y33657000D03*
%TD*%
D39*
%TO.C,Q3*%
X46670000Y34560000D03*
X44770000Y34560000D03*
X45720000Y36660000D03*
%TD*%
D10*
%TO.C,C13*%
X16030000Y28702000D03*
X16990000Y28702000D03*
%TD*%
D38*
%TO.C,Q1*%
X17938000Y20462000D03*
X17938000Y19812000D03*
X17938000Y19162000D03*
X16098000Y19162000D03*
X16098000Y19812000D03*
X16098000Y20462000D03*
%TD*%
D25*
%TO.C,C22*%
X26416000Y13490000D03*
X26416000Y14450000D03*
%TD*%
D19*
%TO.C,R7*%
X18288000Y8765000D03*
X18288000Y7745000D03*
%TD*%
D11*
%TO.C,R15*%
X11176000Y36828000D03*
X11176000Y37848000D03*
%TD*%
D37*
%TO.C,Q2*%
X47060000Y16830000D03*
X47060000Y17780000D03*
X47060000Y18730000D03*
X49460000Y18730000D03*
X49460000Y17780000D03*
X49460000Y16830000D03*
%TD*%
D12*
%TO.C,U11*%
X25466000Y11968100D03*
X26416000Y11968100D03*
X27366000Y11968100D03*
X27366000Y9367900D03*
X25466000Y9367900D03*
%TD*%
D14*
%TO.C,C7*%
X29972000Y14450000D03*
X29972000Y13490000D03*
%TD*%
D31*
%TO.C,D5*%
X38220000Y19812000D03*
X40520000Y19812000D03*
%TD*%
D25*
%TO.C,C11*%
X14224000Y36858000D03*
X14224000Y37818000D03*
%TD*%
D19*
%TO.C,R19*%
X17272000Y37848000D03*
X17272000Y36828000D03*
%TD*%
D22*
%TO.C,R27*%
X15748000Y33020000D03*
X16768000Y33020000D03*
%TD*%
D10*
%TO.C,C18*%
X43716000Y19812000D03*
X44676000Y19812000D03*
%TD*%
D34*
%TO.C,C4*%
X8354000Y14986000D03*
X7394000Y14986000D03*
%TD*%
D36*
%TO.C,R16*%
X48260000Y36385000D03*
X48260000Y34735000D03*
%TD*%
D19*
%TO.C,R29*%
X39116000Y14734000D03*
X39116000Y13714000D03*
%TD*%
D11*
%TO.C,R33*%
X43688000Y17778000D03*
X43688000Y18798000D03*
%TD*%
D19*
%TO.C,R8*%
X17272000Y8765000D03*
X17272000Y7745000D03*
%TD*%
D35*
%TO.C,U13*%
X22225000Y38614000D03*
X23495000Y38614000D03*
X24765000Y38614000D03*
X26035000Y38614000D03*
X27305000Y38614000D03*
X28575000Y38614000D03*
X29845000Y38614000D03*
X31115000Y38614000D03*
X31115000Y33014000D03*
X29845000Y33014000D03*
X28575000Y33014000D03*
X27305000Y33014000D03*
X26035000Y33014000D03*
X24765000Y33014000D03*
X23495000Y33014000D03*
X22225000Y33014000D03*
%TD*%
D24*
%TO.C,R3*%
X14734000Y19304000D03*
X13714000Y19304000D03*
%TD*%
D34*
%TO.C,C12*%
X6703000Y32258000D03*
X5743000Y32258000D03*
%TD*%
D32*
%TO.C,C29*%
X33020000Y3328000D03*
X33020000Y1778000D03*
%TD*%
D33*
%TO.C,L1*%
X28207000Y19685000D03*
X26657000Y19685000D03*
%TD*%
D11*
%TO.C,R24*%
X12192000Y36828000D03*
X12192000Y37848000D03*
%TD*%
D24*
%TO.C,R5*%
X51818000Y33274000D03*
X50798000Y33274000D03*
%TD*%
D32*
%TO.C,C20*%
X51054000Y18555000D03*
X51054000Y17005000D03*
%TD*%
D11*
%TO.C,R37*%
X38989000Y32637000D03*
X38989000Y33657000D03*
%TD*%
D31*
%TO.C,D4*%
X38220000Y17780000D03*
X40520000Y17780000D03*
%TD*%
D10*
%TO.C,C3*%
X42700000Y1778000D03*
X43660000Y1778000D03*
%TD*%
D14*
%TO.C,C30*%
X9525000Y28166000D03*
X9525000Y27206000D03*
%TD*%
D30*
%TO.C,U3*%
X6344000Y16637000D03*
X6344000Y17907000D03*
X6344000Y19177000D03*
X6344000Y20447000D03*
X6344000Y21717000D03*
X6344000Y22987000D03*
X6344000Y24257000D03*
X6344000Y25527000D03*
X11944000Y25527000D03*
X11944000Y24257000D03*
X11944000Y22987000D03*
X11944000Y21717000D03*
X11944000Y20447000D03*
X11944000Y19177000D03*
X11944000Y17907000D03*
X11944000Y16637000D03*
%TD*%
D24*
%TO.C,R4*%
X18036000Y11176000D03*
X17016000Y11176000D03*
%TD*%
D11*
%TO.C,R32*%
X37084000Y13714000D03*
X37084000Y14734000D03*
%TD*%
D28*
%TO.C,J3*%
X15621000Y9168000D03*
X15621000Y10168000D03*
X15621000Y11168000D03*
X15621000Y12168000D03*
D29*
X11946000Y13468000D03*
X11946000Y7868000D03*
%TD*%
D27*
%TO.C,Y1*%
X16343000Y31234000D03*
X17693000Y30234000D03*
X16343000Y30234000D03*
X17693000Y31234000D03*
%TD*%
D19*
%TO.C,R25*%
X18923000Y31244000D03*
X18923000Y30224000D03*
%TD*%
D14*
%TO.C,C19*%
X45720000Y18768000D03*
X45720000Y17808000D03*
%TD*%
%TO.C,C16*%
X40513000Y10640000D03*
X40513000Y9680000D03*
%TD*%
D26*
%TO.C,TR1*%
X19900000Y33928000D03*
X18200000Y33928000D03*
X19900000Y33128000D03*
X18200000Y33128000D03*
%TD*%
D22*
%TO.C,R10*%
X36701000Y6350000D03*
X37721000Y6350000D03*
%TD*%
D25*
%TO.C,C10*%
X16256000Y36858000D03*
X16256000Y37818000D03*
%TD*%
D24*
%TO.C,R6*%
X18036000Y12192000D03*
X17016000Y12192000D03*
%TD*%
D12*
%TO.C,U12*%
X32578000Y11968100D03*
X33528000Y11968100D03*
X34478000Y11968100D03*
X34478000Y9367900D03*
X32578000Y9367900D03*
%TD*%
D23*
%TO.C,D3*%
X42164000Y15360000D03*
X42164000Y17660000D03*
%TD*%
D22*
%TO.C,R11*%
X40130000Y1778000D03*
X41150000Y1778000D03*
%TD*%
D20*
%TO.C,U9*%
X13176000Y29508000D03*
X12676000Y29508000D03*
X12176000Y29508000D03*
X11676000Y29508000D03*
X11176000Y29508000D03*
X10676000Y29508000D03*
X10176000Y29508000D03*
X9676000Y29508000D03*
X9176000Y29508000D03*
D21*
X8426000Y30258000D03*
X8426000Y30758000D03*
X8426000Y31258000D03*
X8426000Y31758000D03*
X8426000Y32258000D03*
X8426000Y32758000D03*
X8426000Y33258000D03*
X8426000Y33758000D03*
X8426000Y34258000D03*
D20*
X9176000Y35008000D03*
X9676000Y35008000D03*
X10176000Y35008000D03*
X10676000Y35008000D03*
X11176000Y35008000D03*
X11676000Y35008000D03*
X12176000Y35008000D03*
X12676000Y35008000D03*
X13176000Y35008000D03*
D21*
X13926000Y34258000D03*
X13926000Y33758000D03*
X13926000Y33258000D03*
X13926000Y32758000D03*
X13926000Y32258000D03*
X13926000Y31758000D03*
X13926000Y31258000D03*
X13926000Y30758000D03*
X13926000Y30258000D03*
%TD*%
D19*
%TO.C,R21*%
X13208000Y37848000D03*
X13208000Y36828000D03*
%TD*%
D11*
%TO.C,R1*%
X20320000Y9652000D03*
X20320000Y10672000D03*
%TD*%
%TO.C,R31*%
X38100000Y13714000D03*
X38100000Y14734000D03*
%TD*%
D18*
%TO.C,D2*%
X38085000Y39408000D03*
X38735000Y39408000D03*
X39385000Y39408000D03*
X39385000Y37808000D03*
X38085000Y37808000D03*
%TD*%
D16*
%TO.C,J2*%
X43800000Y9160000D03*
X43800000Y11160000D03*
D17*
X49000000Y6760000D03*
X49000000Y13560000D03*
%TD*%
D10*
%TO.C,C21*%
X29492000Y7620000D03*
X30452000Y7620000D03*
%TD*%
%TO.C,C24*%
X33048000Y13970000D03*
X34008000Y13970000D03*
%TD*%
%TO.C,C6*%
X33048000Y14986000D03*
X34008000Y14986000D03*
%TD*%
D15*
%TO.C,C14*%
X20307000Y29718000D03*
X21857000Y29718000D03*
%TD*%
D14*
%TO.C,C9*%
X8509000Y28166000D03*
X8509000Y27206000D03*
%TD*%
D11*
%TO.C,R20*%
X15240000Y36828000D03*
X15240000Y37848000D03*
%TD*%
%TO.C,R38*%
X37973000Y32637000D03*
X37973000Y33657000D03*
%TD*%
D13*
%TO.C,R35*%
X49085000Y20828000D03*
X47435000Y20828000D03*
%TD*%
D12*
%TO.C,U5*%
X29022000Y11968100D03*
X29972000Y11968100D03*
X30922000Y11968100D03*
X30922000Y9367900D03*
X29022000Y9367900D03*
%TD*%
D11*
%TO.C,R36*%
X51054000Y19810000D03*
X51054000Y20830000D03*
%TD*%
D10*
%TO.C,C5*%
X9934000Y14986000D03*
X10894000Y14986000D03*
%TD*%
M02*
