M48
; DRILL file {KiCad 8.0.5} date 2024-10-08T14:56:37+0100
; FORMAT={-:-/ absolute / metric / decimal}
; #@! TF.CreationDate,2024-10-08T14:56:37+01:00
; #@! TF.GenerationSoftware,Kicad,Pcbnew,8.0.5
; #@! TF.FileFunction,MixedPlating,1,4
FMAT,2
METRIC
; #@! TA.AperFunction,Plated,PTH,ViaDrill
T1C0.300
; #@! TA.AperFunction,Plated,PTH,ComponentDrill
T2C1.016
%
G90
G05
T1
X2.286Y144.47
X2.286Y100.97
X2.286Y57.47
X2.286Y13.97
X2.794Y149.55
X2.794Y148.28
X2.794Y106.05
X2.794Y104.78
X2.794Y62.55
X2.794Y61.28
X2.794Y19.05
X2.794Y17.78
X3.162Y165.298
X3.162Y121.798
X3.162Y78.298
X3.162Y34.798
X3.175Y166.06
X3.175Y164.536
X3.175Y136.85
X3.175Y122.56
X3.175Y121.036
X3.175Y93.35
X3.175Y79.06
X3.175Y77.536
X3.175Y49.85
X3.175Y35.56
X3.175Y34.036
X3.175Y6.35
X3.683Y163.901
X3.683Y120.401
X3.683Y76.901
X3.683Y33.401
X3.81Y171.14
X3.81Y169.87
X3.81Y167.33
X3.81Y127.64
X3.81Y126.37
X3.81Y123.83
X3.81Y84.14
X3.81Y82.87
X3.81Y80.33
X3.81Y40.64
X3.81Y39.37
X3.81Y36.83
X5.715Y163.647
X5.715Y120.147
X5.715Y76.647
X5.715Y33.147
X5.842Y158.44
X5.842Y144.978
X5.842Y143.835
X5.842Y142.565
X5.842Y114.94
X5.842Y101.478
X5.842Y100.335
X5.842Y99.065
X5.842Y71.44
X5.842Y57.978
X5.842Y56.835
X5.842Y55.565
X5.842Y27.94
X5.842Y14.478
X5.842Y13.335
X5.842Y12.065
X5.969Y139.022
X5.969Y95.522
X5.969Y52.022
X5.969Y8.522
X6.35Y146.248
X6.35Y102.748
X6.35Y59.248
X6.35Y15.748
X6.985Y163.647
X6.985Y161.615
X6.985Y160.726
X6.985Y120.147
X6.985Y118.115
X6.985Y117.226
X6.985Y76.647
X6.985Y74.615
X6.985Y73.726
X6.985Y33.147
X6.985Y31.115
X6.985Y30.226
X7.366Y143.454
X7.366Y99.954
X7.366Y56.454
X7.366Y12.954
X7.493Y165.679
X7.493Y122.179
X7.493Y78.679
X7.493Y35.179
X7.62Y157.678
X7.62Y114.178
X7.62Y70.678
X7.62Y27.178
X7.671Y148.458
X7.671Y104.958
X7.671Y61.458
X7.671Y17.958
X7.747Y154.376
X7.747Y110.876
X7.747Y67.376
X7.747Y23.876
X7.861Y153.487
X7.861Y109.987
X7.861Y66.487
X7.861Y22.987
X8.128Y142.692
X8.128Y99.192
X8.128Y55.692
X8.128Y12.192
X8.255Y139.136
X8.255Y95.636
X8.255Y52.136
X8.255Y8.636
X8.382Y147.137
X8.382Y103.637
X8.382Y60.137
X8.382Y16.637
X8.509Y166.949
X8.509Y156.281
X8.509Y123.449
X8.509Y112.781
X8.509Y79.949
X8.509Y69.281
X8.509Y36.449
X8.509Y25.781
X8.636Y151.836
X8.636Y108.336
X8.636Y64.836
X8.636Y21.336
X8.903Y153.487
X8.903Y109.987
X8.903Y66.487
X8.903Y22.987
X9.525Y154.249
X9.525Y110.749
X9.525Y67.249
X9.525Y23.749
X9.652Y169.108
X9.652Y125.608
X9.652Y82.108
X9.652Y38.608
X10.16Y152.09
X10.16Y108.59
X10.16Y65.09
X10.16Y21.59
X10.236Y150.896
X10.236Y107.396
X10.236Y63.896
X10.236Y20.396
X10.414Y158.03
X10.414Y114.53
X10.414Y71.03
X10.414Y27.53
X10.668Y156.154
X10.668Y147.137
X10.668Y112.654
X10.668Y103.637
X10.668Y69.154
X10.668Y60.137
X10.668Y25.654
X10.668Y16.637
X11.176Y158.948
X11.176Y115.448
X11.176Y71.948
X11.176Y28.448
X11.684Y145.486
X11.684Y101.986
X11.684Y58.486
X11.684Y14.986
X12.192Y169.108
X12.192Y157.551
X12.192Y125.608
X12.192Y114.051
X12.192Y82.108
X12.192Y70.551
X12.192Y38.608
X12.192Y27.051
X13.208Y169.108
X13.208Y125.608
X13.208Y82.108
X13.208Y38.608
X13.589Y169.831
X13.589Y126.331
X13.589Y82.831
X13.589Y39.331
X13.716Y156.154
X13.716Y112.654
X13.716Y69.154
X13.716Y25.654
X13.97Y158.948
X13.97Y153.36
X13.97Y142.668
X13.97Y141.668
X13.97Y115.448
X13.97Y109.86
X13.97Y99.168
X13.97Y98.168
X13.97Y71.948
X13.97Y66.36
X13.97Y55.668
X13.97Y54.668
X13.97Y28.448
X13.97Y22.86
X13.97Y12.168
X13.97Y11.168
X14.097Y157.805
X14.097Y114.305
X14.097Y70.805
X14.097Y27.305
X14.351Y139.644
X14.351Y96.144
X14.351Y52.644
X14.351Y9.144
X14.478Y169.831
X14.478Y140.66
X14.478Y126.331
X14.478Y97.16
X14.478Y82.831
X14.478Y53.66
X14.478Y39.331
X14.478Y10.16
X14.91Y164.46
X14.91Y120.96
X14.91Y77.46
X14.91Y33.96
X14.986Y154.884
X14.986Y151.823
X14.986Y144.089
X14.986Y111.384
X14.986Y108.323
X14.986Y100.589
X14.986Y67.884
X14.986Y64.823
X14.986Y57.089
X14.986Y24.384
X14.986Y21.323
X14.986Y13.589
X15.24Y169.831
X15.24Y126.331
X15.24Y82.831
X15.24Y39.331
X15.367Y156.535
X15.367Y113.035
X15.367Y69.535
X15.367Y26.035
X15.621Y152.979
X15.621Y109.479
X15.621Y65.979
X15.621Y22.479
X15.748Y164.536
X15.748Y121.036
X15.748Y77.536
X15.748Y34.036
X16.129Y153.741
X16.129Y110.241
X16.129Y66.741
X16.129Y23.241
X16.383Y144.089
X16.383Y100.589
X16.383Y57.089
X16.383Y13.589
X16.637Y155.265
X16.637Y111.765
X16.637Y68.265
X16.637Y24.765
X16.764Y164.536
X16.764Y140.66
X16.764Y121.036
X16.764Y97.16
X16.764Y77.536
X16.764Y53.66
X16.764Y34.036
X16.764Y10.16
X16.891Y151.823
X16.891Y108.323
X16.891Y64.823
X16.891Y21.323
X17.145Y168.346
X17.145Y167.063
X17.145Y124.846
X17.145Y123.563
X17.145Y81.346
X17.145Y80.063
X17.145Y37.846
X17.145Y36.563
X17.653Y154.249
X17.653Y148.788
X17.653Y110.749
X17.653Y105.288
X17.653Y67.249
X17.653Y61.788
X17.653Y23.749
X17.653Y18.288
X17.78Y169.742
X17.78Y126.242
X17.78Y82.742
X17.78Y39.242
X17.907Y156.141
X17.907Y112.641
X17.907Y69.141
X17.907Y25.641
X18.034Y158.313
X18.034Y152.598
X18.034Y114.813
X18.034Y109.098
X18.034Y71.313
X18.034Y65.598
X18.034Y27.813
X18.034Y22.098
X18.161Y157.297
X18.161Y113.797
X18.161Y70.297
X18.161Y26.797
X18.288Y140.66
X18.288Y97.16
X18.288Y53.66
X18.288Y10.16
X18.542Y164.536
X18.542Y143.835
X18.542Y121.036
X18.542Y100.335
X18.542Y77.536
X18.542Y56.835
X18.542Y34.036
X18.542Y13.335
X18.796Y155.773
X18.796Y112.273
X18.796Y68.773
X18.796Y25.273
X18.923Y157.805
X18.923Y114.305
X18.923Y70.805
X18.923Y27.305
X19.05Y152.09
X19.05Y108.59
X19.05Y65.09
X19.05Y21.59
X19.304Y142.438
X19.304Y98.938
X19.304Y55.438
X19.304Y11.938
X19.558Y158.44
X19.558Y114.94
X19.558Y71.44
X19.558Y27.94
X19.618Y146.816
X19.618Y103.316
X19.618Y59.816
X19.618Y16.316
X19.685Y147.859
X19.685Y104.359
X19.685Y60.859
X19.685Y17.359
X19.939Y164.536
X19.939Y121.036
X19.939Y77.536
X19.939Y34.036
X20.066Y170.759
X20.066Y127.259
X20.066Y83.759
X20.066Y40.259
X20.193Y148.407
X20.193Y104.907
X20.193Y61.407
X20.193Y17.907
X20.32Y155.9
X20.32Y151.074
X20.32Y112.4
X20.32Y107.574
X20.32Y68.9
X20.32Y64.074
X20.32Y25.4
X20.32Y20.574
X20.828Y170.759
X20.828Y127.259
X20.828Y83.759
X20.828Y40.259
X20.955Y163.647
X20.955Y162.898
X20.955Y120.147
X20.955Y119.398
X20.955Y76.647
X20.955Y75.898
X20.955Y33.147
X20.955Y32.398
X21.082Y158.453
X21.082Y147.137
X21.082Y143.581
X21.082Y114.953
X21.082Y103.637
X21.082Y100.081
X21.082Y71.453
X21.082Y60.137
X21.082Y56.581
X21.082Y27.953
X21.082Y16.637
X21.082Y13.081
X21.209Y150.132
X21.209Y141.295
X21.209Y140.406
X21.209Y139.009
X21.209Y106.632
X21.209Y97.795
X21.209Y96.906
X21.209Y95.509
X21.209Y63.132
X21.209Y54.295
X21.209Y53.406
X21.209Y52.009
X21.209Y19.632
X21.209Y10.795
X21.209Y9.906
X21.209Y8.509
X22.225Y163.266
X22.225Y119.766
X22.225Y76.266
X22.225Y32.766
X22.86Y167.33
X22.86Y166.06
X22.86Y164.79
X22.86Y123.83
X22.86Y122.56
X22.86Y121.29
X22.86Y80.33
X22.86Y79.06
X22.86Y77.79
X22.86Y36.83
X22.86Y35.56
X22.86Y34.29
X23.368Y135.58
X23.368Y134.183
X23.368Y131.77
X23.368Y92.08
X23.368Y90.683
X23.368Y88.27
X23.368Y48.58
X23.368Y47.183
X23.368Y44.77
X23.368Y5.08
X23.368Y3.683
X23.368Y1.27
X23.381Y136.469
X23.381Y92.969
X23.381Y49.469
X23.381Y5.969
X23.99Y153.995
X23.99Y152.598
X23.99Y133.167
X23.99Y110.495
X23.99Y109.098
X23.99Y89.667
X23.99Y66.995
X23.99Y65.598
X23.99Y46.167
X23.99Y23.495
X23.99Y22.098
X23.99Y2.667
X24.003Y155.772
X24.003Y143.708
X24.003Y112.272
X24.003Y100.208
X24.003Y68.772
X24.003Y56.708
X24.003Y25.272
X24.003Y13.208
X24.13Y149.55
X24.13Y141.422
X24.13Y106.05
X24.13Y97.922
X24.13Y62.55
X24.13Y54.422
X24.13Y19.05
X24.13Y10.922
X24.257Y140.406
X24.257Y96.906
X24.257Y53.406
X24.257Y9.906
X24.384Y142.946
X24.384Y138.958
X24.384Y99.446
X24.384Y95.458
X24.384Y55.946
X24.384Y51.958
X24.384Y12.446
X24.384Y8.458
X24.511Y159.583
X24.511Y154.63
X24.511Y148.915
X24.511Y132.532
X24.511Y116.083
X24.511Y111.13
X24.511Y105.415
X24.511Y89.032
X24.511Y72.583
X24.511Y67.63
X24.511Y61.915
X24.511Y45.532
X24.511Y29.083
X24.511Y24.13
X24.511Y18.415
X24.511Y2.032
X24.524Y147.007
X24.524Y103.507
X24.524Y60.007
X24.524Y16.507
X24.765Y169.616
X24.765Y165.679
X24.765Y164.155
X24.765Y126.116
X24.765Y122.179
X24.765Y120.655
X24.765Y82.616
X24.765Y78.679
X24.765Y77.155
X24.765Y39.116
X24.765Y35.179
X24.765Y33.655
X25.4Y164.79
X25.4Y163.52
X25.4Y121.29
X25.4Y120.02
X25.4Y77.79
X25.4Y76.52
X25.4Y34.29
X25.4Y33.02
X25.466Y144.0
X25.466Y100.5
X25.466Y57.0
X25.466Y13.5
X25.527Y141.168
X25.527Y97.668
X25.527Y54.168
X25.527Y10.668
X25.654Y151.836
X25.654Y150.185
X25.654Y108.336
X25.654Y106.685
X25.654Y64.836
X25.654Y63.185
X25.654Y21.336
X25.654Y19.685
X25.908Y134.945
X25.908Y91.445
X25.908Y47.945
X25.908Y4.445
X26.035Y161.742
X26.035Y118.242
X26.035Y74.742
X26.035Y31.242
X27.305Y163.901
X27.305Y163.012
X27.305Y161.615
X27.305Y160.345
X27.305Y157.805
X27.305Y155.265
X27.305Y151.455
X27.305Y145.105
X27.305Y136.215
X27.305Y133.675
X27.305Y120.401
X27.305Y119.512
X27.305Y118.115
X27.305Y116.845
X27.305Y114.305
X27.305Y111.765
X27.305Y107.955
X27.305Y101.605
X27.305Y92.715
X27.305Y90.175
X27.305Y76.901
X27.305Y76.012
X27.305Y74.615
X27.305Y73.345
X27.305Y70.805
X27.305Y68.265
X27.305Y64.455
X27.305Y58.105
X27.305Y49.215
X27.305Y46.675
X27.305Y33.401
X27.305Y32.512
X27.305Y31.115
X27.305Y29.845
X27.305Y27.305
X27.305Y24.765
X27.305Y20.955
X27.305Y14.605
X27.305Y5.715
X27.305Y3.175
X27.813Y169.616
X27.813Y165.679
X27.813Y126.116
X27.813Y122.179
X27.813Y82.616
X27.813Y78.679
X27.813Y39.116
X27.813Y35.179
X28.194Y164.79
X28.194Y163.901
X28.194Y121.29
X28.194Y120.401
X28.194Y77.79
X28.194Y76.901
X28.194Y34.29
X28.194Y33.401
X28.575Y163.012
X28.575Y161.615
X28.575Y160.345
X28.575Y159.075
X28.575Y157.805
X28.575Y155.265
X28.575Y151.455
X28.575Y147.645
X28.575Y136.215
X28.575Y133.675
X28.575Y119.512
X28.575Y118.115
X28.575Y116.845
X28.575Y115.575
X28.575Y114.305
X28.575Y111.765
X28.575Y107.955
X28.575Y104.145
X28.575Y92.715
X28.575Y90.175
X28.575Y76.012
X28.575Y74.615
X28.575Y73.345
X28.575Y72.075
X28.575Y70.805
X28.575Y68.265
X28.575Y64.455
X28.575Y60.645
X28.575Y49.215
X28.575Y46.675
X28.575Y32.512
X28.575Y31.115
X28.575Y29.845
X28.575Y28.575
X28.575Y27.305
X28.575Y24.765
X28.575Y20.955
X28.575Y17.145
X28.575Y5.715
X28.575Y3.175
X29.591Y132.037
X29.591Y88.537
X29.591Y45.037
X29.591Y1.537
X29.845Y160.345
X29.845Y159.075
X29.845Y116.845
X29.845Y115.575
X29.845Y73.345
X29.845Y72.075
X29.845Y29.845
X29.845Y28.575
X29.972Y141.295
X29.972Y97.795
X29.972Y54.295
X29.972Y10.795
X30.226Y166.949
X30.226Y164.536
X30.226Y145.867
X30.226Y123.449
X30.226Y121.036
X30.226Y102.367
X30.226Y79.949
X30.226Y77.536
X30.226Y58.867
X30.226Y36.449
X30.226Y34.036
X30.226Y15.367
X30.607Y157.551
X30.607Y114.051
X30.607Y70.551
X30.607Y27.051
X30.861Y153.22
X30.861Y109.72
X30.861Y66.22
X30.861Y22.72
X31.0Y170.849
X31.0Y127.348
X31.0Y83.849
X31.0Y40.349
X31.115Y161.615
X31.115Y160.345
X31.115Y159.075
X31.115Y134.945
X31.115Y133.675
X31.115Y118.115
X31.115Y116.845
X31.115Y115.575
X31.115Y91.445
X31.115Y90.175
X31.115Y74.615
X31.115Y73.345
X31.115Y72.075
X31.115Y47.945
X31.115Y46.675
X31.115Y31.115
X31.115Y29.845
X31.115Y28.575
X31.115Y4.445
X31.115Y3.175
X31.148Y155.913
X31.148Y112.413
X31.148Y68.913
X31.148Y25.413
X31.369Y157.551
X31.369Y138.628
X31.369Y137.739
X31.369Y137.015
X31.369Y114.051
X31.369Y95.128
X31.369Y94.239
X31.369Y93.515
X31.369Y70.551
X31.369Y51.628
X31.369Y50.739
X31.369Y50.015
X31.369Y27.051
X31.369Y8.128
X31.369Y7.239
X31.369Y6.515
X31.636Y167.584
X31.636Y124.084
X31.636Y80.584
X31.636Y37.084
X31.75Y156.294
X31.75Y152.598
X31.75Y151.455
X31.75Y144.47
X31.75Y112.794
X31.75Y109.098
X31.75Y107.955
X31.75Y100.97
X31.75Y69.294
X31.75Y65.598
X31.75Y64.455
X31.75Y57.47
X31.75Y25.794
X31.75Y22.098
X31.75Y20.955
X31.75Y13.97
X31.877Y170.886
X31.877Y147.518
X31.877Y127.386
X31.877Y104.018
X31.877Y83.886
X31.877Y60.518
X31.877Y40.386
X31.877Y17.018
X32.004Y166.949
X32.004Y123.449
X32.004Y79.949
X32.004Y36.449
X32.385Y159.075
X32.385Y134.945
X32.385Y115.575
X32.385Y91.445
X32.385Y72.075
X32.385Y47.945
X32.385Y28.575
X32.385Y4.445
X32.512Y167.584
X32.512Y124.084
X32.512Y80.584
X32.512Y37.084
X32.766Y164.536
X32.766Y141.168
X32.766Y121.036
X32.766Y97.668
X32.766Y77.536
X32.766Y54.168
X32.766Y34.036
X32.766Y10.668
X33.013Y150.7
X33.013Y107.2
X33.013Y63.7
X33.013Y20.2
X33.02Y166.949
X33.02Y137.358
X33.02Y123.449
X33.02Y93.858
X33.02Y79.949
X33.02Y50.358
X33.02Y36.449
X33.02Y6.858
X33.528Y143.581
X33.528Y100.081
X33.528Y56.581
X33.528Y13.081
X34.036Y167.711
X34.036Y166.949
X34.036Y124.211
X34.036Y123.449
X34.036Y80.711
X34.036Y79.949
X34.036Y37.211
X34.036Y36.449
X34.226Y162.11
X34.226Y118.61
X34.226Y75.11
X34.226Y31.61
X34.29Y149.804
X34.29Y141.14
X34.29Y106.304
X34.29Y97.64
X34.29Y62.804
X34.29Y54.14
X34.29Y19.304
X34.29Y10.64
X34.671Y138.12
X34.671Y94.62
X34.671Y51.12
X34.671Y7.62
X34.798Y144.47
X34.798Y100.97
X34.798Y57.47
X34.798Y13.97
X34.925Y153.22
X34.925Y136.315
X34.925Y133.675
X34.925Y109.72
X34.925Y92.815
X34.925Y90.175
X34.925Y66.22
X34.925Y49.315
X34.925Y46.675
X34.925Y22.72
X34.925Y5.815
X34.925Y3.175
X34.963Y162.11
X34.963Y118.61
X34.963Y75.11
X34.963Y31.61
X35.179Y149.55
X35.179Y147.518
X35.179Y145.231
X35.179Y106.05
X35.179Y104.018
X35.179Y101.731
X35.179Y62.55
X35.179Y60.518
X35.179Y58.231
X35.179Y19.05
X35.179Y17.018
X35.179Y14.731
X35.687Y162.123
X35.687Y152.725
X35.687Y118.623
X35.687Y109.225
X35.687Y75.123
X35.687Y65.725
X35.687Y31.623
X35.687Y22.225
X35.941Y142.946
X35.941Y136.596
X35.941Y99.446
X35.941Y93.096
X35.941Y55.946
X35.941Y49.596
X35.941Y12.446
X35.941Y6.096
X36.068Y145.105
X36.068Y140.406
X36.068Y101.605
X36.068Y96.906
X36.068Y58.105
X36.068Y53.406
X36.068Y14.605
X36.068Y9.906
X36.195Y161.615
X36.195Y159.075
X36.195Y150.185
X36.195Y134.945
X36.195Y118.115
X36.195Y115.575
X36.195Y106.685
X36.195Y91.445
X36.195Y74.615
X36.195Y72.075
X36.195Y63.185
X36.195Y47.945
X36.195Y31.115
X36.195Y28.575
X36.195Y19.685
X36.195Y4.445
X36.449Y138.628
X36.449Y95.128
X36.449Y51.628
X36.449Y8.128
X36.576Y148.28
X36.576Y104.78
X36.576Y61.28
X36.576Y17.78
X36.83Y162.123
X36.83Y118.623
X36.83Y75.123
X36.83Y31.623
X37.338Y149.423
X37.338Y148.28
X37.338Y105.923
X37.338Y104.78
X37.338Y62.423
X37.338Y61.28
X37.338Y18.923
X37.338Y17.78
X37.465Y160.345
X37.465Y116.845
X37.465Y73.345
X37.465Y29.845
X38.1Y139.898
X38.1Y96.398
X38.1Y52.898
X38.1Y9.398
X38.481Y162.123
X38.481Y118.623
X38.481Y75.123
X38.481Y31.623
X38.735Y159.075
X38.735Y133.675
X38.735Y132.278
X38.735Y115.575
X38.735Y90.175
X38.735Y88.778
X38.735Y72.075
X38.735Y46.675
X38.735Y45.278
X38.735Y28.575
X38.735Y3.175
X38.735Y1.778
X38.989Y170.378
X38.989Y166.949
X38.989Y126.878
X38.989Y123.449
X38.989Y83.378
X38.989Y79.949
X38.989Y39.878
X38.989Y36.449
X39.116Y140.152
X39.116Y96.652
X39.116Y53.152
X39.116Y9.652
X39.624Y148.28
X39.624Y104.78
X39.624Y61.28
X39.624Y17.78
X39.751Y162.123
X39.751Y118.623
X39.751Y75.123
X39.751Y31.623
X39.878Y156.408
X39.878Y145.105
X39.878Y144.216
X39.878Y112.908
X39.878Y101.605
X39.878Y100.716
X39.878Y69.408
X39.878Y58.105
X39.878Y57.216
X39.878Y25.908
X39.878Y14.605
X39.878Y13.716
X40.004Y170.377
X40.004Y126.877
X40.004Y83.377
X40.004Y39.877
X40.005Y166.949
X40.005Y133.675
X40.005Y123.449
X40.005Y90.175
X40.005Y79.949
X40.005Y46.675
X40.005Y36.449
X40.005Y3.175
X40.513Y139.39
X40.513Y95.89
X40.513Y52.39
X40.513Y8.89
X40.64Y152.598
X40.64Y109.098
X40.64Y65.598
X40.64Y22.098
X40.767Y169.377
X40.767Y168.615
X40.767Y167.838
X40.767Y167.076
X40.767Y164.142
X40.767Y147.137
X40.767Y125.877
X40.767Y125.115
X40.767Y124.338
X40.767Y123.576
X40.767Y120.642
X40.767Y103.637
X40.767Y82.377
X40.767Y81.615
X40.767Y80.838
X40.767Y80.076
X40.767Y77.142
X40.767Y60.137
X40.767Y38.877
X40.767Y38.115
X40.767Y37.338
X40.767Y36.576
X40.767Y33.642
X40.767Y16.637
X41.402Y156.408
X41.402Y112.908
X41.402Y69.408
X41.402Y25.908
X41.656Y149.931
X41.656Y106.431
X41.656Y62.931
X41.656Y19.431
X41.783Y164.155
X41.783Y120.655
X41.783Y77.155
X41.783Y33.655
X41.91Y132.278
X41.91Y88.778
X41.91Y45.278
X41.91Y1.778
X42.164Y153.22
X42.164Y109.72
X42.164Y66.22
X42.164Y22.72
X42.545Y150.058
X42.545Y133.675
X42.545Y106.558
X42.545Y90.175
X42.545Y63.058
X42.545Y46.675
X42.545Y19.558
X42.545Y3.175
X42.926Y166.187
X42.926Y165.298
X42.926Y122.687
X42.926Y121.798
X42.926Y79.187
X42.926Y78.298
X42.926Y35.687
X42.926Y34.798
X43.815Y138.628
X43.815Y95.128
X43.815Y51.628
X43.815Y8.128
X44.069Y163.393
X44.069Y119.893
X44.069Y76.393
X44.069Y32.893
X44.323Y149.169
X44.323Y105.669
X44.323Y62.169
X44.323Y18.669
X44.332Y168.473
X44.332Y124.973
X44.332Y81.473
X44.332Y37.973
X45.085Y159.075
X45.085Y132.278
X45.085Y115.575
X45.085Y88.778
X45.085Y72.075
X45.085Y45.278
X45.085Y28.575
X45.085Y1.778
X45.339Y171.775
X45.339Y128.275
X45.339Y84.775
X45.339Y41.275
X45.72Y161.996
X45.72Y147.391
X45.72Y118.496
X45.72Y103.891
X45.72Y74.996
X45.72Y60.391
X45.72Y31.496
X45.72Y16.891
X46.228Y169.743
X46.228Y126.243
X46.228Y82.743
X46.228Y39.243
X46.355Y160.345
X46.355Y132.278
X46.355Y116.845
X46.355Y88.778
X46.355Y73.345
X46.355Y45.278
X46.355Y29.845
X46.355Y1.778
X46.609Y139.644
X46.609Y96.144
X46.609Y52.644
X46.609Y9.144
X46.736Y152.101
X46.736Y108.601
X46.736Y65.101
X46.736Y21.601
X47.498Y163.533
X47.498Y120.033
X47.498Y76.533
X47.498Y33.033
X47.625Y159.075
X47.625Y134.868
X47.625Y133.662
X47.625Y115.575
X47.625Y91.368
X47.625Y90.162
X47.625Y72.075
X47.625Y47.868
X47.625Y46.662
X47.625Y28.575
X47.625Y4.368
X47.625Y3.162
X47.816Y152.28
X47.816Y108.78
X47.816Y65.281
X47.816Y21.78
X48.26Y163.533
X48.26Y149.931
X48.26Y149.23
X48.26Y148.28
X48.26Y120.033
X48.26Y106.431
X48.26Y105.73
X48.26Y104.78
X48.26Y76.533
X48.26Y62.931
X48.26Y62.23
X48.26Y61.28
X48.26Y33.033
X48.26Y19.431
X48.26Y18.73
X48.26Y17.78
X48.527Y151.709
X48.527Y108.209
X48.527Y64.709
X48.527Y21.209
X48.641Y153.714
X48.641Y110.214
X48.641Y66.714
X48.641Y23.214
X48.768Y156.916
X48.768Y113.416
X48.768Y69.916
X48.768Y26.416
X48.895Y160.345
X48.895Y133.675
X48.895Y116.845
X48.895Y90.175
X48.895Y73.345
X48.895Y46.675
X48.895Y29.845
X48.895Y3.175
X49.022Y154.871
X49.022Y111.371
X49.022Y67.871
X49.022Y24.371
X49.263Y151.709
X49.263Y108.209
X49.263Y64.709
X49.263Y21.209
X49.53Y157.17
X49.53Y113.67
X49.53Y70.17
X49.53Y26.67
X49.657Y152.979
X49.657Y109.479
X49.657Y65.979
X49.657Y22.479
X49.847Y154.947
X49.847Y111.447
X49.847Y67.947
X49.847Y24.447
X50.165Y159.075
X50.165Y134.868
X50.165Y115.575
X50.165Y91.368
X50.165Y72.075
X50.165Y47.868
X50.165Y28.575
X50.165Y4.368
X50.8Y161.996
X50.8Y118.496
X50.8Y74.996
X50.8Y31.496
X50.927Y157.17
X50.927Y113.67
X50.927Y70.17
X50.927Y26.67
X51.181Y171.775
X51.181Y128.275
X51.181Y84.775
X51.181Y41.275
X51.435Y133.675
X51.435Y90.175
X51.435Y46.675
X51.435Y3.175
X52.07Y161.996
X52.07Y118.496
X52.07Y74.996
X52.07Y31.496
X52.705Y159.075
X52.705Y138.755
X52.705Y136.215
X52.705Y115.575
X52.705Y95.255
X52.705Y92.715
X52.705Y72.075
X52.705Y51.755
X52.705Y49.215
X52.705Y28.575
X52.705Y8.255
X52.705Y5.715
X53.975Y160.345
X53.975Y157.805
X53.975Y152.725
X53.975Y148.915
X53.975Y143.835
X53.975Y141.295
X53.975Y116.845
X53.975Y114.305
X53.975Y109.225
X53.975Y105.415
X53.975Y100.335
X53.975Y97.795
X53.975Y73.345
X53.975Y70.805
X53.975Y65.725
X53.975Y61.915
X53.975Y56.835
X53.975Y54.295
X53.975Y29.845
X53.975Y27.305
X53.975Y22.225
X53.975Y18.415
X53.975Y13.335
X53.975Y10.795
X54.102Y163.52
X54.102Y120.02
X54.102Y76.52
X54.102Y33.02
X55.88Y169.489
X55.88Y133.04
X55.88Y125.989
X55.88Y89.54
X55.88Y82.489
X55.88Y46.04
X55.88Y38.989
X55.88Y2.54
X62.286Y144.47
X62.286Y100.97
X62.286Y57.47
X62.286Y13.97
X62.794Y149.55
X62.794Y148.28
X62.794Y106.05
X62.794Y104.78
X62.794Y62.55
X62.794Y61.28
X62.794Y19.05
X62.794Y17.78
X63.162Y165.298
X63.162Y121.798
X63.162Y78.298
X63.162Y34.798
X63.175Y166.06
X63.175Y164.536
X63.175Y136.85
X63.175Y122.56
X63.175Y121.036
X63.175Y93.35
X63.175Y79.06
X63.175Y77.536
X63.175Y49.85
X63.175Y35.56
X63.175Y34.036
X63.175Y6.35
X63.683Y163.901
X63.683Y120.401
X63.683Y76.901
X63.683Y33.401
X63.81Y171.14
X63.81Y169.87
X63.81Y167.33
X63.81Y127.64
X63.81Y126.37
X63.81Y123.83
X63.81Y84.14
X63.81Y82.87
X63.81Y80.33
X63.81Y40.64
X63.81Y39.37
X63.81Y36.83
X65.715Y163.647
X65.715Y120.147
X65.715Y76.647
X65.715Y33.147
X65.842Y158.44
X65.842Y144.978
X65.842Y143.835
X65.842Y142.565
X65.842Y114.94
X65.842Y101.478
X65.842Y100.335
X65.842Y99.065
X65.842Y71.44
X65.842Y57.978
X65.842Y56.835
X65.842Y55.565
X65.842Y27.94
X65.842Y14.478
X65.842Y13.335
X65.842Y12.065
X65.969Y139.022
X65.969Y95.522
X65.969Y52.022
X65.969Y8.522
X66.35Y146.248
X66.35Y102.748
X66.35Y59.248
X66.35Y15.748
X66.985Y163.647
X66.985Y161.615
X66.985Y160.726
X66.985Y120.147
X66.985Y118.115
X66.985Y117.226
X66.985Y76.647
X66.985Y74.615
X66.985Y73.726
X66.985Y33.147
X66.985Y31.115
X66.985Y30.226
X67.366Y143.454
X67.366Y99.954
X67.366Y56.454
X67.366Y12.954
X67.493Y165.679
X67.493Y122.179
X67.493Y78.679
X67.493Y35.179
X67.62Y157.678
X67.62Y114.178
X67.62Y70.678
X67.62Y27.178
X67.671Y148.458
X67.671Y104.958
X67.671Y61.458
X67.671Y17.958
X67.747Y154.376
X67.747Y110.876
X67.747Y67.376
X67.747Y23.876
X67.861Y153.487
X67.861Y109.987
X67.861Y66.487
X67.861Y22.987
X68.128Y142.692
X68.128Y99.192
X68.128Y55.692
X68.128Y12.192
X68.255Y139.136
X68.255Y95.636
X68.255Y52.136
X68.255Y8.636
X68.382Y147.137
X68.382Y103.637
X68.382Y60.137
X68.382Y16.637
X68.509Y166.949
X68.509Y156.281
X68.509Y123.449
X68.509Y112.781
X68.509Y79.949
X68.509Y69.281
X68.509Y36.449
X68.509Y25.781
X68.636Y151.836
X68.636Y108.336
X68.636Y64.836
X68.636Y21.336
X68.903Y153.487
X68.903Y109.987
X68.903Y66.487
X68.903Y22.987
X69.525Y154.249
X69.525Y110.749
X69.525Y67.249
X69.525Y23.749
X69.652Y169.108
X69.652Y125.608
X69.652Y82.108
X69.652Y38.608
X70.16Y152.09
X70.16Y108.59
X70.16Y65.09
X70.16Y21.59
X70.236Y150.896
X70.236Y107.396
X70.236Y63.896
X70.236Y20.396
X70.414Y158.03
X70.414Y114.53
X70.414Y71.03
X70.414Y27.53
X70.668Y156.154
X70.668Y147.137
X70.668Y112.654
X70.668Y103.637
X70.668Y69.154
X70.668Y60.137
X70.668Y25.654
X70.668Y16.637
X71.176Y158.948
X71.176Y115.448
X71.176Y71.948
X71.176Y28.448
X71.684Y145.486
X71.684Y101.986
X71.684Y58.486
X71.684Y14.986
X72.192Y169.108
X72.192Y157.551
X72.192Y125.608
X72.192Y114.051
X72.192Y82.108
X72.192Y70.551
X72.192Y38.608
X72.192Y27.051
X73.208Y169.108
X73.208Y125.608
X73.208Y82.108
X73.208Y38.608
X73.589Y169.831
X73.589Y126.331
X73.589Y82.831
X73.589Y39.331
X73.716Y156.154
X73.716Y112.654
X73.716Y69.154
X73.716Y25.654
X73.97Y158.948
X73.97Y153.36
X73.97Y142.668
X73.97Y141.668
X73.97Y115.448
X73.97Y109.86
X73.97Y99.168
X73.97Y98.168
X73.97Y71.948
X73.97Y66.36
X73.97Y55.668
X73.97Y54.668
X73.97Y28.448
X73.97Y22.86
X73.97Y12.168
X73.97Y11.168
X74.097Y157.805
X74.097Y114.305
X74.097Y70.805
X74.097Y27.305
X74.351Y139.644
X74.351Y96.144
X74.351Y52.644
X74.351Y9.144
X74.478Y169.831
X74.478Y140.66
X74.478Y126.331
X74.478Y97.16
X74.478Y82.831
X74.478Y53.66
X74.478Y39.331
X74.478Y10.16
X74.91Y164.46
X74.91Y120.96
X74.91Y77.46
X74.91Y33.96
X74.986Y154.884
X74.986Y151.823
X74.986Y144.089
X74.986Y111.384
X74.986Y108.323
X74.986Y100.589
X74.986Y67.884
X74.986Y64.823
X74.986Y57.089
X74.986Y24.384
X74.986Y21.323
X74.986Y13.589
X75.24Y169.831
X75.24Y126.331
X75.24Y82.831
X75.24Y39.331
X75.367Y156.535
X75.367Y113.035
X75.367Y69.535
X75.367Y26.035
X75.621Y152.979
X75.621Y109.479
X75.621Y65.979
X75.621Y22.479
X75.748Y164.536
X75.748Y121.036
X75.748Y77.536
X75.748Y34.036
X76.129Y153.741
X76.129Y110.241
X76.129Y66.741
X76.129Y23.241
X76.383Y144.089
X76.383Y100.589
X76.383Y57.089
X76.383Y13.589
X76.637Y155.265
X76.637Y111.765
X76.637Y68.265
X76.637Y24.765
X76.764Y164.536
X76.764Y140.66
X76.764Y121.036
X76.764Y97.16
X76.764Y77.536
X76.764Y53.66
X76.764Y34.036
X76.764Y10.16
X76.891Y151.823
X76.891Y108.323
X76.891Y64.823
X76.891Y21.323
X77.145Y168.346
X77.145Y167.063
X77.145Y124.846
X77.145Y123.563
X77.145Y81.346
X77.145Y80.063
X77.145Y37.846
X77.145Y36.563
X77.653Y154.249
X77.653Y148.788
X77.653Y110.749
X77.653Y105.288
X77.653Y67.249
X77.653Y61.788
X77.653Y23.749
X77.653Y18.288
X77.78Y169.742
X77.78Y126.242
X77.78Y82.742
X77.78Y39.242
X77.907Y156.141
X77.907Y112.641
X77.907Y69.141
X77.907Y25.641
X78.034Y158.313
X78.034Y152.598
X78.034Y114.813
X78.034Y109.098
X78.034Y71.313
X78.034Y65.598
X78.034Y27.813
X78.034Y22.098
X78.161Y157.297
X78.161Y113.797
X78.161Y70.297
X78.161Y26.797
X78.288Y140.66
X78.288Y97.16
X78.288Y53.66
X78.288Y10.16
X78.542Y164.536
X78.542Y143.835
X78.542Y121.036
X78.542Y100.335
X78.542Y77.536
X78.542Y56.835
X78.542Y34.036
X78.542Y13.335
X78.796Y155.773
X78.796Y112.273
X78.796Y68.773
X78.796Y25.273
X78.923Y157.805
X78.923Y114.305
X78.923Y70.805
X78.923Y27.305
X79.05Y152.09
X79.05Y108.59
X79.05Y65.09
X79.05Y21.59
X79.304Y142.438
X79.304Y98.938
X79.304Y55.438
X79.304Y11.938
X79.558Y158.44
X79.558Y114.94
X79.558Y71.44
X79.558Y27.94
X79.618Y146.816
X79.618Y103.316
X79.618Y59.816
X79.618Y16.316
X79.685Y147.859
X79.685Y104.359
X79.685Y60.859
X79.685Y17.359
X79.939Y164.536
X79.939Y121.036
X79.939Y77.536
X79.939Y34.036
X80.066Y170.759
X80.066Y127.259
X80.066Y83.759
X80.066Y40.259
X80.193Y148.407
X80.193Y104.907
X80.193Y61.407
X80.193Y17.907
X80.32Y155.9
X80.32Y151.074
X80.32Y112.4
X80.32Y107.574
X80.32Y68.9
X80.32Y64.074
X80.32Y25.4
X80.32Y20.574
X80.828Y170.759
X80.828Y127.259
X80.828Y83.759
X80.828Y40.259
X80.955Y163.647
X80.955Y162.898
X80.955Y120.147
X80.955Y119.398
X80.955Y76.647
X80.955Y75.898
X80.955Y33.147
X80.955Y32.398
X81.082Y158.453
X81.082Y147.137
X81.082Y143.581
X81.082Y114.953
X81.082Y103.637
X81.082Y100.081
X81.082Y71.453
X81.082Y60.137
X81.082Y56.581
X81.082Y27.953
X81.082Y16.637
X81.082Y13.081
X81.209Y150.132
X81.209Y141.295
X81.209Y140.406
X81.209Y139.009
X81.209Y106.632
X81.209Y97.795
X81.209Y96.906
X81.209Y95.509
X81.209Y63.132
X81.209Y54.295
X81.209Y53.406
X81.209Y52.009
X81.209Y19.632
X81.209Y10.795
X81.209Y9.906
X81.209Y8.509
X82.225Y163.266
X82.225Y119.766
X82.225Y76.266
X82.225Y32.766
X82.86Y167.33
X82.86Y166.06
X82.86Y164.79
X82.86Y123.83
X82.86Y122.56
X82.86Y121.29
X82.86Y80.33
X82.86Y79.06
X82.86Y77.79
X82.86Y36.83
X82.86Y35.56
X82.86Y34.29
X83.368Y135.58
X83.368Y134.183
X83.368Y131.77
X83.368Y92.08
X83.368Y90.683
X83.368Y88.27
X83.368Y48.58
X83.368Y47.183
X83.368Y44.77
X83.368Y5.08
X83.368Y3.683
X83.368Y1.27
X83.381Y136.469
X83.381Y92.969
X83.381Y49.469
X83.381Y5.969
X83.99Y153.995
X83.99Y152.598
X83.99Y133.167
X83.99Y110.495
X83.99Y109.098
X83.99Y89.667
X83.99Y66.995
X83.99Y65.598
X83.99Y46.167
X83.99Y23.495
X83.99Y22.098
X83.99Y2.667
X84.003Y155.772
X84.003Y143.708
X84.003Y112.272
X84.003Y100.208
X84.003Y68.772
X84.003Y56.708
X84.003Y25.272
X84.003Y13.208
X84.13Y149.55
X84.13Y141.422
X84.13Y106.05
X84.13Y97.922
X84.13Y62.55
X84.13Y54.422
X84.13Y19.05
X84.13Y10.922
X84.257Y140.406
X84.257Y96.906
X84.257Y53.406
X84.257Y9.906
X84.384Y142.946
X84.384Y138.958
X84.384Y99.446
X84.384Y95.458
X84.384Y55.946
X84.384Y51.958
X84.384Y12.446
X84.384Y8.458
X84.511Y159.583
X84.511Y154.63
X84.511Y148.915
X84.511Y132.532
X84.511Y116.083
X84.511Y111.13
X84.511Y105.415
X84.511Y89.032
X84.511Y72.583
X84.511Y67.63
X84.511Y61.915
X84.511Y45.532
X84.511Y29.083
X84.511Y24.13
X84.511Y18.415
X84.511Y2.032
X84.524Y147.007
X84.524Y103.507
X84.524Y60.007
X84.524Y16.507
X84.765Y169.616
X84.765Y165.679
X84.765Y164.155
X84.765Y126.116
X84.765Y122.179
X84.765Y120.655
X84.765Y82.616
X84.765Y78.679
X84.765Y77.155
X84.765Y39.116
X84.765Y35.179
X84.765Y33.655
X85.4Y164.79
X85.4Y163.52
X85.4Y121.29
X85.4Y120.02
X85.4Y77.79
X85.4Y76.52
X85.4Y34.29
X85.4Y33.02
X85.466Y144.0
X85.466Y100.5
X85.466Y57.0
X85.466Y13.5
X85.527Y141.168
X85.527Y97.668
X85.527Y54.168
X85.527Y10.668
X85.654Y151.836
X85.654Y150.185
X85.654Y108.336
X85.654Y106.685
X85.654Y64.836
X85.654Y63.185
X85.654Y21.336
X85.654Y19.685
X85.908Y134.945
X85.908Y91.445
X85.908Y47.945
X85.908Y4.445
X86.035Y161.742
X86.035Y118.242
X86.035Y74.742
X86.035Y31.242
X87.305Y163.901
X87.305Y163.012
X87.305Y161.615
X87.305Y160.345
X87.305Y157.805
X87.305Y155.265
X87.305Y151.455
X87.305Y145.105
X87.305Y136.215
X87.305Y133.675
X87.305Y120.401
X87.305Y119.512
X87.305Y118.115
X87.305Y116.845
X87.305Y114.305
X87.305Y111.765
X87.305Y107.955
X87.305Y101.605
X87.305Y92.715
X87.305Y90.175
X87.305Y76.901
X87.305Y76.012
X87.305Y74.615
X87.305Y73.345
X87.305Y70.805
X87.305Y68.265
X87.305Y64.455
X87.305Y58.105
X87.305Y49.215
X87.305Y46.675
X87.305Y33.401
X87.305Y32.512
X87.305Y31.115
X87.305Y29.845
X87.305Y27.305
X87.305Y24.765
X87.305Y20.955
X87.305Y14.605
X87.305Y5.715
X87.305Y3.175
X87.813Y169.616
X87.813Y165.679
X87.813Y126.116
X87.813Y122.179
X87.813Y82.616
X87.813Y78.679
X87.813Y39.116
X87.813Y35.179
X88.194Y164.79
X88.194Y163.901
X88.194Y121.29
X88.194Y120.401
X88.194Y77.79
X88.194Y76.901
X88.194Y34.29
X88.194Y33.401
X88.575Y163.012
X88.575Y161.615
X88.575Y160.345
X88.575Y159.075
X88.575Y157.805
X88.575Y155.265
X88.575Y151.455
X88.575Y147.645
X88.575Y136.215
X88.575Y133.675
X88.575Y119.512
X88.575Y118.115
X88.575Y116.845
X88.575Y115.575
X88.575Y114.305
X88.575Y111.765
X88.575Y107.955
X88.575Y104.145
X88.575Y92.715
X88.575Y90.175
X88.575Y76.012
X88.575Y74.615
X88.575Y73.345
X88.575Y72.075
X88.575Y70.805
X88.575Y68.265
X88.575Y64.455
X88.575Y60.645
X88.575Y49.215
X88.575Y46.675
X88.575Y32.512
X88.575Y31.115
X88.575Y29.845
X88.575Y28.575
X88.575Y27.305
X88.575Y24.765
X88.575Y20.955
X88.575Y17.145
X88.575Y5.715
X88.575Y3.175
X89.591Y132.037
X89.591Y88.537
X89.591Y45.037
X89.591Y1.537
X89.845Y160.345
X89.845Y159.075
X89.845Y116.845
X89.845Y115.575
X89.845Y73.345
X89.845Y72.075
X89.845Y29.845
X89.845Y28.575
X89.972Y141.295
X89.972Y97.795
X89.972Y54.295
X89.972Y10.795
X90.226Y166.949
X90.226Y164.536
X90.226Y145.867
X90.226Y123.449
X90.226Y121.036
X90.226Y102.367
X90.226Y79.949
X90.226Y77.536
X90.226Y58.867
X90.226Y36.449
X90.226Y34.036
X90.226Y15.367
X90.607Y157.551
X90.607Y114.051
X90.607Y70.551
X90.607Y27.051
X90.861Y153.22
X90.861Y109.72
X90.861Y66.22
X90.861Y22.72
X91.0Y170.849
X91.0Y127.348
X91.0Y83.849
X91.0Y40.349
X91.115Y161.615
X91.115Y160.345
X91.115Y159.075
X91.115Y134.945
X91.115Y133.675
X91.115Y118.115
X91.115Y116.845
X91.115Y115.575
X91.115Y91.445
X91.115Y90.175
X91.115Y74.615
X91.115Y73.345
X91.115Y72.075
X91.115Y47.945
X91.115Y46.675
X91.115Y31.115
X91.115Y29.845
X91.115Y28.575
X91.115Y4.445
X91.115Y3.175
X91.148Y155.913
X91.148Y112.413
X91.148Y68.913
X91.148Y25.413
X91.369Y157.551
X91.369Y138.628
X91.369Y137.739
X91.369Y137.015
X91.369Y114.051
X91.369Y95.128
X91.369Y94.239
X91.369Y93.515
X91.369Y70.551
X91.369Y51.628
X91.369Y50.739
X91.369Y50.015
X91.369Y27.051
X91.369Y8.128
X91.369Y7.239
X91.369Y6.515
X91.636Y167.584
X91.636Y124.084
X91.636Y80.584
X91.636Y37.084
X91.75Y156.294
X91.75Y152.598
X91.75Y151.455
X91.75Y144.47
X91.75Y112.794
X91.75Y109.098
X91.75Y107.955
X91.75Y100.97
X91.75Y69.294
X91.75Y65.598
X91.75Y64.455
X91.75Y57.47
X91.75Y25.794
X91.75Y22.098
X91.75Y20.955
X91.75Y13.97
X91.877Y170.886
X91.877Y147.518
X91.877Y127.386
X91.877Y104.018
X91.877Y83.886
X91.877Y60.518
X91.877Y40.386
X91.877Y17.018
X92.004Y166.949
X92.004Y123.449
X92.004Y79.949
X92.004Y36.449
X92.385Y159.075
X92.385Y134.945
X92.385Y115.575
X92.385Y91.445
X92.385Y72.075
X92.385Y47.945
X92.385Y28.575
X92.385Y4.445
X92.512Y167.584
X92.512Y124.084
X92.512Y80.584
X92.512Y37.084
X92.766Y164.536
X92.766Y141.168
X92.766Y121.036
X92.766Y97.668
X92.766Y77.536
X92.766Y54.168
X92.766Y34.036
X92.766Y10.668
X93.013Y150.7
X93.013Y107.2
X93.013Y63.7
X93.013Y20.2
X93.02Y166.949
X93.02Y137.358
X93.02Y123.449
X93.02Y93.858
X93.02Y79.949
X93.02Y50.358
X93.02Y36.449
X93.02Y6.858
X93.528Y143.581
X93.528Y100.081
X93.528Y56.581
X93.528Y13.081
X94.036Y167.711
X94.036Y166.949
X94.036Y124.211
X94.036Y123.449
X94.036Y80.711
X94.036Y79.949
X94.036Y37.211
X94.036Y36.449
X94.226Y162.11
X94.226Y118.61
X94.226Y75.11
X94.226Y31.61
X94.29Y149.804
X94.29Y141.14
X94.29Y106.304
X94.29Y97.64
X94.29Y62.804
X94.29Y54.14
X94.29Y19.304
X94.29Y10.64
X94.671Y138.12
X94.671Y94.62
X94.671Y51.12
X94.671Y7.62
X94.798Y144.47
X94.798Y100.97
X94.798Y57.47
X94.798Y13.97
X94.925Y153.22
X94.925Y136.315
X94.925Y133.675
X94.925Y109.72
X94.925Y92.815
X94.925Y90.175
X94.925Y66.22
X94.925Y49.315
X94.925Y46.675
X94.925Y22.72
X94.925Y5.815
X94.925Y3.175
X94.963Y162.11
X94.963Y118.61
X94.963Y75.11
X94.963Y31.61
X95.179Y149.55
X95.179Y147.518
X95.179Y145.231
X95.179Y106.05
X95.179Y104.018
X95.179Y101.731
X95.179Y62.55
X95.179Y60.518
X95.179Y58.231
X95.179Y19.05
X95.179Y17.018
X95.179Y14.731
X95.687Y162.123
X95.687Y152.725
X95.687Y118.623
X95.687Y109.225
X95.687Y75.123
X95.687Y65.725
X95.687Y31.623
X95.687Y22.225
X95.941Y142.946
X95.941Y136.596
X95.941Y99.446
X95.941Y93.096
X95.941Y55.946
X95.941Y49.596
X95.941Y12.446
X95.941Y6.096
X96.068Y145.105
X96.068Y140.406
X96.068Y101.605
X96.068Y96.906
X96.068Y58.105
X96.068Y53.406
X96.068Y14.605
X96.068Y9.906
X96.195Y161.615
X96.195Y159.075
X96.195Y150.185
X96.195Y134.945
X96.195Y118.115
X96.195Y115.575
X96.195Y106.685
X96.195Y91.445
X96.195Y74.615
X96.195Y72.075
X96.195Y63.185
X96.195Y47.945
X96.195Y31.115
X96.195Y28.575
X96.195Y19.685
X96.195Y4.445
X96.449Y138.628
X96.449Y95.128
X96.449Y51.628
X96.449Y8.128
X96.576Y148.28
X96.576Y104.78
X96.576Y61.28
X96.576Y17.78
X96.83Y162.123
X96.83Y118.623
X96.83Y75.123
X96.83Y31.623
X97.338Y149.423
X97.338Y148.28
X97.338Y105.923
X97.338Y104.78
X97.338Y62.423
X97.338Y61.28
X97.338Y18.923
X97.338Y17.78
X97.465Y160.345
X97.465Y116.845
X97.465Y73.345
X97.465Y29.845
X98.1Y139.898
X98.1Y96.398
X98.1Y52.898
X98.1Y9.398
X98.481Y162.123
X98.481Y118.623
X98.481Y75.123
X98.481Y31.623
X98.735Y159.075
X98.735Y133.675
X98.735Y132.278
X98.735Y115.575
X98.735Y90.175
X98.735Y88.778
X98.735Y72.075
X98.735Y46.675
X98.735Y45.278
X98.735Y28.575
X98.735Y3.175
X98.735Y1.778
X98.989Y170.378
X98.989Y166.949
X98.989Y126.878
X98.989Y123.449
X98.989Y83.378
X98.989Y79.949
X98.989Y39.878
X98.989Y36.449
X99.116Y140.152
X99.116Y96.652
X99.116Y53.152
X99.116Y9.652
X99.624Y148.28
X99.624Y104.78
X99.624Y61.28
X99.624Y17.78
X99.751Y162.123
X99.751Y118.623
X99.751Y75.123
X99.751Y31.623
X99.878Y156.408
X99.878Y145.105
X99.878Y144.216
X99.878Y112.908
X99.878Y101.605
X99.878Y100.716
X99.878Y69.408
X99.878Y58.105
X99.878Y57.216
X99.878Y25.908
X99.878Y14.605
X99.878Y13.716
X100.004Y170.377
X100.004Y126.877
X100.004Y83.377
X100.004Y39.877
X100.005Y166.949
X100.005Y133.675
X100.005Y123.449
X100.005Y90.175
X100.005Y79.949
X100.005Y46.675
X100.005Y36.449
X100.005Y3.175
X100.513Y139.39
X100.513Y95.89
X100.513Y52.39
X100.513Y8.89
X100.64Y152.598
X100.64Y109.098
X100.64Y65.598
X100.64Y22.098
X100.767Y169.377
X100.767Y168.615
X100.767Y167.838
X100.767Y167.076
X100.767Y164.142
X100.767Y147.137
X100.767Y125.877
X100.767Y125.115
X100.767Y124.338
X100.767Y123.576
X100.767Y120.642
X100.767Y103.637
X100.767Y82.377
X100.767Y81.615
X100.767Y80.838
X100.767Y80.076
X100.767Y77.142
X100.767Y60.137
X100.767Y38.877
X100.767Y38.115
X100.767Y37.338
X100.767Y36.576
X100.767Y33.642
X100.767Y16.637
X101.402Y156.408
X101.402Y112.908
X101.402Y69.408
X101.402Y25.908
X101.656Y149.931
X101.656Y106.431
X101.656Y62.931
X101.656Y19.431
X101.783Y164.155
X101.783Y120.655
X101.783Y77.155
X101.783Y33.655
X101.91Y132.278
X101.91Y88.778
X101.91Y45.278
X101.91Y1.778
X102.164Y153.22
X102.164Y109.72
X102.164Y66.22
X102.164Y22.72
X102.545Y150.058
X102.545Y133.675
X102.545Y106.558
X102.545Y90.175
X102.545Y63.058
X102.545Y46.675
X102.545Y19.558
X102.545Y3.175
X102.926Y166.187
X102.926Y165.298
X102.926Y122.687
X102.926Y121.798
X102.926Y79.187
X102.926Y78.298
X102.926Y35.687
X102.926Y34.798
X103.815Y138.628
X103.815Y95.128
X103.815Y51.628
X103.815Y8.128
X104.069Y163.393
X104.069Y119.893
X104.069Y76.393
X104.069Y32.893
X104.323Y149.169
X104.323Y105.669
X104.323Y62.169
X104.323Y18.669
X104.332Y168.473
X104.332Y124.973
X104.332Y81.473
X104.332Y37.973
X105.085Y159.075
X105.085Y132.278
X105.085Y115.575
X105.085Y88.778
X105.085Y72.075
X105.085Y45.278
X105.085Y28.575
X105.085Y1.778
X105.339Y171.775
X105.339Y128.275
X105.339Y84.775
X105.339Y41.275
X105.72Y161.996
X105.72Y147.391
X105.72Y118.496
X105.72Y103.891
X105.72Y74.996
X105.72Y60.391
X105.72Y31.496
X105.72Y16.891
X106.228Y169.743
X106.228Y126.243
X106.228Y82.743
X106.228Y39.243
X106.355Y160.345
X106.355Y132.278
X106.355Y116.845
X106.355Y88.778
X106.355Y73.345
X106.355Y45.278
X106.355Y29.845
X106.355Y1.778
X106.609Y139.644
X106.609Y96.144
X106.609Y52.644
X106.609Y9.144
X106.736Y152.101
X106.736Y108.601
X106.736Y65.101
X106.736Y21.601
X107.498Y163.533
X107.498Y120.033
X107.498Y76.533
X107.498Y33.033
X107.625Y159.075
X107.625Y134.868
X107.625Y133.662
X107.625Y115.575
X107.625Y91.368
X107.625Y90.162
X107.625Y72.075
X107.625Y47.868
X107.625Y46.662
X107.625Y28.575
X107.625Y4.368
X107.625Y3.162
X107.816Y152.28
X107.816Y108.78
X107.816Y65.281
X107.816Y21.78
X108.26Y163.533
X108.26Y149.931
X108.26Y149.23
X108.26Y148.28
X108.26Y120.033
X108.26Y106.431
X108.26Y105.73
X108.26Y104.78
X108.26Y76.533
X108.26Y62.931
X108.26Y62.23
X108.26Y61.28
X108.26Y33.033
X108.26Y19.431
X108.26Y18.73
X108.26Y17.78
X108.527Y151.709
X108.527Y108.209
X108.527Y64.709
X108.527Y21.209
X108.641Y153.714
X108.641Y110.214
X108.641Y66.714
X108.641Y23.214
X108.768Y156.916
X108.768Y113.416
X108.768Y69.916
X108.768Y26.416
X108.895Y160.345
X108.895Y133.675
X108.895Y116.845
X108.895Y90.175
X108.895Y73.345
X108.895Y46.675
X108.895Y29.845
X108.895Y3.175
X109.022Y154.871
X109.022Y111.371
X109.022Y67.871
X109.022Y24.371
X109.263Y151.709
X109.263Y108.209
X109.263Y64.709
X109.263Y21.209
X109.53Y157.17
X109.53Y113.67
X109.53Y70.17
X109.53Y26.67
X109.657Y152.979
X109.657Y109.479
X109.657Y65.979
X109.657Y22.479
X109.847Y154.947
X109.847Y111.447
X109.847Y67.947
X109.847Y24.447
X110.165Y159.075
X110.165Y134.868
X110.165Y115.575
X110.165Y91.368
X110.165Y72.075
X110.165Y47.868
X110.165Y28.575
X110.165Y4.368
X110.8Y161.996
X110.8Y118.496
X110.8Y74.996
X110.8Y31.496
X110.927Y157.17
X110.927Y113.67
X110.927Y70.17
X110.927Y26.67
X111.181Y171.775
X111.181Y128.275
X111.181Y84.775
X111.181Y41.275
X111.435Y133.675
X111.435Y90.175
X111.435Y46.675
X111.435Y3.175
X112.07Y161.996
X112.07Y118.496
X112.07Y74.996
X112.07Y31.496
X112.705Y159.075
X112.705Y138.755
X112.705Y136.215
X112.705Y115.575
X112.705Y95.255
X112.705Y92.715
X112.705Y72.075
X112.705Y51.755
X112.705Y49.215
X112.705Y28.575
X112.705Y8.255
X112.705Y5.715
X113.975Y160.345
X113.975Y157.805
X113.975Y152.725
X113.975Y148.915
X113.975Y143.835
X113.975Y141.295
X113.975Y116.845
X113.975Y114.305
X113.975Y109.225
X113.975Y105.415
X113.975Y100.335
X113.975Y97.795
X113.975Y73.345
X113.975Y70.805
X113.975Y65.725
X113.975Y61.915
X113.975Y56.835
X113.975Y54.295
X113.975Y29.845
X113.975Y27.305
X113.975Y22.225
X113.975Y18.415
X113.975Y13.335
X113.975Y10.795
X114.102Y163.52
X114.102Y120.02
X114.102Y76.52
X114.102Y33.02
X115.88Y169.489
X115.88Y133.04
X115.88Y125.989
X115.88Y89.54
X115.88Y82.489
X115.88Y46.04
X115.88Y38.989
X115.88Y2.54
T2
X1.27Y168.6
X1.27Y166.06
X1.27Y163.52
X1.27Y160.98
X1.27Y158.44
X1.27Y155.9
X1.27Y153.36
X1.27Y150.82
X1.27Y148.28
X1.27Y145.74
X1.27Y143.2
X1.27Y140.66
X1.27Y138.12
X1.27Y135.58
X1.27Y125.1
X1.27Y122.56
X1.27Y120.02
X1.27Y117.48
X1.27Y114.94
X1.27Y112.4
X1.27Y109.86
X1.27Y107.32
X1.27Y104.78
X1.27Y102.24
X1.27Y99.7
X1.27Y97.16
X1.27Y94.62
X1.27Y92.08
X1.27Y81.6
X1.27Y79.06
X1.27Y76.52
X1.27Y73.98
X1.27Y71.44
X1.27Y68.9
X1.27Y66.36
X1.27Y63.82
X1.27Y61.28
X1.27Y58.74
X1.27Y56.2
X1.27Y53.66
X1.27Y51.12
X1.27Y48.58
X1.27Y38.1
X1.27Y35.56
X1.27Y33.02
X1.27Y30.48
X1.27Y27.94
X1.27Y25.4
X1.27Y22.86
X1.27Y20.32
X1.27Y17.78
X1.27Y15.24
X1.27Y12.7
X1.27Y10.16
X1.27Y7.62
X1.27Y5.08
X61.27Y168.6
X61.27Y166.06
X61.27Y163.52
X61.27Y160.98
X61.27Y158.44
X61.27Y155.9
X61.27Y153.36
X61.27Y150.82
X61.27Y148.28
X61.27Y145.74
X61.27Y143.2
X61.27Y140.66
X61.27Y138.12
X61.27Y135.58
X61.27Y125.1
X61.27Y122.56
X61.27Y120.02
X61.27Y117.48
X61.27Y114.94
X61.27Y112.4
X61.27Y109.86
X61.27Y107.32
X61.27Y104.78
X61.27Y102.24
X61.27Y99.7
X61.27Y97.16
X61.27Y94.62
X61.27Y92.08
X61.27Y81.6
X61.27Y79.06
X61.27Y76.52
X61.27Y73.98
X61.27Y71.44
X61.27Y68.9
X61.27Y66.36
X61.27Y63.82
X61.27Y61.28
X61.27Y58.74
X61.27Y56.2
X61.27Y53.66
X61.27Y51.12
X61.27Y48.58
X61.27Y38.1
X61.27Y35.56
X61.27Y33.02
X61.27Y30.48
X61.27Y27.94
X61.27Y25.4
X61.27Y22.86
X61.27Y20.32
X61.27Y17.78
X61.27Y15.24
X61.27Y12.7
X61.27Y10.16
X61.27Y7.62
X61.27Y5.08
M30
